%TF.GenerationSoftware,KiCad,Pcbnew,(5.1.6-0-10_14)*%
%TF.CreationDate,2020-07-02T17:02:21+02:00*%
%TF.ProjectId,x68k-ioboard,7836386b-2d69-46f6-926f-6172642e6b69,rev?*%
%TF.SameCoordinates,Original*%
%TF.FileFunction,Soldermask,Top*%
%TF.FilePolarity,Negative*%
%FSLAX46Y46*%
G04 Gerber Fmt 4.6, Leading zero omitted, Abs format (unit mm)*
G04 Created by KiCad (PCBNEW (5.1.6-0-10_14)) date 2020-07-02 17:02:21*
%MOMM*%
%LPD*%
G01*
G04 APERTURE LIST*
%ADD10C,1.800000*%
%ADD11C,3.800000*%
%ADD12C,0.254000*%
G04 APERTURE END LIST*
D10*
%TO.C,1*%
X164460000Y-165460000D03*
%TD*%
%TO.C,1*%
X164460000Y-162960000D03*
%TD*%
%TO.C,1*%
X123860000Y-38500000D03*
%TD*%
%TO.C,1*%
X161960000Y-162960000D03*
%TD*%
%TO.C,1*%
X159420000Y-46120000D03*
%TD*%
%TO.C,1*%
X161960000Y-48660000D03*
%TD*%
%TO.C,1*%
X161960000Y-61360000D03*
%TD*%
%TO.C,1*%
X161960000Y-74060000D03*
%TD*%
%TO.C,1*%
X161960000Y-86760000D03*
%TD*%
%TO.C,1*%
X161960000Y-99460000D03*
%TD*%
%TO.C,1*%
X161960000Y-112160000D03*
%TD*%
%TO.C,1*%
X161960000Y-124860000D03*
%TD*%
%TO.C,1*%
X161960000Y-137560000D03*
%TD*%
%TO.C,1*%
X161960000Y-150260000D03*
%TD*%
%TO.C,1*%
X159420000Y-168040000D03*
%TD*%
%TO.C,1*%
X161960000Y-165500000D03*
%TD*%
%TO.C,1*%
X149260000Y-175660000D03*
%TD*%
%TO.C,1*%
X136560000Y-175660000D03*
%TD*%
%TO.C,1*%
X123860000Y-175660000D03*
%TD*%
%TO.C,1*%
X111160000Y-175660000D03*
%TD*%
%TO.C,1*%
X98460000Y-175660000D03*
%TD*%
%TO.C,1*%
X85760000Y-175660000D03*
%TD*%
%TO.C,1*%
X73060000Y-175660000D03*
%TD*%
%TO.C,1*%
X60360000Y-175660000D03*
%TD*%
%TO.C,1*%
X149260000Y-38500000D03*
%TD*%
%TO.C,1*%
X136560000Y-38500000D03*
%TD*%
%TO.C,1*%
X111160000Y-38500000D03*
%TD*%
%TO.C,1*%
X98460000Y-38500000D03*
%TD*%
%TO.C,1*%
X85760000Y-38500000D03*
%TD*%
%TO.C,1*%
X73060000Y-38500000D03*
%TD*%
%TO.C,1*%
X60360000Y-38500000D03*
%TD*%
%TO.C,1*%
X47660000Y-38500000D03*
%TD*%
%TO.C,1*%
X154340000Y-41040000D03*
%TD*%
%TO.C,1*%
X151800000Y-41040000D03*
%TD*%
%TO.C,1*%
X149260000Y-41040000D03*
%TD*%
%TO.C,1*%
X146720000Y-41040000D03*
%TD*%
%TO.C,1*%
X144180000Y-41040000D03*
%TD*%
%TO.C,1*%
X141640000Y-41040000D03*
%TD*%
%TO.C,1*%
X139100000Y-41040000D03*
%TD*%
%TO.C,1*%
X136560000Y-41040000D03*
%TD*%
%TO.C,1*%
X134020000Y-41040000D03*
%TD*%
%TO.C,1*%
X131480000Y-41040000D03*
%TD*%
%TO.C,1*%
X128940000Y-41040000D03*
%TD*%
%TO.C,1*%
X126400000Y-41040000D03*
%TD*%
%TO.C,1*%
X123860000Y-41040000D03*
%TD*%
%TO.C,1*%
X121320000Y-41040000D03*
%TD*%
%TO.C,1*%
X118780000Y-41040000D03*
%TD*%
%TO.C,1*%
X116240000Y-41040000D03*
%TD*%
%TO.C,1*%
X113700000Y-41040000D03*
%TD*%
%TO.C,1*%
X111160000Y-41040000D03*
%TD*%
%TO.C,1*%
X108620000Y-41040000D03*
%TD*%
%TO.C,1*%
X106080000Y-41040000D03*
%TD*%
%TO.C,1*%
X103540000Y-41040000D03*
%TD*%
%TO.C,1*%
X101000000Y-41040000D03*
%TD*%
%TO.C,1*%
X98460000Y-41040000D03*
%TD*%
%TO.C,1*%
X95920000Y-41040000D03*
%TD*%
%TO.C,1*%
X93380000Y-41040000D03*
%TD*%
%TO.C,1*%
X90840000Y-41040000D03*
%TD*%
%TO.C,1*%
X88300000Y-41040000D03*
%TD*%
%TO.C,1*%
X85760000Y-41040000D03*
%TD*%
%TO.C,1*%
X83220000Y-41040000D03*
%TD*%
%TO.C,1*%
X80680000Y-41040000D03*
%TD*%
%TO.C,1*%
X78140000Y-41040000D03*
%TD*%
%TO.C,1*%
X75600000Y-41040000D03*
%TD*%
%TO.C,1*%
X73060000Y-41040000D03*
%TD*%
%TO.C,1*%
X70520000Y-41040000D03*
%TD*%
%TO.C,1*%
X67980000Y-41040000D03*
%TD*%
%TO.C,1*%
X65440000Y-41040000D03*
%TD*%
%TO.C,1*%
X62900000Y-41040000D03*
%TD*%
%TO.C,1*%
X60360000Y-41040000D03*
%TD*%
%TO.C,1*%
X57820000Y-41040000D03*
%TD*%
%TO.C,1*%
X55280000Y-41040000D03*
%TD*%
%TO.C,1*%
X52740000Y-41040000D03*
%TD*%
%TO.C,1*%
X50200000Y-41040000D03*
%TD*%
%TO.C,1*%
X47660000Y-41040000D03*
%TD*%
%TO.C,1*%
X151800000Y-43580000D03*
%TD*%
%TO.C,1*%
X149260000Y-43580000D03*
%TD*%
%TO.C,1*%
X146720000Y-43580000D03*
%TD*%
%TO.C,1*%
X144180000Y-43580000D03*
%TD*%
%TO.C,1*%
X141640000Y-43580000D03*
%TD*%
%TO.C,1*%
X139100000Y-43580000D03*
%TD*%
%TO.C,1*%
X136560000Y-43580000D03*
%TD*%
%TO.C,1*%
X134020000Y-43580000D03*
%TD*%
%TO.C,1*%
X131480000Y-43580000D03*
%TD*%
%TO.C,1*%
X128940000Y-43580000D03*
%TD*%
%TO.C,1*%
X126400000Y-43580000D03*
%TD*%
%TO.C,1*%
X123860000Y-43580000D03*
%TD*%
%TO.C,1*%
X121320000Y-43580000D03*
%TD*%
%TO.C,1*%
X118780000Y-43580000D03*
%TD*%
%TO.C,1*%
X116240000Y-43580000D03*
%TD*%
%TO.C,1*%
X113700000Y-43580000D03*
%TD*%
%TO.C,1*%
X111160000Y-43580000D03*
%TD*%
%TO.C,1*%
X108620000Y-43580000D03*
%TD*%
%TO.C,1*%
X106080000Y-43580000D03*
%TD*%
%TO.C,1*%
X103540000Y-43580000D03*
%TD*%
%TO.C,1*%
X101000000Y-43580000D03*
%TD*%
%TO.C,1*%
X98460000Y-43580000D03*
%TD*%
%TO.C,1*%
X95920000Y-43580000D03*
%TD*%
%TO.C,1*%
X93380000Y-43580000D03*
%TD*%
%TO.C,1*%
X90840000Y-43580000D03*
%TD*%
%TO.C,1*%
X88300000Y-43580000D03*
%TD*%
%TO.C,1*%
X85760000Y-43580000D03*
%TD*%
%TO.C,1*%
X83220000Y-43580000D03*
%TD*%
%TO.C,1*%
X80680000Y-43580000D03*
%TD*%
%TO.C,1*%
X78140000Y-43580000D03*
%TD*%
%TO.C,1*%
X75600000Y-43580000D03*
%TD*%
%TO.C,1*%
X73060000Y-43580000D03*
%TD*%
%TO.C,1*%
X70520000Y-43580000D03*
%TD*%
%TO.C,1*%
X67980000Y-43580000D03*
%TD*%
%TO.C,1*%
X65440000Y-43580000D03*
%TD*%
%TO.C,1*%
X62900000Y-43580000D03*
%TD*%
%TO.C,1*%
X60360000Y-43580000D03*
%TD*%
%TO.C,1*%
X57820000Y-43580000D03*
%TD*%
%TO.C,1*%
X55280000Y-43580000D03*
%TD*%
%TO.C,1*%
X52740000Y-43580000D03*
%TD*%
%TO.C,1*%
X50200000Y-43580000D03*
%TD*%
%TO.C,1*%
X47660000Y-43580000D03*
%TD*%
%TO.C,1*%
X151800000Y-46120000D03*
%TD*%
%TO.C,1*%
X149260000Y-46120000D03*
%TD*%
%TO.C,1*%
X146720000Y-46120000D03*
%TD*%
%TO.C,1*%
X144180000Y-46120000D03*
%TD*%
%TO.C,1*%
X141640000Y-46120000D03*
%TD*%
%TO.C,1*%
X139100000Y-46120000D03*
%TD*%
%TO.C,1*%
X136560000Y-46120000D03*
%TD*%
%TO.C,1*%
X134020000Y-46120000D03*
%TD*%
%TO.C,1*%
X131480000Y-46120000D03*
%TD*%
%TO.C,1*%
X128940000Y-46120000D03*
%TD*%
%TO.C,1*%
X126400000Y-46120000D03*
%TD*%
%TO.C,1*%
X123860000Y-46120000D03*
%TD*%
%TO.C,1*%
X121320000Y-46120000D03*
%TD*%
%TO.C,1*%
X118780000Y-46120000D03*
%TD*%
%TO.C,1*%
X116240000Y-46120000D03*
%TD*%
%TO.C,1*%
X113700000Y-46120000D03*
%TD*%
%TO.C,1*%
X111160000Y-46120000D03*
%TD*%
%TO.C,1*%
X108620000Y-46120000D03*
%TD*%
%TO.C,1*%
X106080000Y-46120000D03*
%TD*%
%TO.C,1*%
X103540000Y-46120000D03*
%TD*%
%TO.C,1*%
X101000000Y-46120000D03*
%TD*%
%TO.C,1*%
X98460000Y-46120000D03*
%TD*%
%TO.C,1*%
X95920000Y-46120000D03*
%TD*%
%TO.C,1*%
X93380000Y-46120000D03*
%TD*%
%TO.C,1*%
X90840000Y-46120000D03*
%TD*%
%TO.C,1*%
X88300000Y-46120000D03*
%TD*%
%TO.C,1*%
X85760000Y-46120000D03*
%TD*%
%TO.C,1*%
X83220000Y-46120000D03*
%TD*%
%TO.C,1*%
X80680000Y-46120000D03*
%TD*%
%TO.C,1*%
X78140000Y-46120000D03*
%TD*%
%TO.C,1*%
X75600000Y-46120000D03*
%TD*%
%TO.C,1*%
X73060000Y-46120000D03*
%TD*%
%TO.C,1*%
X70520000Y-46120000D03*
%TD*%
%TO.C,1*%
X67980000Y-46120000D03*
%TD*%
%TO.C,1*%
X65440000Y-46120000D03*
%TD*%
%TO.C,1*%
X62900000Y-46120000D03*
%TD*%
%TO.C,1*%
X60360000Y-46120000D03*
%TD*%
%TO.C,1*%
X57820000Y-46120000D03*
%TD*%
%TO.C,1*%
X55280000Y-46120000D03*
%TD*%
%TO.C,1*%
X52740000Y-46120000D03*
%TD*%
%TO.C,1*%
X50200000Y-46120000D03*
%TD*%
%TO.C,1*%
X47660000Y-46120000D03*
%TD*%
%TO.C,1*%
X159420000Y-48660000D03*
%TD*%
%TO.C,1*%
X156880000Y-48660000D03*
%TD*%
%TO.C,1*%
X154340000Y-48660000D03*
%TD*%
%TO.C,1*%
X151800000Y-48660000D03*
%TD*%
%TO.C,1*%
X149260000Y-48660000D03*
%TD*%
%TO.C,1*%
X146720000Y-48660000D03*
%TD*%
%TO.C,1*%
X144180000Y-48660000D03*
%TD*%
%TO.C,1*%
X141640000Y-48660000D03*
%TD*%
%TO.C,1*%
X139100000Y-48660000D03*
%TD*%
%TO.C,1*%
X136560000Y-48660000D03*
%TD*%
%TO.C,1*%
X134020000Y-48660000D03*
%TD*%
%TO.C,1*%
X131480000Y-48660000D03*
%TD*%
%TO.C,1*%
X128940000Y-48660000D03*
%TD*%
%TO.C,1*%
X126400000Y-48660000D03*
%TD*%
%TO.C,1*%
X123860000Y-48660000D03*
%TD*%
%TO.C,1*%
X121320000Y-48660000D03*
%TD*%
%TO.C,1*%
X118780000Y-48660000D03*
%TD*%
%TO.C,1*%
X116240000Y-48660000D03*
%TD*%
%TO.C,1*%
X113700000Y-48660000D03*
%TD*%
%TO.C,1*%
X111160000Y-48660000D03*
%TD*%
%TO.C,1*%
X108620000Y-48660000D03*
%TD*%
%TO.C,1*%
X106080000Y-48660000D03*
%TD*%
%TO.C,1*%
X103540000Y-48660000D03*
%TD*%
%TO.C,1*%
X101000000Y-48660000D03*
%TD*%
%TO.C,1*%
X98460000Y-48660000D03*
%TD*%
%TO.C,1*%
X95920000Y-48660000D03*
%TD*%
%TO.C,1*%
X93380000Y-48660000D03*
%TD*%
%TO.C,1*%
X90840000Y-48660000D03*
%TD*%
%TO.C,1*%
X88300000Y-48660000D03*
%TD*%
%TO.C,1*%
X85760000Y-48660000D03*
%TD*%
%TO.C,1*%
X83220000Y-48660000D03*
%TD*%
%TO.C,1*%
X80680000Y-48660000D03*
%TD*%
%TO.C,1*%
X78140000Y-48660000D03*
%TD*%
%TO.C,1*%
X75600000Y-48660000D03*
%TD*%
%TO.C,1*%
X73060000Y-48660000D03*
%TD*%
%TO.C,1*%
X70520000Y-48660000D03*
%TD*%
%TO.C,1*%
X67980000Y-48660000D03*
%TD*%
%TO.C,1*%
X65440000Y-48660000D03*
%TD*%
%TO.C,1*%
X62900000Y-48660000D03*
%TD*%
%TO.C,1*%
X60360000Y-48660000D03*
%TD*%
%TO.C,1*%
X57820000Y-48660000D03*
%TD*%
%TO.C,1*%
X55280000Y-48660000D03*
%TD*%
%TO.C,1*%
X52740000Y-48660000D03*
%TD*%
%TO.C,1*%
X50200000Y-48660000D03*
%TD*%
%TO.C,1*%
X47660000Y-48660000D03*
%TD*%
%TO.C,1*%
X159420000Y-51200000D03*
%TD*%
%TO.C,1*%
X156880000Y-51200000D03*
%TD*%
%TO.C,1*%
X154340000Y-51200000D03*
%TD*%
%TO.C,1*%
X151800000Y-51200000D03*
%TD*%
%TO.C,1*%
X149260000Y-51200000D03*
%TD*%
%TO.C,1*%
X146720000Y-51200000D03*
%TD*%
%TO.C,1*%
X144180000Y-51200000D03*
%TD*%
%TO.C,1*%
X141640000Y-51200000D03*
%TD*%
%TO.C,1*%
X139100000Y-51200000D03*
%TD*%
%TO.C,1*%
X136560000Y-51200000D03*
%TD*%
%TO.C,1*%
X134020000Y-51200000D03*
%TD*%
%TO.C,1*%
X131480000Y-51200000D03*
%TD*%
%TO.C,1*%
X128940000Y-51200000D03*
%TD*%
%TO.C,1*%
X126400000Y-51200000D03*
%TD*%
%TO.C,1*%
X123860000Y-51200000D03*
%TD*%
%TO.C,1*%
X121320000Y-51200000D03*
%TD*%
%TO.C,1*%
X118780000Y-51200000D03*
%TD*%
%TO.C,1*%
X116240000Y-51200000D03*
%TD*%
%TO.C,1*%
X113700000Y-51200000D03*
%TD*%
%TO.C,1*%
X111160000Y-51200000D03*
%TD*%
%TO.C,1*%
X108620000Y-51200000D03*
%TD*%
%TO.C,1*%
X106080000Y-51200000D03*
%TD*%
%TO.C,1*%
X103540000Y-51200000D03*
%TD*%
%TO.C,1*%
X101000000Y-51200000D03*
%TD*%
%TO.C,1*%
X98460000Y-51200000D03*
%TD*%
%TO.C,1*%
X95920000Y-51200000D03*
%TD*%
%TO.C,1*%
X93380000Y-51200000D03*
%TD*%
%TO.C,1*%
X90840000Y-51200000D03*
%TD*%
%TO.C,1*%
X88300000Y-51200000D03*
%TD*%
%TO.C,1*%
X85760000Y-51200000D03*
%TD*%
%TO.C,1*%
X83220000Y-51200000D03*
%TD*%
%TO.C,1*%
X80680000Y-51200000D03*
%TD*%
%TO.C,1*%
X78140000Y-51200000D03*
%TD*%
%TO.C,1*%
X75600000Y-51200000D03*
%TD*%
%TO.C,1*%
X73060000Y-51200000D03*
%TD*%
%TO.C,1*%
X70520000Y-51200000D03*
%TD*%
%TO.C,1*%
X67980000Y-51200000D03*
%TD*%
%TO.C,1*%
X65440000Y-51200000D03*
%TD*%
%TO.C,1*%
X62900000Y-51200000D03*
%TD*%
%TO.C,1*%
X60360000Y-51200000D03*
%TD*%
%TO.C,1*%
X57820000Y-51200000D03*
%TD*%
%TO.C,1*%
X55280000Y-51200000D03*
%TD*%
%TO.C,1*%
X52740000Y-51200000D03*
%TD*%
%TO.C,1*%
X50200000Y-51200000D03*
%TD*%
%TO.C,1*%
X47660000Y-51200000D03*
%TD*%
%TO.C,1*%
X159420000Y-53740000D03*
%TD*%
%TO.C,1*%
X156880000Y-53740000D03*
%TD*%
%TO.C,1*%
X154340000Y-53740000D03*
%TD*%
%TO.C,1*%
X151800000Y-53740000D03*
%TD*%
%TO.C,1*%
X149260000Y-53740000D03*
%TD*%
%TO.C,1*%
X146720000Y-53740000D03*
%TD*%
%TO.C,1*%
X144180000Y-53740000D03*
%TD*%
%TO.C,1*%
X141640000Y-53740000D03*
%TD*%
%TO.C,1*%
X139100000Y-53740000D03*
%TD*%
%TO.C,1*%
X136560000Y-53740000D03*
%TD*%
%TO.C,1*%
X134020000Y-53740000D03*
%TD*%
%TO.C,1*%
X131480000Y-53740000D03*
%TD*%
%TO.C,1*%
X128940000Y-53740000D03*
%TD*%
%TO.C,1*%
X126400000Y-53740000D03*
%TD*%
%TO.C,1*%
X123860000Y-53740000D03*
%TD*%
%TO.C,1*%
X121320000Y-53740000D03*
%TD*%
%TO.C,1*%
X118780000Y-53740000D03*
%TD*%
%TO.C,1*%
X116240000Y-53740000D03*
%TD*%
%TO.C,1*%
X113700000Y-53740000D03*
%TD*%
%TO.C,1*%
X111160000Y-53740000D03*
%TD*%
%TO.C,1*%
X108620000Y-53740000D03*
%TD*%
%TO.C,1*%
X106080000Y-53740000D03*
%TD*%
%TO.C,1*%
X103540000Y-53740000D03*
%TD*%
%TO.C,1*%
X101000000Y-53740000D03*
%TD*%
%TO.C,1*%
X98460000Y-53740000D03*
%TD*%
%TO.C,1*%
X95920000Y-53740000D03*
%TD*%
%TO.C,1*%
X93380000Y-53740000D03*
%TD*%
%TO.C,1*%
X90840000Y-53740000D03*
%TD*%
%TO.C,1*%
X88300000Y-53740000D03*
%TD*%
%TO.C,1*%
X85760000Y-53740000D03*
%TD*%
%TO.C,1*%
X83220000Y-53740000D03*
%TD*%
%TO.C,1*%
X80680000Y-53740000D03*
%TD*%
%TO.C,1*%
X78140000Y-53740000D03*
%TD*%
%TO.C,1*%
X75600000Y-53740000D03*
%TD*%
%TO.C,1*%
X73060000Y-53740000D03*
%TD*%
%TO.C,1*%
X70520000Y-53740000D03*
%TD*%
%TO.C,1*%
X67980000Y-53740000D03*
%TD*%
%TO.C,1*%
X65440000Y-53740000D03*
%TD*%
%TO.C,1*%
X62900000Y-53740000D03*
%TD*%
%TO.C,1*%
X60360000Y-53740000D03*
%TD*%
%TO.C,1*%
X57820000Y-53740000D03*
%TD*%
%TO.C,1*%
X55280000Y-53740000D03*
%TD*%
%TO.C,1*%
X52740000Y-53740000D03*
%TD*%
%TO.C,1*%
X50200000Y-53740000D03*
%TD*%
%TO.C,1*%
X47660000Y-53740000D03*
%TD*%
%TO.C,1*%
X159420000Y-56280000D03*
%TD*%
%TO.C,1*%
X156880000Y-56280000D03*
%TD*%
%TO.C,1*%
X154340000Y-56280000D03*
%TD*%
%TO.C,1*%
X151800000Y-56280000D03*
%TD*%
%TO.C,1*%
X149260000Y-56280000D03*
%TD*%
%TO.C,1*%
X146720000Y-56280000D03*
%TD*%
%TO.C,1*%
X144180000Y-56280000D03*
%TD*%
%TO.C,1*%
X141640000Y-56280000D03*
%TD*%
%TO.C,1*%
X139100000Y-56280000D03*
%TD*%
%TO.C,1*%
X136560000Y-56280000D03*
%TD*%
%TO.C,1*%
X134020000Y-56280000D03*
%TD*%
%TO.C,1*%
X131480000Y-56280000D03*
%TD*%
%TO.C,1*%
X128940000Y-56280000D03*
%TD*%
%TO.C,1*%
X126400000Y-56280000D03*
%TD*%
%TO.C,1*%
X123860000Y-56280000D03*
%TD*%
%TO.C,1*%
X121320000Y-56280000D03*
%TD*%
%TO.C,1*%
X118780000Y-56280000D03*
%TD*%
%TO.C,1*%
X116240000Y-56280000D03*
%TD*%
%TO.C,1*%
X113700000Y-56280000D03*
%TD*%
%TO.C,1*%
X111160000Y-56280000D03*
%TD*%
%TO.C,1*%
X108620000Y-56280000D03*
%TD*%
%TO.C,1*%
X106080000Y-56280000D03*
%TD*%
%TO.C,1*%
X103540000Y-56280000D03*
%TD*%
%TO.C,1*%
X101000000Y-56280000D03*
%TD*%
%TO.C,1*%
X98460000Y-56280000D03*
%TD*%
%TO.C,1*%
X95920000Y-56280000D03*
%TD*%
%TO.C,1*%
X93380000Y-56280000D03*
%TD*%
%TO.C,1*%
X90840000Y-56280000D03*
%TD*%
%TO.C,1*%
X88300000Y-56280000D03*
%TD*%
%TO.C,1*%
X85760000Y-56280000D03*
%TD*%
%TO.C,1*%
X83220000Y-56280000D03*
%TD*%
%TO.C,1*%
X80680000Y-56280000D03*
%TD*%
%TO.C,1*%
X78140000Y-56280000D03*
%TD*%
%TO.C,1*%
X75600000Y-56280000D03*
%TD*%
%TO.C,1*%
X73060000Y-56280000D03*
%TD*%
%TO.C,1*%
X70520000Y-56280000D03*
%TD*%
%TO.C,1*%
X67980000Y-56280000D03*
%TD*%
%TO.C,1*%
X65440000Y-56280000D03*
%TD*%
%TO.C,1*%
X62900000Y-56280000D03*
%TD*%
%TO.C,1*%
X60360000Y-56280000D03*
%TD*%
%TO.C,1*%
X57820000Y-56280000D03*
%TD*%
%TO.C,1*%
X55280000Y-56280000D03*
%TD*%
%TO.C,1*%
X52740000Y-56280000D03*
%TD*%
%TO.C,1*%
X50200000Y-56280000D03*
%TD*%
%TO.C,1*%
X47660000Y-56280000D03*
%TD*%
%TO.C,1*%
X159420000Y-58820000D03*
%TD*%
%TO.C,1*%
X156880000Y-58820000D03*
%TD*%
%TO.C,1*%
X154340000Y-58820000D03*
%TD*%
%TO.C,1*%
X151800000Y-58820000D03*
%TD*%
%TO.C,1*%
X149260000Y-58820000D03*
%TD*%
%TO.C,1*%
X146720000Y-58820000D03*
%TD*%
%TO.C,1*%
X144180000Y-58820000D03*
%TD*%
%TO.C,1*%
X141640000Y-58820000D03*
%TD*%
%TO.C,1*%
X139100000Y-58820000D03*
%TD*%
%TO.C,1*%
X136560000Y-58820000D03*
%TD*%
%TO.C,1*%
X134020000Y-58820000D03*
%TD*%
%TO.C,1*%
X131480000Y-58820000D03*
%TD*%
%TO.C,1*%
X128940000Y-58820000D03*
%TD*%
%TO.C,1*%
X126400000Y-58820000D03*
%TD*%
%TO.C,1*%
X123860000Y-58820000D03*
%TD*%
%TO.C,1*%
X121320000Y-58820000D03*
%TD*%
%TO.C,1*%
X118780000Y-58820000D03*
%TD*%
%TO.C,1*%
X116240000Y-58820000D03*
%TD*%
%TO.C,1*%
X113700000Y-58820000D03*
%TD*%
%TO.C,1*%
X111160000Y-58820000D03*
%TD*%
%TO.C,1*%
X108620000Y-58820000D03*
%TD*%
%TO.C,1*%
X106080000Y-58820000D03*
%TD*%
%TO.C,1*%
X103540000Y-58820000D03*
%TD*%
%TO.C,1*%
X101000000Y-58820000D03*
%TD*%
%TO.C,1*%
X98460000Y-58820000D03*
%TD*%
%TO.C,1*%
X95920000Y-58820000D03*
%TD*%
%TO.C,1*%
X93380000Y-58820000D03*
%TD*%
%TO.C,1*%
X90840000Y-58820000D03*
%TD*%
%TO.C,1*%
X88300000Y-58820000D03*
%TD*%
%TO.C,1*%
X85760000Y-58820000D03*
%TD*%
%TO.C,1*%
X83220000Y-58820000D03*
%TD*%
%TO.C,1*%
X80680000Y-58820000D03*
%TD*%
%TO.C,1*%
X78140000Y-58820000D03*
%TD*%
%TO.C,1*%
X75600000Y-58820000D03*
%TD*%
%TO.C,1*%
X73060000Y-58820000D03*
%TD*%
%TO.C,1*%
X70520000Y-58820000D03*
%TD*%
%TO.C,1*%
X67980000Y-58820000D03*
%TD*%
%TO.C,1*%
X65440000Y-58820000D03*
%TD*%
%TO.C,1*%
X62900000Y-58820000D03*
%TD*%
%TO.C,1*%
X60360000Y-58820000D03*
%TD*%
%TO.C,1*%
X57820000Y-58820000D03*
%TD*%
%TO.C,1*%
X55280000Y-58820000D03*
%TD*%
%TO.C,1*%
X52740000Y-58820000D03*
%TD*%
%TO.C,1*%
X50200000Y-58820000D03*
%TD*%
%TO.C,1*%
X47660000Y-58820000D03*
%TD*%
%TO.C,1*%
X159420000Y-61360000D03*
%TD*%
%TO.C,1*%
X156880000Y-61360000D03*
%TD*%
%TO.C,1*%
X154340000Y-61360000D03*
%TD*%
%TO.C,1*%
X151800000Y-61360000D03*
%TD*%
%TO.C,1*%
X149260000Y-61360000D03*
%TD*%
%TO.C,1*%
X146720000Y-61360000D03*
%TD*%
%TO.C,1*%
X144180000Y-61360000D03*
%TD*%
%TO.C,1*%
X141640000Y-61360000D03*
%TD*%
%TO.C,1*%
X139100000Y-61360000D03*
%TD*%
%TO.C,1*%
X136560000Y-61360000D03*
%TD*%
%TO.C,1*%
X134020000Y-61360000D03*
%TD*%
%TO.C,1*%
X131480000Y-61360000D03*
%TD*%
%TO.C,1*%
X128940000Y-61360000D03*
%TD*%
%TO.C,1*%
X126400000Y-61360000D03*
%TD*%
%TO.C,1*%
X123860000Y-61360000D03*
%TD*%
%TO.C,1*%
X121320000Y-61360000D03*
%TD*%
%TO.C,1*%
X118780000Y-61360000D03*
%TD*%
%TO.C,1*%
X116240000Y-61360000D03*
%TD*%
%TO.C,1*%
X113700000Y-61360000D03*
%TD*%
%TO.C,1*%
X111160000Y-61360000D03*
%TD*%
%TO.C,1*%
X108620000Y-61360000D03*
%TD*%
%TO.C,1*%
X106080000Y-61360000D03*
%TD*%
%TO.C,1*%
X103540000Y-61360000D03*
%TD*%
%TO.C,1*%
X101000000Y-61360000D03*
%TD*%
%TO.C,1*%
X98460000Y-61360000D03*
%TD*%
%TO.C,1*%
X95920000Y-61360000D03*
%TD*%
%TO.C,1*%
X93380000Y-61360000D03*
%TD*%
%TO.C,1*%
X90840000Y-61360000D03*
%TD*%
%TO.C,1*%
X88300000Y-61360000D03*
%TD*%
%TO.C,1*%
X85760000Y-61360000D03*
%TD*%
%TO.C,1*%
X83220000Y-61360000D03*
%TD*%
%TO.C,1*%
X80680000Y-61360000D03*
%TD*%
%TO.C,1*%
X78140000Y-61360000D03*
%TD*%
%TO.C,1*%
X75600000Y-61360000D03*
%TD*%
%TO.C,1*%
X73060000Y-61360000D03*
%TD*%
%TO.C,1*%
X70520000Y-61360000D03*
%TD*%
%TO.C,1*%
X67980000Y-61360000D03*
%TD*%
%TO.C,1*%
X65440000Y-61360000D03*
%TD*%
%TO.C,1*%
X62900000Y-61360000D03*
%TD*%
%TO.C,1*%
X60360000Y-61360000D03*
%TD*%
%TO.C,1*%
X57820000Y-61360000D03*
%TD*%
%TO.C,1*%
X55280000Y-61360000D03*
%TD*%
%TO.C,1*%
X52740000Y-61360000D03*
%TD*%
%TO.C,1*%
X50200000Y-61360000D03*
%TD*%
%TO.C,1*%
X47660000Y-61360000D03*
%TD*%
%TO.C,1*%
X159420000Y-63900000D03*
%TD*%
%TO.C,1*%
X156880000Y-63900000D03*
%TD*%
%TO.C,1*%
X154340000Y-63900000D03*
%TD*%
%TO.C,1*%
X151800000Y-63900000D03*
%TD*%
%TO.C,1*%
X149260000Y-63900000D03*
%TD*%
%TO.C,1*%
X146720000Y-63900000D03*
%TD*%
%TO.C,1*%
X144180000Y-63900000D03*
%TD*%
%TO.C,1*%
X141640000Y-63900000D03*
%TD*%
%TO.C,1*%
X139100000Y-63900000D03*
%TD*%
%TO.C,1*%
X136560000Y-63900000D03*
%TD*%
%TO.C,1*%
X134020000Y-63900000D03*
%TD*%
%TO.C,1*%
X131480000Y-63900000D03*
%TD*%
%TO.C,1*%
X128940000Y-63900000D03*
%TD*%
%TO.C,1*%
X126400000Y-63900000D03*
%TD*%
%TO.C,1*%
X123860000Y-63900000D03*
%TD*%
%TO.C,1*%
X121320000Y-63900000D03*
%TD*%
%TO.C,1*%
X118780000Y-63900000D03*
%TD*%
%TO.C,1*%
X116240000Y-63900000D03*
%TD*%
%TO.C,1*%
X113700000Y-63900000D03*
%TD*%
%TO.C,1*%
X111160000Y-63900000D03*
%TD*%
%TO.C,1*%
X108620000Y-63900000D03*
%TD*%
%TO.C,1*%
X106080000Y-63900000D03*
%TD*%
%TO.C,1*%
X103540000Y-63900000D03*
%TD*%
%TO.C,1*%
X101000000Y-63900000D03*
%TD*%
%TO.C,1*%
X98460000Y-63900000D03*
%TD*%
%TO.C,1*%
X95920000Y-63900000D03*
%TD*%
%TO.C,1*%
X93380000Y-63900000D03*
%TD*%
%TO.C,1*%
X90840000Y-63900000D03*
%TD*%
%TO.C,1*%
X88300000Y-63900000D03*
%TD*%
%TO.C,1*%
X85760000Y-63900000D03*
%TD*%
%TO.C,1*%
X83220000Y-63900000D03*
%TD*%
%TO.C,1*%
X80680000Y-63900000D03*
%TD*%
%TO.C,1*%
X78140000Y-63900000D03*
%TD*%
%TO.C,1*%
X75600000Y-63900000D03*
%TD*%
%TO.C,1*%
X73060000Y-63900000D03*
%TD*%
%TO.C,1*%
X70520000Y-63900000D03*
%TD*%
%TO.C,1*%
X67980000Y-63900000D03*
%TD*%
%TO.C,1*%
X65440000Y-63900000D03*
%TD*%
%TO.C,1*%
X62900000Y-63900000D03*
%TD*%
%TO.C,1*%
X60360000Y-63900000D03*
%TD*%
%TO.C,1*%
X57820000Y-63900000D03*
%TD*%
%TO.C,1*%
X55280000Y-63900000D03*
%TD*%
%TO.C,1*%
X52740000Y-63900000D03*
%TD*%
%TO.C,1*%
X50200000Y-63900000D03*
%TD*%
%TO.C,1*%
X47660000Y-63900000D03*
%TD*%
%TO.C,1*%
X159420000Y-66440000D03*
%TD*%
%TO.C,1*%
X156880000Y-66440000D03*
%TD*%
%TO.C,1*%
X154340000Y-66440000D03*
%TD*%
%TO.C,1*%
X151800000Y-66440000D03*
%TD*%
%TO.C,1*%
X149260000Y-66440000D03*
%TD*%
%TO.C,1*%
X146720000Y-66440000D03*
%TD*%
%TO.C,1*%
X144180000Y-66440000D03*
%TD*%
%TO.C,1*%
X141640000Y-66440000D03*
%TD*%
%TO.C,1*%
X139100000Y-66440000D03*
%TD*%
%TO.C,1*%
X136560000Y-66440000D03*
%TD*%
%TO.C,1*%
X134020000Y-66440000D03*
%TD*%
%TO.C,1*%
X131480000Y-66440000D03*
%TD*%
%TO.C,1*%
X128940000Y-66440000D03*
%TD*%
%TO.C,1*%
X126400000Y-66440000D03*
%TD*%
%TO.C,1*%
X123860000Y-66440000D03*
%TD*%
%TO.C,1*%
X121320000Y-66440000D03*
%TD*%
%TO.C,1*%
X118780000Y-66440000D03*
%TD*%
%TO.C,1*%
X116240000Y-66440000D03*
%TD*%
%TO.C,1*%
X113700000Y-66440000D03*
%TD*%
%TO.C,1*%
X111160000Y-66440000D03*
%TD*%
%TO.C,1*%
X108620000Y-66440000D03*
%TD*%
%TO.C,1*%
X106080000Y-66440000D03*
%TD*%
%TO.C,1*%
X103540000Y-66440000D03*
%TD*%
%TO.C,1*%
X101000000Y-66440000D03*
%TD*%
%TO.C,1*%
X98460000Y-66440000D03*
%TD*%
%TO.C,1*%
X95920000Y-66440000D03*
%TD*%
%TO.C,1*%
X93380000Y-66440000D03*
%TD*%
%TO.C,1*%
X90840000Y-66440000D03*
%TD*%
%TO.C,1*%
X88300000Y-66440000D03*
%TD*%
%TO.C,1*%
X85760000Y-66440000D03*
%TD*%
%TO.C,1*%
X83220000Y-66440000D03*
%TD*%
%TO.C,1*%
X80680000Y-66440000D03*
%TD*%
%TO.C,1*%
X78140000Y-66440000D03*
%TD*%
%TO.C,1*%
X75600000Y-66440000D03*
%TD*%
%TO.C,1*%
X73060000Y-66440000D03*
%TD*%
%TO.C,1*%
X70520000Y-66440000D03*
%TD*%
%TO.C,1*%
X67980000Y-66440000D03*
%TD*%
%TO.C,1*%
X65440000Y-66440000D03*
%TD*%
%TO.C,1*%
X62900000Y-66440000D03*
%TD*%
%TO.C,1*%
X60360000Y-66440000D03*
%TD*%
%TO.C,1*%
X57820000Y-66440000D03*
%TD*%
%TO.C,1*%
X55280000Y-66440000D03*
%TD*%
%TO.C,1*%
X52740000Y-66440000D03*
%TD*%
%TO.C,1*%
X50200000Y-66440000D03*
%TD*%
%TO.C,1*%
X47660000Y-66440000D03*
%TD*%
%TO.C,1*%
X159420000Y-68980000D03*
%TD*%
%TO.C,1*%
X156880000Y-68980000D03*
%TD*%
%TO.C,1*%
X154340000Y-68980000D03*
%TD*%
%TO.C,1*%
X151800000Y-68980000D03*
%TD*%
%TO.C,1*%
X149260000Y-68980000D03*
%TD*%
%TO.C,1*%
X146720000Y-68980000D03*
%TD*%
%TO.C,1*%
X144180000Y-68980000D03*
%TD*%
%TO.C,1*%
X141640000Y-68980000D03*
%TD*%
%TO.C,1*%
X139100000Y-68980000D03*
%TD*%
%TO.C,1*%
X136560000Y-68980000D03*
%TD*%
%TO.C,1*%
X134020000Y-68980000D03*
%TD*%
%TO.C,1*%
X131480000Y-68980000D03*
%TD*%
%TO.C,1*%
X128940000Y-68980000D03*
%TD*%
%TO.C,1*%
X126400000Y-68980000D03*
%TD*%
%TO.C,1*%
X123860000Y-68980000D03*
%TD*%
%TO.C,1*%
X121320000Y-68980000D03*
%TD*%
%TO.C,1*%
X118780000Y-68980000D03*
%TD*%
%TO.C,1*%
X116240000Y-68980000D03*
%TD*%
%TO.C,1*%
X113700000Y-68980000D03*
%TD*%
%TO.C,1*%
X111160000Y-68980000D03*
%TD*%
%TO.C,1*%
X108620000Y-68980000D03*
%TD*%
%TO.C,1*%
X106080000Y-68980000D03*
%TD*%
%TO.C,1*%
X103540000Y-68980000D03*
%TD*%
%TO.C,1*%
X101000000Y-68980000D03*
%TD*%
%TO.C,1*%
X98460000Y-68980000D03*
%TD*%
%TO.C,1*%
X95920000Y-68980000D03*
%TD*%
%TO.C,1*%
X93380000Y-68980000D03*
%TD*%
%TO.C,1*%
X90840000Y-68980000D03*
%TD*%
%TO.C,1*%
X88300000Y-68980000D03*
%TD*%
%TO.C,1*%
X85760000Y-68980000D03*
%TD*%
%TO.C,1*%
X83220000Y-68980000D03*
%TD*%
%TO.C,1*%
X80680000Y-68980000D03*
%TD*%
%TO.C,1*%
X78140000Y-68980000D03*
%TD*%
%TO.C,1*%
X75600000Y-68980000D03*
%TD*%
%TO.C,1*%
X73060000Y-68980000D03*
%TD*%
%TO.C,1*%
X70520000Y-68980000D03*
%TD*%
%TO.C,1*%
X67980000Y-68980000D03*
%TD*%
%TO.C,1*%
X65440000Y-68980000D03*
%TD*%
%TO.C,1*%
X62900000Y-68980000D03*
%TD*%
%TO.C,1*%
X60360000Y-68980000D03*
%TD*%
%TO.C,1*%
X57820000Y-68980000D03*
%TD*%
%TO.C,1*%
X55280000Y-68980000D03*
%TD*%
%TO.C,1*%
X52740000Y-68980000D03*
%TD*%
%TO.C,1*%
X50200000Y-68980000D03*
%TD*%
%TO.C,1*%
X47660000Y-68980000D03*
%TD*%
%TO.C,1*%
X159420000Y-71520000D03*
%TD*%
%TO.C,1*%
X156880000Y-71520000D03*
%TD*%
%TO.C,1*%
X154340000Y-71520000D03*
%TD*%
%TO.C,1*%
X151800000Y-71520000D03*
%TD*%
%TO.C,1*%
X149260000Y-71520000D03*
%TD*%
%TO.C,1*%
X146720000Y-71520000D03*
%TD*%
%TO.C,1*%
X144180000Y-71520000D03*
%TD*%
%TO.C,1*%
X141640000Y-71520000D03*
%TD*%
%TO.C,1*%
X139100000Y-71520000D03*
%TD*%
%TO.C,1*%
X136560000Y-71520000D03*
%TD*%
%TO.C,1*%
X134020000Y-71520000D03*
%TD*%
%TO.C,1*%
X131480000Y-71520000D03*
%TD*%
%TO.C,1*%
X128940000Y-71520000D03*
%TD*%
%TO.C,1*%
X126400000Y-71520000D03*
%TD*%
%TO.C,1*%
X123860000Y-71520000D03*
%TD*%
%TO.C,1*%
X121320000Y-71520000D03*
%TD*%
%TO.C,1*%
X118780000Y-71520000D03*
%TD*%
%TO.C,1*%
X116240000Y-71520000D03*
%TD*%
%TO.C,1*%
X113700000Y-71520000D03*
%TD*%
%TO.C,1*%
X111160000Y-71520000D03*
%TD*%
%TO.C,1*%
X108620000Y-71520000D03*
%TD*%
%TO.C,1*%
X106080000Y-71520000D03*
%TD*%
%TO.C,1*%
X103540000Y-71520000D03*
%TD*%
%TO.C,1*%
X101000000Y-71520000D03*
%TD*%
%TO.C,1*%
X98460000Y-71520000D03*
%TD*%
%TO.C,1*%
X95920000Y-71520000D03*
%TD*%
%TO.C,1*%
X93380000Y-71520000D03*
%TD*%
%TO.C,1*%
X90840000Y-71520000D03*
%TD*%
%TO.C,1*%
X88300000Y-71520000D03*
%TD*%
%TO.C,1*%
X85760000Y-71520000D03*
%TD*%
%TO.C,1*%
X83220000Y-71520000D03*
%TD*%
%TO.C,1*%
X80680000Y-71520000D03*
%TD*%
%TO.C,1*%
X78140000Y-71520000D03*
%TD*%
%TO.C,1*%
X75600000Y-71520000D03*
%TD*%
%TO.C,1*%
X73060000Y-71520000D03*
%TD*%
%TO.C,1*%
X70520000Y-71520000D03*
%TD*%
%TO.C,1*%
X67980000Y-71520000D03*
%TD*%
%TO.C,1*%
X65440000Y-71520000D03*
%TD*%
%TO.C,1*%
X62900000Y-71520000D03*
%TD*%
%TO.C,1*%
X60360000Y-71520000D03*
%TD*%
%TO.C,1*%
X57820000Y-71520000D03*
%TD*%
%TO.C,1*%
X55280000Y-71520000D03*
%TD*%
%TO.C,1*%
X52740000Y-71520000D03*
%TD*%
%TO.C,1*%
X50200000Y-71520000D03*
%TD*%
%TO.C,1*%
X47660000Y-71520000D03*
%TD*%
%TO.C,1*%
X159420000Y-74060000D03*
%TD*%
%TO.C,1*%
X156880000Y-74060000D03*
%TD*%
%TO.C,1*%
X154340000Y-74060000D03*
%TD*%
%TO.C,1*%
X151800000Y-74060000D03*
%TD*%
%TO.C,1*%
X149260000Y-74060000D03*
%TD*%
%TO.C,1*%
X146720000Y-74060000D03*
%TD*%
%TO.C,1*%
X144180000Y-74060000D03*
%TD*%
%TO.C,1*%
X141640000Y-74060000D03*
%TD*%
%TO.C,1*%
X139100000Y-74060000D03*
%TD*%
%TO.C,1*%
X136560000Y-74060000D03*
%TD*%
%TO.C,1*%
X134020000Y-74060000D03*
%TD*%
%TO.C,1*%
X131480000Y-74060000D03*
%TD*%
%TO.C,1*%
X128940000Y-74060000D03*
%TD*%
%TO.C,1*%
X126400000Y-74060000D03*
%TD*%
%TO.C,1*%
X123860000Y-74060000D03*
%TD*%
%TO.C,1*%
X121320000Y-74060000D03*
%TD*%
%TO.C,1*%
X118780000Y-74060000D03*
%TD*%
%TO.C,1*%
X116240000Y-74060000D03*
%TD*%
%TO.C,1*%
X113700000Y-74060000D03*
%TD*%
%TO.C,1*%
X111160000Y-74060000D03*
%TD*%
%TO.C,1*%
X108620000Y-74060000D03*
%TD*%
%TO.C,1*%
X106080000Y-74060000D03*
%TD*%
%TO.C,1*%
X103540000Y-74060000D03*
%TD*%
%TO.C,1*%
X101000000Y-74060000D03*
%TD*%
%TO.C,1*%
X98460000Y-74060000D03*
%TD*%
%TO.C,1*%
X95920000Y-74060000D03*
%TD*%
%TO.C,1*%
X93380000Y-74060000D03*
%TD*%
%TO.C,1*%
X90840000Y-74060000D03*
%TD*%
%TO.C,1*%
X88300000Y-74060000D03*
%TD*%
%TO.C,1*%
X85760000Y-74060000D03*
%TD*%
%TO.C,1*%
X83220000Y-74060000D03*
%TD*%
%TO.C,1*%
X80680000Y-74060000D03*
%TD*%
%TO.C,1*%
X78140000Y-74060000D03*
%TD*%
%TO.C,1*%
X75600000Y-74060000D03*
%TD*%
%TO.C,1*%
X73060000Y-74060000D03*
%TD*%
%TO.C,1*%
X70520000Y-74060000D03*
%TD*%
%TO.C,1*%
X67980000Y-74060000D03*
%TD*%
%TO.C,1*%
X65440000Y-74060000D03*
%TD*%
%TO.C,1*%
X62900000Y-74060000D03*
%TD*%
%TO.C,1*%
X60360000Y-74060000D03*
%TD*%
%TO.C,1*%
X57820000Y-74060000D03*
%TD*%
%TO.C,1*%
X55280000Y-74060000D03*
%TD*%
%TO.C,1*%
X52740000Y-74060000D03*
%TD*%
%TO.C,1*%
X50200000Y-74060000D03*
%TD*%
%TO.C,1*%
X47660000Y-74060000D03*
%TD*%
%TO.C,1*%
X159420000Y-76600000D03*
%TD*%
%TO.C,1*%
X156880000Y-76600000D03*
%TD*%
%TO.C,1*%
X154340000Y-76600000D03*
%TD*%
%TO.C,1*%
X151800000Y-76600000D03*
%TD*%
%TO.C,1*%
X149260000Y-76600000D03*
%TD*%
%TO.C,1*%
X146720000Y-76600000D03*
%TD*%
%TO.C,1*%
X144180000Y-76600000D03*
%TD*%
%TO.C,1*%
X141640000Y-76600000D03*
%TD*%
%TO.C,1*%
X139100000Y-76600000D03*
%TD*%
%TO.C,1*%
X136560000Y-76600000D03*
%TD*%
%TO.C,1*%
X134020000Y-76600000D03*
%TD*%
%TO.C,1*%
X131480000Y-76600000D03*
%TD*%
%TO.C,1*%
X128940000Y-76600000D03*
%TD*%
%TO.C,1*%
X126400000Y-76600000D03*
%TD*%
%TO.C,1*%
X123860000Y-76600000D03*
%TD*%
%TO.C,1*%
X121320000Y-76600000D03*
%TD*%
%TO.C,1*%
X118780000Y-76600000D03*
%TD*%
%TO.C,1*%
X116240000Y-76600000D03*
%TD*%
%TO.C,1*%
X113700000Y-76600000D03*
%TD*%
%TO.C,1*%
X111160000Y-76600000D03*
%TD*%
%TO.C,1*%
X108620000Y-76600000D03*
%TD*%
%TO.C,1*%
X106080000Y-76600000D03*
%TD*%
%TO.C,1*%
X103540000Y-76600000D03*
%TD*%
%TO.C,1*%
X101000000Y-76600000D03*
%TD*%
%TO.C,1*%
X98460000Y-76600000D03*
%TD*%
%TO.C,1*%
X95920000Y-76600000D03*
%TD*%
%TO.C,1*%
X93380000Y-76600000D03*
%TD*%
%TO.C,1*%
X90840000Y-76600000D03*
%TD*%
%TO.C,1*%
X88300000Y-76600000D03*
%TD*%
%TO.C,1*%
X85760000Y-76600000D03*
%TD*%
%TO.C,1*%
X83220000Y-76600000D03*
%TD*%
%TO.C,1*%
X80680000Y-76600000D03*
%TD*%
%TO.C,1*%
X78140000Y-76600000D03*
%TD*%
%TO.C,1*%
X75600000Y-76600000D03*
%TD*%
%TO.C,1*%
X73060000Y-76600000D03*
%TD*%
%TO.C,1*%
X70520000Y-76600000D03*
%TD*%
%TO.C,1*%
X67980000Y-76600000D03*
%TD*%
%TO.C,1*%
X65440000Y-76600000D03*
%TD*%
%TO.C,1*%
X62900000Y-76600000D03*
%TD*%
%TO.C,1*%
X60360000Y-76600000D03*
%TD*%
%TO.C,1*%
X57820000Y-76600000D03*
%TD*%
%TO.C,1*%
X55280000Y-76600000D03*
%TD*%
%TO.C,1*%
X52740000Y-76600000D03*
%TD*%
%TO.C,1*%
X50200000Y-76600000D03*
%TD*%
%TO.C,1*%
X47660000Y-76600000D03*
%TD*%
%TO.C,1*%
X159420000Y-79140000D03*
%TD*%
%TO.C,1*%
X156880000Y-79140000D03*
%TD*%
%TO.C,1*%
X154340000Y-79140000D03*
%TD*%
%TO.C,1*%
X151800000Y-79140000D03*
%TD*%
%TO.C,1*%
X149260000Y-79140000D03*
%TD*%
%TO.C,1*%
X146720000Y-79140000D03*
%TD*%
%TO.C,1*%
X144180000Y-79140000D03*
%TD*%
%TO.C,1*%
X141640000Y-79140000D03*
%TD*%
%TO.C,1*%
X139100000Y-79140000D03*
%TD*%
%TO.C,1*%
X136560000Y-79140000D03*
%TD*%
%TO.C,1*%
X134020000Y-79140000D03*
%TD*%
%TO.C,1*%
X131480000Y-79140000D03*
%TD*%
%TO.C,1*%
X128940000Y-79140000D03*
%TD*%
%TO.C,1*%
X126400000Y-79140000D03*
%TD*%
%TO.C,1*%
X123860000Y-79140000D03*
%TD*%
%TO.C,1*%
X121320000Y-79140000D03*
%TD*%
%TO.C,1*%
X118780000Y-79140000D03*
%TD*%
%TO.C,1*%
X116240000Y-79140000D03*
%TD*%
%TO.C,1*%
X113700000Y-79140000D03*
%TD*%
%TO.C,1*%
X111160000Y-79140000D03*
%TD*%
%TO.C,1*%
X108620000Y-79140000D03*
%TD*%
%TO.C,1*%
X106080000Y-79140000D03*
%TD*%
%TO.C,1*%
X103540000Y-79140000D03*
%TD*%
%TO.C,1*%
X101000000Y-79140000D03*
%TD*%
%TO.C,1*%
X98460000Y-79140000D03*
%TD*%
%TO.C,1*%
X95920000Y-79140000D03*
%TD*%
%TO.C,1*%
X93380000Y-79140000D03*
%TD*%
%TO.C,1*%
X90840000Y-79140000D03*
%TD*%
%TO.C,1*%
X88300000Y-79140000D03*
%TD*%
%TO.C,1*%
X85760000Y-79140000D03*
%TD*%
%TO.C,1*%
X83220000Y-79140000D03*
%TD*%
%TO.C,1*%
X80680000Y-79140000D03*
%TD*%
%TO.C,1*%
X78140000Y-79140000D03*
%TD*%
%TO.C,1*%
X75600000Y-79140000D03*
%TD*%
%TO.C,1*%
X73060000Y-79140000D03*
%TD*%
%TO.C,1*%
X70520000Y-79140000D03*
%TD*%
%TO.C,1*%
X67980000Y-79140000D03*
%TD*%
%TO.C,1*%
X65440000Y-79140000D03*
%TD*%
%TO.C,1*%
X62900000Y-79140000D03*
%TD*%
%TO.C,1*%
X60360000Y-79140000D03*
%TD*%
%TO.C,1*%
X57820000Y-79140000D03*
%TD*%
%TO.C,1*%
X55280000Y-79140000D03*
%TD*%
%TO.C,1*%
X52740000Y-79140000D03*
%TD*%
%TO.C,1*%
X50200000Y-79140000D03*
%TD*%
%TO.C,1*%
X47660000Y-79140000D03*
%TD*%
%TO.C,1*%
X159420000Y-81680000D03*
%TD*%
%TO.C,1*%
X156880000Y-81680000D03*
%TD*%
%TO.C,1*%
X154340000Y-81680000D03*
%TD*%
%TO.C,1*%
X151800000Y-81680000D03*
%TD*%
%TO.C,1*%
X149260000Y-81680000D03*
%TD*%
%TO.C,1*%
X146720000Y-81680000D03*
%TD*%
%TO.C,1*%
X144180000Y-81680000D03*
%TD*%
%TO.C,1*%
X141640000Y-81680000D03*
%TD*%
%TO.C,1*%
X139100000Y-81680000D03*
%TD*%
%TO.C,1*%
X136560000Y-81680000D03*
%TD*%
%TO.C,1*%
X134020000Y-81680000D03*
%TD*%
%TO.C,1*%
X131480000Y-81680000D03*
%TD*%
%TO.C,1*%
X128940000Y-81680000D03*
%TD*%
%TO.C,1*%
X126400000Y-81680000D03*
%TD*%
%TO.C,1*%
X123860000Y-81680000D03*
%TD*%
%TO.C,1*%
X121320000Y-81680000D03*
%TD*%
%TO.C,1*%
X118780000Y-81680000D03*
%TD*%
%TO.C,1*%
X116240000Y-81680000D03*
%TD*%
%TO.C,1*%
X113700000Y-81680000D03*
%TD*%
%TO.C,1*%
X111160000Y-81680000D03*
%TD*%
%TO.C,1*%
X108620000Y-81680000D03*
%TD*%
%TO.C,1*%
X106080000Y-81680000D03*
%TD*%
%TO.C,1*%
X103540000Y-81680000D03*
%TD*%
%TO.C,1*%
X101000000Y-81680000D03*
%TD*%
%TO.C,1*%
X98460000Y-81680000D03*
%TD*%
%TO.C,1*%
X95920000Y-81680000D03*
%TD*%
%TO.C,1*%
X93380000Y-81680000D03*
%TD*%
%TO.C,1*%
X90840000Y-81680000D03*
%TD*%
%TO.C,1*%
X88300000Y-81680000D03*
%TD*%
%TO.C,1*%
X85760000Y-81680000D03*
%TD*%
%TO.C,1*%
X83220000Y-81680000D03*
%TD*%
%TO.C,1*%
X80680000Y-81680000D03*
%TD*%
%TO.C,1*%
X78140000Y-81680000D03*
%TD*%
%TO.C,1*%
X75600000Y-81680000D03*
%TD*%
%TO.C,1*%
X73060000Y-81680000D03*
%TD*%
%TO.C,1*%
X70520000Y-81680000D03*
%TD*%
%TO.C,1*%
X67980000Y-81680000D03*
%TD*%
%TO.C,1*%
X65440000Y-81680000D03*
%TD*%
%TO.C,1*%
X62900000Y-81680000D03*
%TD*%
%TO.C,1*%
X60360000Y-81680000D03*
%TD*%
%TO.C,1*%
X57820000Y-81680000D03*
%TD*%
%TO.C,1*%
X55280000Y-81680000D03*
%TD*%
%TO.C,1*%
X52740000Y-81680000D03*
%TD*%
%TO.C,1*%
X50200000Y-81680000D03*
%TD*%
%TO.C,1*%
X47660000Y-81680000D03*
%TD*%
%TO.C,1*%
X159420000Y-84220000D03*
%TD*%
%TO.C,1*%
X156880000Y-84220000D03*
%TD*%
%TO.C,1*%
X154340000Y-84220000D03*
%TD*%
%TO.C,1*%
X151800000Y-84220000D03*
%TD*%
%TO.C,1*%
X149260000Y-84220000D03*
%TD*%
%TO.C,1*%
X146720000Y-84220000D03*
%TD*%
%TO.C,1*%
X144180000Y-84220000D03*
%TD*%
%TO.C,1*%
X141640000Y-84220000D03*
%TD*%
%TO.C,1*%
X139100000Y-84220000D03*
%TD*%
%TO.C,1*%
X136560000Y-84220000D03*
%TD*%
%TO.C,1*%
X134020000Y-84220000D03*
%TD*%
%TO.C,1*%
X131480000Y-84220000D03*
%TD*%
%TO.C,1*%
X128940000Y-84220000D03*
%TD*%
%TO.C,1*%
X126400000Y-84220000D03*
%TD*%
%TO.C,1*%
X123860000Y-84220000D03*
%TD*%
%TO.C,1*%
X121320000Y-84220000D03*
%TD*%
%TO.C,1*%
X118780000Y-84220000D03*
%TD*%
%TO.C,1*%
X116240000Y-84220000D03*
%TD*%
%TO.C,1*%
X113700000Y-84220000D03*
%TD*%
%TO.C,1*%
X111160000Y-84220000D03*
%TD*%
%TO.C,1*%
X108620000Y-84220000D03*
%TD*%
%TO.C,1*%
X106080000Y-84220000D03*
%TD*%
%TO.C,1*%
X103540000Y-84220000D03*
%TD*%
%TO.C,1*%
X101000000Y-84220000D03*
%TD*%
%TO.C,1*%
X98460000Y-84220000D03*
%TD*%
%TO.C,1*%
X95920000Y-84220000D03*
%TD*%
%TO.C,1*%
X93380000Y-84220000D03*
%TD*%
%TO.C,1*%
X90840000Y-84220000D03*
%TD*%
%TO.C,1*%
X88300000Y-84220000D03*
%TD*%
%TO.C,1*%
X85760000Y-84220000D03*
%TD*%
%TO.C,1*%
X83220000Y-84220000D03*
%TD*%
%TO.C,1*%
X80680000Y-84220000D03*
%TD*%
%TO.C,1*%
X78140000Y-84220000D03*
%TD*%
%TO.C,1*%
X75600000Y-84220000D03*
%TD*%
%TO.C,1*%
X73060000Y-84220000D03*
%TD*%
%TO.C,1*%
X70520000Y-84220000D03*
%TD*%
%TO.C,1*%
X67980000Y-84220000D03*
%TD*%
%TO.C,1*%
X65440000Y-84220000D03*
%TD*%
%TO.C,1*%
X62900000Y-84220000D03*
%TD*%
%TO.C,1*%
X60360000Y-84220000D03*
%TD*%
%TO.C,1*%
X57820000Y-84220000D03*
%TD*%
%TO.C,1*%
X55280000Y-84220000D03*
%TD*%
%TO.C,1*%
X52740000Y-84220000D03*
%TD*%
%TO.C,1*%
X50200000Y-84220000D03*
%TD*%
%TO.C,1*%
X47660000Y-84220000D03*
%TD*%
%TO.C,1*%
X159420000Y-86760000D03*
%TD*%
%TO.C,1*%
X156880000Y-86760000D03*
%TD*%
%TO.C,1*%
X154340000Y-86760000D03*
%TD*%
%TO.C,1*%
X151800000Y-86760000D03*
%TD*%
%TO.C,1*%
X149260000Y-86760000D03*
%TD*%
%TO.C,1*%
X146720000Y-86760000D03*
%TD*%
%TO.C,1*%
X144180000Y-86760000D03*
%TD*%
%TO.C,1*%
X141640000Y-86760000D03*
%TD*%
%TO.C,1*%
X139100000Y-86760000D03*
%TD*%
%TO.C,1*%
X136560000Y-86760000D03*
%TD*%
%TO.C,1*%
X134020000Y-86760000D03*
%TD*%
%TO.C,1*%
X131480000Y-86760000D03*
%TD*%
%TO.C,1*%
X128940000Y-86760000D03*
%TD*%
%TO.C,1*%
X126400000Y-86760000D03*
%TD*%
%TO.C,1*%
X123860000Y-86760000D03*
%TD*%
%TO.C,1*%
X121320000Y-86760000D03*
%TD*%
%TO.C,1*%
X118780000Y-86760000D03*
%TD*%
%TO.C,1*%
X116240000Y-86760000D03*
%TD*%
%TO.C,1*%
X113700000Y-86760000D03*
%TD*%
%TO.C,1*%
X111160000Y-86760000D03*
%TD*%
%TO.C,1*%
X108620000Y-86760000D03*
%TD*%
%TO.C,1*%
X106080000Y-86760000D03*
%TD*%
%TO.C,1*%
X103540000Y-86760000D03*
%TD*%
%TO.C,1*%
X101000000Y-86760000D03*
%TD*%
%TO.C,1*%
X98460000Y-86760000D03*
%TD*%
%TO.C,1*%
X95920000Y-86760000D03*
%TD*%
%TO.C,1*%
X93380000Y-86760000D03*
%TD*%
%TO.C,1*%
X90840000Y-86760000D03*
%TD*%
%TO.C,1*%
X88300000Y-86760000D03*
%TD*%
%TO.C,1*%
X85760000Y-86760000D03*
%TD*%
%TO.C,1*%
X83220000Y-86760000D03*
%TD*%
%TO.C,1*%
X80680000Y-86760000D03*
%TD*%
%TO.C,1*%
X78140000Y-86760000D03*
%TD*%
%TO.C,1*%
X75600000Y-86760000D03*
%TD*%
%TO.C,1*%
X73060000Y-86760000D03*
%TD*%
%TO.C,1*%
X70520000Y-86760000D03*
%TD*%
%TO.C,1*%
X67980000Y-86760000D03*
%TD*%
%TO.C,1*%
X65440000Y-86760000D03*
%TD*%
%TO.C,1*%
X62900000Y-86760000D03*
%TD*%
%TO.C,1*%
X60360000Y-86760000D03*
%TD*%
%TO.C,1*%
X57820000Y-86760000D03*
%TD*%
%TO.C,1*%
X55280000Y-86760000D03*
%TD*%
%TO.C,1*%
X52740000Y-86760000D03*
%TD*%
%TO.C,1*%
X50200000Y-86760000D03*
%TD*%
%TO.C,1*%
X47660000Y-86760000D03*
%TD*%
%TO.C,1*%
X159420000Y-89300000D03*
%TD*%
%TO.C,1*%
X156880000Y-89300000D03*
%TD*%
%TO.C,1*%
X154340000Y-89300000D03*
%TD*%
%TO.C,1*%
X151800000Y-89300000D03*
%TD*%
%TO.C,1*%
X149260000Y-89300000D03*
%TD*%
%TO.C,1*%
X146720000Y-89300000D03*
%TD*%
%TO.C,1*%
X144180000Y-89300000D03*
%TD*%
%TO.C,1*%
X141640000Y-89300000D03*
%TD*%
%TO.C,1*%
X139100000Y-89300000D03*
%TD*%
%TO.C,1*%
X136560000Y-89300000D03*
%TD*%
%TO.C,1*%
X134020000Y-89300000D03*
%TD*%
%TO.C,1*%
X131480000Y-89300000D03*
%TD*%
%TO.C,1*%
X128940000Y-89300000D03*
%TD*%
%TO.C,1*%
X126400000Y-89300000D03*
%TD*%
%TO.C,1*%
X123860000Y-89300000D03*
%TD*%
%TO.C,1*%
X121320000Y-89300000D03*
%TD*%
%TO.C,1*%
X118780000Y-89300000D03*
%TD*%
%TO.C,1*%
X116240000Y-89300000D03*
%TD*%
%TO.C,1*%
X113700000Y-89300000D03*
%TD*%
%TO.C,1*%
X111160000Y-89300000D03*
%TD*%
%TO.C,1*%
X108620000Y-89300000D03*
%TD*%
%TO.C,1*%
X106080000Y-89300000D03*
%TD*%
%TO.C,1*%
X103540000Y-89300000D03*
%TD*%
%TO.C,1*%
X101000000Y-89300000D03*
%TD*%
%TO.C,1*%
X98460000Y-89300000D03*
%TD*%
%TO.C,1*%
X95920000Y-89300000D03*
%TD*%
%TO.C,1*%
X93380000Y-89300000D03*
%TD*%
%TO.C,1*%
X90840000Y-89300000D03*
%TD*%
%TO.C,1*%
X88300000Y-89300000D03*
%TD*%
%TO.C,1*%
X85760000Y-89300000D03*
%TD*%
%TO.C,1*%
X83220000Y-89300000D03*
%TD*%
%TO.C,1*%
X80680000Y-89300000D03*
%TD*%
%TO.C,1*%
X78140000Y-89300000D03*
%TD*%
%TO.C,1*%
X75600000Y-89300000D03*
%TD*%
%TO.C,1*%
X73060000Y-89300000D03*
%TD*%
%TO.C,1*%
X70520000Y-89300000D03*
%TD*%
%TO.C,1*%
X67980000Y-89300000D03*
%TD*%
%TO.C,1*%
X65440000Y-89300000D03*
%TD*%
%TO.C,1*%
X62900000Y-89300000D03*
%TD*%
%TO.C,1*%
X60360000Y-89300000D03*
%TD*%
%TO.C,1*%
X57820000Y-89300000D03*
%TD*%
%TO.C,1*%
X55280000Y-89300000D03*
%TD*%
%TO.C,1*%
X52740000Y-89300000D03*
%TD*%
%TO.C,1*%
X50200000Y-89300000D03*
%TD*%
%TO.C,1*%
X47660000Y-89300000D03*
%TD*%
%TO.C,1*%
X159420000Y-91840000D03*
%TD*%
%TO.C,1*%
X156880000Y-91840000D03*
%TD*%
%TO.C,1*%
X154340000Y-91840000D03*
%TD*%
%TO.C,1*%
X151800000Y-91840000D03*
%TD*%
%TO.C,1*%
X149260000Y-91840000D03*
%TD*%
%TO.C,1*%
X146720000Y-91840000D03*
%TD*%
%TO.C,1*%
X144180000Y-91840000D03*
%TD*%
%TO.C,1*%
X141640000Y-91840000D03*
%TD*%
%TO.C,1*%
X139100000Y-91840000D03*
%TD*%
%TO.C,1*%
X136560000Y-91840000D03*
%TD*%
%TO.C,1*%
X134020000Y-91840000D03*
%TD*%
%TO.C,1*%
X131480000Y-91840000D03*
%TD*%
%TO.C,1*%
X128940000Y-91840000D03*
%TD*%
%TO.C,1*%
X126400000Y-91840000D03*
%TD*%
%TO.C,1*%
X123860000Y-91840000D03*
%TD*%
%TO.C,1*%
X121320000Y-91840000D03*
%TD*%
%TO.C,1*%
X118780000Y-91840000D03*
%TD*%
%TO.C,1*%
X116240000Y-91840000D03*
%TD*%
%TO.C,1*%
X113700000Y-91840000D03*
%TD*%
%TO.C,1*%
X111160000Y-91840000D03*
%TD*%
%TO.C,1*%
X108620000Y-91840000D03*
%TD*%
%TO.C,1*%
X106080000Y-91840000D03*
%TD*%
%TO.C,1*%
X103540000Y-91840000D03*
%TD*%
%TO.C,1*%
X101000000Y-91840000D03*
%TD*%
%TO.C,1*%
X98460000Y-91840000D03*
%TD*%
%TO.C,1*%
X95920000Y-91840000D03*
%TD*%
%TO.C,1*%
X93380000Y-91840000D03*
%TD*%
%TO.C,1*%
X90840000Y-91840000D03*
%TD*%
%TO.C,1*%
X88300000Y-91840000D03*
%TD*%
%TO.C,1*%
X85760000Y-91840000D03*
%TD*%
%TO.C,1*%
X83220000Y-91840000D03*
%TD*%
%TO.C,1*%
X80680000Y-91840000D03*
%TD*%
%TO.C,1*%
X78140000Y-91840000D03*
%TD*%
%TO.C,1*%
X75600000Y-91840000D03*
%TD*%
%TO.C,1*%
X73060000Y-91840000D03*
%TD*%
%TO.C,1*%
X70520000Y-91840000D03*
%TD*%
%TO.C,1*%
X67980000Y-91840000D03*
%TD*%
%TO.C,1*%
X65440000Y-91840000D03*
%TD*%
%TO.C,1*%
X62900000Y-91840000D03*
%TD*%
%TO.C,1*%
X60360000Y-91840000D03*
%TD*%
%TO.C,1*%
X57820000Y-91840000D03*
%TD*%
%TO.C,1*%
X55280000Y-91840000D03*
%TD*%
%TO.C,1*%
X52740000Y-91840000D03*
%TD*%
%TO.C,1*%
X50200000Y-91840000D03*
%TD*%
%TO.C,1*%
X47660000Y-91840000D03*
%TD*%
%TO.C,1*%
X159420000Y-94380000D03*
%TD*%
%TO.C,1*%
X156880000Y-94380000D03*
%TD*%
%TO.C,1*%
X154340000Y-94380000D03*
%TD*%
%TO.C,1*%
X151800000Y-94380000D03*
%TD*%
%TO.C,1*%
X149260000Y-94380000D03*
%TD*%
%TO.C,1*%
X146720000Y-94380000D03*
%TD*%
%TO.C,1*%
X144180000Y-94380000D03*
%TD*%
%TO.C,1*%
X141640000Y-94380000D03*
%TD*%
%TO.C,1*%
X139100000Y-94380000D03*
%TD*%
%TO.C,1*%
X136560000Y-94380000D03*
%TD*%
%TO.C,1*%
X134020000Y-94380000D03*
%TD*%
%TO.C,1*%
X131480000Y-94380000D03*
%TD*%
%TO.C,1*%
X128940000Y-94380000D03*
%TD*%
%TO.C,1*%
X126400000Y-94380000D03*
%TD*%
%TO.C,1*%
X123860000Y-94380000D03*
%TD*%
%TO.C,1*%
X121320000Y-94380000D03*
%TD*%
%TO.C,1*%
X118780000Y-94380000D03*
%TD*%
%TO.C,1*%
X116240000Y-94380000D03*
%TD*%
%TO.C,1*%
X113700000Y-94380000D03*
%TD*%
%TO.C,1*%
X111160000Y-94380000D03*
%TD*%
%TO.C,1*%
X108620000Y-94380000D03*
%TD*%
%TO.C,1*%
X106080000Y-94380000D03*
%TD*%
%TO.C,1*%
X103540000Y-94380000D03*
%TD*%
%TO.C,1*%
X101000000Y-94380000D03*
%TD*%
%TO.C,1*%
X98460000Y-94380000D03*
%TD*%
%TO.C,1*%
X95920000Y-94380000D03*
%TD*%
%TO.C,1*%
X93380000Y-94380000D03*
%TD*%
%TO.C,1*%
X90840000Y-94380000D03*
%TD*%
%TO.C,1*%
X88300000Y-94380000D03*
%TD*%
%TO.C,1*%
X85760000Y-94380000D03*
%TD*%
%TO.C,1*%
X83220000Y-94380000D03*
%TD*%
%TO.C,1*%
X80680000Y-94380000D03*
%TD*%
%TO.C,1*%
X78140000Y-94380000D03*
%TD*%
%TO.C,1*%
X75600000Y-94380000D03*
%TD*%
%TO.C,1*%
X73060000Y-94380000D03*
%TD*%
%TO.C,1*%
X70520000Y-94380000D03*
%TD*%
%TO.C,1*%
X67980000Y-94380000D03*
%TD*%
%TO.C,1*%
X65440000Y-94380000D03*
%TD*%
%TO.C,1*%
X62900000Y-94380000D03*
%TD*%
%TO.C,1*%
X60360000Y-94380000D03*
%TD*%
%TO.C,1*%
X57820000Y-94380000D03*
%TD*%
%TO.C,1*%
X55280000Y-94380000D03*
%TD*%
%TO.C,1*%
X52740000Y-94380000D03*
%TD*%
%TO.C,1*%
X50200000Y-94380000D03*
%TD*%
%TO.C,1*%
X47660000Y-94380000D03*
%TD*%
%TO.C,1*%
X159420000Y-96920000D03*
%TD*%
%TO.C,1*%
X156880000Y-96920000D03*
%TD*%
%TO.C,1*%
X154340000Y-96920000D03*
%TD*%
%TO.C,1*%
X151800000Y-96920000D03*
%TD*%
%TO.C,1*%
X149260000Y-96920000D03*
%TD*%
%TO.C,1*%
X146720000Y-96920000D03*
%TD*%
%TO.C,1*%
X144180000Y-96920000D03*
%TD*%
%TO.C,1*%
X141640000Y-96920000D03*
%TD*%
%TO.C,1*%
X139100000Y-96920000D03*
%TD*%
%TO.C,1*%
X136560000Y-96920000D03*
%TD*%
%TO.C,1*%
X134020000Y-96920000D03*
%TD*%
%TO.C,1*%
X131480000Y-96920000D03*
%TD*%
%TO.C,1*%
X128940000Y-96920000D03*
%TD*%
%TO.C,1*%
X126400000Y-96920000D03*
%TD*%
%TO.C,1*%
X123860000Y-96920000D03*
%TD*%
%TO.C,1*%
X121320000Y-96920000D03*
%TD*%
%TO.C,1*%
X118780000Y-96920000D03*
%TD*%
%TO.C,1*%
X116240000Y-96920000D03*
%TD*%
%TO.C,1*%
X113700000Y-96920000D03*
%TD*%
%TO.C,1*%
X111160000Y-96920000D03*
%TD*%
%TO.C,1*%
X108620000Y-96920000D03*
%TD*%
%TO.C,1*%
X106080000Y-96920000D03*
%TD*%
%TO.C,1*%
X103540000Y-96920000D03*
%TD*%
%TO.C,1*%
X101000000Y-96920000D03*
%TD*%
%TO.C,1*%
X98460000Y-96920000D03*
%TD*%
%TO.C,1*%
X95920000Y-96920000D03*
%TD*%
%TO.C,1*%
X93380000Y-96920000D03*
%TD*%
%TO.C,1*%
X90840000Y-96920000D03*
%TD*%
%TO.C,1*%
X88300000Y-96920000D03*
%TD*%
%TO.C,1*%
X85760000Y-96920000D03*
%TD*%
%TO.C,1*%
X83220000Y-96920000D03*
%TD*%
%TO.C,1*%
X80680000Y-96920000D03*
%TD*%
%TO.C,1*%
X78140000Y-96920000D03*
%TD*%
%TO.C,1*%
X75600000Y-96920000D03*
%TD*%
%TO.C,1*%
X73060000Y-96920000D03*
%TD*%
%TO.C,1*%
X70520000Y-96920000D03*
%TD*%
%TO.C,1*%
X67980000Y-96920000D03*
%TD*%
%TO.C,1*%
X65440000Y-96920000D03*
%TD*%
%TO.C,1*%
X62900000Y-96920000D03*
%TD*%
%TO.C,1*%
X60360000Y-96920000D03*
%TD*%
%TO.C,1*%
X57820000Y-96920000D03*
%TD*%
%TO.C,1*%
X55280000Y-96920000D03*
%TD*%
%TO.C,1*%
X52740000Y-96920000D03*
%TD*%
%TO.C,1*%
X50200000Y-96920000D03*
%TD*%
%TO.C,1*%
X47660000Y-96920000D03*
%TD*%
%TO.C,1*%
X159420000Y-99460000D03*
%TD*%
%TO.C,1*%
X156880000Y-99460000D03*
%TD*%
%TO.C,1*%
X154340000Y-99460000D03*
%TD*%
%TO.C,1*%
X151800000Y-99460000D03*
%TD*%
%TO.C,1*%
X149260000Y-99460000D03*
%TD*%
%TO.C,1*%
X146720000Y-99460000D03*
%TD*%
%TO.C,1*%
X144180000Y-99460000D03*
%TD*%
%TO.C,1*%
X141640000Y-99460000D03*
%TD*%
%TO.C,1*%
X139100000Y-99460000D03*
%TD*%
%TO.C,1*%
X136560000Y-99460000D03*
%TD*%
%TO.C,1*%
X134020000Y-99460000D03*
%TD*%
%TO.C,1*%
X131480000Y-99460000D03*
%TD*%
%TO.C,1*%
X128940000Y-99460000D03*
%TD*%
%TO.C,1*%
X126400000Y-99460000D03*
%TD*%
%TO.C,1*%
X123860000Y-99460000D03*
%TD*%
%TO.C,1*%
X121320000Y-99460000D03*
%TD*%
%TO.C,1*%
X118780000Y-99460000D03*
%TD*%
%TO.C,1*%
X116240000Y-99460000D03*
%TD*%
%TO.C,1*%
X113700000Y-99460000D03*
%TD*%
%TO.C,1*%
X111160000Y-99460000D03*
%TD*%
%TO.C,1*%
X108620000Y-99460000D03*
%TD*%
%TO.C,1*%
X106080000Y-99460000D03*
%TD*%
%TO.C,1*%
X103540000Y-99460000D03*
%TD*%
%TO.C,1*%
X101000000Y-99460000D03*
%TD*%
%TO.C,1*%
X98460000Y-99460000D03*
%TD*%
%TO.C,1*%
X95920000Y-99460000D03*
%TD*%
%TO.C,1*%
X93380000Y-99460000D03*
%TD*%
%TO.C,1*%
X90840000Y-99460000D03*
%TD*%
%TO.C,1*%
X88300000Y-99460000D03*
%TD*%
%TO.C,1*%
X85760000Y-99460000D03*
%TD*%
%TO.C,1*%
X83220000Y-99460000D03*
%TD*%
%TO.C,1*%
X80680000Y-99460000D03*
%TD*%
%TO.C,1*%
X78140000Y-99460000D03*
%TD*%
%TO.C,1*%
X75600000Y-99460000D03*
%TD*%
%TO.C,1*%
X73060000Y-99460000D03*
%TD*%
%TO.C,1*%
X70520000Y-99460000D03*
%TD*%
%TO.C,1*%
X67980000Y-99460000D03*
%TD*%
%TO.C,1*%
X65440000Y-99460000D03*
%TD*%
%TO.C,1*%
X62900000Y-99460000D03*
%TD*%
%TO.C,1*%
X60360000Y-99460000D03*
%TD*%
%TO.C,1*%
X57820000Y-99460000D03*
%TD*%
%TO.C,1*%
X55280000Y-99460000D03*
%TD*%
%TO.C,1*%
X52740000Y-99460000D03*
%TD*%
%TO.C,1*%
X50200000Y-99460000D03*
%TD*%
%TO.C,1*%
X47660000Y-99460000D03*
%TD*%
%TO.C,1*%
X159420000Y-102000000D03*
%TD*%
%TO.C,1*%
X156880000Y-102000000D03*
%TD*%
%TO.C,1*%
X154340000Y-102000000D03*
%TD*%
%TO.C,1*%
X151800000Y-102000000D03*
%TD*%
%TO.C,1*%
X149260000Y-102000000D03*
%TD*%
%TO.C,1*%
X146720000Y-102000000D03*
%TD*%
%TO.C,1*%
X144180000Y-102000000D03*
%TD*%
%TO.C,1*%
X141640000Y-102000000D03*
%TD*%
%TO.C,1*%
X139100000Y-102000000D03*
%TD*%
%TO.C,1*%
X136560000Y-102000000D03*
%TD*%
%TO.C,1*%
X134020000Y-102000000D03*
%TD*%
%TO.C,1*%
X131480000Y-102000000D03*
%TD*%
%TO.C,1*%
X128940000Y-102000000D03*
%TD*%
%TO.C,1*%
X126400000Y-102000000D03*
%TD*%
%TO.C,1*%
X123860000Y-102000000D03*
%TD*%
%TO.C,1*%
X121320000Y-102000000D03*
%TD*%
%TO.C,1*%
X118780000Y-102000000D03*
%TD*%
%TO.C,1*%
X116240000Y-102000000D03*
%TD*%
%TO.C,1*%
X113700000Y-102000000D03*
%TD*%
%TO.C,1*%
X111160000Y-102000000D03*
%TD*%
%TO.C,1*%
X108620000Y-102000000D03*
%TD*%
%TO.C,1*%
X106080000Y-102000000D03*
%TD*%
%TO.C,1*%
X103540000Y-102000000D03*
%TD*%
%TO.C,1*%
X101000000Y-102000000D03*
%TD*%
%TO.C,1*%
X98460000Y-102000000D03*
%TD*%
%TO.C,1*%
X95920000Y-102000000D03*
%TD*%
%TO.C,1*%
X93380000Y-102000000D03*
%TD*%
%TO.C,1*%
X90840000Y-102000000D03*
%TD*%
%TO.C,1*%
X88300000Y-102000000D03*
%TD*%
%TO.C,1*%
X85760000Y-102000000D03*
%TD*%
%TO.C,1*%
X83220000Y-102000000D03*
%TD*%
%TO.C,1*%
X80680000Y-102000000D03*
%TD*%
%TO.C,1*%
X78140000Y-102000000D03*
%TD*%
%TO.C,1*%
X75600000Y-102000000D03*
%TD*%
%TO.C,1*%
X73060000Y-102000000D03*
%TD*%
%TO.C,1*%
X70520000Y-102000000D03*
%TD*%
%TO.C,1*%
X67980000Y-102000000D03*
%TD*%
%TO.C,1*%
X65440000Y-102000000D03*
%TD*%
%TO.C,1*%
X62900000Y-102000000D03*
%TD*%
%TO.C,1*%
X60360000Y-102000000D03*
%TD*%
%TO.C,1*%
X57820000Y-102000000D03*
%TD*%
%TO.C,1*%
X55280000Y-102000000D03*
%TD*%
%TO.C,1*%
X52740000Y-102000000D03*
%TD*%
%TO.C,1*%
X50200000Y-102000000D03*
%TD*%
%TO.C,1*%
X47660000Y-102000000D03*
%TD*%
%TO.C,1*%
X159420000Y-104540000D03*
%TD*%
%TO.C,1*%
X156880000Y-104540000D03*
%TD*%
%TO.C,1*%
X154340000Y-104540000D03*
%TD*%
%TO.C,1*%
X151800000Y-104540000D03*
%TD*%
%TO.C,1*%
X149260000Y-104540000D03*
%TD*%
%TO.C,1*%
X146720000Y-104540000D03*
%TD*%
%TO.C,1*%
X144180000Y-104540000D03*
%TD*%
%TO.C,1*%
X141640000Y-104540000D03*
%TD*%
%TO.C,1*%
X139100000Y-104540000D03*
%TD*%
%TO.C,1*%
X136560000Y-104540000D03*
%TD*%
%TO.C,1*%
X134020000Y-104540000D03*
%TD*%
%TO.C,1*%
X131480000Y-104540000D03*
%TD*%
%TO.C,1*%
X128940000Y-104540000D03*
%TD*%
%TO.C,1*%
X126400000Y-104540000D03*
%TD*%
%TO.C,1*%
X123860000Y-104540000D03*
%TD*%
%TO.C,1*%
X121320000Y-104540000D03*
%TD*%
%TO.C,1*%
X118780000Y-104540000D03*
%TD*%
%TO.C,1*%
X116240000Y-104540000D03*
%TD*%
%TO.C,1*%
X113700000Y-104540000D03*
%TD*%
%TO.C,1*%
X111160000Y-104540000D03*
%TD*%
%TO.C,1*%
X108620000Y-104540000D03*
%TD*%
%TO.C,1*%
X106080000Y-104540000D03*
%TD*%
%TO.C,1*%
X103540000Y-104540000D03*
%TD*%
%TO.C,1*%
X101000000Y-104540000D03*
%TD*%
%TO.C,1*%
X98460000Y-104540000D03*
%TD*%
%TO.C,1*%
X95920000Y-104540000D03*
%TD*%
%TO.C,1*%
X93380000Y-104540000D03*
%TD*%
%TO.C,1*%
X90840000Y-104540000D03*
%TD*%
%TO.C,1*%
X88300000Y-104540000D03*
%TD*%
%TO.C,1*%
X85760000Y-104540000D03*
%TD*%
%TO.C,1*%
X83220000Y-104540000D03*
%TD*%
%TO.C,1*%
X80680000Y-104540000D03*
%TD*%
%TO.C,1*%
X78140000Y-104540000D03*
%TD*%
%TO.C,1*%
X75600000Y-104540000D03*
%TD*%
%TO.C,1*%
X73060000Y-104540000D03*
%TD*%
%TO.C,1*%
X70520000Y-104540000D03*
%TD*%
%TO.C,1*%
X67980000Y-104540000D03*
%TD*%
%TO.C,1*%
X65440000Y-104540000D03*
%TD*%
%TO.C,1*%
X62900000Y-104540000D03*
%TD*%
%TO.C,1*%
X60360000Y-104540000D03*
%TD*%
%TO.C,1*%
X57820000Y-104540000D03*
%TD*%
%TO.C,1*%
X55280000Y-104540000D03*
%TD*%
%TO.C,1*%
X52740000Y-104540000D03*
%TD*%
%TO.C,1*%
X50200000Y-104540000D03*
%TD*%
%TO.C,1*%
X47660000Y-104540000D03*
%TD*%
%TO.C,1*%
X159420000Y-107080000D03*
%TD*%
%TO.C,1*%
X156880000Y-107080000D03*
%TD*%
%TO.C,1*%
X154340000Y-107080000D03*
%TD*%
%TO.C,1*%
X151800000Y-107080000D03*
%TD*%
%TO.C,1*%
X149260000Y-107080000D03*
%TD*%
%TO.C,1*%
X146720000Y-107080000D03*
%TD*%
%TO.C,1*%
X144180000Y-107080000D03*
%TD*%
%TO.C,1*%
X141640000Y-107080000D03*
%TD*%
%TO.C,1*%
X139100000Y-107080000D03*
%TD*%
%TO.C,1*%
X136560000Y-107080000D03*
%TD*%
%TO.C,1*%
X134020000Y-107080000D03*
%TD*%
%TO.C,1*%
X131480000Y-107080000D03*
%TD*%
%TO.C,1*%
X128940000Y-107080000D03*
%TD*%
%TO.C,1*%
X126400000Y-107080000D03*
%TD*%
%TO.C,1*%
X123860000Y-107080000D03*
%TD*%
%TO.C,1*%
X121320000Y-107080000D03*
%TD*%
%TO.C,1*%
X118780000Y-107080000D03*
%TD*%
%TO.C,1*%
X116240000Y-107080000D03*
%TD*%
%TO.C,1*%
X113700000Y-107080000D03*
%TD*%
%TO.C,1*%
X111160000Y-107080000D03*
%TD*%
%TO.C,1*%
X108620000Y-107080000D03*
%TD*%
%TO.C,1*%
X106080000Y-107080000D03*
%TD*%
%TO.C,1*%
X103540000Y-107080000D03*
%TD*%
%TO.C,1*%
X101000000Y-107080000D03*
%TD*%
%TO.C,1*%
X98460000Y-107080000D03*
%TD*%
%TO.C,1*%
X95920000Y-107080000D03*
%TD*%
%TO.C,1*%
X93380000Y-107080000D03*
%TD*%
%TO.C,1*%
X90840000Y-107080000D03*
%TD*%
%TO.C,1*%
X88300000Y-107080000D03*
%TD*%
%TO.C,1*%
X85760000Y-107080000D03*
%TD*%
%TO.C,1*%
X83220000Y-107080000D03*
%TD*%
%TO.C,1*%
X80680000Y-107080000D03*
%TD*%
%TO.C,1*%
X78140000Y-107080000D03*
%TD*%
%TO.C,1*%
X75600000Y-107080000D03*
%TD*%
%TO.C,1*%
X73060000Y-107080000D03*
%TD*%
%TO.C,1*%
X70520000Y-107080000D03*
%TD*%
%TO.C,1*%
X67980000Y-107080000D03*
%TD*%
%TO.C,1*%
X65440000Y-107080000D03*
%TD*%
%TO.C,1*%
X62900000Y-107080000D03*
%TD*%
%TO.C,1*%
X60360000Y-107080000D03*
%TD*%
%TO.C,1*%
X57820000Y-107080000D03*
%TD*%
%TO.C,1*%
X55280000Y-107080000D03*
%TD*%
%TO.C,1*%
X52740000Y-107080000D03*
%TD*%
%TO.C,1*%
X50200000Y-107080000D03*
%TD*%
%TO.C,1*%
X47660000Y-107080000D03*
%TD*%
%TO.C,1*%
X159420000Y-109620000D03*
%TD*%
%TO.C,1*%
X156880000Y-109620000D03*
%TD*%
%TO.C,1*%
X154340000Y-109620000D03*
%TD*%
%TO.C,1*%
X151800000Y-109620000D03*
%TD*%
%TO.C,1*%
X149260000Y-109620000D03*
%TD*%
%TO.C,1*%
X146720000Y-109620000D03*
%TD*%
%TO.C,1*%
X144180000Y-109620000D03*
%TD*%
%TO.C,1*%
X141640000Y-109620000D03*
%TD*%
%TO.C,1*%
X139100000Y-109620000D03*
%TD*%
%TO.C,1*%
X136560000Y-109620000D03*
%TD*%
%TO.C,1*%
X134020000Y-109620000D03*
%TD*%
%TO.C,1*%
X131480000Y-109620000D03*
%TD*%
%TO.C,1*%
X128940000Y-109620000D03*
%TD*%
%TO.C,1*%
X126400000Y-109620000D03*
%TD*%
%TO.C,1*%
X123860000Y-109620000D03*
%TD*%
%TO.C,1*%
X121320000Y-109620000D03*
%TD*%
%TO.C,1*%
X118780000Y-109620000D03*
%TD*%
%TO.C,1*%
X116240000Y-109620000D03*
%TD*%
%TO.C,1*%
X113700000Y-109620000D03*
%TD*%
%TO.C,1*%
X111160000Y-109620000D03*
%TD*%
%TO.C,1*%
X108620000Y-109620000D03*
%TD*%
%TO.C,1*%
X106080000Y-109620000D03*
%TD*%
%TO.C,1*%
X103540000Y-109620000D03*
%TD*%
%TO.C,1*%
X101000000Y-109620000D03*
%TD*%
%TO.C,1*%
X98460000Y-109620000D03*
%TD*%
%TO.C,1*%
X95920000Y-109620000D03*
%TD*%
%TO.C,1*%
X93380000Y-109620000D03*
%TD*%
%TO.C,1*%
X90840000Y-109620000D03*
%TD*%
%TO.C,1*%
X88300000Y-109620000D03*
%TD*%
%TO.C,1*%
X85760000Y-109620000D03*
%TD*%
%TO.C,1*%
X83220000Y-109620000D03*
%TD*%
%TO.C,1*%
X80680000Y-109620000D03*
%TD*%
%TO.C,1*%
X78140000Y-109620000D03*
%TD*%
%TO.C,1*%
X75600000Y-109620000D03*
%TD*%
%TO.C,1*%
X73060000Y-109620000D03*
%TD*%
%TO.C,1*%
X70520000Y-109620000D03*
%TD*%
%TO.C,1*%
X67980000Y-109620000D03*
%TD*%
%TO.C,1*%
X65440000Y-109620000D03*
%TD*%
%TO.C,1*%
X62900000Y-109620000D03*
%TD*%
%TO.C,1*%
X60360000Y-109620000D03*
%TD*%
%TO.C,1*%
X57820000Y-109620000D03*
%TD*%
%TO.C,1*%
X55280000Y-109620000D03*
%TD*%
%TO.C,1*%
X52740000Y-109620000D03*
%TD*%
%TO.C,1*%
X50200000Y-109620000D03*
%TD*%
%TO.C,1*%
X47660000Y-109620000D03*
%TD*%
%TO.C,1*%
X159420000Y-112160000D03*
%TD*%
%TO.C,1*%
X156880000Y-112160000D03*
%TD*%
%TO.C,1*%
X154340000Y-112160000D03*
%TD*%
%TO.C,1*%
X151800000Y-112160000D03*
%TD*%
%TO.C,1*%
X149260000Y-112160000D03*
%TD*%
%TO.C,1*%
X146720000Y-112160000D03*
%TD*%
%TO.C,1*%
X144180000Y-112160000D03*
%TD*%
%TO.C,1*%
X141640000Y-112160000D03*
%TD*%
%TO.C,1*%
X139100000Y-112160000D03*
%TD*%
%TO.C,1*%
X136560000Y-112160000D03*
%TD*%
%TO.C,1*%
X134020000Y-112160000D03*
%TD*%
%TO.C,1*%
X131480000Y-112160000D03*
%TD*%
%TO.C,1*%
X128940000Y-112160000D03*
%TD*%
%TO.C,1*%
X126400000Y-112160000D03*
%TD*%
%TO.C,1*%
X123860000Y-112160000D03*
%TD*%
%TO.C,1*%
X121320000Y-112160000D03*
%TD*%
%TO.C,1*%
X118780000Y-112160000D03*
%TD*%
%TO.C,1*%
X116240000Y-112160000D03*
%TD*%
%TO.C,1*%
X113700000Y-112160000D03*
%TD*%
%TO.C,1*%
X111160000Y-112160000D03*
%TD*%
%TO.C,1*%
X108620000Y-112160000D03*
%TD*%
%TO.C,1*%
X106080000Y-112160000D03*
%TD*%
%TO.C,1*%
X103540000Y-112160000D03*
%TD*%
%TO.C,1*%
X101000000Y-112160000D03*
%TD*%
%TO.C,1*%
X98460000Y-112160000D03*
%TD*%
%TO.C,1*%
X95920000Y-112160000D03*
%TD*%
%TO.C,1*%
X93380000Y-112160000D03*
%TD*%
%TO.C,1*%
X90840000Y-112160000D03*
%TD*%
%TO.C,1*%
X88300000Y-112160000D03*
%TD*%
%TO.C,1*%
X85760000Y-112160000D03*
%TD*%
%TO.C,1*%
X83220000Y-112160000D03*
%TD*%
%TO.C,1*%
X80680000Y-112160000D03*
%TD*%
%TO.C,1*%
X78140000Y-112160000D03*
%TD*%
%TO.C,1*%
X75600000Y-112160000D03*
%TD*%
%TO.C,1*%
X73060000Y-112160000D03*
%TD*%
%TO.C,1*%
X70520000Y-112160000D03*
%TD*%
%TO.C,1*%
X67980000Y-112160000D03*
%TD*%
%TO.C,1*%
X65440000Y-112160000D03*
%TD*%
%TO.C,1*%
X62900000Y-112160000D03*
%TD*%
%TO.C,1*%
X60360000Y-112160000D03*
%TD*%
%TO.C,1*%
X57820000Y-112160000D03*
%TD*%
%TO.C,1*%
X55280000Y-112160000D03*
%TD*%
%TO.C,1*%
X52740000Y-112160000D03*
%TD*%
%TO.C,1*%
X50200000Y-112160000D03*
%TD*%
%TO.C,1*%
X47660000Y-112160000D03*
%TD*%
%TO.C,1*%
X159420000Y-114700000D03*
%TD*%
%TO.C,1*%
X156880000Y-114700000D03*
%TD*%
%TO.C,1*%
X154340000Y-114700000D03*
%TD*%
%TO.C,1*%
X151800000Y-114700000D03*
%TD*%
%TO.C,1*%
X149260000Y-114700000D03*
%TD*%
%TO.C,1*%
X146720000Y-114700000D03*
%TD*%
%TO.C,1*%
X144180000Y-114700000D03*
%TD*%
%TO.C,1*%
X141640000Y-114700000D03*
%TD*%
%TO.C,1*%
X139100000Y-114700000D03*
%TD*%
%TO.C,1*%
X136560000Y-114700000D03*
%TD*%
%TO.C,1*%
X134020000Y-114700000D03*
%TD*%
%TO.C,1*%
X131480000Y-114700000D03*
%TD*%
%TO.C,1*%
X128940000Y-114700000D03*
%TD*%
%TO.C,1*%
X126400000Y-114700000D03*
%TD*%
%TO.C,1*%
X123860000Y-114700000D03*
%TD*%
%TO.C,1*%
X121320000Y-114700000D03*
%TD*%
%TO.C,1*%
X118780000Y-114700000D03*
%TD*%
%TO.C,1*%
X116240000Y-114700000D03*
%TD*%
%TO.C,1*%
X113700000Y-114700000D03*
%TD*%
%TO.C,1*%
X111160000Y-114700000D03*
%TD*%
%TO.C,1*%
X108620000Y-114700000D03*
%TD*%
%TO.C,1*%
X106080000Y-114700000D03*
%TD*%
%TO.C,1*%
X103540000Y-114700000D03*
%TD*%
%TO.C,1*%
X101000000Y-114700000D03*
%TD*%
%TO.C,1*%
X98460000Y-114700000D03*
%TD*%
%TO.C,1*%
X95920000Y-114700000D03*
%TD*%
%TO.C,1*%
X93380000Y-114700000D03*
%TD*%
%TO.C,1*%
X90840000Y-114700000D03*
%TD*%
%TO.C,1*%
X88300000Y-114700000D03*
%TD*%
%TO.C,1*%
X85760000Y-114700000D03*
%TD*%
%TO.C,1*%
X83220000Y-114700000D03*
%TD*%
%TO.C,1*%
X80680000Y-114700000D03*
%TD*%
%TO.C,1*%
X78140000Y-114700000D03*
%TD*%
%TO.C,1*%
X75600000Y-114700000D03*
%TD*%
%TO.C,1*%
X73060000Y-114700000D03*
%TD*%
%TO.C,1*%
X70520000Y-114700000D03*
%TD*%
%TO.C,1*%
X67980000Y-114700000D03*
%TD*%
%TO.C,1*%
X65440000Y-114700000D03*
%TD*%
%TO.C,1*%
X62900000Y-114700000D03*
%TD*%
%TO.C,1*%
X60360000Y-114700000D03*
%TD*%
%TO.C,1*%
X57820000Y-114700000D03*
%TD*%
%TO.C,1*%
X55280000Y-114700000D03*
%TD*%
%TO.C,1*%
X52740000Y-114700000D03*
%TD*%
%TO.C,1*%
X50200000Y-114700000D03*
%TD*%
%TO.C,1*%
X47660000Y-114700000D03*
%TD*%
%TO.C,1*%
X159420000Y-117240000D03*
%TD*%
%TO.C,1*%
X156880000Y-117240000D03*
%TD*%
%TO.C,1*%
X154340000Y-117240000D03*
%TD*%
%TO.C,1*%
X151800000Y-117240000D03*
%TD*%
%TO.C,1*%
X149260000Y-117240000D03*
%TD*%
%TO.C,1*%
X146720000Y-117240000D03*
%TD*%
%TO.C,1*%
X144180000Y-117240000D03*
%TD*%
%TO.C,1*%
X141640000Y-117240000D03*
%TD*%
%TO.C,1*%
X139100000Y-117240000D03*
%TD*%
%TO.C,1*%
X136560000Y-117240000D03*
%TD*%
%TO.C,1*%
X134020000Y-117240000D03*
%TD*%
%TO.C,1*%
X131480000Y-117240000D03*
%TD*%
%TO.C,1*%
X128940000Y-117240000D03*
%TD*%
%TO.C,1*%
X126400000Y-117240000D03*
%TD*%
%TO.C,1*%
X123860000Y-117240000D03*
%TD*%
%TO.C,1*%
X121320000Y-117240000D03*
%TD*%
%TO.C,1*%
X118780000Y-117240000D03*
%TD*%
%TO.C,1*%
X116240000Y-117240000D03*
%TD*%
%TO.C,1*%
X113700000Y-117240000D03*
%TD*%
%TO.C,1*%
X111160000Y-117240000D03*
%TD*%
%TO.C,1*%
X108620000Y-117240000D03*
%TD*%
%TO.C,1*%
X106080000Y-117240000D03*
%TD*%
%TO.C,1*%
X103540000Y-117240000D03*
%TD*%
%TO.C,1*%
X101000000Y-117240000D03*
%TD*%
%TO.C,1*%
X98460000Y-117240000D03*
%TD*%
%TO.C,1*%
X95920000Y-117240000D03*
%TD*%
%TO.C,1*%
X93380000Y-117240000D03*
%TD*%
%TO.C,1*%
X90840000Y-117240000D03*
%TD*%
%TO.C,1*%
X88300000Y-117240000D03*
%TD*%
%TO.C,1*%
X85760000Y-117240000D03*
%TD*%
%TO.C,1*%
X83220000Y-117240000D03*
%TD*%
%TO.C,1*%
X80680000Y-117240000D03*
%TD*%
%TO.C,1*%
X78140000Y-117240000D03*
%TD*%
%TO.C,1*%
X75600000Y-117240000D03*
%TD*%
%TO.C,1*%
X73060000Y-117240000D03*
%TD*%
%TO.C,1*%
X70520000Y-117240000D03*
%TD*%
%TO.C,1*%
X67980000Y-117240000D03*
%TD*%
%TO.C,1*%
X65440000Y-117240000D03*
%TD*%
%TO.C,1*%
X62900000Y-117240000D03*
%TD*%
%TO.C,1*%
X60360000Y-117240000D03*
%TD*%
%TO.C,1*%
X57820000Y-117240000D03*
%TD*%
%TO.C,1*%
X55280000Y-117240000D03*
%TD*%
%TO.C,1*%
X52740000Y-117240000D03*
%TD*%
%TO.C,1*%
X50200000Y-117240000D03*
%TD*%
%TO.C,1*%
X47660000Y-117240000D03*
%TD*%
%TO.C,1*%
X159420000Y-119780000D03*
%TD*%
%TO.C,1*%
X156880000Y-119780000D03*
%TD*%
%TO.C,1*%
X154340000Y-119780000D03*
%TD*%
%TO.C,1*%
X151800000Y-119780000D03*
%TD*%
%TO.C,1*%
X149260000Y-119780000D03*
%TD*%
%TO.C,1*%
X146720000Y-119780000D03*
%TD*%
%TO.C,1*%
X144180000Y-119780000D03*
%TD*%
%TO.C,1*%
X141640000Y-119780000D03*
%TD*%
%TO.C,1*%
X139100000Y-119780000D03*
%TD*%
%TO.C,1*%
X136560000Y-119780000D03*
%TD*%
%TO.C,1*%
X134020000Y-119780000D03*
%TD*%
%TO.C,1*%
X131480000Y-119780000D03*
%TD*%
%TO.C,1*%
X128940000Y-119780000D03*
%TD*%
%TO.C,1*%
X126400000Y-119780000D03*
%TD*%
%TO.C,1*%
X123860000Y-119780000D03*
%TD*%
%TO.C,1*%
X121320000Y-119780000D03*
%TD*%
%TO.C,1*%
X118780000Y-119780000D03*
%TD*%
%TO.C,1*%
X116240000Y-119780000D03*
%TD*%
%TO.C,1*%
X113700000Y-119780000D03*
%TD*%
%TO.C,1*%
X111160000Y-119780000D03*
%TD*%
%TO.C,1*%
X108620000Y-119780000D03*
%TD*%
%TO.C,1*%
X106080000Y-119780000D03*
%TD*%
%TO.C,1*%
X103540000Y-119780000D03*
%TD*%
%TO.C,1*%
X101000000Y-119780000D03*
%TD*%
%TO.C,1*%
X98460000Y-119780000D03*
%TD*%
%TO.C,1*%
X95920000Y-119780000D03*
%TD*%
%TO.C,1*%
X93380000Y-119780000D03*
%TD*%
%TO.C,1*%
X90840000Y-119780000D03*
%TD*%
%TO.C,1*%
X88300000Y-119780000D03*
%TD*%
%TO.C,1*%
X85760000Y-119780000D03*
%TD*%
%TO.C,1*%
X83220000Y-119780000D03*
%TD*%
%TO.C,1*%
X80680000Y-119780000D03*
%TD*%
%TO.C,1*%
X78140000Y-119780000D03*
%TD*%
%TO.C,1*%
X75600000Y-119780000D03*
%TD*%
%TO.C,1*%
X73060000Y-119780000D03*
%TD*%
%TO.C,1*%
X70520000Y-119780000D03*
%TD*%
%TO.C,1*%
X67980000Y-119780000D03*
%TD*%
%TO.C,1*%
X65440000Y-119780000D03*
%TD*%
%TO.C,1*%
X62900000Y-119780000D03*
%TD*%
%TO.C,1*%
X60360000Y-119780000D03*
%TD*%
%TO.C,1*%
X57820000Y-119780000D03*
%TD*%
%TO.C,1*%
X55280000Y-119780000D03*
%TD*%
%TO.C,1*%
X52740000Y-119780000D03*
%TD*%
%TO.C,1*%
X50200000Y-119780000D03*
%TD*%
%TO.C,1*%
X47660000Y-119780000D03*
%TD*%
%TO.C,1*%
X159420000Y-122320000D03*
%TD*%
%TO.C,1*%
X156880000Y-122320000D03*
%TD*%
%TO.C,1*%
X154340000Y-122320000D03*
%TD*%
%TO.C,1*%
X151800000Y-122320000D03*
%TD*%
%TO.C,1*%
X149260000Y-122320000D03*
%TD*%
%TO.C,1*%
X146720000Y-122320000D03*
%TD*%
%TO.C,1*%
X144180000Y-122320000D03*
%TD*%
%TO.C,1*%
X141640000Y-122320000D03*
%TD*%
%TO.C,1*%
X139100000Y-122320000D03*
%TD*%
%TO.C,1*%
X136560000Y-122320000D03*
%TD*%
%TO.C,1*%
X134020000Y-122320000D03*
%TD*%
%TO.C,1*%
X131480000Y-122320000D03*
%TD*%
%TO.C,1*%
X128940000Y-122320000D03*
%TD*%
%TO.C,1*%
X126400000Y-122320000D03*
%TD*%
%TO.C,1*%
X123860000Y-122320000D03*
%TD*%
%TO.C,1*%
X121320000Y-122320000D03*
%TD*%
%TO.C,1*%
X118780000Y-122320000D03*
%TD*%
%TO.C,1*%
X116240000Y-122320000D03*
%TD*%
%TO.C,1*%
X113700000Y-122320000D03*
%TD*%
%TO.C,1*%
X111160000Y-122320000D03*
%TD*%
%TO.C,1*%
X108620000Y-122320000D03*
%TD*%
%TO.C,1*%
X106080000Y-122320000D03*
%TD*%
%TO.C,1*%
X103540000Y-122320000D03*
%TD*%
%TO.C,1*%
X101000000Y-122320000D03*
%TD*%
%TO.C,1*%
X98460000Y-122320000D03*
%TD*%
%TO.C,1*%
X95920000Y-122320000D03*
%TD*%
%TO.C,1*%
X93380000Y-122320000D03*
%TD*%
%TO.C,1*%
X90840000Y-122320000D03*
%TD*%
%TO.C,1*%
X88300000Y-122320000D03*
%TD*%
%TO.C,1*%
X85760000Y-122320000D03*
%TD*%
%TO.C,1*%
X83220000Y-122320000D03*
%TD*%
%TO.C,1*%
X80680000Y-122320000D03*
%TD*%
%TO.C,1*%
X78140000Y-122320000D03*
%TD*%
%TO.C,1*%
X75600000Y-122320000D03*
%TD*%
%TO.C,1*%
X73060000Y-122320000D03*
%TD*%
%TO.C,1*%
X70520000Y-122320000D03*
%TD*%
%TO.C,1*%
X67980000Y-122320000D03*
%TD*%
%TO.C,1*%
X65440000Y-122320000D03*
%TD*%
%TO.C,1*%
X62900000Y-122320000D03*
%TD*%
%TO.C,1*%
X60360000Y-122320000D03*
%TD*%
%TO.C,1*%
X57820000Y-122320000D03*
%TD*%
%TO.C,1*%
X55280000Y-122320000D03*
%TD*%
%TO.C,1*%
X52740000Y-122320000D03*
%TD*%
%TO.C,1*%
X50200000Y-122320000D03*
%TD*%
%TO.C,1*%
X47660000Y-122320000D03*
%TD*%
%TO.C,1*%
X159420000Y-124860000D03*
%TD*%
%TO.C,1*%
X156880000Y-124860000D03*
%TD*%
%TO.C,1*%
X154340000Y-124860000D03*
%TD*%
%TO.C,1*%
X151800000Y-124860000D03*
%TD*%
%TO.C,1*%
X149260000Y-124860000D03*
%TD*%
%TO.C,1*%
X146720000Y-124860000D03*
%TD*%
%TO.C,1*%
X144180000Y-124860000D03*
%TD*%
%TO.C,1*%
X141640000Y-124860000D03*
%TD*%
%TO.C,1*%
X139100000Y-124860000D03*
%TD*%
%TO.C,1*%
X136560000Y-124860000D03*
%TD*%
%TO.C,1*%
X134020000Y-124860000D03*
%TD*%
%TO.C,1*%
X131480000Y-124860000D03*
%TD*%
%TO.C,1*%
X128940000Y-124860000D03*
%TD*%
%TO.C,1*%
X126400000Y-124860000D03*
%TD*%
%TO.C,1*%
X123860000Y-124860000D03*
%TD*%
%TO.C,1*%
X121320000Y-124860000D03*
%TD*%
%TO.C,1*%
X118780000Y-124860000D03*
%TD*%
%TO.C,1*%
X116240000Y-124860000D03*
%TD*%
%TO.C,1*%
X113700000Y-124860000D03*
%TD*%
%TO.C,1*%
X111160000Y-124860000D03*
%TD*%
%TO.C,1*%
X108620000Y-124860000D03*
%TD*%
%TO.C,1*%
X106080000Y-124860000D03*
%TD*%
%TO.C,1*%
X103540000Y-124860000D03*
%TD*%
%TO.C,1*%
X101000000Y-124860000D03*
%TD*%
%TO.C,1*%
X98460000Y-124860000D03*
%TD*%
%TO.C,1*%
X95920000Y-124860000D03*
%TD*%
%TO.C,1*%
X93380000Y-124860000D03*
%TD*%
%TO.C,1*%
X90840000Y-124860000D03*
%TD*%
%TO.C,1*%
X88300000Y-124860000D03*
%TD*%
%TO.C,1*%
X85760000Y-124860000D03*
%TD*%
%TO.C,1*%
X83220000Y-124860000D03*
%TD*%
%TO.C,1*%
X80680000Y-124860000D03*
%TD*%
%TO.C,1*%
X78140000Y-124860000D03*
%TD*%
%TO.C,1*%
X75600000Y-124860000D03*
%TD*%
%TO.C,1*%
X73060000Y-124860000D03*
%TD*%
%TO.C,1*%
X70520000Y-124860000D03*
%TD*%
%TO.C,1*%
X67980000Y-124860000D03*
%TD*%
%TO.C,1*%
X65440000Y-124860000D03*
%TD*%
%TO.C,1*%
X62900000Y-124860000D03*
%TD*%
%TO.C,1*%
X60360000Y-124860000D03*
%TD*%
%TO.C,1*%
X57820000Y-124860000D03*
%TD*%
%TO.C,1*%
X55280000Y-124860000D03*
%TD*%
%TO.C,1*%
X52740000Y-124860000D03*
%TD*%
%TO.C,1*%
X50200000Y-124860000D03*
%TD*%
%TO.C,1*%
X47660000Y-124860000D03*
%TD*%
%TO.C,1*%
X159420000Y-127400000D03*
%TD*%
%TO.C,1*%
X156880000Y-127400000D03*
%TD*%
%TO.C,1*%
X154340000Y-127400000D03*
%TD*%
%TO.C,1*%
X151800000Y-127400000D03*
%TD*%
%TO.C,1*%
X149260000Y-127400000D03*
%TD*%
%TO.C,1*%
X146720000Y-127400000D03*
%TD*%
%TO.C,1*%
X144180000Y-127400000D03*
%TD*%
%TO.C,1*%
X141640000Y-127400000D03*
%TD*%
%TO.C,1*%
X139100000Y-127400000D03*
%TD*%
%TO.C,1*%
X136560000Y-127400000D03*
%TD*%
%TO.C,1*%
X134020000Y-127400000D03*
%TD*%
%TO.C,1*%
X131480000Y-127400000D03*
%TD*%
%TO.C,1*%
X128940000Y-127400000D03*
%TD*%
%TO.C,1*%
X126400000Y-127400000D03*
%TD*%
%TO.C,1*%
X123860000Y-127400000D03*
%TD*%
%TO.C,1*%
X121320000Y-127400000D03*
%TD*%
%TO.C,1*%
X118780000Y-127400000D03*
%TD*%
%TO.C,1*%
X116240000Y-127400000D03*
%TD*%
%TO.C,1*%
X113700000Y-127400000D03*
%TD*%
%TO.C,1*%
X111160000Y-127400000D03*
%TD*%
%TO.C,1*%
X108620000Y-127400000D03*
%TD*%
%TO.C,1*%
X106080000Y-127400000D03*
%TD*%
%TO.C,1*%
X103540000Y-127400000D03*
%TD*%
%TO.C,1*%
X101000000Y-127400000D03*
%TD*%
%TO.C,1*%
X98460000Y-127400000D03*
%TD*%
%TO.C,1*%
X95920000Y-127400000D03*
%TD*%
%TO.C,1*%
X93380000Y-127400000D03*
%TD*%
%TO.C,1*%
X90840000Y-127400000D03*
%TD*%
%TO.C,1*%
X88300000Y-127400000D03*
%TD*%
%TO.C,1*%
X85760000Y-127400000D03*
%TD*%
%TO.C,1*%
X83220000Y-127400000D03*
%TD*%
%TO.C,1*%
X80680000Y-127400000D03*
%TD*%
%TO.C,1*%
X78140000Y-127400000D03*
%TD*%
%TO.C,1*%
X75600000Y-127400000D03*
%TD*%
%TO.C,1*%
X73060000Y-127400000D03*
%TD*%
%TO.C,1*%
X70520000Y-127400000D03*
%TD*%
%TO.C,1*%
X67980000Y-127400000D03*
%TD*%
%TO.C,1*%
X65440000Y-127400000D03*
%TD*%
%TO.C,1*%
X62900000Y-127400000D03*
%TD*%
%TO.C,1*%
X60360000Y-127400000D03*
%TD*%
%TO.C,1*%
X57820000Y-127400000D03*
%TD*%
%TO.C,1*%
X55280000Y-127400000D03*
%TD*%
%TO.C,1*%
X52740000Y-127400000D03*
%TD*%
%TO.C,1*%
X50200000Y-127400000D03*
%TD*%
%TO.C,1*%
X47660000Y-127400000D03*
%TD*%
%TO.C,1*%
X159420000Y-129940000D03*
%TD*%
%TO.C,1*%
X156880000Y-129940000D03*
%TD*%
%TO.C,1*%
X154340000Y-129940000D03*
%TD*%
%TO.C,1*%
X151800000Y-129940000D03*
%TD*%
%TO.C,1*%
X149260000Y-129940000D03*
%TD*%
%TO.C,1*%
X146720000Y-129940000D03*
%TD*%
%TO.C,1*%
X144180000Y-129940000D03*
%TD*%
%TO.C,1*%
X141640000Y-129940000D03*
%TD*%
%TO.C,1*%
X139100000Y-129940000D03*
%TD*%
%TO.C,1*%
X136560000Y-129940000D03*
%TD*%
%TO.C,1*%
X134020000Y-129940000D03*
%TD*%
%TO.C,1*%
X131480000Y-129940000D03*
%TD*%
%TO.C,1*%
X128940000Y-129940000D03*
%TD*%
%TO.C,1*%
X126400000Y-129940000D03*
%TD*%
%TO.C,1*%
X123860000Y-129940000D03*
%TD*%
%TO.C,1*%
X121320000Y-129940000D03*
%TD*%
%TO.C,1*%
X118780000Y-129940000D03*
%TD*%
%TO.C,1*%
X116240000Y-129940000D03*
%TD*%
%TO.C,1*%
X113700000Y-129940000D03*
%TD*%
%TO.C,1*%
X111160000Y-129940000D03*
%TD*%
%TO.C,1*%
X108620000Y-129940000D03*
%TD*%
%TO.C,1*%
X106080000Y-129940000D03*
%TD*%
%TO.C,1*%
X103540000Y-129940000D03*
%TD*%
%TO.C,1*%
X101000000Y-129940000D03*
%TD*%
%TO.C,1*%
X98460000Y-129940000D03*
%TD*%
%TO.C,1*%
X95920000Y-129940000D03*
%TD*%
%TO.C,1*%
X93380000Y-129940000D03*
%TD*%
%TO.C,1*%
X90840000Y-129940000D03*
%TD*%
%TO.C,1*%
X88300000Y-129940000D03*
%TD*%
%TO.C,1*%
X85760000Y-129940000D03*
%TD*%
%TO.C,1*%
X83220000Y-129940000D03*
%TD*%
%TO.C,1*%
X80680000Y-129940000D03*
%TD*%
%TO.C,1*%
X78140000Y-129940000D03*
%TD*%
%TO.C,1*%
X75600000Y-129940000D03*
%TD*%
%TO.C,1*%
X73060000Y-129940000D03*
%TD*%
%TO.C,1*%
X70520000Y-129940000D03*
%TD*%
%TO.C,1*%
X67980000Y-129940000D03*
%TD*%
%TO.C,1*%
X65440000Y-129940000D03*
%TD*%
%TO.C,1*%
X62900000Y-129940000D03*
%TD*%
%TO.C,1*%
X60360000Y-129940000D03*
%TD*%
%TO.C,1*%
X57820000Y-129940000D03*
%TD*%
%TO.C,1*%
X55280000Y-129940000D03*
%TD*%
%TO.C,1*%
X52740000Y-129940000D03*
%TD*%
%TO.C,1*%
X50200000Y-129940000D03*
%TD*%
%TO.C,1*%
X47660000Y-129940000D03*
%TD*%
%TO.C,1*%
X159420000Y-132480000D03*
%TD*%
%TO.C,1*%
X156880000Y-132480000D03*
%TD*%
%TO.C,1*%
X154340000Y-132480000D03*
%TD*%
%TO.C,1*%
X151800000Y-132480000D03*
%TD*%
%TO.C,1*%
X149260000Y-132480000D03*
%TD*%
%TO.C,1*%
X146720000Y-132480000D03*
%TD*%
%TO.C,1*%
X144180000Y-132480000D03*
%TD*%
%TO.C,1*%
X141640000Y-132480000D03*
%TD*%
%TO.C,1*%
X139100000Y-132480000D03*
%TD*%
%TO.C,1*%
X136560000Y-132480000D03*
%TD*%
%TO.C,1*%
X134020000Y-132480000D03*
%TD*%
%TO.C,1*%
X131480000Y-132480000D03*
%TD*%
%TO.C,1*%
X128940000Y-132480000D03*
%TD*%
%TO.C,1*%
X126400000Y-132480000D03*
%TD*%
%TO.C,1*%
X123860000Y-132480000D03*
%TD*%
%TO.C,1*%
X121320000Y-132480000D03*
%TD*%
%TO.C,1*%
X118780000Y-132480000D03*
%TD*%
%TO.C,1*%
X116240000Y-132480000D03*
%TD*%
%TO.C,1*%
X113700000Y-132480000D03*
%TD*%
%TO.C,1*%
X111160000Y-132480000D03*
%TD*%
%TO.C,1*%
X108620000Y-132480000D03*
%TD*%
%TO.C,1*%
X106080000Y-132480000D03*
%TD*%
%TO.C,1*%
X103540000Y-132480000D03*
%TD*%
%TO.C,1*%
X101000000Y-132480000D03*
%TD*%
%TO.C,1*%
X98460000Y-132480000D03*
%TD*%
%TO.C,1*%
X95920000Y-132480000D03*
%TD*%
%TO.C,1*%
X93380000Y-132480000D03*
%TD*%
%TO.C,1*%
X90840000Y-132480000D03*
%TD*%
%TO.C,1*%
X88300000Y-132480000D03*
%TD*%
%TO.C,1*%
X85760000Y-132480000D03*
%TD*%
%TO.C,1*%
X83220000Y-132480000D03*
%TD*%
%TO.C,1*%
X80680000Y-132480000D03*
%TD*%
%TO.C,1*%
X78140000Y-132480000D03*
%TD*%
%TO.C,1*%
X75600000Y-132480000D03*
%TD*%
%TO.C,1*%
X73060000Y-132480000D03*
%TD*%
%TO.C,1*%
X70520000Y-132480000D03*
%TD*%
%TO.C,1*%
X67980000Y-132480000D03*
%TD*%
%TO.C,1*%
X65440000Y-132480000D03*
%TD*%
%TO.C,1*%
X62900000Y-132480000D03*
%TD*%
%TO.C,1*%
X60360000Y-132480000D03*
%TD*%
%TO.C,1*%
X57820000Y-132480000D03*
%TD*%
%TO.C,1*%
X55280000Y-132480000D03*
%TD*%
%TO.C,1*%
X52740000Y-132480000D03*
%TD*%
%TO.C,1*%
X50200000Y-132480000D03*
%TD*%
%TO.C,1*%
X47660000Y-132480000D03*
%TD*%
%TO.C,1*%
X159420000Y-135020000D03*
%TD*%
%TO.C,1*%
X156880000Y-135020000D03*
%TD*%
%TO.C,1*%
X154340000Y-135020000D03*
%TD*%
%TO.C,1*%
X151800000Y-135020000D03*
%TD*%
%TO.C,1*%
X149260000Y-135020000D03*
%TD*%
%TO.C,1*%
X146720000Y-135020000D03*
%TD*%
%TO.C,1*%
X144180000Y-135020000D03*
%TD*%
%TO.C,1*%
X141640000Y-135020000D03*
%TD*%
%TO.C,1*%
X139100000Y-135020000D03*
%TD*%
%TO.C,1*%
X136560000Y-135020000D03*
%TD*%
%TO.C,1*%
X134020000Y-135020000D03*
%TD*%
%TO.C,1*%
X131480000Y-135020000D03*
%TD*%
%TO.C,1*%
X128940000Y-135020000D03*
%TD*%
%TO.C,1*%
X126400000Y-135020000D03*
%TD*%
%TO.C,1*%
X123860000Y-135020000D03*
%TD*%
%TO.C,1*%
X121320000Y-135020000D03*
%TD*%
%TO.C,1*%
X118780000Y-135020000D03*
%TD*%
%TO.C,1*%
X116240000Y-135020000D03*
%TD*%
%TO.C,1*%
X113700000Y-135020000D03*
%TD*%
%TO.C,1*%
X111160000Y-135020000D03*
%TD*%
%TO.C,1*%
X108620000Y-135020000D03*
%TD*%
%TO.C,1*%
X106080000Y-135020000D03*
%TD*%
%TO.C,1*%
X103540000Y-135020000D03*
%TD*%
%TO.C,1*%
X101000000Y-135020000D03*
%TD*%
%TO.C,1*%
X98460000Y-135020000D03*
%TD*%
%TO.C,1*%
X95920000Y-135020000D03*
%TD*%
%TO.C,1*%
X93380000Y-135020000D03*
%TD*%
%TO.C,1*%
X90840000Y-135020000D03*
%TD*%
%TO.C,1*%
X88300000Y-135020000D03*
%TD*%
%TO.C,1*%
X85760000Y-135020000D03*
%TD*%
%TO.C,1*%
X83220000Y-135020000D03*
%TD*%
%TO.C,1*%
X80680000Y-135020000D03*
%TD*%
%TO.C,1*%
X78140000Y-135020000D03*
%TD*%
%TO.C,1*%
X75600000Y-135020000D03*
%TD*%
%TO.C,1*%
X73060000Y-135020000D03*
%TD*%
%TO.C,1*%
X70520000Y-135020000D03*
%TD*%
%TO.C,1*%
X67980000Y-135020000D03*
%TD*%
%TO.C,1*%
X65440000Y-135020000D03*
%TD*%
%TO.C,1*%
X62900000Y-135020000D03*
%TD*%
%TO.C,1*%
X60360000Y-135020000D03*
%TD*%
%TO.C,1*%
X57820000Y-135020000D03*
%TD*%
%TO.C,1*%
X55280000Y-135020000D03*
%TD*%
%TO.C,1*%
X52740000Y-135020000D03*
%TD*%
%TO.C,1*%
X50200000Y-135020000D03*
%TD*%
%TO.C,1*%
X47660000Y-135020000D03*
%TD*%
%TO.C,1*%
X159420000Y-137560000D03*
%TD*%
%TO.C,1*%
X156880000Y-137560000D03*
%TD*%
%TO.C,1*%
X154340000Y-137560000D03*
%TD*%
%TO.C,1*%
X151800000Y-137560000D03*
%TD*%
%TO.C,1*%
X149260000Y-137560000D03*
%TD*%
%TO.C,1*%
X146720000Y-137560000D03*
%TD*%
%TO.C,1*%
X144180000Y-137560000D03*
%TD*%
%TO.C,1*%
X141640000Y-137560000D03*
%TD*%
%TO.C,1*%
X139100000Y-137560000D03*
%TD*%
%TO.C,1*%
X136560000Y-137560000D03*
%TD*%
%TO.C,1*%
X134020000Y-137560000D03*
%TD*%
%TO.C,1*%
X131480000Y-137560000D03*
%TD*%
%TO.C,1*%
X128940000Y-137560000D03*
%TD*%
%TO.C,1*%
X126400000Y-137560000D03*
%TD*%
%TO.C,1*%
X123860000Y-137560000D03*
%TD*%
%TO.C,1*%
X121320000Y-137560000D03*
%TD*%
%TO.C,1*%
X118780000Y-137560000D03*
%TD*%
%TO.C,1*%
X116240000Y-137560000D03*
%TD*%
%TO.C,1*%
X113700000Y-137560000D03*
%TD*%
%TO.C,1*%
X111160000Y-137560000D03*
%TD*%
%TO.C,1*%
X108620000Y-137560000D03*
%TD*%
%TO.C,1*%
X106080000Y-137560000D03*
%TD*%
%TO.C,1*%
X103540000Y-137560000D03*
%TD*%
%TO.C,1*%
X101000000Y-137560000D03*
%TD*%
%TO.C,1*%
X98460000Y-137560000D03*
%TD*%
%TO.C,1*%
X95920000Y-137560000D03*
%TD*%
%TO.C,1*%
X93380000Y-137560000D03*
%TD*%
%TO.C,1*%
X90840000Y-137560000D03*
%TD*%
%TO.C,1*%
X88300000Y-137560000D03*
%TD*%
%TO.C,1*%
X85760000Y-137560000D03*
%TD*%
%TO.C,1*%
X83220000Y-137560000D03*
%TD*%
%TO.C,1*%
X80680000Y-137560000D03*
%TD*%
%TO.C,1*%
X78140000Y-137560000D03*
%TD*%
%TO.C,1*%
X75600000Y-137560000D03*
%TD*%
%TO.C,1*%
X73060000Y-137560000D03*
%TD*%
%TO.C,1*%
X70520000Y-137560000D03*
%TD*%
%TO.C,1*%
X67980000Y-137560000D03*
%TD*%
%TO.C,1*%
X65440000Y-137560000D03*
%TD*%
%TO.C,1*%
X62900000Y-137560000D03*
%TD*%
%TO.C,1*%
X60360000Y-137560000D03*
%TD*%
%TO.C,1*%
X57820000Y-137560000D03*
%TD*%
%TO.C,1*%
X55280000Y-137560000D03*
%TD*%
%TO.C,1*%
X52740000Y-137560000D03*
%TD*%
%TO.C,1*%
X50200000Y-137560000D03*
%TD*%
%TO.C,1*%
X47660000Y-137560000D03*
%TD*%
%TO.C,1*%
X159420000Y-140100000D03*
%TD*%
%TO.C,1*%
X156880000Y-140100000D03*
%TD*%
%TO.C,1*%
X154340000Y-140100000D03*
%TD*%
%TO.C,1*%
X151800000Y-140100000D03*
%TD*%
%TO.C,1*%
X149260000Y-140100000D03*
%TD*%
%TO.C,1*%
X146720000Y-140100000D03*
%TD*%
%TO.C,1*%
X144180000Y-140100000D03*
%TD*%
%TO.C,1*%
X141640000Y-140100000D03*
%TD*%
%TO.C,1*%
X139100000Y-140100000D03*
%TD*%
%TO.C,1*%
X136560000Y-140100000D03*
%TD*%
%TO.C,1*%
X134020000Y-140100000D03*
%TD*%
%TO.C,1*%
X131480000Y-140100000D03*
%TD*%
%TO.C,1*%
X128940000Y-140100000D03*
%TD*%
%TO.C,1*%
X126400000Y-140100000D03*
%TD*%
%TO.C,1*%
X123860000Y-140100000D03*
%TD*%
%TO.C,1*%
X121320000Y-140100000D03*
%TD*%
%TO.C,1*%
X118780000Y-140100000D03*
%TD*%
%TO.C,1*%
X116240000Y-140100000D03*
%TD*%
%TO.C,1*%
X113700000Y-140100000D03*
%TD*%
%TO.C,1*%
X111160000Y-140100000D03*
%TD*%
%TO.C,1*%
X108620000Y-140100000D03*
%TD*%
%TO.C,1*%
X106080000Y-140100000D03*
%TD*%
%TO.C,1*%
X103540000Y-140100000D03*
%TD*%
%TO.C,1*%
X101000000Y-140100000D03*
%TD*%
%TO.C,1*%
X98460000Y-140100000D03*
%TD*%
%TO.C,1*%
X95920000Y-140100000D03*
%TD*%
%TO.C,1*%
X93380000Y-140100000D03*
%TD*%
%TO.C,1*%
X90840000Y-140100000D03*
%TD*%
%TO.C,1*%
X88300000Y-140100000D03*
%TD*%
%TO.C,1*%
X85760000Y-140100000D03*
%TD*%
%TO.C,1*%
X83220000Y-140100000D03*
%TD*%
%TO.C,1*%
X80680000Y-140100000D03*
%TD*%
%TO.C,1*%
X78140000Y-140100000D03*
%TD*%
%TO.C,1*%
X75600000Y-140100000D03*
%TD*%
%TO.C,1*%
X73060000Y-140100000D03*
%TD*%
%TO.C,1*%
X70520000Y-140100000D03*
%TD*%
%TO.C,1*%
X67980000Y-140100000D03*
%TD*%
%TO.C,1*%
X65440000Y-140100000D03*
%TD*%
%TO.C,1*%
X62900000Y-140100000D03*
%TD*%
%TO.C,1*%
X60360000Y-140100000D03*
%TD*%
%TO.C,1*%
X57820000Y-140100000D03*
%TD*%
%TO.C,1*%
X55280000Y-140100000D03*
%TD*%
%TO.C,1*%
X52740000Y-140100000D03*
%TD*%
%TO.C,1*%
X50200000Y-140100000D03*
%TD*%
%TO.C,1*%
X47660000Y-140100000D03*
%TD*%
%TO.C,1*%
X159420000Y-142640000D03*
%TD*%
%TO.C,1*%
X156880000Y-142640000D03*
%TD*%
%TO.C,1*%
X154340000Y-142640000D03*
%TD*%
%TO.C,1*%
X151800000Y-142640000D03*
%TD*%
%TO.C,1*%
X149260000Y-142640000D03*
%TD*%
%TO.C,1*%
X146720000Y-142640000D03*
%TD*%
%TO.C,1*%
X144180000Y-142640000D03*
%TD*%
%TO.C,1*%
X141640000Y-142640000D03*
%TD*%
%TO.C,1*%
X139100000Y-142640000D03*
%TD*%
%TO.C,1*%
X136560000Y-142640000D03*
%TD*%
%TO.C,1*%
X134020000Y-142640000D03*
%TD*%
%TO.C,1*%
X131480000Y-142640000D03*
%TD*%
%TO.C,1*%
X128940000Y-142640000D03*
%TD*%
%TO.C,1*%
X126400000Y-142640000D03*
%TD*%
%TO.C,1*%
X123860000Y-142640000D03*
%TD*%
%TO.C,1*%
X121320000Y-142640000D03*
%TD*%
%TO.C,1*%
X118780000Y-142640000D03*
%TD*%
%TO.C,1*%
X116240000Y-142640000D03*
%TD*%
%TO.C,1*%
X113700000Y-142640000D03*
%TD*%
%TO.C,1*%
X111160000Y-142640000D03*
%TD*%
%TO.C,1*%
X108620000Y-142640000D03*
%TD*%
%TO.C,1*%
X106080000Y-142640000D03*
%TD*%
%TO.C,1*%
X103540000Y-142640000D03*
%TD*%
%TO.C,1*%
X101000000Y-142640000D03*
%TD*%
%TO.C,1*%
X98460000Y-142640000D03*
%TD*%
%TO.C,1*%
X95920000Y-142640000D03*
%TD*%
%TO.C,1*%
X93380000Y-142640000D03*
%TD*%
%TO.C,1*%
X90840000Y-142640000D03*
%TD*%
%TO.C,1*%
X88300000Y-142640000D03*
%TD*%
%TO.C,1*%
X85760000Y-142640000D03*
%TD*%
%TO.C,1*%
X83220000Y-142640000D03*
%TD*%
%TO.C,1*%
X80680000Y-142640000D03*
%TD*%
%TO.C,1*%
X78140000Y-142640000D03*
%TD*%
%TO.C,1*%
X75600000Y-142640000D03*
%TD*%
%TO.C,1*%
X73060000Y-142640000D03*
%TD*%
%TO.C,1*%
X70520000Y-142640000D03*
%TD*%
%TO.C,1*%
X67980000Y-142640000D03*
%TD*%
%TO.C,1*%
X65440000Y-142640000D03*
%TD*%
%TO.C,1*%
X62900000Y-142640000D03*
%TD*%
%TO.C,1*%
X60360000Y-142640000D03*
%TD*%
%TO.C,1*%
X57820000Y-142640000D03*
%TD*%
%TO.C,1*%
X55280000Y-142640000D03*
%TD*%
%TO.C,1*%
X52740000Y-142640000D03*
%TD*%
%TO.C,1*%
X50200000Y-142640000D03*
%TD*%
%TO.C,1*%
X47660000Y-142640000D03*
%TD*%
%TO.C,1*%
X159420000Y-145180000D03*
%TD*%
%TO.C,1*%
X156880000Y-145180000D03*
%TD*%
%TO.C,1*%
X154340000Y-145180000D03*
%TD*%
%TO.C,1*%
X151800000Y-145180000D03*
%TD*%
%TO.C,1*%
X149260000Y-145180000D03*
%TD*%
%TO.C,1*%
X146720000Y-145180000D03*
%TD*%
%TO.C,1*%
X144180000Y-145180000D03*
%TD*%
%TO.C,1*%
X141640000Y-145180000D03*
%TD*%
%TO.C,1*%
X139100000Y-145180000D03*
%TD*%
%TO.C,1*%
X136560000Y-145180000D03*
%TD*%
%TO.C,1*%
X134020000Y-145180000D03*
%TD*%
%TO.C,1*%
X131480000Y-145180000D03*
%TD*%
%TO.C,1*%
X128940000Y-145180000D03*
%TD*%
%TO.C,1*%
X126400000Y-145180000D03*
%TD*%
%TO.C,1*%
X123860000Y-145180000D03*
%TD*%
%TO.C,1*%
X121320000Y-145180000D03*
%TD*%
%TO.C,1*%
X118780000Y-145180000D03*
%TD*%
%TO.C,1*%
X116240000Y-145180000D03*
%TD*%
%TO.C,1*%
X113700000Y-145180000D03*
%TD*%
%TO.C,1*%
X111160000Y-145180000D03*
%TD*%
%TO.C,1*%
X108620000Y-145180000D03*
%TD*%
%TO.C,1*%
X106080000Y-145180000D03*
%TD*%
%TO.C,1*%
X103540000Y-145180000D03*
%TD*%
%TO.C,1*%
X101000000Y-145180000D03*
%TD*%
%TO.C,1*%
X98460000Y-145180000D03*
%TD*%
%TO.C,1*%
X95920000Y-145180000D03*
%TD*%
%TO.C,1*%
X93380000Y-145180000D03*
%TD*%
%TO.C,1*%
X90840000Y-145180000D03*
%TD*%
%TO.C,1*%
X88300000Y-145180000D03*
%TD*%
%TO.C,1*%
X85760000Y-145180000D03*
%TD*%
%TO.C,1*%
X83220000Y-145180000D03*
%TD*%
%TO.C,1*%
X80680000Y-145180000D03*
%TD*%
%TO.C,1*%
X78140000Y-145180000D03*
%TD*%
%TO.C,1*%
X75600000Y-145180000D03*
%TD*%
%TO.C,1*%
X73060000Y-145180000D03*
%TD*%
%TO.C,1*%
X70520000Y-145180000D03*
%TD*%
%TO.C,1*%
X67980000Y-145180000D03*
%TD*%
%TO.C,1*%
X65440000Y-145180000D03*
%TD*%
%TO.C,1*%
X62900000Y-145180000D03*
%TD*%
%TO.C,1*%
X60360000Y-145180000D03*
%TD*%
%TO.C,1*%
X57820000Y-145180000D03*
%TD*%
%TO.C,1*%
X55280000Y-145180000D03*
%TD*%
%TO.C,1*%
X52740000Y-145180000D03*
%TD*%
%TO.C,1*%
X50200000Y-145180000D03*
%TD*%
%TO.C,1*%
X47660000Y-145180000D03*
%TD*%
%TO.C,1*%
X159420000Y-147720000D03*
%TD*%
%TO.C,1*%
X156880000Y-147720000D03*
%TD*%
%TO.C,1*%
X154340000Y-147720000D03*
%TD*%
%TO.C,1*%
X151800000Y-147720000D03*
%TD*%
%TO.C,1*%
X149260000Y-147720000D03*
%TD*%
%TO.C,1*%
X146720000Y-147720000D03*
%TD*%
%TO.C,1*%
X144180000Y-147720000D03*
%TD*%
%TO.C,1*%
X141640000Y-147720000D03*
%TD*%
%TO.C,1*%
X139100000Y-147720000D03*
%TD*%
%TO.C,1*%
X136560000Y-147720000D03*
%TD*%
%TO.C,1*%
X134020000Y-147720000D03*
%TD*%
%TO.C,1*%
X131480000Y-147720000D03*
%TD*%
%TO.C,1*%
X128940000Y-147720000D03*
%TD*%
%TO.C,1*%
X126400000Y-147720000D03*
%TD*%
%TO.C,1*%
X123860000Y-147720000D03*
%TD*%
%TO.C,1*%
X121320000Y-147720000D03*
%TD*%
%TO.C,1*%
X118780000Y-147720000D03*
%TD*%
%TO.C,1*%
X116240000Y-147720000D03*
%TD*%
%TO.C,1*%
X113700000Y-147720000D03*
%TD*%
%TO.C,1*%
X111160000Y-147720000D03*
%TD*%
%TO.C,1*%
X108620000Y-147720000D03*
%TD*%
%TO.C,1*%
X106080000Y-147720000D03*
%TD*%
%TO.C,1*%
X103540000Y-147720000D03*
%TD*%
%TO.C,1*%
X101000000Y-147720000D03*
%TD*%
%TO.C,1*%
X98460000Y-147720000D03*
%TD*%
%TO.C,1*%
X95920000Y-147720000D03*
%TD*%
%TO.C,1*%
X93380000Y-147720000D03*
%TD*%
%TO.C,1*%
X90840000Y-147720000D03*
%TD*%
%TO.C,1*%
X88300000Y-147720000D03*
%TD*%
%TO.C,1*%
X85760000Y-147720000D03*
%TD*%
%TO.C,1*%
X83220000Y-147720000D03*
%TD*%
%TO.C,1*%
X80680000Y-147720000D03*
%TD*%
%TO.C,1*%
X78140000Y-147720000D03*
%TD*%
%TO.C,1*%
X75600000Y-147720000D03*
%TD*%
%TO.C,1*%
X73060000Y-147720000D03*
%TD*%
%TO.C,1*%
X70520000Y-147720000D03*
%TD*%
%TO.C,1*%
X67980000Y-147720000D03*
%TD*%
%TO.C,1*%
X65440000Y-147720000D03*
%TD*%
%TO.C,1*%
X62900000Y-147720000D03*
%TD*%
%TO.C,1*%
X60360000Y-147720000D03*
%TD*%
%TO.C,1*%
X57820000Y-147720000D03*
%TD*%
%TO.C,1*%
X55280000Y-147720000D03*
%TD*%
%TO.C,1*%
X52740000Y-147720000D03*
%TD*%
%TO.C,1*%
X50200000Y-147720000D03*
%TD*%
%TO.C,1*%
X47660000Y-147720000D03*
%TD*%
%TO.C,1*%
X159420000Y-150260000D03*
%TD*%
%TO.C,1*%
X156880000Y-150260000D03*
%TD*%
%TO.C,1*%
X154340000Y-150260000D03*
%TD*%
%TO.C,1*%
X151800000Y-150260000D03*
%TD*%
%TO.C,1*%
X149260000Y-150260000D03*
%TD*%
%TO.C,1*%
X146720000Y-150260000D03*
%TD*%
%TO.C,1*%
X144180000Y-150260000D03*
%TD*%
%TO.C,1*%
X141640000Y-150260000D03*
%TD*%
%TO.C,1*%
X139100000Y-150260000D03*
%TD*%
%TO.C,1*%
X136560000Y-150260000D03*
%TD*%
%TO.C,1*%
X134020000Y-150260000D03*
%TD*%
%TO.C,1*%
X131480000Y-150260000D03*
%TD*%
%TO.C,1*%
X128940000Y-150260000D03*
%TD*%
%TO.C,1*%
X126400000Y-150260000D03*
%TD*%
%TO.C,1*%
X123860000Y-150260000D03*
%TD*%
%TO.C,1*%
X121320000Y-150260000D03*
%TD*%
%TO.C,1*%
X118780000Y-150260000D03*
%TD*%
%TO.C,1*%
X116240000Y-150260000D03*
%TD*%
%TO.C,1*%
X113700000Y-150260000D03*
%TD*%
%TO.C,1*%
X111160000Y-150260000D03*
%TD*%
%TO.C,1*%
X108620000Y-150260000D03*
%TD*%
%TO.C,1*%
X106080000Y-150260000D03*
%TD*%
%TO.C,1*%
X103540000Y-150260000D03*
%TD*%
%TO.C,1*%
X101000000Y-150260000D03*
%TD*%
%TO.C,1*%
X98460000Y-150260000D03*
%TD*%
%TO.C,1*%
X95920000Y-150260000D03*
%TD*%
%TO.C,1*%
X93380000Y-150260000D03*
%TD*%
%TO.C,1*%
X90840000Y-150260000D03*
%TD*%
%TO.C,1*%
X88300000Y-150260000D03*
%TD*%
%TO.C,1*%
X85760000Y-150260000D03*
%TD*%
%TO.C,1*%
X83220000Y-150260000D03*
%TD*%
%TO.C,1*%
X80680000Y-150260000D03*
%TD*%
%TO.C,1*%
X78140000Y-150260000D03*
%TD*%
%TO.C,1*%
X75600000Y-150260000D03*
%TD*%
%TO.C,1*%
X73060000Y-150260000D03*
%TD*%
%TO.C,1*%
X70520000Y-150260000D03*
%TD*%
%TO.C,1*%
X67980000Y-150260000D03*
%TD*%
%TO.C,1*%
X65440000Y-150260000D03*
%TD*%
%TO.C,1*%
X62900000Y-150260000D03*
%TD*%
%TO.C,1*%
X60360000Y-150260000D03*
%TD*%
%TO.C,1*%
X57820000Y-150260000D03*
%TD*%
%TO.C,1*%
X55280000Y-150260000D03*
%TD*%
%TO.C,1*%
X52740000Y-150260000D03*
%TD*%
%TO.C,1*%
X50200000Y-150260000D03*
%TD*%
%TO.C,1*%
X47660000Y-150260000D03*
%TD*%
%TO.C,1*%
X159420000Y-152800000D03*
%TD*%
%TO.C,1*%
X156880000Y-152800000D03*
%TD*%
%TO.C,1*%
X154340000Y-152800000D03*
%TD*%
%TO.C,1*%
X151800000Y-152800000D03*
%TD*%
%TO.C,1*%
X149260000Y-152800000D03*
%TD*%
%TO.C,1*%
X146720000Y-152800000D03*
%TD*%
%TO.C,1*%
X144180000Y-152800000D03*
%TD*%
%TO.C,1*%
X141640000Y-152800000D03*
%TD*%
%TO.C,1*%
X139100000Y-152800000D03*
%TD*%
%TO.C,1*%
X136560000Y-152800000D03*
%TD*%
%TO.C,1*%
X134020000Y-152800000D03*
%TD*%
%TO.C,1*%
X131480000Y-152800000D03*
%TD*%
%TO.C,1*%
X128940000Y-152800000D03*
%TD*%
%TO.C,1*%
X126400000Y-152800000D03*
%TD*%
%TO.C,1*%
X123860000Y-152800000D03*
%TD*%
%TO.C,1*%
X121320000Y-152800000D03*
%TD*%
%TO.C,1*%
X118780000Y-152800000D03*
%TD*%
%TO.C,1*%
X116240000Y-152800000D03*
%TD*%
%TO.C,1*%
X113700000Y-152800000D03*
%TD*%
%TO.C,1*%
X111160000Y-152800000D03*
%TD*%
%TO.C,1*%
X108620000Y-152800000D03*
%TD*%
%TO.C,1*%
X106080000Y-152800000D03*
%TD*%
%TO.C,1*%
X103540000Y-152800000D03*
%TD*%
%TO.C,1*%
X101000000Y-152800000D03*
%TD*%
%TO.C,1*%
X98460000Y-152800000D03*
%TD*%
%TO.C,1*%
X95920000Y-152800000D03*
%TD*%
%TO.C,1*%
X93380000Y-152800000D03*
%TD*%
%TO.C,1*%
X90840000Y-152800000D03*
%TD*%
%TO.C,1*%
X88300000Y-152800000D03*
%TD*%
%TO.C,1*%
X85760000Y-152800000D03*
%TD*%
%TO.C,1*%
X83220000Y-152800000D03*
%TD*%
%TO.C,1*%
X80680000Y-152800000D03*
%TD*%
%TO.C,1*%
X78140000Y-152800000D03*
%TD*%
%TO.C,1*%
X75600000Y-152800000D03*
%TD*%
%TO.C,1*%
X73060000Y-152800000D03*
%TD*%
%TO.C,1*%
X70520000Y-152800000D03*
%TD*%
%TO.C,1*%
X67980000Y-152800000D03*
%TD*%
%TO.C,1*%
X65440000Y-152800000D03*
%TD*%
%TO.C,1*%
X62900000Y-152800000D03*
%TD*%
%TO.C,1*%
X60360000Y-152800000D03*
%TD*%
%TO.C,1*%
X57820000Y-152800000D03*
%TD*%
%TO.C,1*%
X55280000Y-152800000D03*
%TD*%
%TO.C,1*%
X52740000Y-152800000D03*
%TD*%
%TO.C,1*%
X50200000Y-152800000D03*
%TD*%
%TO.C,1*%
X47660000Y-152800000D03*
%TD*%
%TO.C,1*%
X159420000Y-155340000D03*
%TD*%
%TO.C,1*%
X156880000Y-155340000D03*
%TD*%
%TO.C,1*%
X154340000Y-155340000D03*
%TD*%
%TO.C,1*%
X151800000Y-155340000D03*
%TD*%
%TO.C,1*%
X149260000Y-155340000D03*
%TD*%
%TO.C,1*%
X146720000Y-155340000D03*
%TD*%
%TO.C,1*%
X144180000Y-155340000D03*
%TD*%
%TO.C,1*%
X141640000Y-155340000D03*
%TD*%
%TO.C,1*%
X139100000Y-155340000D03*
%TD*%
%TO.C,1*%
X136560000Y-155340000D03*
%TD*%
%TO.C,1*%
X134020000Y-155340000D03*
%TD*%
%TO.C,1*%
X131480000Y-155340000D03*
%TD*%
%TO.C,1*%
X128940000Y-155340000D03*
%TD*%
%TO.C,1*%
X126400000Y-155340000D03*
%TD*%
%TO.C,1*%
X123860000Y-155340000D03*
%TD*%
%TO.C,1*%
X121320000Y-155340000D03*
%TD*%
%TO.C,1*%
X118780000Y-155340000D03*
%TD*%
%TO.C,1*%
X116240000Y-155340000D03*
%TD*%
%TO.C,1*%
X113700000Y-155340000D03*
%TD*%
%TO.C,1*%
X111160000Y-155340000D03*
%TD*%
%TO.C,1*%
X108620000Y-155340000D03*
%TD*%
%TO.C,1*%
X106080000Y-155340000D03*
%TD*%
%TO.C,1*%
X103540000Y-155340000D03*
%TD*%
%TO.C,1*%
X101000000Y-155340000D03*
%TD*%
%TO.C,1*%
X98460000Y-155340000D03*
%TD*%
%TO.C,1*%
X95920000Y-155340000D03*
%TD*%
%TO.C,1*%
X93380000Y-155340000D03*
%TD*%
%TO.C,1*%
X90840000Y-155340000D03*
%TD*%
%TO.C,1*%
X88300000Y-155340000D03*
%TD*%
%TO.C,1*%
X85760000Y-155340000D03*
%TD*%
%TO.C,1*%
X83220000Y-155340000D03*
%TD*%
%TO.C,1*%
X80680000Y-155340000D03*
%TD*%
%TO.C,1*%
X78140000Y-155340000D03*
%TD*%
%TO.C,1*%
X75600000Y-155340000D03*
%TD*%
%TO.C,1*%
X73060000Y-155340000D03*
%TD*%
%TO.C,1*%
X70520000Y-155340000D03*
%TD*%
%TO.C,1*%
X67980000Y-155340000D03*
%TD*%
%TO.C,1*%
X65440000Y-155340000D03*
%TD*%
%TO.C,1*%
X62900000Y-155340000D03*
%TD*%
%TO.C,1*%
X60360000Y-155340000D03*
%TD*%
%TO.C,1*%
X57820000Y-155340000D03*
%TD*%
%TO.C,1*%
X55280000Y-155340000D03*
%TD*%
%TO.C,1*%
X52740000Y-155340000D03*
%TD*%
%TO.C,1*%
X50200000Y-155340000D03*
%TD*%
%TO.C,1*%
X47660000Y-155340000D03*
%TD*%
%TO.C,1*%
X159420000Y-157880000D03*
%TD*%
%TO.C,1*%
X156880000Y-157880000D03*
%TD*%
%TO.C,1*%
X154340000Y-157880000D03*
%TD*%
%TO.C,1*%
X151800000Y-157880000D03*
%TD*%
%TO.C,1*%
X149260000Y-157880000D03*
%TD*%
%TO.C,1*%
X146720000Y-157880000D03*
%TD*%
%TO.C,1*%
X144180000Y-157880000D03*
%TD*%
%TO.C,1*%
X141640000Y-157880000D03*
%TD*%
%TO.C,1*%
X139100000Y-157880000D03*
%TD*%
%TO.C,1*%
X136560000Y-157880000D03*
%TD*%
%TO.C,1*%
X134020000Y-157880000D03*
%TD*%
%TO.C,1*%
X131480000Y-157880000D03*
%TD*%
%TO.C,1*%
X128940000Y-157880000D03*
%TD*%
%TO.C,1*%
X126400000Y-157880000D03*
%TD*%
%TO.C,1*%
X123860000Y-157880000D03*
%TD*%
%TO.C,1*%
X121320000Y-157880000D03*
%TD*%
%TO.C,1*%
X118780000Y-157880000D03*
%TD*%
%TO.C,1*%
X116240000Y-157880000D03*
%TD*%
%TO.C,1*%
X113700000Y-157880000D03*
%TD*%
%TO.C,1*%
X111160000Y-157880000D03*
%TD*%
%TO.C,1*%
X108620000Y-157880000D03*
%TD*%
%TO.C,1*%
X106080000Y-157880000D03*
%TD*%
%TO.C,1*%
X103540000Y-157880000D03*
%TD*%
%TO.C,1*%
X101000000Y-157880000D03*
%TD*%
%TO.C,1*%
X98460000Y-157880000D03*
%TD*%
%TO.C,1*%
X95920000Y-157880000D03*
%TD*%
%TO.C,1*%
X93380000Y-157880000D03*
%TD*%
%TO.C,1*%
X90840000Y-157880000D03*
%TD*%
%TO.C,1*%
X88300000Y-157880000D03*
%TD*%
%TO.C,1*%
X85760000Y-157880000D03*
%TD*%
%TO.C,1*%
X83220000Y-157880000D03*
%TD*%
%TO.C,1*%
X80680000Y-157880000D03*
%TD*%
%TO.C,1*%
X78140000Y-157880000D03*
%TD*%
%TO.C,1*%
X75600000Y-157880000D03*
%TD*%
%TO.C,1*%
X73060000Y-157880000D03*
%TD*%
%TO.C,1*%
X70520000Y-157880000D03*
%TD*%
%TO.C,1*%
X67980000Y-157880000D03*
%TD*%
%TO.C,1*%
X65440000Y-157880000D03*
%TD*%
%TO.C,1*%
X62900000Y-157880000D03*
%TD*%
%TO.C,1*%
X60360000Y-157880000D03*
%TD*%
%TO.C,1*%
X57820000Y-157880000D03*
%TD*%
%TO.C,1*%
X55280000Y-157880000D03*
%TD*%
%TO.C,1*%
X52740000Y-157880000D03*
%TD*%
%TO.C,1*%
X50200000Y-157880000D03*
%TD*%
%TO.C,1*%
X47660000Y-157880000D03*
%TD*%
%TO.C,1*%
X159420000Y-160420000D03*
%TD*%
%TO.C,1*%
X156880000Y-160420000D03*
%TD*%
%TO.C,1*%
X154340000Y-160420000D03*
%TD*%
%TO.C,1*%
X151800000Y-160420000D03*
%TD*%
%TO.C,1*%
X149260000Y-160420000D03*
%TD*%
%TO.C,1*%
X146720000Y-160420000D03*
%TD*%
%TO.C,1*%
X144180000Y-160420000D03*
%TD*%
%TO.C,1*%
X141640000Y-160420000D03*
%TD*%
%TO.C,1*%
X139100000Y-160420000D03*
%TD*%
%TO.C,1*%
X136560000Y-160420000D03*
%TD*%
%TO.C,1*%
X134020000Y-160420000D03*
%TD*%
%TO.C,1*%
X131480000Y-160420000D03*
%TD*%
%TO.C,1*%
X128940000Y-160420000D03*
%TD*%
%TO.C,1*%
X126400000Y-160420000D03*
%TD*%
%TO.C,1*%
X123860000Y-160420000D03*
%TD*%
%TO.C,1*%
X121320000Y-160420000D03*
%TD*%
%TO.C,1*%
X118780000Y-160420000D03*
%TD*%
%TO.C,1*%
X116240000Y-160420000D03*
%TD*%
%TO.C,1*%
X113700000Y-160420000D03*
%TD*%
%TO.C,1*%
X111160000Y-160420000D03*
%TD*%
%TO.C,1*%
X108620000Y-160420000D03*
%TD*%
%TO.C,1*%
X106080000Y-160420000D03*
%TD*%
%TO.C,1*%
X103540000Y-160420000D03*
%TD*%
%TO.C,1*%
X101000000Y-160420000D03*
%TD*%
%TO.C,1*%
X98460000Y-160420000D03*
%TD*%
%TO.C,1*%
X95920000Y-160420000D03*
%TD*%
%TO.C,1*%
X93380000Y-160420000D03*
%TD*%
%TO.C,1*%
X90840000Y-160420000D03*
%TD*%
%TO.C,1*%
X88300000Y-160420000D03*
%TD*%
%TO.C,1*%
X85760000Y-160420000D03*
%TD*%
%TO.C,1*%
X83220000Y-160420000D03*
%TD*%
%TO.C,1*%
X80680000Y-160420000D03*
%TD*%
%TO.C,1*%
X78140000Y-160420000D03*
%TD*%
%TO.C,1*%
X75600000Y-160420000D03*
%TD*%
%TO.C,1*%
X73060000Y-160420000D03*
%TD*%
%TO.C,1*%
X70520000Y-160420000D03*
%TD*%
%TO.C,1*%
X67980000Y-160420000D03*
%TD*%
%TO.C,1*%
X65440000Y-160420000D03*
%TD*%
%TO.C,1*%
X62900000Y-160420000D03*
%TD*%
%TO.C,1*%
X60360000Y-160420000D03*
%TD*%
%TO.C,1*%
X57820000Y-160420000D03*
%TD*%
%TO.C,1*%
X55280000Y-160420000D03*
%TD*%
%TO.C,1*%
X52740000Y-160420000D03*
%TD*%
%TO.C,1*%
X50200000Y-160420000D03*
%TD*%
%TO.C,1*%
X47660000Y-160420000D03*
%TD*%
%TO.C,1*%
X159420000Y-162960000D03*
%TD*%
%TO.C,1*%
X156880000Y-162960000D03*
%TD*%
%TO.C,1*%
X154340000Y-162960000D03*
%TD*%
%TO.C,1*%
X151800000Y-162960000D03*
%TD*%
%TO.C,1*%
X149260000Y-162960000D03*
%TD*%
%TO.C,1*%
X146720000Y-162960000D03*
%TD*%
%TO.C,1*%
X144180000Y-162960000D03*
%TD*%
%TO.C,1*%
X141640000Y-162960000D03*
%TD*%
%TO.C,1*%
X139100000Y-162960000D03*
%TD*%
%TO.C,1*%
X136560000Y-162960000D03*
%TD*%
%TO.C,1*%
X134020000Y-162960000D03*
%TD*%
%TO.C,1*%
X131480000Y-162960000D03*
%TD*%
%TO.C,1*%
X128940000Y-162960000D03*
%TD*%
%TO.C,1*%
X126400000Y-162960000D03*
%TD*%
%TO.C,1*%
X123860000Y-162960000D03*
%TD*%
%TO.C,1*%
X121320000Y-162960000D03*
%TD*%
%TO.C,1*%
X118780000Y-162960000D03*
%TD*%
%TO.C,1*%
X116240000Y-162960000D03*
%TD*%
%TO.C,1*%
X113700000Y-162960000D03*
%TD*%
%TO.C,1*%
X111160000Y-162960000D03*
%TD*%
%TO.C,1*%
X108620000Y-162960000D03*
%TD*%
%TO.C,1*%
X106080000Y-162960000D03*
%TD*%
%TO.C,1*%
X103540000Y-162960000D03*
%TD*%
%TO.C,1*%
X101000000Y-162960000D03*
%TD*%
%TO.C,1*%
X98460000Y-162960000D03*
%TD*%
%TO.C,1*%
X95920000Y-162960000D03*
%TD*%
%TO.C,1*%
X93380000Y-162960000D03*
%TD*%
%TO.C,1*%
X90840000Y-162960000D03*
%TD*%
%TO.C,1*%
X88300000Y-162960000D03*
%TD*%
%TO.C,1*%
X85760000Y-162960000D03*
%TD*%
%TO.C,1*%
X83220000Y-162960000D03*
%TD*%
%TO.C,1*%
X80680000Y-162960000D03*
%TD*%
%TO.C,1*%
X78140000Y-162960000D03*
%TD*%
%TO.C,1*%
X75600000Y-162960000D03*
%TD*%
%TO.C,1*%
X73060000Y-162960000D03*
%TD*%
%TO.C,1*%
X70520000Y-162960000D03*
%TD*%
%TO.C,1*%
X67980000Y-162960000D03*
%TD*%
%TO.C,1*%
X65440000Y-162960000D03*
%TD*%
%TO.C,1*%
X62900000Y-162960000D03*
%TD*%
%TO.C,1*%
X60360000Y-162960000D03*
%TD*%
%TO.C,1*%
X57820000Y-162960000D03*
%TD*%
%TO.C,1*%
X55280000Y-162960000D03*
%TD*%
%TO.C,1*%
X52740000Y-162960000D03*
%TD*%
%TO.C,1*%
X50200000Y-162960000D03*
%TD*%
%TO.C,1*%
X47660000Y-162960000D03*
%TD*%
%TO.C,1*%
X159420000Y-165500000D03*
%TD*%
%TO.C,1*%
X156880000Y-165500000D03*
%TD*%
%TO.C,1*%
X154340000Y-165500000D03*
%TD*%
%TO.C,1*%
X151800000Y-165500000D03*
%TD*%
%TO.C,1*%
X149260000Y-165500000D03*
%TD*%
%TO.C,1*%
X146720000Y-165500000D03*
%TD*%
%TO.C,1*%
X144180000Y-165500000D03*
%TD*%
%TO.C,1*%
X141640000Y-165500000D03*
%TD*%
%TO.C,1*%
X139100000Y-165500000D03*
%TD*%
%TO.C,1*%
X136560000Y-165500000D03*
%TD*%
%TO.C,1*%
X134020000Y-165500000D03*
%TD*%
%TO.C,1*%
X131480000Y-165500000D03*
%TD*%
%TO.C,1*%
X128940000Y-165500000D03*
%TD*%
%TO.C,1*%
X126400000Y-165500000D03*
%TD*%
%TO.C,1*%
X123860000Y-165500000D03*
%TD*%
%TO.C,1*%
X121320000Y-165500000D03*
%TD*%
%TO.C,1*%
X118780000Y-165500000D03*
%TD*%
%TO.C,1*%
X116240000Y-165500000D03*
%TD*%
%TO.C,1*%
X113700000Y-165500000D03*
%TD*%
%TO.C,1*%
X111160000Y-165500000D03*
%TD*%
%TO.C,1*%
X108620000Y-165500000D03*
%TD*%
%TO.C,1*%
X106080000Y-165500000D03*
%TD*%
%TO.C,1*%
X103540000Y-165500000D03*
%TD*%
%TO.C,1*%
X101000000Y-165500000D03*
%TD*%
%TO.C,1*%
X98460000Y-165500000D03*
%TD*%
%TO.C,1*%
X95920000Y-165500000D03*
%TD*%
%TO.C,1*%
X93380000Y-165500000D03*
%TD*%
%TO.C,1*%
X90840000Y-165500000D03*
%TD*%
%TO.C,1*%
X88300000Y-165500000D03*
%TD*%
%TO.C,1*%
X85760000Y-165500000D03*
%TD*%
%TO.C,1*%
X83220000Y-165500000D03*
%TD*%
%TO.C,1*%
X80680000Y-165500000D03*
%TD*%
%TO.C,1*%
X78140000Y-165500000D03*
%TD*%
%TO.C,1*%
X75600000Y-165500000D03*
%TD*%
%TO.C,1*%
X73060000Y-165500000D03*
%TD*%
%TO.C,1*%
X70520000Y-165500000D03*
%TD*%
%TO.C,1*%
X67980000Y-165500000D03*
%TD*%
%TO.C,1*%
X65440000Y-165500000D03*
%TD*%
%TO.C,1*%
X62900000Y-165500000D03*
%TD*%
%TO.C,1*%
X60360000Y-165500000D03*
%TD*%
%TO.C,1*%
X57820000Y-165500000D03*
%TD*%
%TO.C,1*%
X55280000Y-165500000D03*
%TD*%
%TO.C,1*%
X52740000Y-165500000D03*
%TD*%
%TO.C,1*%
X50200000Y-165500000D03*
%TD*%
%TO.C,1*%
X47660000Y-165500000D03*
%TD*%
%TO.C,1*%
X151800000Y-168040000D03*
%TD*%
%TO.C,1*%
X149260000Y-168040000D03*
%TD*%
%TO.C,1*%
X146720000Y-168040000D03*
%TD*%
%TO.C,1*%
X144180000Y-168040000D03*
%TD*%
%TO.C,1*%
X141640000Y-168040000D03*
%TD*%
%TO.C,1*%
X139100000Y-168040000D03*
%TD*%
%TO.C,1*%
X136560000Y-168040000D03*
%TD*%
%TO.C,1*%
X134020000Y-168040000D03*
%TD*%
%TO.C,1*%
X131480000Y-168040000D03*
%TD*%
%TO.C,1*%
X128940000Y-168040000D03*
%TD*%
%TO.C,1*%
X126400000Y-168040000D03*
%TD*%
%TO.C,1*%
X123860000Y-168040000D03*
%TD*%
%TO.C,1*%
X121320000Y-168040000D03*
%TD*%
%TO.C,1*%
X118780000Y-168040000D03*
%TD*%
%TO.C,1*%
X116240000Y-168040000D03*
%TD*%
%TO.C,1*%
X113700000Y-168040000D03*
%TD*%
%TO.C,1*%
X111160000Y-168040000D03*
%TD*%
%TO.C,1*%
X108620000Y-168040000D03*
%TD*%
%TO.C,1*%
X106080000Y-168040000D03*
%TD*%
%TO.C,1*%
X103540000Y-168040000D03*
%TD*%
%TO.C,1*%
X101000000Y-168040000D03*
%TD*%
%TO.C,1*%
X98460000Y-168040000D03*
%TD*%
%TO.C,1*%
X95920000Y-168040000D03*
%TD*%
%TO.C,1*%
X93380000Y-168040000D03*
%TD*%
%TO.C,1*%
X90840000Y-168040000D03*
%TD*%
%TO.C,1*%
X88300000Y-168040000D03*
%TD*%
%TO.C,1*%
X85760000Y-168040000D03*
%TD*%
%TO.C,1*%
X83220000Y-168040000D03*
%TD*%
%TO.C,1*%
X80680000Y-168040000D03*
%TD*%
%TO.C,1*%
X78140000Y-168040000D03*
%TD*%
%TO.C,1*%
X75600000Y-168040000D03*
%TD*%
%TO.C,1*%
X73060000Y-168040000D03*
%TD*%
%TO.C,1*%
X70520000Y-168040000D03*
%TD*%
%TO.C,1*%
X67980000Y-168040000D03*
%TD*%
%TO.C,1*%
X65440000Y-168040000D03*
%TD*%
%TO.C,1*%
X62900000Y-168040000D03*
%TD*%
%TO.C,1*%
X60360000Y-168040000D03*
%TD*%
%TO.C,1*%
X57820000Y-168040000D03*
%TD*%
%TO.C,1*%
X55280000Y-168040000D03*
%TD*%
%TO.C,1*%
X52740000Y-168040000D03*
%TD*%
%TO.C,1*%
X50200000Y-168040000D03*
%TD*%
%TO.C,1*%
X47660000Y-168040000D03*
%TD*%
%TO.C,1*%
X151800000Y-170580000D03*
%TD*%
%TO.C,1*%
X149260000Y-170580000D03*
%TD*%
%TO.C,1*%
X146720000Y-170580000D03*
%TD*%
%TO.C,1*%
X144180000Y-170580000D03*
%TD*%
%TO.C,1*%
X141640000Y-170580000D03*
%TD*%
%TO.C,1*%
X139100000Y-170580000D03*
%TD*%
%TO.C,1*%
X136560000Y-170580000D03*
%TD*%
%TO.C,1*%
X134020000Y-170580000D03*
%TD*%
%TO.C,1*%
X131480000Y-170580000D03*
%TD*%
%TO.C,1*%
X128940000Y-170580000D03*
%TD*%
%TO.C,1*%
X126400000Y-170580000D03*
%TD*%
%TO.C,1*%
X123860000Y-170580000D03*
%TD*%
%TO.C,1*%
X121320000Y-170580000D03*
%TD*%
%TO.C,1*%
X118780000Y-170580000D03*
%TD*%
%TO.C,1*%
X116240000Y-170580000D03*
%TD*%
%TO.C,1*%
X113700000Y-170580000D03*
%TD*%
%TO.C,1*%
X111160000Y-170580000D03*
%TD*%
%TO.C,1*%
X108620000Y-170580000D03*
%TD*%
%TO.C,1*%
X106080000Y-170580000D03*
%TD*%
%TO.C,1*%
X103540000Y-170580000D03*
%TD*%
%TO.C,1*%
X101000000Y-170580000D03*
%TD*%
%TO.C,1*%
X98460000Y-170580000D03*
%TD*%
%TO.C,1*%
X95920000Y-170580000D03*
%TD*%
%TO.C,1*%
X93380000Y-170580000D03*
%TD*%
%TO.C,1*%
X90840000Y-170580000D03*
%TD*%
%TO.C,1*%
X88300000Y-170580000D03*
%TD*%
%TO.C,1*%
X85760000Y-170580000D03*
%TD*%
%TO.C,1*%
X83220000Y-170580000D03*
%TD*%
%TO.C,1*%
X80680000Y-170580000D03*
%TD*%
%TO.C,1*%
X78140000Y-170580000D03*
%TD*%
%TO.C,1*%
X75600000Y-170580000D03*
%TD*%
%TO.C,1*%
X73060000Y-170580000D03*
%TD*%
%TO.C,1*%
X70520000Y-170580000D03*
%TD*%
%TO.C,1*%
X67980000Y-170580000D03*
%TD*%
%TO.C,1*%
X65440000Y-170580000D03*
%TD*%
%TO.C,1*%
X62900000Y-170580000D03*
%TD*%
%TO.C,1*%
X60360000Y-170580000D03*
%TD*%
%TO.C,1*%
X57820000Y-170580000D03*
%TD*%
%TO.C,1*%
X55280000Y-170580000D03*
%TD*%
%TO.C,1*%
X52740000Y-170580000D03*
%TD*%
%TO.C,1*%
X50200000Y-170580000D03*
%TD*%
%TO.C,1*%
X47660000Y-170580000D03*
%TD*%
%TO.C,1*%
X154340000Y-173120000D03*
%TD*%
%TO.C,1*%
X151800000Y-173120000D03*
%TD*%
%TO.C,1*%
X149260000Y-173120000D03*
%TD*%
%TO.C,1*%
X146720000Y-173120000D03*
%TD*%
%TO.C,1*%
X144180000Y-173120000D03*
%TD*%
%TO.C,1*%
X141640000Y-173120000D03*
%TD*%
%TO.C,1*%
X139100000Y-173120000D03*
%TD*%
%TO.C,1*%
X136560000Y-173120000D03*
%TD*%
%TO.C,1*%
X134020000Y-173120000D03*
%TD*%
%TO.C,1*%
X131480000Y-173120000D03*
%TD*%
%TO.C,1*%
X128940000Y-173120000D03*
%TD*%
%TO.C,1*%
X126400000Y-173120000D03*
%TD*%
%TO.C,1*%
X123860000Y-173120000D03*
%TD*%
%TO.C,1*%
X121320000Y-173120000D03*
%TD*%
%TO.C,1*%
X118780000Y-173120000D03*
%TD*%
%TO.C,1*%
X116240000Y-173120000D03*
%TD*%
%TO.C,1*%
X113700000Y-173120000D03*
%TD*%
%TO.C,1*%
X111160000Y-173120000D03*
%TD*%
%TO.C,1*%
X108620000Y-173120000D03*
%TD*%
%TO.C,1*%
X106080000Y-173120000D03*
%TD*%
%TO.C,1*%
X103540000Y-173120000D03*
%TD*%
%TO.C,1*%
X101000000Y-173120000D03*
%TD*%
%TO.C,1*%
X98460000Y-173120000D03*
%TD*%
%TO.C,1*%
X95920000Y-173120000D03*
%TD*%
%TO.C,1*%
X93380000Y-173120000D03*
%TD*%
%TO.C,1*%
X90840000Y-173120000D03*
%TD*%
%TO.C,1*%
X88300000Y-173120000D03*
%TD*%
%TO.C,1*%
X85760000Y-173120000D03*
%TD*%
%TO.C,1*%
X83220000Y-173120000D03*
%TD*%
%TO.C,1*%
X80680000Y-173120000D03*
%TD*%
%TO.C,1*%
X78140000Y-173120000D03*
%TD*%
%TO.C,1*%
X75600000Y-173120000D03*
%TD*%
%TO.C,1*%
X73060000Y-173120000D03*
%TD*%
%TO.C,1*%
X70520000Y-173120000D03*
%TD*%
%TO.C,1*%
X67980000Y-173120000D03*
%TD*%
%TO.C,1*%
X65440000Y-173120000D03*
%TD*%
%TO.C,1*%
X62900000Y-173120000D03*
%TD*%
%TO.C,1*%
X60360000Y-173120000D03*
%TD*%
%TO.C,1*%
X57820000Y-173120000D03*
%TD*%
%TO.C,1*%
X55280000Y-173120000D03*
%TD*%
%TO.C,1*%
X52740000Y-173120000D03*
%TD*%
%TO.C,1*%
X50200000Y-173120000D03*
%TD*%
%TO.C,1*%
X47660000Y-173120000D03*
%TD*%
%TO.C,1*%
X47660000Y-175660000D03*
%TD*%
%TO.C,1*%
X45120000Y-173120000D03*
%TD*%
%TO.C,1*%
X45120000Y-150260000D03*
%TD*%
%TO.C,1*%
X45120000Y-137560000D03*
%TD*%
%TO.C,1*%
X45120000Y-124860000D03*
%TD*%
%TO.C,1*%
X45120000Y-112160000D03*
%TD*%
%TO.C,1*%
X45120000Y-99460000D03*
%TD*%
%TO.C,1*%
X45120000Y-86760000D03*
%TD*%
%TO.C,1*%
X45120000Y-74060000D03*
%TD*%
%TO.C,1*%
X45120000Y-60860000D03*
%TD*%
%TO.C,1*%
X45040000Y-163040000D03*
%TD*%
%TO.C,1*%
X45040000Y-165540000D03*
%TD*%
%TO.C,1*%
X42540000Y-165540000D03*
%TD*%
%TO.C,1*%
X45120000Y-48660000D03*
%TD*%
%TO.C,1*%
X45040000Y-46040000D03*
%TD*%
%TO.C,1*%
X42540000Y-46120000D03*
%TD*%
%TO.C,1*%
X45080000Y-43580000D03*
%TD*%
%TO.C,1*%
X42540000Y-43580000D03*
%TD*%
%TO.C,1*%
X45080000Y-41040000D03*
%TD*%
%TO.C,1*%
X42540000Y-41040000D03*
%TD*%
%TO.C,1*%
X40040000Y-41040000D03*
%TD*%
%TO.C,1*%
X40040000Y-43580000D03*
%TD*%
%TO.C,1*%
X40040000Y-46120000D03*
%TD*%
%TO.C,1*%
X40040000Y-48660000D03*
%TD*%
%TO.C,1*%
X40040000Y-51200000D03*
%TD*%
%TO.C,1*%
X40040000Y-53740000D03*
%TD*%
%TO.C,1*%
X40040000Y-56280000D03*
%TD*%
%TO.C,1*%
X40040000Y-58820000D03*
%TD*%
%TO.C,1*%
X40040000Y-61360000D03*
%TD*%
%TO.C,1*%
X40040000Y-63900000D03*
%TD*%
%TO.C,1*%
X40040000Y-66440000D03*
%TD*%
%TO.C,1*%
X40040000Y-68980000D03*
%TD*%
%TO.C,1*%
X40040000Y-71520000D03*
%TD*%
%TO.C,1*%
X40040000Y-74060000D03*
%TD*%
%TO.C,1*%
X40040000Y-76600000D03*
%TD*%
%TO.C,1*%
X40040000Y-79140000D03*
%TD*%
%TO.C,1*%
X40040000Y-81680000D03*
%TD*%
%TO.C,1*%
X40040000Y-84220000D03*
%TD*%
%TO.C,1*%
X40040000Y-86760000D03*
%TD*%
%TO.C,1*%
X40040000Y-89300000D03*
%TD*%
%TO.C,1*%
X40040000Y-91840000D03*
%TD*%
%TO.C,1*%
X40040000Y-94380000D03*
%TD*%
%TO.C,1*%
X40040000Y-96920000D03*
%TD*%
%TO.C,1*%
X40040000Y-99460000D03*
%TD*%
%TO.C,1*%
X40040000Y-102000000D03*
%TD*%
%TO.C,1*%
X40040000Y-104540000D03*
%TD*%
%TO.C,1*%
X40040000Y-107080000D03*
%TD*%
%TO.C,1*%
X40040000Y-109620000D03*
%TD*%
%TO.C,1*%
X40040000Y-112160000D03*
%TD*%
%TO.C,1*%
X40040000Y-114700000D03*
%TD*%
%TO.C,1*%
X40040000Y-117240000D03*
%TD*%
%TO.C,1*%
X40040000Y-119780000D03*
%TD*%
%TO.C,1*%
X40040000Y-122320000D03*
%TD*%
%TO.C,1*%
X40040000Y-124860000D03*
%TD*%
%TO.C,1*%
X40040000Y-127400000D03*
%TD*%
%TO.C,1*%
X40040000Y-129940000D03*
%TD*%
%TO.C,1*%
X40040000Y-132480000D03*
%TD*%
%TO.C,1*%
X40040000Y-135020000D03*
%TD*%
%TO.C,1*%
X40040000Y-137560000D03*
%TD*%
%TO.C,1*%
X40040000Y-140100000D03*
%TD*%
%TO.C,1*%
X40040000Y-142640000D03*
%TD*%
%TO.C,1*%
X40040000Y-145180000D03*
%TD*%
%TO.C,1*%
X40040000Y-147720000D03*
%TD*%
%TO.C,1*%
X40040000Y-150260000D03*
%TD*%
%TO.C,1*%
X40040000Y-152800000D03*
%TD*%
%TO.C,1*%
X40040000Y-155340000D03*
%TD*%
%TO.C,1*%
X40040000Y-157880000D03*
%TD*%
%TO.C,1*%
X40040000Y-160420000D03*
%TD*%
%TO.C,1*%
X40040000Y-162960000D03*
%TD*%
%TO.C,1*%
X40040000Y-165500000D03*
%TD*%
%TO.C,1*%
X37500000Y-41040000D03*
%TD*%
%TO.C,1*%
X37500000Y-43580000D03*
%TD*%
%TO.C,1*%
X37500000Y-46120000D03*
%TD*%
%TO.C,1*%
X37500000Y-48660000D03*
%TD*%
%TO.C,1*%
X37500000Y-51200000D03*
%TD*%
%TO.C,1*%
X37500000Y-53740000D03*
%TD*%
%TO.C,1*%
X37500000Y-56280000D03*
%TD*%
%TO.C,1*%
X37500000Y-58820000D03*
%TD*%
%TO.C,1*%
X37500000Y-61360000D03*
%TD*%
%TO.C,1*%
X37500000Y-63900000D03*
%TD*%
%TO.C,1*%
X37500000Y-66440000D03*
%TD*%
%TO.C,1*%
X37500000Y-68980000D03*
%TD*%
%TO.C,1*%
X37500000Y-71520000D03*
%TD*%
%TO.C,1*%
X37500000Y-74060000D03*
%TD*%
%TO.C,1*%
X37500000Y-76600000D03*
%TD*%
%TO.C,1*%
X37500000Y-79140000D03*
%TD*%
%TO.C,1*%
X37500000Y-81680000D03*
%TD*%
%TO.C,1*%
X37500000Y-84220000D03*
%TD*%
%TO.C,1*%
X37500000Y-86760000D03*
%TD*%
%TO.C,1*%
X37500000Y-89300000D03*
%TD*%
%TO.C,1*%
X37500000Y-91840000D03*
%TD*%
%TO.C,1*%
X37500000Y-94380000D03*
%TD*%
%TO.C,1*%
X37500000Y-96920000D03*
%TD*%
%TO.C,1*%
X37500000Y-99460000D03*
%TD*%
%TO.C,1*%
X37500000Y-102000000D03*
%TD*%
%TO.C,1*%
X37500000Y-104540000D03*
%TD*%
%TO.C,1*%
X37500000Y-107080000D03*
%TD*%
%TO.C,1*%
X37500000Y-109620000D03*
%TD*%
%TO.C,1*%
X37500000Y-112160000D03*
%TD*%
%TO.C,1*%
X37500000Y-114700000D03*
%TD*%
%TO.C,1*%
X37500000Y-117240000D03*
%TD*%
%TO.C,1*%
X37500000Y-119780000D03*
%TD*%
%TO.C,1*%
X37500000Y-122320000D03*
%TD*%
%TO.C,1*%
X37500000Y-124860000D03*
%TD*%
%TO.C,1*%
X37500000Y-127400000D03*
%TD*%
%TO.C,1*%
X37500000Y-129940000D03*
%TD*%
%TO.C,1*%
X37500000Y-132480000D03*
%TD*%
%TO.C,1*%
X37500000Y-135020000D03*
%TD*%
%TO.C,1*%
X37500000Y-137560000D03*
%TD*%
%TO.C,1*%
X37500000Y-140100000D03*
%TD*%
%TO.C,1*%
X37500000Y-142640000D03*
%TD*%
%TO.C,1*%
X37500000Y-145180000D03*
%TD*%
%TO.C,1*%
X37500000Y-147720000D03*
%TD*%
%TO.C,1*%
X37500000Y-150260000D03*
%TD*%
%TO.C,1*%
X37500000Y-152800000D03*
%TD*%
%TO.C,1*%
X37500000Y-155340000D03*
%TD*%
%TO.C,1*%
X37500000Y-157880000D03*
%TD*%
%TO.C,1*%
X37500000Y-160420000D03*
%TD*%
%TO.C,1*%
X37500000Y-162960000D03*
%TD*%
%TO.C,1*%
X37500000Y-165500000D03*
%TD*%
D11*
%TO.C,REF\u002A\u002A*%
X162000000Y-38500000D03*
%TD*%
%TO.C,REF\u002A\u002A*%
X162000000Y-174500000D03*
%TD*%
D12*
G36*
X34373000Y-167500000D02*
G01*
X27000000Y-167500000D01*
X26000000Y-166540000D01*
X27000000Y-103040000D01*
X26000000Y-39540000D01*
X27000000Y-38500000D01*
X34373000Y-38500000D01*
X34373000Y-167500000D01*
G37*
X34373000Y-167500000D02*
X27000000Y-167500000D01*
X26000000Y-166540000D01*
X27000000Y-103040000D01*
X26000000Y-39540000D01*
X27000000Y-38500000D01*
X34373000Y-38500000D01*
X34373000Y-167500000D01*
M02*
