M48
INCH,TZ
T1C0.0394
%
G90
G05
T1
X28764Y-34157
X54764Y-39157
X35764Y-30157
X49764Y-41157
X54764Y-55157
X47764Y-57157
X46764Y-63157
X34764Y-65157
X15764Y-59157
X60764Y-28157
X29764Y-48157
X42764Y-50157
X35764Y-52157
X25764Y-33157
X33764Y-35157
X21764Y-37157
X59764Y-40157
X37764Y-29157
X49764Y-42157
X57764Y-44157
X52764Y-44157
X47764Y-44157
X41764Y-54157
X54764Y-56157
X52764Y-58157
X28764Y-62157
X31764Y-64157
X36764Y-66157
X19764Y-68157
X15764Y-17157
X52764Y-27157
X47764Y-27157
X23764Y-45157
X36764Y-47157
X37764Y-51157
X23764Y-36157
X18764Y-36157
X58764Y-37157
X51764Y-39157
X46764Y-39157
X34764Y-28157
X55764Y-33157
X48764Y-53157
X39764Y-57157
X47764Y-59157
X43764Y-63157
X31764Y-65157
X14764Y-17157
X14764Y-22157
X25764Y-16157
X20764Y-16157
X57764Y-17157
X52764Y-17157
X47764Y-17157
X42764Y-17157
X37764Y-17157
X32764Y-17157
X27764Y-17157
X22764Y-17157
X59764Y-18157
X54764Y-18157
X49764Y-18157
X44764Y-18157
X39764Y-18157
X34764Y-18157
X29764Y-18157
X24764Y-18157
X19764Y-18157
X59764Y-19157
X54764Y-19157
X49764Y-19157
X44764Y-19157
X39764Y-19157
X34764Y-19157
X29764Y-19157
X24764Y-19157
X19764Y-19157
X59764Y-20157
X54764Y-20157
X49764Y-20157
X44764Y-20157
X39764Y-20157
X34764Y-20157
X29764Y-20157
X24764Y-20157
X19764Y-20157
X59764Y-21157
X54764Y-21157
X49764Y-21157
X44764Y-21157
X39764Y-21157
X34764Y-21157
X29764Y-21157
X24764Y-21157
X19764Y-21157
X59764Y-22157
X54764Y-22157
X49764Y-22157
X44764Y-22157
X39764Y-22157
X34764Y-22157
X29764Y-22157
X24764Y-22157
X19764Y-22157
X59764Y-23157
X54764Y-23157
X49764Y-23157
X44764Y-23157
X39764Y-23157
X34764Y-23157
X29764Y-23157
X24764Y-23157
X19764Y-23157
X59764Y-24157
X54764Y-24157
X49764Y-24157
X44764Y-24157
X39764Y-24157
X34764Y-24157
X29764Y-24157
X24764Y-24157
X19764Y-24157
X59764Y-25157
X54764Y-25157
X49764Y-25157
X44764Y-25157
X39764Y-25157
X34764Y-25157
X29764Y-25157
X24764Y-25157
X19764Y-25157
X39764Y-50157
X25764Y-35157
X18764Y-37157
X58764Y-38157
X56764Y-40157
X34764Y-29157
X27764Y-31157
X43764Y-40157
X41764Y-42157
X44764Y-44157
X38764Y-54157
X33764Y-54157
X46764Y-56157
X49764Y-58157
X44764Y-58157
X39764Y-58157
X17764Y-68157
X17764Y-39157
X15764Y-20157
X33764Y-47157
X28764Y-47157
X23764Y-47157
X18764Y-47157
X31764Y-49157
X29764Y-51157
X43764Y-39157
X34764Y-30157
X43764Y-41157
X36764Y-57157
X39764Y-59157
X37764Y-61157
X40764Y-63157
X35764Y-63157
X23764Y-65157
X35764Y-67157
X30764Y-67157
X25764Y-67157
X20764Y-67157
X36764Y-50157
X22764Y-35157
X62764Y-36157
X50764Y-38157
X53764Y-40157
X38764Y-42157
X36764Y-44157
X36764Y-58157
X44764Y-60157
X27764Y-62157
X25764Y-64157
X25764Y-66157
X15764Y-23157
X41764Y-27157
X36764Y-27157
X28764Y-49157
X26764Y-51157
X19764Y-34157
X40764Y-39157
X26764Y-30157
X40764Y-41157
X53764Y-43157
X32764Y-52157
X45764Y-55157
X33764Y-57157
X31764Y-59157
X29764Y-61157
X27764Y-63157
X20764Y-65157
X60764Y-68157
X14764Y-23157
X14764Y-28157
X14764Y-33157
X58764Y-26157
X53764Y-26157
X20764Y-48157
X28764Y-50157
X57764Y-16157
X21764Y-33157
X59764Y-36157
X45764Y-40157
X28764Y-29157
X61764Y-32157
X37764Y-40157
X35764Y-42157
X33764Y-44157
X33764Y-58157
X41764Y-60157
X19764Y-62157
X22764Y-64157
X22764Y-66157
X33764Y-27157
X57764Y-48157
X20764Y-49157
X33764Y-15157
X54764Y-37157
X37764Y-39157
X30764Y-28157
X25764Y-28157
X23764Y-30157
X51764Y-33157
X32764Y-41157
X42764Y-55157
X25764Y-57157
X26764Y-61157
X21764Y-61157
X24764Y-63157
X19764Y-63157
X59764Y-64157
X57764Y-68157
X52764Y-68157
X14764Y-36157
X50764Y-26157
X48764Y-28157
X25764Y-50157
X49764Y-16157
X44764Y-16157
X39764Y-16157
X34764Y-16157
X58764Y-34157
X53764Y-34157
X48764Y-34157
X56764Y-36157
X25764Y-29157
X58764Y-32157
X34764Y-40157
X27764Y-42157
X24764Y-54157
X42764Y-56157
X25764Y-58157
X38764Y-60157
X19764Y-64157
X59764Y-65157
X54764Y-65157
X49764Y-65157
X19764Y-66157
X15764Y-34157
X30764Y-27157
X51764Y-46157
X54764Y-48157
X62764Y-50157
X22764Y-28157
X20764Y-30157
X48764Y-33157
X29764Y-41157
X42764Y-43157
X41764Y-53157
X39764Y-55157
X34764Y-55157
X18764Y-61157
X56764Y-64157
X56764Y-66157
X14764Y-39157
X14764Y-44157
X14764Y-49157
X42764Y-26157
X26764Y-46157
X59764Y-49157
X56764Y-16157
X51764Y-16157
X45764Y-34157
X53764Y-36157
X48764Y-36157
X46764Y-38157
X62764Y-30157
X57764Y-30157
X27764Y-44157
X28764Y-52157
X21764Y-54157
X39764Y-56157
X30764Y-60157
X58764Y-67157
X53764Y-67157
X15764Y-42157
X27764Y-27157
X48764Y-46157
X62764Y-52157
X50764Y-35157
X48764Y-37157
X59764Y-29157
X57764Y-31157
X45764Y-33157
X21764Y-41157
X39764Y-43157
X26764Y-55157
X24764Y-57157
X22764Y-59157
X60764Y-62157
X53764Y-64157
X53764Y-66157
X46764Y-68157
X41764Y-68157
X36764Y-68157
X14764Y-52157
X39764Y-26157
X42764Y-28157
X37764Y-28157
X56764Y-49157
X51764Y-49157
X45764Y-36157
X43764Y-38157
X47764Y-32157
X42764Y-32157
X37764Y-32157
X32764Y-32157
X27764Y-32157
X23764Y-40157
X19764Y-44157
X18764Y-54157
X36764Y-56157
X31764Y-56157
X19764Y-58157
X27764Y-60157
X60764Y-63157
X50764Y-67157
X45764Y-67157
X15764Y-45157
X24764Y-27157
X45764Y-46157
X43764Y-48157
X38764Y-48157
X59764Y-52157
X54764Y-52157
X47764Y-35157
X40764Y-37157
X35764Y-37157
X28764Y-39157
X56764Y-29157
X54764Y-31157
X49764Y-31157
X44764Y-31157
X31764Y-43157
X35764Y-53157
X23764Y-55157
X18764Y-55157
X61764Y-58157
X59764Y-60157
X57764Y-62157
X50764Y-64157
X45764Y-64157
X50764Y-66157
X33764Y-68157
X31764Y-26157
X26764Y-26157
X21764Y-50157
X42764Y-36157
X37764Y-36157
X40764Y-38157
X35764Y-38157
X30764Y-38157
X25764Y-38157
X56764Y-30157
X51764Y-30157
X24764Y-32157
X20764Y-40157
X60764Y-41157
X18764Y-42157
X62764Y-53157
X23764Y-56157
X61764Y-59157
X24764Y-60157
X19764Y-60157
X59764Y-61157
X57764Y-63157
X15764Y-53157
X51764Y-52157
X63764Y-44157
X53764Y-69157
X39764Y-35157
X32764Y-37157
X25764Y-39157
X41764Y-31157
X20764Y-41157
X32764Y-53157
X58764Y-58157
X49764Y-62157
X44764Y-62157
X39764Y-62157
X14764Y-53157
X14764Y-58157
X14764Y-63157
X23764Y-26157
X22764Y-46157
X45764Y-49157
X58764Y-51157
X36764Y-34157
X29764Y-36157
X22764Y-38157
X62764Y-39157
X48764Y-30157
X57764Y-41157
X60764Y-43157
X55764Y-43157
X18764Y-44157
X20764Y-56157
X60764Y-57157
X55764Y-57157
X51764Y-61157
X42764Y-65157
X15764Y-56157
X23764Y-27157
X50764Y-50157
X48764Y-52157
X36764Y-35157
X22764Y-39157
X38764Y-31157
X41764Y-33157
X62764Y-42157
X57764Y-42157
X30764Y-43157
X25764Y-43157
X20764Y-43157
X24764Y-53157
X62764Y-56157
X55764Y-58157
X53764Y-60157
X36764Y-62157
X39764Y-64157
X44764Y-66157
X20764Y-26157
X60764Y-27157
X61764Y-45157
X56764Y-45157
X51764Y-45157
X59764Y-47157
X54764Y-47157
X42764Y-49157
X50764Y-51157
X45764Y-51157
X59764Y-39157
X40764Y-30157
X58764Y-33157
X54764Y-41157
X52764Y-57157
X55764Y-59157
X50764Y-59157
X48764Y-61157
X43764Y-61157
X51764Y-63157
X39764Y-65157
X41764Y-67157
X20764Y-27157
X41764Y-46157
X34764Y-48157
X47764Y-50157
X45764Y-52157
X40764Y-52157
X30764Y-33157
X26764Y-37157
X19764Y-39157
X42764Y-29157
X30764Y-31157
X38764Y-33157
X54764Y-42157
X62764Y-44157
X61764Y-54157
X56764Y-54157
X51764Y-54157
X46764Y-54157
X59764Y-56157
X36764Y-64157
X41764Y-66157
X24764Y-68157
X17732Y-65173
X17748Y-17157
X14764Y-64157
X57764Y-27157
X48764Y-45157
X43764Y-45157
X38764Y-45157
X33764Y-45157
X28764Y-45157
X51764Y-47157
X46764Y-47157
X41764Y-47157
X39764Y-49157
X42764Y-51157
X30764Y-34157
X56764Y-39157
X34764Y-33157
X37764Y-30157
X46764Y-41157
X56764Y-55157
X51764Y-55157
X44764Y-57157
X40764Y-61157
X48764Y-63157
X15764Y-62157
X57764Y-28157
X38764Y-46157
X26764Y-48157
X44764Y-50157
X37764Y-52157
X27764Y-33157
X30764Y-35157
X61764Y-40157
X39764Y-29157
X35764Y-33157
X46764Y-42157
X54764Y-44157
X49764Y-44157
X56764Y-56157
X51764Y-56157
X30764Y-62157
X33764Y-66157
X16748Y-16157
X54764Y-27157
X49764Y-27157
X25764Y-45157
X20764Y-45157
X38764Y-47157
X34764Y-51157
X27764Y-34157
X25764Y-36157
X20764Y-36157
X60764Y-37157
X48764Y-39157
X50764Y-53157
X48764Y-55157
X41764Y-57157
X44764Y-59157
X45764Y-63157
X28764Y-65157
X15764Y-65157
X14764Y-20157
X27764Y-16157
X22764Y-16157
X59764Y-17157
X54764Y-17157
X49764Y-17157
X44764Y-17157
X39764Y-17157
X34764Y-17157
X29764Y-17157
X24764Y-17157
X19764Y-17157
X56764Y-18157
X51764Y-18157
X46764Y-18157
X41764Y-18157
X36764Y-18157
X31764Y-18157
X26764Y-18157
X21764Y-18157
X61764Y-19157
X56764Y-19157
X51764Y-19157
X46764Y-19157
X41764Y-19157
X36764Y-19157
X31764Y-19157
X26764Y-19157
X21764Y-19157
X61764Y-20157
X56764Y-20157
X51764Y-20157
X46764Y-20157
X41764Y-20157
X36764Y-20157
X31764Y-20157
X26764Y-20157
X21764Y-20157
X61764Y-21157
X56764Y-21157
X51764Y-21157
X46764Y-21157
X41764Y-21157
X36764Y-21157
X31764Y-21157
X26764Y-21157
X21764Y-21157
X61764Y-22157
X56764Y-22157
X51764Y-22157
X46764Y-22157
X41764Y-22157
X36764Y-22157
X31764Y-22157
X26764Y-22157
X21764Y-22157
X61764Y-23157
X56764Y-23157
X51764Y-23157
X46764Y-23157
X41764Y-23157
X36764Y-23157
X31764Y-23157
X26764Y-23157
X21764Y-23157
X61764Y-24157
X56764Y-24157
X51764Y-24157
X46764Y-24157
X41764Y-24157
X36764Y-24157
X31764Y-24157
X26764Y-24157
X21764Y-24157
X61764Y-25157
X56764Y-25157
X51764Y-25157
X46764Y-25157
X41764Y-25157
X36764Y-25157
X31764Y-25157
X26764Y-25157
X21764Y-25157
X61764Y-26157
X54764Y-28157
X41764Y-50157
X27764Y-35157
X60764Y-38157
X55764Y-38157
X58764Y-40157
X31764Y-29157
X24764Y-31157
X40764Y-40157
X43764Y-42157
X41764Y-44157
X35764Y-54157
X30764Y-54157
X48764Y-56157
X43764Y-56157
X46764Y-58157
X41764Y-58157
X30764Y-66157
X17764Y-49157
X15764Y-18157
X62764Y-46157
X35764Y-47157
X30764Y-47157
X25764Y-47157
X20764Y-47157
X33764Y-49157
X31764Y-51157
X63764Y-24157
X50764Y-16157
X24764Y-34157
X45764Y-39157
X31764Y-30157
X45764Y-41157
X47764Y-53157
X38764Y-57157
X41764Y-59157
X36764Y-59157
X34764Y-61157
X37764Y-63157
X32764Y-63157
X25764Y-65157
X32764Y-67157
X27764Y-67157
X22764Y-67157
X25764Y-48157
X33764Y-50157
X28764Y-69157
X19764Y-35157
X52764Y-38157
X50764Y-40157
X21764Y-31157
X40764Y-42157
X38764Y-44157
X27764Y-54157
X38764Y-58157
X46764Y-60157
X24764Y-62157
X27764Y-64157
X27764Y-66157
X15764Y-26157
X43764Y-27157
X38764Y-27157
X59764Y-46157
X62764Y-48157
X25764Y-49157
X28764Y-51157
X21764Y-34157
X61764Y-35157
X28764Y-30157
X37764Y-41157
X50764Y-43157
X47764Y-55157
X30764Y-57157
X33764Y-59157
X28764Y-59157
X31764Y-61157
X29764Y-63157
X22764Y-65157
X14764Y-26157
X14764Y-31157
X55764Y-26157
X34764Y-46157
X22764Y-48157
X62764Y-49157
X30764Y-50157
X59764Y-16157
X23764Y-33157
X18764Y-33157
X47764Y-40157
X30764Y-29157
X18764Y-31157
X39764Y-40157
X32764Y-42157
X30764Y-44157
X30764Y-58157
X43764Y-60157
X21764Y-62157
X24764Y-66157
X15764Y-29157
X35764Y-27157
X56764Y-46157
X59764Y-48157
X22764Y-49157
X58764Y-35157
X51764Y-37157
X34764Y-39157
X32764Y-28157
X27764Y-28157
X53764Y-33157
X34764Y-41157
X47764Y-43157
X27764Y-57157
X25764Y-59157
X28764Y-61157
X23764Y-61157
X21764Y-63157
X61764Y-64157
X54764Y-68157
X14764Y-34157
X47764Y-26157
X50764Y-28157
X45764Y-28157
X31764Y-46157
X22764Y-50157
X46764Y-16157
X41764Y-16157
X36764Y-16157
X31764Y-16157
X60764Y-34157
X55764Y-34157
X50764Y-34157
X22764Y-29157
X55764Y-32157
X31764Y-40157
X29764Y-42157
X26764Y-54157
X27764Y-58157
X35764Y-60157
X21764Y-64157
X61764Y-65157
X56764Y-65157
X51764Y-65157
X15764Y-32157
X15764Y-37157
X53764Y-46157
X56764Y-48157
X51764Y-48157
X19764Y-49157
X59764Y-50157
X22764Y-51157
X55764Y-35157
X19764Y-28157
X62764Y-31157
X26764Y-41157
X44764Y-43157
X43764Y-53157
X41764Y-55157
X36764Y-55157
X31764Y-55157
X58764Y-66157
X14764Y-37157
X14764Y-42157
X14764Y-47157
X44764Y-26157
X28764Y-46157
X53764Y-16157
X23764Y-15157
X42764Y-34157
X50764Y-36157
X19764Y-29157
X59764Y-30157
X52764Y-32157
X28764Y-40157
X24764Y-44157
X30764Y-52157
X25764Y-52157
X23764Y-54157
X41764Y-56157
X32764Y-60157
X55764Y-67157
X15764Y-40157
X29764Y-27157
X48764Y-48157
X56764Y-50157
X19764Y-51157
X52764Y-35157
X50764Y-37157
X45764Y-37157
X61764Y-29157
X59764Y-31157
X47764Y-33157
X23764Y-41157
X36764Y-43157
X28764Y-55157
X21764Y-57157
X19764Y-59157
X55764Y-64157
X55764Y-66157
X48764Y-68157
X43764Y-68157
X38764Y-68157
X14764Y-50157
X36764Y-26157
X39764Y-28157
X25764Y-46157
X53764Y-49157
X48764Y-49157
X39764Y-34157
X47764Y-36157
X49764Y-32157
X44764Y-32157
X39764Y-32157
X34764Y-32157
X29764Y-32157
X25764Y-40157
X23764Y-42157
X21764Y-44157
X22764Y-52157
X33764Y-56157
X28764Y-56157
X21764Y-58157
X29764Y-60157
X62764Y-63157
X47764Y-67157
X15764Y-48157
X26764Y-27157
X45764Y-48157
X40764Y-48157
X53764Y-50157
X56764Y-52157
X63764Y-39157
X38764Y-69157
X48764Y-69157
X49764Y-35157
X44764Y-35157
X42764Y-37157
X37764Y-37157
X30764Y-39157
X58764Y-29157
X53764Y-29157
X56764Y-31157
X51764Y-31157
X46764Y-31157
X33764Y-43157
X37764Y-53157
X20764Y-55157
X18764Y-57157
X61764Y-60157
X54764Y-62157
X47764Y-64157
X42764Y-64157
X47764Y-66157
X30764Y-68157
X33764Y-26157
X28764Y-26157
X18764Y-50157
X64748Y-65142
X39764Y-36157
X34764Y-36157
X37764Y-38157
X32764Y-38157
X27764Y-38157
X53764Y-30157
X26764Y-32157
X21764Y-32157
X62764Y-41157
X20764Y-42157
X19764Y-52157
X59764Y-53157
X25764Y-56157
X21764Y-60157
X61764Y-61157
X56764Y-61157
X59764Y-63157
X47764Y-65157
X44764Y-67157
X15764Y-51157
X62764Y-18157
X41764Y-35157
X29764Y-37157
X27764Y-39157
X50764Y-29157
X43764Y-31157
X29764Y-53157
X60764Y-58157
X58764Y-60157
X51764Y-62157
X46764Y-62157
X41764Y-62157
X27764Y-68157
X14764Y-56157
X14764Y-61157
X19764Y-46157
X47764Y-49157
X60764Y-51157
X55764Y-51157
X33764Y-34157
X31764Y-36157
X24764Y-38157
X19764Y-38157
X45764Y-30157
X18764Y-32157
X57764Y-43157
X56764Y-53157
X59764Y-55157
X62764Y-57157
X57764Y-57157
X53764Y-61157
X44764Y-65157
X15764Y-54157
X52764Y-50157
X38764Y-35157
X47764Y-29157
X35764Y-31157
X59764Y-42157
X27764Y-43157
X22764Y-43157
X26764Y-53157
X21764Y-53157
X57764Y-58157
X55764Y-60157
X50764Y-60157
X33764Y-62157
X46764Y-66157
X62764Y-27157
X58764Y-45157
X53764Y-45157
X61764Y-47157
X56764Y-47157
X44764Y-49157
X52764Y-51157
X47764Y-51157
X28764Y-36157
X61764Y-39157
X42764Y-30157
X60764Y-33157
X51764Y-41157
X53764Y-53157
X54764Y-57157
X49764Y-57157
X57764Y-59157
X52764Y-59157
X50764Y-61157
X45764Y-61157
X53764Y-63157
X36764Y-65157
X38764Y-67157
X62764Y-28157
X36764Y-48157
X31764Y-48157
X42764Y-52157
X32764Y-33157
X23764Y-37157
X44764Y-29157
X32764Y-31157
X51764Y-42157
X19764Y-43157
X59764Y-44157
X18764Y-53157
X58764Y-54157
X53764Y-54157
X48764Y-54157
X43764Y-54157
X33764Y-64157
X43764Y-66157
X38764Y-66157
X21764Y-68157
X17764Y-23961
X17732Y-18126
X45764Y-45157
X40764Y-45157
X35764Y-45157
X30764Y-45157
X48764Y-47157
X43764Y-47157
X36764Y-49157
X39764Y-51157
X32764Y-34157
X53764Y-39157
X39764Y-30157
X48764Y-41157
X53764Y-55157
X46764Y-57157
X49764Y-59157
X42764Y-61157
X33764Y-65157
X15764Y-60157
X59764Y-28157
X28764Y-48157
X34764Y-52157
X32764Y-35157
X20764Y-37157
X18764Y-39157
X36764Y-29157
X48764Y-42157
X56764Y-44157
X51764Y-44157
X46764Y-44157
X40764Y-54157
X53764Y-56157
X51764Y-58157
X30764Y-64157
X35764Y-66157
X18764Y-68157
X51764Y-27157
X46764Y-27157
X22764Y-45157
X36764Y-51157
X22764Y-36157
X62764Y-37157
X57764Y-37157
X50764Y-39157
X33764Y-28157
X54764Y-33157
X52764Y-53157
X50764Y-55157
X46764Y-59157
X42764Y-63157
X30764Y-65157
X14764Y-18157
X29764Y-16157
X24764Y-16157
X19764Y-16157
X56764Y-17157
X51764Y-17157
X46764Y-17157
X41764Y-17157
X36764Y-17157
X31764Y-17157
X26764Y-17157
X21764Y-17157
X58764Y-18157
X53764Y-18157
X48764Y-18157
X43764Y-18157
X38764Y-18157
X33764Y-18157
X28764Y-18157
X23764Y-18157
X18764Y-18157
X58764Y-19157
X53764Y-19157
X48764Y-19157
X43764Y-19157
X38764Y-19157
X33764Y-19157
X28764Y-19157
X23764Y-19157
X18764Y-19157
X58764Y-20157
X53764Y-20157
X48764Y-20157
X43764Y-20157
X38764Y-20157
X33764Y-20157
X28764Y-20157
X23764Y-20157
X18764Y-20157
X58764Y-21157
X53764Y-21157
X48764Y-21157
X43764Y-21157
X38764Y-21157
X33764Y-21157
X28764Y-21157
X23764Y-21157
X18764Y-21157
X58764Y-22157
X53764Y-22157
X48764Y-22157
X43764Y-22157
X38764Y-22157
X33764Y-22157
X28764Y-22157
X23764Y-22157
X18764Y-22157
X58764Y-23157
X53764Y-23157
X48764Y-23157
X43764Y-23157
X38764Y-23157
X33764Y-23157
X28764Y-23157
X23764Y-23157
X18764Y-23157
X58764Y-24157
X53764Y-24157
X48764Y-24157
X43764Y-24157
X38764Y-24157
X33764Y-24157
X28764Y-24157
X23764Y-24157
X18764Y-24157
X58764Y-25157
X53764Y-25157
X48764Y-25157
X43764Y-25157
X38764Y-25157
X33764Y-25157
X28764Y-25157
X23764Y-25157
X18764Y-25157
X37764Y-46157
X38764Y-50157
X24764Y-35157
X62764Y-38157
X57764Y-38157
X55764Y-40157
X33764Y-29157
X26764Y-31157
X42764Y-40157
X45764Y-42157
X43764Y-44157
X37764Y-54157
X32764Y-54157
X50764Y-56157
X45764Y-56157
X48764Y-58157
X43764Y-58157
X32764Y-66157
X17764Y-59157
X17764Y-34157
X15764Y-21157
X32764Y-47157
X27764Y-47157
X22764Y-47157
X30764Y-49157
X33764Y-51157
X23764Y-69157
X26764Y-34157
X42764Y-39157
X33764Y-30157
X42764Y-41157
X35764Y-57157
X43764Y-59157
X38764Y-59157
X36764Y-61157
X39764Y-63157
X34764Y-63157
X27764Y-65157
X34764Y-67157
X29764Y-67157
X24764Y-67157
X19764Y-67157
X53764Y-28157
X35764Y-50157
X21764Y-35157
X61764Y-36157
X49764Y-38157
X52764Y-40157
X23764Y-31157
X37764Y-42157
X35764Y-44157
X29764Y-54157
X35764Y-58157
X48764Y-60157
X26764Y-62157
X24764Y-64157
X15764Y-24157
X40764Y-27157
X27764Y-49157
X25764Y-51157
X58764Y-15157
X18764Y-34157
X56764Y-37157
X39764Y-39157
X25764Y-30157
X39764Y-41157
X52764Y-43157
X44764Y-55157
X32764Y-57157
X35764Y-59157
X30764Y-59157
X33764Y-61157
X26764Y-63157
X19764Y-65157
X59764Y-68157
X14764Y-24157
X14764Y-29157
X57764Y-26157
X52764Y-26157
X19764Y-48157
X27764Y-50157
X20764Y-33157
X58764Y-36157
X27764Y-29157
X60764Y-32157
X36764Y-40157
X34764Y-42157
X32764Y-44157
X32764Y-58157
X40764Y-60157
X23764Y-62157
X18764Y-62157
X21764Y-66157
X15764Y-27157
X32764Y-27157
X61764Y-48157
X24764Y-49157
X53764Y-37157
X36764Y-39157
X29764Y-28157
X24764Y-28157
X22764Y-30157
X50764Y-33157
X31764Y-41157
X49764Y-43157
X27764Y-59157
X25764Y-61157
X20764Y-61157
X23764Y-63157
X18764Y-63157
X58764Y-64157
X56764Y-68157
X51764Y-68157
X49764Y-26157
X47764Y-28157
X24764Y-50157
X48764Y-16157
X43764Y-16157
X38764Y-16157
X33764Y-16157
X62764Y-34157
X57764Y-34157
X52764Y-34157
X47764Y-34157
X55764Y-36157
X24764Y-29157
X57764Y-32157
X33764Y-40157
X26764Y-42157
X29764Y-44157
X24764Y-58157
X37764Y-60157
X18764Y-64157
X58764Y-65157
X53764Y-65157
X18764Y-66157
X15764Y-35157
X55764Y-46157
X50764Y-46157
X53764Y-48157
X61764Y-50157
X33764Y-39157
X21764Y-28157
X19764Y-30157
X28764Y-41157
X41764Y-43157
X45764Y-53157
X40764Y-53157
X38764Y-55157
X33764Y-55157
X62764Y-62157
X14764Y-40157
X14764Y-45157
X41764Y-26157
X30764Y-46157
X58764Y-49157
X55764Y-16157
X44764Y-34157
X52764Y-36157
X45764Y-38157
X61764Y-30157
X26764Y-44157
X27764Y-52157
X20764Y-54157
X38764Y-56157
X57764Y-67157
X52764Y-67157
X15764Y-43157
X47764Y-46157
X61764Y-52157
X54764Y-35157
X47764Y-37157
X18764Y-28157
X44764Y-33157
X25764Y-41157
X38764Y-43157
X25764Y-55157
X23764Y-57157
X21764Y-59157
X59764Y-62157
X52764Y-64157
X52764Y-66157
X45764Y-68157
X40764Y-68157
X35764Y-68157
X38764Y-26157
X41764Y-28157
X36764Y-28157
X55764Y-49157
X50764Y-49157
X44764Y-36157
X42764Y-38157
X46764Y-32157
X41764Y-32157
X36764Y-32157
X31764Y-32157
X22764Y-40157
X25764Y-42157
X62764Y-55157
X35764Y-56157
X30764Y-56157
X23764Y-58157
X18764Y-58157
X26764Y-60157
X49764Y-67157
X15764Y-46157
X44764Y-46157
X47764Y-48157
X42764Y-48157
X58764Y-52157
X53764Y-52157
X46764Y-35157
X44764Y-37157
X39764Y-37157
X34764Y-37157
X55764Y-29157
X53764Y-31157
X48764Y-31157
X35764Y-43157
X39764Y-53157
X34764Y-53157
X22764Y-55157
X56764Y-62157
X49764Y-64157
X44764Y-64157
X49764Y-66157
X32764Y-68157
X35764Y-26157
X30764Y-26157
X25764Y-26157
X20764Y-50157
X41764Y-36157
X36764Y-36157
X39764Y-38157
X34764Y-38157
X29764Y-38157
X55764Y-30157
X50764Y-30157
X23764Y-32157
X19764Y-40157
X59764Y-41157
X62764Y-43157
X21764Y-52157
X61764Y-53157
X27764Y-56157
X22764Y-56157
X60764Y-59157
X23764Y-60157
X18764Y-60157
X58764Y-61157
X56764Y-63157
X15764Y-49157
X50764Y-52157
X43764Y-35157
X31764Y-37157
X24764Y-39157
X52764Y-29157
X40764Y-31157
X43764Y-33157
X19764Y-41157
X31764Y-53157
X48764Y-62157
X43764Y-62157
X38764Y-62157
X14764Y-54157
X14764Y-59157
X22764Y-26157
X21764Y-46157
X57764Y-51157
X28764Y-15157
X35764Y-34157
X33764Y-36157
X21764Y-38157
X47764Y-30157
X20764Y-32157
X56764Y-41157
X59764Y-43157
X62764Y-45157
X58764Y-53157
X19764Y-56157
X59764Y-57157
X55764Y-61157
X41764Y-65157
X15764Y-57157
X22764Y-27157
X43764Y-46157
X49764Y-50157
X47764Y-52157
X35764Y-35157
X21764Y-39157
X49764Y-29157
X37764Y-31157
X40764Y-33157
X61764Y-42157
X56764Y-42157
X29764Y-43157
X24764Y-43157
X23764Y-53157
X61764Y-56157
X54764Y-58157
X52764Y-60157
X35764Y-62157
X38764Y-64157
X19764Y-26157
X59764Y-27157
X60764Y-45157
X55764Y-45157
X50764Y-45157
X18764Y-46157
X58764Y-47157
X53764Y-47157
X41764Y-49157
X54764Y-51157
X49764Y-51157
X44764Y-51157
X58764Y-39157
X44764Y-30157
X57764Y-33157
X53764Y-41157
X55764Y-53157
X51764Y-57157
X54764Y-59157
X47764Y-61157
X55764Y-63157
X50764Y-63157
X38764Y-65157
X40764Y-67157
X19764Y-27157
X40764Y-46157
X33764Y-48157
X46764Y-50157
X44764Y-52157
X39764Y-52157
X29764Y-33157
X25764Y-37157
X41764Y-29157
X29764Y-31157
X37764Y-33157
X53764Y-42157
X61764Y-44157
X60764Y-54157
X55764Y-54157
X50764Y-54157
X45764Y-54157
X58764Y-56157
X32764Y-62157
X35764Y-64157
X40764Y-66157
X23764Y-68157
X16748Y-65173
X16748Y-17157
X14764Y-65157
X56764Y-27157
X47764Y-45157
X42764Y-45157
X37764Y-45157
X32764Y-45157
X27764Y-45157
X50764Y-47157
X45764Y-47157
X40764Y-47157
X38764Y-49157
X41764Y-51157
X53764Y-15157
X29764Y-34157
X55764Y-39157
X36764Y-30157
X50764Y-41157
X55764Y-55157
X48764Y-57157
X43764Y-57157
X39764Y-61157
X47764Y-63157
X37764Y-67157
X15764Y-63157
X61764Y-28157
X56764Y-28157
X43764Y-50157
X36764Y-52157
X63764Y-54157
X26764Y-33157
X29764Y-35157
X60764Y-40157
X38764Y-29157
X50764Y-42157
X53764Y-44157
X48764Y-44157
X42764Y-54157
X55764Y-56157
X53764Y-58157
X29764Y-62157
X32764Y-64157
X37764Y-66157
X20764Y-68157
X15764Y-16157
X53764Y-27157
X48764Y-27157
X24764Y-45157
X19764Y-45157
X37764Y-47157
X38764Y-51157
X24764Y-36157
X19764Y-36157
X59764Y-37157
X52764Y-39157
X47764Y-39157
X56764Y-33157
X49764Y-53157
X40764Y-57157
X44764Y-63157
X14764Y-16157
X14764Y-21157
X26764Y-16157
X21764Y-16157
X58764Y-17157
X53764Y-17157
X48764Y-17157
X43764Y-17157
X38764Y-17157
X33764Y-17157
X28764Y-17157
X23764Y-17157
X18764Y-17157
X55764Y-18157
X50764Y-18157
X45764Y-18157
X40764Y-18157
X35764Y-18157
X30764Y-18157
X25764Y-18157
X20764Y-18157
X60764Y-19157
X55764Y-19157
X50764Y-19157
X45764Y-19157
X40764Y-19157
X35764Y-19157
X30764Y-19157
X25764Y-19157
X20764Y-19157
X60764Y-20157
X55764Y-20157
X50764Y-20157
X45764Y-20157
X40764Y-20157
X35764Y-20157
X30764Y-20157
X25764Y-20157
X20764Y-20157
X60764Y-21157
X55764Y-21157
X50764Y-21157
X45764Y-21157
X40764Y-21157
X35764Y-21157
X30764Y-21157
X25764Y-21157
X20764Y-21157
X60764Y-22157
X55764Y-22157
X50764Y-22157
X45764Y-22157
X40764Y-22157
X35764Y-22157
X30764Y-22157
X25764Y-22157
X20764Y-22157
X60764Y-23157
X55764Y-23157
X50764Y-23157
X45764Y-23157
X40764Y-23157
X35764Y-23157
X30764Y-23157
X25764Y-23157
X20764Y-23157
X60764Y-24157
X55764Y-24157
X50764Y-24157
X45764Y-24157
X40764Y-24157
X35764Y-24157
X30764Y-24157
X25764Y-24157
X20764Y-24157
X60764Y-25157
X55764Y-25157
X50764Y-25157
X45764Y-25157
X40764Y-25157
X35764Y-25157
X30764Y-25157
X25764Y-25157
X20764Y-25157
X60764Y-26157
X40764Y-50157
X63764Y-19157
X26764Y-35157
X59764Y-38157
X54764Y-38157
X57764Y-40157
X35764Y-29157
X28764Y-31157
X44764Y-40157
X42764Y-42157
X40764Y-44157
X34764Y-54157
X47764Y-56157
X50764Y-58157
X45764Y-58157
X40764Y-58157
X29764Y-66157
X17764Y-44157
X15764Y-19157
X61764Y-46157
X34764Y-47157
X29764Y-47157
X24764Y-47157
X19764Y-47157
X32764Y-49157
X30764Y-51157
X63764Y-59157
X23764Y-34157
X44764Y-39157
X30764Y-30157
X44764Y-41157
X46764Y-53157
X37764Y-57157
X40764Y-59157
X38764Y-61157
X41764Y-63157
X36764Y-63157
X31764Y-63157
X24764Y-65157
X36764Y-67157
X31764Y-67157
X26764Y-67157
X21764Y-67157
X24764Y-48157
X32764Y-50157
X23764Y-35157
X18764Y-35157
X51764Y-38157
X49764Y-40157
X20764Y-31157
X39764Y-42157
X37764Y-44157
X37764Y-58157
X45764Y-60157
X26764Y-64157
X26764Y-66157
X15764Y-22157
X42764Y-27157
X37764Y-27157
X58764Y-46157
X29764Y-49157
X27764Y-51157
X20764Y-34157
X60764Y-35157
X41764Y-39157
X27764Y-30157
X36764Y-41157
X54764Y-43157
X46764Y-55157
X29764Y-57157
X32764Y-59157
X30764Y-61157
X28764Y-63157
X21764Y-65157
X14764Y-27157
X14764Y-32157
X59764Y-26157
X54764Y-26157
X33764Y-46157
X21764Y-48157
X61764Y-49157
X29764Y-50157
X58764Y-16157
X22764Y-33157
X60764Y-36157
X48764Y-38157
X46764Y-40157
X29764Y-29157
X62764Y-32157
X38764Y-40157
X31764Y-42157
X34764Y-44157
X29764Y-58157
X42764Y-60157
X20764Y-62157
X23764Y-66157
X15764Y-30157
X34764Y-27157
X58764Y-48157
X21764Y-49157
X57764Y-35157
X55764Y-37157
X31764Y-28157
X26764Y-28157
X24764Y-30157
X52764Y-33157
X33764Y-41157
X46764Y-43157
X43764Y-55157
X26764Y-57157
X24764Y-59157
X27764Y-61157
X22764Y-61157
X20764Y-63157
X60764Y-64157
X53764Y-68157
X14764Y-35157
X51764Y-26157
X46764Y-26157
X49764Y-28157
X44764Y-28157
X26764Y-50157
X45764Y-16157
X40764Y-16157
X35764Y-16157
X30764Y-16157
X59764Y-34157
X54764Y-34157
X49764Y-34157
X57764Y-36157
X21764Y-29157
X54764Y-32157
X30764Y-40157
X28764Y-42157
X25764Y-54157
X26764Y-58157
X34764Y-60157
X20764Y-64157
X60764Y-65157
X55764Y-65157
X50764Y-65157
X20764Y-66157
X15764Y-33157
X15764Y-38157
X31764Y-27157
X52764Y-46157
X55764Y-48157
X50764Y-48157
X18764Y-49157
X58764Y-50157
X21764Y-51157
X63764Y-34157
X62764Y-66157
X61764Y-31157
X49764Y-33157
X30764Y-41157
X43764Y-43157
X42764Y-53157
X40764Y-55157
X35764Y-55157
X30764Y-55157
X19764Y-61157
X57764Y-64157
X57764Y-66157
X50764Y-68157
X14764Y-38157
X14764Y-43157
X14764Y-48157
X43764Y-26157
X27764Y-46157
X60764Y-49157
X52764Y-16157
X41764Y-34157
X54764Y-36157
X49764Y-36157
X47764Y-38157
X18764Y-29157
X58764Y-30157
X51764Y-32157
X27764Y-40157
X28764Y-44157
X23764Y-44157
X29764Y-52157
X24764Y-52157
X22764Y-54157
X40764Y-56157
X31764Y-60157
X54764Y-67157
X15764Y-41157
X28764Y-27157
X55764Y-50157
X18764Y-51157
X63764Y-64157
X51764Y-35157
X49764Y-37157
X60764Y-29157
X58764Y-31157
X46764Y-33157
X22764Y-41157
X40764Y-43157
X27764Y-55157
X20764Y-57157
X23764Y-59157
X18764Y-59157
X54764Y-64157
X54764Y-66157
X47764Y-68157
X42764Y-68157
X37764Y-68157
X14764Y-51157
X40764Y-26157
X38764Y-28157
X24764Y-46157
X52764Y-49157
X38764Y-34157
X46764Y-36157
X48764Y-32157
X43764Y-32157
X38764Y-32157
X33764Y-32157
X28764Y-32157
X24764Y-40157
X22764Y-42157
X20764Y-44157
X19764Y-54157
X32764Y-56157
X20764Y-58157
X28764Y-60157
X61764Y-63157
X51764Y-67157
X46764Y-67157
X25764Y-27157
X46764Y-46157
X44764Y-48157
X39764Y-48157
X55764Y-52157
X64748Y-64157
X48764Y-35157
X41764Y-37157
X36764Y-37157
X29764Y-39157
X57764Y-29157
X55764Y-31157
X50764Y-31157
X45764Y-31157
X32764Y-43157
X36764Y-53157
X24764Y-55157
X19764Y-55157
X62764Y-58157
X60764Y-60157
X53764Y-62157
X46764Y-64157
X41764Y-64157
X51764Y-66157
X34764Y-68157
X29764Y-68157
X32764Y-26157
X27764Y-26157
X62764Y-51157
X38764Y-36157
X36764Y-38157
X31764Y-38157
X26764Y-38157
X52764Y-30157
X25764Y-32157
X21764Y-40157
X61764Y-41157
X19764Y-42157
X18764Y-52157
X24764Y-56157
X62764Y-59157
X20764Y-60157
X60764Y-61157
X58764Y-63157
X46764Y-65157
X43764Y-67157
X15764Y-52157
X52764Y-52157
X40764Y-35157
X28764Y-37157
X26764Y-39157
X42764Y-31157
X28764Y-53157
X59764Y-58157
X57764Y-60157
X50764Y-62157
X45764Y-62157
X40764Y-62157
X26764Y-68157
X14764Y-57157
X14764Y-62157
X24764Y-26157
X23764Y-46157
X46764Y-49157
X59764Y-51157
X37764Y-34157
X30764Y-36157
X23764Y-38157
X18764Y-38157
X62764Y-33157
X58764Y-41157
X56764Y-43157
X58764Y-55157
X21764Y-56157
X61764Y-57157
X56764Y-57157
X52764Y-61157
X43764Y-65157
X15764Y-55157
X51764Y-50157
X49764Y-52157
X37764Y-35157
X23764Y-39157
X46764Y-29157
X34764Y-31157
X42764Y-33157
X58764Y-42157
X26764Y-43157
X21764Y-43157
X25764Y-53157
X20764Y-53157
X56764Y-58157
X54764Y-60157
X49764Y-60157
X37764Y-62157
X40764Y-64157
X45764Y-66157
X21764Y-26157
X61764Y-27157
X57764Y-45157
X52764Y-45157
X60764Y-47157
X55764Y-47157
X43764Y-49157
X51764Y-51157
X46764Y-51157
X38764Y-15157
X27764Y-36157
X60764Y-39157
X41764Y-30157
X59764Y-33157
X53764Y-57157
X56764Y-59157
X51764Y-59157
X49764Y-61157
X44764Y-61157
X52764Y-63157
X35764Y-65157
X42764Y-67157
X15764Y-58157
X42764Y-46157
X35764Y-48157
X30764Y-48157
X46764Y-52157
X41764Y-52157
X63764Y-49157
X31764Y-33157
X22764Y-37157
X43764Y-29157
X31764Y-31157
X55764Y-42157
X18764Y-43157
X58764Y-44157
X62764Y-54157
X57764Y-54157
X52764Y-54157
X47764Y-54157
X42764Y-66157
X25764Y-68157
X17732Y-64189
X16748Y-18157
X49764Y-45157
X44764Y-45157
X39764Y-45157
X34764Y-45157
X29764Y-45157
X47764Y-47157
X42764Y-47157
X35764Y-49157
X43764Y-51157
X43764Y-15157
X31764Y-34157
X57764Y-39157
X38764Y-30157
X47764Y-41157
X52764Y-55157
X45764Y-57157
X48764Y-59157
X41764Y-61157
X49764Y-63157
X32764Y-65157
X15764Y-61157
X58764Y-28157
X39764Y-46157
X27764Y-48157
X33764Y-52157
X63764Y-65157
X28764Y-33157
X31764Y-35157
X19764Y-37157
X62764Y-40157
X40764Y-29157
X36764Y-33157
X47764Y-42157
X55764Y-44157
X50764Y-44157
X45764Y-44157
X39764Y-54157
X52764Y-56157
X29764Y-64157
X34764Y-66157
X18764Y-69157
X17748Y-16157
X50764Y-27157
X45764Y-27157
X26764Y-45157
X21764Y-45157
X35764Y-51157
X26764Y-36157
X21764Y-36157
X61764Y-37157
X49764Y-39157
X51764Y-53157
X49764Y-55157
X42764Y-57157
X45764Y-59157
X29764Y-65157
X15764Y-64157
X14764Y-19157
X28764Y-16157
X23764Y-16157
X18764Y-16157
X55764Y-17157
X50764Y-17157
X45764Y-17157
X40764Y-17157
X35764Y-17157
X30764Y-17157
X25764Y-17157
X20764Y-17157
X57764Y-18157
X52764Y-18157
X47764Y-18157
X42764Y-18157
X37764Y-18157
X32764Y-18157
X27764Y-18157
X22764Y-18157
X62764Y-19157
X57764Y-19157
X52764Y-19157
X47764Y-19157
X42764Y-19157
X37764Y-19157
X32764Y-19157
X27764Y-19157
X22764Y-19157
X62764Y-20157
X57764Y-20157
X52764Y-20157
X47764Y-20157
X42764Y-20157
X37764Y-20157
X32764Y-20157
X27764Y-20157
X22764Y-20157
X62764Y-21157
X57764Y-21157
X52764Y-21157
X47764Y-21157
X42764Y-21157
X37764Y-21157
X32764Y-21157
X27764Y-21157
X22764Y-21157
X62764Y-22157
X57764Y-22157
X52764Y-22157
X47764Y-22157
X42764Y-22157
X37764Y-22157
X32764Y-22157
X27764Y-22157
X22764Y-22157
X62764Y-23157
X57764Y-23157
X52764Y-23157
X47764Y-23157
X42764Y-23157
X37764Y-23157
X32764Y-23157
X27764Y-23157
X22764Y-23157
X62764Y-24157
X57764Y-24157
X52764Y-24157
X47764Y-24157
X42764Y-24157
X37764Y-24157
X32764Y-24157
X27764Y-24157
X22764Y-24157
X62764Y-25157
X57764Y-25157
X52764Y-25157
X47764Y-25157
X42764Y-25157
X37764Y-25157
X32764Y-25157
X27764Y-25157
X22764Y-25157
X62764Y-26157
X55764Y-28157
X36764Y-46157
X37764Y-50157
X28764Y-35157
X61764Y-38157
X56764Y-38157
X54764Y-40157
X32764Y-29157
X25764Y-31157
X41764Y-40157
X44764Y-42157
X42764Y-44157
X36764Y-54157
X31764Y-54157
X49764Y-56157
X44764Y-56157
X47764Y-58157
X42764Y-58157
X31764Y-66157
X17764Y-54157
X18764Y-45157
X31764Y-47157
X26764Y-47157
X21764Y-47157
X34764Y-49157
X32764Y-51157
X48764Y-15157
X25764Y-34157
X32764Y-30157
X41764Y-41157
X34764Y-57157
X42764Y-59157
X37764Y-59157
X35764Y-61157
X38764Y-63157
X33764Y-63157
X26764Y-65157
X33764Y-67157
X28764Y-67157
X23764Y-67157
X18764Y-67157
X52764Y-28157
X34764Y-50157
X20764Y-35157
X53764Y-38157
X51764Y-40157
X22764Y-31157
X36764Y-42157
X39764Y-44157
X28764Y-54157
X34764Y-58157
X47764Y-60157
X25764Y-62157
X28764Y-64157
X23764Y-64157
X28764Y-66157
X15764Y-25157
X44764Y-27157
X39764Y-27157
X60764Y-46157
X26764Y-49157
X24764Y-51157
X22764Y-34157
X62764Y-35157
X38764Y-39157
X29764Y-30157
X38764Y-41157
X51764Y-43157
X31764Y-57157
X34764Y-59157
X29764Y-59157
X32764Y-61157
X30764Y-63157
X25764Y-63157
X18764Y-65157
X58764Y-68157
X14764Y-25157
X14764Y-30157
X56764Y-26157
X35764Y-46157
X23764Y-48157
X18764Y-48157
X31764Y-50157
X60764Y-16157
X58764Y-69157
X24764Y-33157
X19764Y-33157
X48764Y-40157
X26764Y-29157
X19764Y-31157
X59764Y-32157
X35764Y-40157
X33764Y-42157
X31764Y-44157
X31764Y-58157
X39764Y-60157
X22764Y-62157
X15764Y-28157
X57764Y-46157
X60764Y-48157
X23764Y-49157
X63764Y-29157
X59764Y-35157
X52764Y-37157
X35764Y-39157
X28764Y-28157
X23764Y-28157
X21764Y-30157
X35764Y-41157
X48764Y-43157
X28764Y-57157
X26764Y-59157
X24764Y-61157
X22764Y-63157
X62764Y-64157
X55764Y-68157
X48764Y-26157
X51764Y-28157
X46764Y-28157
X32764Y-46157
X23764Y-50157
X47764Y-16157
X42764Y-16157
X37764Y-16157
X32764Y-16157
X61764Y-34157
X56764Y-34157
X51764Y-34157
X46764Y-34157
X23764Y-29157
X56764Y-32157
X32764Y-40157
X30764Y-42157
X28764Y-58157
X36764Y-60157
X62764Y-65157
X57764Y-65157
X52764Y-65157
X59764Y-67157
X15764Y-31157
X15764Y-36157
X54764Y-46157
X49764Y-46157
X52764Y-48157
X60764Y-50157
X23764Y-51157
X56764Y-35157
X32764Y-39157
X20764Y-28157
X18764Y-30157
X27764Y-41157
X45764Y-43157
X44764Y-53157
X37764Y-55157
X32764Y-55157
X61764Y-62157
X59764Y-66157
X14764Y-41157
X14764Y-46157
X45764Y-26157
X43764Y-28157
X29764Y-46157
X57764Y-49157
X54764Y-16157
X43764Y-34157
X51764Y-36157
X44764Y-38157
X20764Y-29157
X60764Y-30157
X53764Y-32157
X29764Y-40157
X25764Y-44157
X31764Y-52157
X26764Y-52157
X37764Y-56157
X33764Y-60157
X56764Y-67157
X15764Y-39157
X15764Y-44157
X49764Y-48157
X57764Y-50157
X20764Y-51157
X60764Y-52157
X53764Y-35157
X46764Y-37157
X62764Y-29157
X60764Y-31157
X24764Y-41157
X37764Y-43157
X29764Y-55157
X22764Y-57157
X20764Y-59157
X58764Y-62157
X51764Y-64157
X49764Y-68157
X44764Y-68157
X39764Y-68157
X37764Y-26157
X40764Y-28157
X35764Y-28157
X54764Y-49157
X49764Y-49157
X40764Y-34157
X43764Y-36157
X41764Y-38157
X50764Y-32157
X45764Y-32157
X40764Y-32157
X35764Y-32157
X30764Y-32157
X26764Y-40157
X24764Y-42157
X22764Y-44157
X23764Y-52157
X61764Y-55157
X34764Y-56157
X29764Y-56157
X22764Y-58157
X25764Y-60157
X48764Y-67157
X15764Y-47157
X46764Y-48157
X41764Y-48157
X54764Y-50157
X57764Y-52157
X45764Y-35157
X43764Y-37157
X38764Y-37157
X33764Y-37157
X31764Y-39157
X54764Y-29157
X52764Y-31157
X47764Y-31157
X34764Y-43157
X38764Y-53157
X33764Y-53157
X21764Y-55157
X19764Y-57157
X62764Y-60157
X55764Y-62157
X48764Y-64157
X43764Y-64157
X48764Y-66157
X31764Y-68157
X34764Y-26157
X29764Y-26157
X19764Y-50157
X40764Y-36157
X35764Y-36157
X38764Y-38157
X33764Y-38157
X28764Y-38157
X54764Y-30157
X49764Y-30157
X22764Y-32157
X18764Y-40157
X21764Y-42157
X61764Y-43157
X20764Y-52157
X60764Y-53157
X26764Y-56157
X59764Y-59157
X22764Y-60157
X62764Y-61157
X57764Y-61157
X48764Y-65157
X15764Y-50157
X42764Y-35157
X30764Y-37157
X51764Y-29157
X39764Y-31157
X18764Y-41157
X30764Y-53157
X52764Y-62157
X47764Y-62157
X42764Y-62157
X28764Y-68157
X14764Y-55157
X14764Y-60157
X20764Y-46157
X61764Y-51157
X56764Y-51157
X34764Y-34157
X32764Y-36157
X20764Y-38157
X46764Y-30157
X19764Y-32157
X55764Y-41157
X58764Y-43157
X57764Y-53157
X60764Y-55157
X18764Y-56157
X58764Y-57157
X54764Y-61157
X45764Y-65157
X40764Y-65157
X21764Y-27157
X48764Y-50157
X33764Y-69157
X43764Y-69157
X34764Y-35157
X27764Y-37157
X20764Y-39157
X48764Y-29157
X36764Y-31157
X39764Y-33157
X60764Y-42157
X28764Y-43157
X23764Y-43157
X27764Y-53157
X22764Y-53157
X60764Y-56157
X56764Y-60157
X51764Y-60157
X34764Y-62157
X37764Y-64157
X18764Y-26157
X58764Y-27157
X59764Y-45157
X54764Y-45157
X62764Y-47157
X57764Y-47157
X52764Y-47157
X40764Y-49157
X53764Y-51157
X48764Y-51157
X43764Y-30157
X61764Y-33157
X52764Y-41157
X54764Y-53157
X57764Y-55157
X50764Y-57157
X58764Y-59157
X53764Y-59157
X46764Y-61157
X54764Y-63157
X37764Y-65157
X39764Y-67157
X18764Y-27157
X37764Y-48157
X32764Y-48157
X45764Y-50157
X43764Y-52157
X38764Y-52157
X33764Y-33157
X24764Y-37157
X45764Y-29157
X33764Y-31157
X52764Y-42157
X60764Y-44157
X19764Y-53157
X59764Y-54157
X54764Y-54157
X49764Y-54157
X44764Y-54157
X57764Y-56157
X31764Y-62157
X34764Y-64157
X39764Y-66157
X22764Y-68157
X17764Y-29157
X17764Y-19157
X55764Y-27157
X46764Y-45157
X41764Y-45157
X36764Y-45157
X31764Y-45157
X49764Y-47157
X44764Y-47157
X39764Y-47157
X37764Y-49157
X40764Y-51157
X18764Y-15157
T0
M30
