%TF.GenerationSoftware,KiCad,Pcbnew,(5.1.6-0-10_14)*%
%TF.CreationDate,2020-07-02T17:02:21+02:00*%
%TF.ProjectId,x68k-ioboard,7836386b-2d69-46f6-926f-6172642e6b69,rev?*%
%TF.SameCoordinates,Original*%
%TF.FileFunction,Legend,Top*%
%TF.FilePolarity,Positive*%
%FSLAX46Y46*%
G04 Gerber Fmt 4.6, Leading zero omitted, Abs format (unit mm)*
G04 Created by KiCad (PCBNEW (5.1.6-0-10_14)) date 2020-07-02 17:02:21*
%MOMM*%
%LPD*%
G01*
G04 APERTURE LIST*
%ADD10C,0.150000*%
%ADD11C,0.010000*%
G04 APERTURE END LIST*
D10*
X155952380Y-41278095D02*
X155952380Y-41754285D01*
X156428571Y-41801904D01*
X156380952Y-41754285D01*
X156333333Y-41659047D01*
X156333333Y-41420952D01*
X156380952Y-41325714D01*
X156428571Y-41278095D01*
X156523809Y-41230476D01*
X156761904Y-41230476D01*
X156857142Y-41278095D01*
X156904761Y-41325714D01*
X156952380Y-41420952D01*
X156952380Y-41659047D01*
X156904761Y-41754285D01*
X156857142Y-41801904D01*
X155952380Y-40897142D02*
X155952380Y-40278095D01*
X156333333Y-40611428D01*
X156333333Y-40468571D01*
X156380952Y-40373333D01*
X156428571Y-40325714D01*
X156523809Y-40278095D01*
X156761904Y-40278095D01*
X156857142Y-40325714D01*
X156904761Y-40373333D01*
X156952380Y-40468571D01*
X156952380Y-40754285D01*
X156904761Y-40849523D01*
X156857142Y-40897142D01*
X163452380Y-48778095D02*
X163452380Y-49254285D01*
X163928571Y-49301904D01*
X163880952Y-49254285D01*
X163833333Y-49159047D01*
X163833333Y-48920952D01*
X163880952Y-48825714D01*
X163928571Y-48778095D01*
X164023809Y-48730476D01*
X164261904Y-48730476D01*
X164357142Y-48778095D01*
X164404761Y-48825714D01*
X164452380Y-48920952D01*
X164452380Y-49159047D01*
X164404761Y-49254285D01*
X164357142Y-49301904D01*
X163452380Y-48111428D02*
X163452380Y-48016190D01*
X163500000Y-47920952D01*
X163547619Y-47873333D01*
X163642857Y-47825714D01*
X163833333Y-47778095D01*
X164071428Y-47778095D01*
X164261904Y-47825714D01*
X164357142Y-47873333D01*
X164404761Y-47920952D01*
X164452380Y-48016190D01*
X164452380Y-48111428D01*
X164404761Y-48206666D01*
X164357142Y-48254285D01*
X164261904Y-48301904D01*
X164071428Y-48349523D01*
X163833333Y-48349523D01*
X163642857Y-48301904D01*
X163547619Y-48254285D01*
X163500000Y-48206666D01*
X163452380Y-48111428D01*
X163785714Y-61825714D02*
X164452380Y-61825714D01*
X163404761Y-62063809D02*
X164119047Y-62301904D01*
X164119047Y-61682857D01*
X163452380Y-60825714D02*
X163452380Y-61301904D01*
X163928571Y-61349523D01*
X163880952Y-61301904D01*
X163833333Y-61206666D01*
X163833333Y-60968571D01*
X163880952Y-60873333D01*
X163928571Y-60825714D01*
X164023809Y-60778095D01*
X164261904Y-60778095D01*
X164357142Y-60825714D01*
X164404761Y-60873333D01*
X164452380Y-60968571D01*
X164452380Y-61206666D01*
X164404761Y-61301904D01*
X164357142Y-61349523D01*
X163785714Y-74325714D02*
X164452380Y-74325714D01*
X163404761Y-74563809D02*
X164119047Y-74801904D01*
X164119047Y-74182857D01*
X163452380Y-73611428D02*
X163452380Y-73516190D01*
X163500000Y-73420952D01*
X163547619Y-73373333D01*
X163642857Y-73325714D01*
X163833333Y-73278095D01*
X164071428Y-73278095D01*
X164261904Y-73325714D01*
X164357142Y-73373333D01*
X164404761Y-73420952D01*
X164452380Y-73516190D01*
X164452380Y-73611428D01*
X164404761Y-73706666D01*
X164357142Y-73754285D01*
X164261904Y-73801904D01*
X164071428Y-73849523D01*
X163833333Y-73849523D01*
X163642857Y-73801904D01*
X163547619Y-73754285D01*
X163500000Y-73706666D01*
X163452380Y-73611428D01*
X163452380Y-87349523D02*
X163452380Y-86730476D01*
X163833333Y-87063809D01*
X163833333Y-86920952D01*
X163880952Y-86825714D01*
X163928571Y-86778095D01*
X164023809Y-86730476D01*
X164261904Y-86730476D01*
X164357142Y-86778095D01*
X164404761Y-86825714D01*
X164452380Y-86920952D01*
X164452380Y-87206666D01*
X164404761Y-87301904D01*
X164357142Y-87349523D01*
X163452380Y-85825714D02*
X163452380Y-86301904D01*
X163928571Y-86349523D01*
X163880952Y-86301904D01*
X163833333Y-86206666D01*
X163833333Y-85968571D01*
X163880952Y-85873333D01*
X163928571Y-85825714D01*
X164023809Y-85778095D01*
X164261904Y-85778095D01*
X164357142Y-85825714D01*
X164404761Y-85873333D01*
X164452380Y-85968571D01*
X164452380Y-86206666D01*
X164404761Y-86301904D01*
X164357142Y-86349523D01*
X163452380Y-100349523D02*
X163452380Y-99730476D01*
X163833333Y-100063809D01*
X163833333Y-99920952D01*
X163880952Y-99825714D01*
X163928571Y-99778095D01*
X164023809Y-99730476D01*
X164261904Y-99730476D01*
X164357142Y-99778095D01*
X164404761Y-99825714D01*
X164452380Y-99920952D01*
X164452380Y-100206666D01*
X164404761Y-100301904D01*
X164357142Y-100349523D01*
X163452380Y-99111428D02*
X163452380Y-99016190D01*
X163500000Y-98920952D01*
X163547619Y-98873333D01*
X163642857Y-98825714D01*
X163833333Y-98778095D01*
X164071428Y-98778095D01*
X164261904Y-98825714D01*
X164357142Y-98873333D01*
X164404761Y-98920952D01*
X164452380Y-99016190D01*
X164452380Y-99111428D01*
X164404761Y-99206666D01*
X164357142Y-99254285D01*
X164261904Y-99301904D01*
X164071428Y-99349523D01*
X163833333Y-99349523D01*
X163642857Y-99301904D01*
X163547619Y-99254285D01*
X163500000Y-99206666D01*
X163452380Y-99111428D01*
X163547619Y-112801904D02*
X163500000Y-112754285D01*
X163452380Y-112659047D01*
X163452380Y-112420952D01*
X163500000Y-112325714D01*
X163547619Y-112278095D01*
X163642857Y-112230476D01*
X163738095Y-112230476D01*
X163880952Y-112278095D01*
X164452380Y-112849523D01*
X164452380Y-112230476D01*
X163452380Y-111325714D02*
X163452380Y-111801904D01*
X163928571Y-111849523D01*
X163880952Y-111801904D01*
X163833333Y-111706666D01*
X163833333Y-111468571D01*
X163880952Y-111373333D01*
X163928571Y-111325714D01*
X164023809Y-111278095D01*
X164261904Y-111278095D01*
X164357142Y-111325714D01*
X164404761Y-111373333D01*
X164452380Y-111468571D01*
X164452380Y-111706666D01*
X164404761Y-111801904D01*
X164357142Y-111849523D01*
X163547619Y-125801904D02*
X163500000Y-125754285D01*
X163452380Y-125659047D01*
X163452380Y-125420952D01*
X163500000Y-125325714D01*
X163547619Y-125278095D01*
X163642857Y-125230476D01*
X163738095Y-125230476D01*
X163880952Y-125278095D01*
X164452380Y-125849523D01*
X164452380Y-125230476D01*
X163452380Y-124611428D02*
X163452380Y-124516190D01*
X163500000Y-124420952D01*
X163547619Y-124373333D01*
X163642857Y-124325714D01*
X163833333Y-124278095D01*
X164071428Y-124278095D01*
X164261904Y-124325714D01*
X164357142Y-124373333D01*
X164404761Y-124420952D01*
X164452380Y-124516190D01*
X164452380Y-124611428D01*
X164404761Y-124706666D01*
X164357142Y-124754285D01*
X164261904Y-124801904D01*
X164071428Y-124849523D01*
X163833333Y-124849523D01*
X163642857Y-124801904D01*
X163547619Y-124754285D01*
X163500000Y-124706666D01*
X163452380Y-124611428D01*
X164452380Y-137730476D02*
X164452380Y-138301904D01*
X164452380Y-138016190D02*
X163452380Y-138016190D01*
X163595238Y-138111428D01*
X163690476Y-138206666D01*
X163738095Y-138301904D01*
X163452380Y-136825714D02*
X163452380Y-137301904D01*
X163928571Y-137349523D01*
X163880952Y-137301904D01*
X163833333Y-137206666D01*
X163833333Y-136968571D01*
X163880952Y-136873333D01*
X163928571Y-136825714D01*
X164023809Y-136778095D01*
X164261904Y-136778095D01*
X164357142Y-136825714D01*
X164404761Y-136873333D01*
X164452380Y-136968571D01*
X164452380Y-137206666D01*
X164404761Y-137301904D01*
X164357142Y-137349523D01*
X164452380Y-150230476D02*
X164452380Y-150801904D01*
X164452380Y-150516190D02*
X163452380Y-150516190D01*
X163595238Y-150611428D01*
X163690476Y-150706666D01*
X163738095Y-150801904D01*
X163452380Y-149611428D02*
X163452380Y-149516190D01*
X163500000Y-149420952D01*
X163547619Y-149373333D01*
X163642857Y-149325714D01*
X163833333Y-149278095D01*
X164071428Y-149278095D01*
X164261904Y-149325714D01*
X164357142Y-149373333D01*
X164404761Y-149420952D01*
X164452380Y-149516190D01*
X164452380Y-149611428D01*
X164404761Y-149706666D01*
X164357142Y-149754285D01*
X164261904Y-149801904D01*
X164071428Y-149849523D01*
X163833333Y-149849523D01*
X163642857Y-149801904D01*
X163547619Y-149754285D01*
X163500000Y-149706666D01*
X163452380Y-149611428D01*
X156952380Y-172754285D02*
X156952380Y-173325714D01*
X156952380Y-173040000D02*
X155952380Y-173040000D01*
X156095238Y-173135238D01*
X156190476Y-173230476D01*
X156238095Y-173325714D01*
X47285714Y-178325714D02*
X47952380Y-178325714D01*
X46904761Y-178563809D02*
X47619047Y-178801904D01*
X47619047Y-178182857D01*
X46952380Y-177325714D02*
X46952380Y-177801904D01*
X47428571Y-177849523D01*
X47380952Y-177801904D01*
X47333333Y-177706666D01*
X47333333Y-177468571D01*
X47380952Y-177373333D01*
X47428571Y-177325714D01*
X47523809Y-177278095D01*
X47761904Y-177278095D01*
X47857142Y-177325714D01*
X47904761Y-177373333D01*
X47952380Y-177468571D01*
X47952380Y-177706666D01*
X47904761Y-177801904D01*
X47857142Y-177849523D01*
X60285714Y-178325714D02*
X60952380Y-178325714D01*
X59904761Y-178563809D02*
X60619047Y-178801904D01*
X60619047Y-178182857D01*
X59952380Y-177611428D02*
X59952380Y-177516190D01*
X60000000Y-177420952D01*
X60047619Y-177373333D01*
X60142857Y-177325714D01*
X60333333Y-177278095D01*
X60571428Y-177278095D01*
X60761904Y-177325714D01*
X60857142Y-177373333D01*
X60904761Y-177420952D01*
X60952380Y-177516190D01*
X60952380Y-177611428D01*
X60904761Y-177706666D01*
X60857142Y-177754285D01*
X60761904Y-177801904D01*
X60571428Y-177849523D01*
X60333333Y-177849523D01*
X60142857Y-177801904D01*
X60047619Y-177754285D01*
X60000000Y-177706666D01*
X59952380Y-177611428D01*
X72452380Y-178849523D02*
X72452380Y-178230476D01*
X72833333Y-178563809D01*
X72833333Y-178420952D01*
X72880952Y-178325714D01*
X72928571Y-178278095D01*
X73023809Y-178230476D01*
X73261904Y-178230476D01*
X73357142Y-178278095D01*
X73404761Y-178325714D01*
X73452380Y-178420952D01*
X73452380Y-178706666D01*
X73404761Y-178801904D01*
X73357142Y-178849523D01*
X72452380Y-177325714D02*
X72452380Y-177801904D01*
X72928571Y-177849523D01*
X72880952Y-177801904D01*
X72833333Y-177706666D01*
X72833333Y-177468571D01*
X72880952Y-177373333D01*
X72928571Y-177325714D01*
X73023809Y-177278095D01*
X73261904Y-177278095D01*
X73357142Y-177325714D01*
X73404761Y-177373333D01*
X73452380Y-177468571D01*
X73452380Y-177706666D01*
X73404761Y-177801904D01*
X73357142Y-177849523D01*
X85452380Y-178849523D02*
X85452380Y-178230476D01*
X85833333Y-178563809D01*
X85833333Y-178420952D01*
X85880952Y-178325714D01*
X85928571Y-178278095D01*
X86023809Y-178230476D01*
X86261904Y-178230476D01*
X86357142Y-178278095D01*
X86404761Y-178325714D01*
X86452380Y-178420952D01*
X86452380Y-178706666D01*
X86404761Y-178801904D01*
X86357142Y-178849523D01*
X85452380Y-177611428D02*
X85452380Y-177516190D01*
X85500000Y-177420952D01*
X85547619Y-177373333D01*
X85642857Y-177325714D01*
X85833333Y-177278095D01*
X86071428Y-177278095D01*
X86261904Y-177325714D01*
X86357142Y-177373333D01*
X86404761Y-177420952D01*
X86452380Y-177516190D01*
X86452380Y-177611428D01*
X86404761Y-177706666D01*
X86357142Y-177754285D01*
X86261904Y-177801904D01*
X86071428Y-177849523D01*
X85833333Y-177849523D01*
X85642857Y-177801904D01*
X85547619Y-177754285D01*
X85500000Y-177706666D01*
X85452380Y-177611428D01*
X98047619Y-178801904D02*
X98000000Y-178754285D01*
X97952380Y-178659047D01*
X97952380Y-178420952D01*
X98000000Y-178325714D01*
X98047619Y-178278095D01*
X98142857Y-178230476D01*
X98238095Y-178230476D01*
X98380952Y-178278095D01*
X98952380Y-178849523D01*
X98952380Y-178230476D01*
X97952380Y-177325714D02*
X97952380Y-177801904D01*
X98428571Y-177849523D01*
X98380952Y-177801904D01*
X98333333Y-177706666D01*
X98333333Y-177468571D01*
X98380952Y-177373333D01*
X98428571Y-177325714D01*
X98523809Y-177278095D01*
X98761904Y-177278095D01*
X98857142Y-177325714D01*
X98904761Y-177373333D01*
X98952380Y-177468571D01*
X98952380Y-177706666D01*
X98904761Y-177801904D01*
X98857142Y-177849523D01*
X110547619Y-178801904D02*
X110500000Y-178754285D01*
X110452380Y-178659047D01*
X110452380Y-178420952D01*
X110500000Y-178325714D01*
X110547619Y-178278095D01*
X110642857Y-178230476D01*
X110738095Y-178230476D01*
X110880952Y-178278095D01*
X111452380Y-178849523D01*
X111452380Y-178230476D01*
X110452380Y-177611428D02*
X110452380Y-177516190D01*
X110500000Y-177420952D01*
X110547619Y-177373333D01*
X110642857Y-177325714D01*
X110833333Y-177278095D01*
X111071428Y-177278095D01*
X111261904Y-177325714D01*
X111357142Y-177373333D01*
X111404761Y-177420952D01*
X111452380Y-177516190D01*
X111452380Y-177611428D01*
X111404761Y-177706666D01*
X111357142Y-177754285D01*
X111261904Y-177801904D01*
X111071428Y-177849523D01*
X110833333Y-177849523D01*
X110642857Y-177801904D01*
X110547619Y-177754285D01*
X110500000Y-177706666D01*
X110452380Y-177611428D01*
X124452380Y-178230476D02*
X124452380Y-178801904D01*
X124452380Y-178516190D02*
X123452380Y-178516190D01*
X123595238Y-178611428D01*
X123690476Y-178706666D01*
X123738095Y-178801904D01*
X123452380Y-177325714D02*
X123452380Y-177801904D01*
X123928571Y-177849523D01*
X123880952Y-177801904D01*
X123833333Y-177706666D01*
X123833333Y-177468571D01*
X123880952Y-177373333D01*
X123928571Y-177325714D01*
X124023809Y-177278095D01*
X124261904Y-177278095D01*
X124357142Y-177325714D01*
X124404761Y-177373333D01*
X124452380Y-177468571D01*
X124452380Y-177706666D01*
X124404761Y-177801904D01*
X124357142Y-177849523D01*
X136952380Y-178230476D02*
X136952380Y-178801904D01*
X136952380Y-178516190D02*
X135952380Y-178516190D01*
X136095238Y-178611428D01*
X136190476Y-178706666D01*
X136238095Y-178801904D01*
X135952380Y-177611428D02*
X135952380Y-177516190D01*
X136000000Y-177420952D01*
X136047619Y-177373333D01*
X136142857Y-177325714D01*
X136333333Y-177278095D01*
X136571428Y-177278095D01*
X136761904Y-177325714D01*
X136857142Y-177373333D01*
X136904761Y-177420952D01*
X136952380Y-177516190D01*
X136952380Y-177611428D01*
X136904761Y-177706666D01*
X136857142Y-177754285D01*
X136761904Y-177801904D01*
X136571428Y-177849523D01*
X136333333Y-177849523D01*
X136142857Y-177801904D01*
X136047619Y-177754285D01*
X136000000Y-177706666D01*
X135952380Y-177611428D01*
X148952380Y-177301904D02*
X148952380Y-177778095D01*
X149428571Y-177825714D01*
X149380952Y-177778095D01*
X149333333Y-177682857D01*
X149333333Y-177444761D01*
X149380952Y-177349523D01*
X149428571Y-177301904D01*
X149523809Y-177254285D01*
X149761904Y-177254285D01*
X149857142Y-177301904D01*
X149904761Y-177349523D01*
X149952380Y-177444761D01*
X149952380Y-177682857D01*
X149904761Y-177778095D01*
X149857142Y-177825714D01*
X159952380Y-169254285D02*
X159952380Y-169825714D01*
X159952380Y-169540000D02*
X158952380Y-169540000D01*
X159095238Y-169635238D01*
X159190476Y-169730476D01*
X159238095Y-169825714D01*
X44500000Y-52301904D02*
X44452380Y-52397142D01*
X44452380Y-52540000D01*
X44500000Y-52682857D01*
X44595238Y-52778095D01*
X44690476Y-52825714D01*
X44880952Y-52873333D01*
X45023809Y-52873333D01*
X45214285Y-52825714D01*
X45309523Y-52778095D01*
X45404761Y-52682857D01*
X45452380Y-52540000D01*
X45452380Y-52444761D01*
X45404761Y-52301904D01*
X45357142Y-52254285D01*
X45023809Y-52254285D01*
X45023809Y-52444761D01*
X45452380Y-51825714D02*
X44452380Y-51825714D01*
X45452380Y-51254285D01*
X44452380Y-51254285D01*
X45452380Y-50778095D02*
X44452380Y-50778095D01*
X44452380Y-50540000D01*
X44500000Y-50397142D01*
X44595238Y-50301904D01*
X44690476Y-50254285D01*
X44880952Y-50206666D01*
X45023809Y-50206666D01*
X45214285Y-50254285D01*
X45309523Y-50301904D01*
X45404761Y-50397142D01*
X45452380Y-50540000D01*
X45452380Y-50778095D01*
X163000000Y-169301904D02*
X162952380Y-169397142D01*
X162952380Y-169540000D01*
X163000000Y-169682857D01*
X163095238Y-169778095D01*
X163190476Y-169825714D01*
X163380952Y-169873333D01*
X163523809Y-169873333D01*
X163714285Y-169825714D01*
X163809523Y-169778095D01*
X163904761Y-169682857D01*
X163952380Y-169540000D01*
X163952380Y-169444761D01*
X163904761Y-169301904D01*
X163857142Y-169254285D01*
X163523809Y-169254285D01*
X163523809Y-169444761D01*
X163952380Y-168825714D02*
X162952380Y-168825714D01*
X163952380Y-168254285D01*
X162952380Y-168254285D01*
X163952380Y-167778095D02*
X162952380Y-167778095D01*
X162952380Y-167540000D01*
X163000000Y-167397142D01*
X163095238Y-167301904D01*
X163190476Y-167254285D01*
X163380952Y-167206666D01*
X163523809Y-167206666D01*
X163714285Y-167254285D01*
X163809523Y-167301904D01*
X163904761Y-167397142D01*
X163952380Y-167540000D01*
X163952380Y-167778095D01*
X162952380Y-160873333D02*
X163952380Y-160540000D01*
X162952380Y-160206666D01*
X163857142Y-159301904D02*
X163904761Y-159349523D01*
X163952380Y-159492380D01*
X163952380Y-159587619D01*
X163904761Y-159730476D01*
X163809523Y-159825714D01*
X163714285Y-159873333D01*
X163523809Y-159920952D01*
X163380952Y-159920952D01*
X163190476Y-159873333D01*
X163095238Y-159825714D01*
X163000000Y-159730476D01*
X162952380Y-159587619D01*
X162952380Y-159492380D01*
X163000000Y-159349523D01*
X163047619Y-159301904D01*
X163857142Y-158301904D02*
X163904761Y-158349523D01*
X163952380Y-158492380D01*
X163952380Y-158587619D01*
X163904761Y-158730476D01*
X163809523Y-158825714D01*
X163714285Y-158873333D01*
X163523809Y-158920952D01*
X163380952Y-158920952D01*
X163190476Y-158873333D01*
X163095238Y-158825714D01*
X163000000Y-158730476D01*
X162952380Y-158587619D01*
X162952380Y-158492380D01*
X163000000Y-158349523D01*
X163047619Y-158301904D01*
X44452380Y-39373333D02*
X45452380Y-39040000D01*
X44452380Y-38706666D01*
X45357142Y-37801904D02*
X45404761Y-37849523D01*
X45452380Y-37992380D01*
X45452380Y-38087619D01*
X45404761Y-38230476D01*
X45309523Y-38325714D01*
X45214285Y-38373333D01*
X45023809Y-38420952D01*
X44880952Y-38420952D01*
X44690476Y-38373333D01*
X44595238Y-38325714D01*
X44500000Y-38230476D01*
X44452380Y-38087619D01*
X44452380Y-37992380D01*
X44500000Y-37849523D01*
X44547619Y-37801904D01*
X45357142Y-36801904D02*
X45404761Y-36849523D01*
X45452380Y-36992380D01*
X45452380Y-37087619D01*
X45404761Y-37230476D01*
X45309523Y-37325714D01*
X45214285Y-37373333D01*
X45023809Y-37420952D01*
X44880952Y-37420952D01*
X44690476Y-37373333D01*
X44595238Y-37325714D01*
X44500000Y-37230476D01*
X44452380Y-37087619D01*
X44452380Y-36992380D01*
X44500000Y-36849523D01*
X44547619Y-36801904D01*
X44500000Y-160801904D02*
X44452380Y-160897142D01*
X44452380Y-161040000D01*
X44500000Y-161182857D01*
X44595238Y-161278095D01*
X44690476Y-161325714D01*
X44880952Y-161373333D01*
X45023809Y-161373333D01*
X45214285Y-161325714D01*
X45309523Y-161278095D01*
X45404761Y-161182857D01*
X45452380Y-161040000D01*
X45452380Y-160944761D01*
X45404761Y-160801904D01*
X45357142Y-160754285D01*
X45023809Y-160754285D01*
X45023809Y-160944761D01*
X45452380Y-160325714D02*
X44452380Y-160325714D01*
X45452380Y-159754285D01*
X44452380Y-159754285D01*
X45452380Y-159278095D02*
X44452380Y-159278095D01*
X44452380Y-159040000D01*
X44500000Y-158897142D01*
X44595238Y-158801904D01*
X44690476Y-158754285D01*
X44880952Y-158706666D01*
X45023809Y-158706666D01*
X45214285Y-158754285D01*
X45309523Y-158801904D01*
X45404761Y-158897142D01*
X45452380Y-159040000D01*
X45452380Y-159278095D01*
X42285714Y-54325714D02*
X42952380Y-54325714D01*
X41904761Y-54563809D02*
X42619047Y-54801904D01*
X42619047Y-54182857D01*
X41952380Y-53325714D02*
X41952380Y-53801904D01*
X42428571Y-53849523D01*
X42380952Y-53801904D01*
X42333333Y-53706666D01*
X42333333Y-53468571D01*
X42380952Y-53373333D01*
X42428571Y-53325714D01*
X42523809Y-53278095D01*
X42761904Y-53278095D01*
X42857142Y-53325714D01*
X42904761Y-53373333D01*
X42952380Y-53468571D01*
X42952380Y-53706666D01*
X42904761Y-53801904D01*
X42857142Y-53849523D01*
X42285714Y-66825714D02*
X42952380Y-66825714D01*
X41904761Y-67063809D02*
X42619047Y-67301904D01*
X42619047Y-66682857D01*
X41952380Y-66111428D02*
X41952380Y-66016190D01*
X42000000Y-65920952D01*
X42047619Y-65873333D01*
X42142857Y-65825714D01*
X42333333Y-65778095D01*
X42571428Y-65778095D01*
X42761904Y-65825714D01*
X42857142Y-65873333D01*
X42904761Y-65920952D01*
X42952380Y-66016190D01*
X42952380Y-66111428D01*
X42904761Y-66206666D01*
X42857142Y-66254285D01*
X42761904Y-66301904D01*
X42571428Y-66349523D01*
X42333333Y-66349523D01*
X42142857Y-66301904D01*
X42047619Y-66254285D01*
X42000000Y-66206666D01*
X41952380Y-66111428D01*
X41952380Y-79849523D02*
X41952380Y-79230476D01*
X42333333Y-79563809D01*
X42333333Y-79420952D01*
X42380952Y-79325714D01*
X42428571Y-79278095D01*
X42523809Y-79230476D01*
X42761904Y-79230476D01*
X42857142Y-79278095D01*
X42904761Y-79325714D01*
X42952380Y-79420952D01*
X42952380Y-79706666D01*
X42904761Y-79801904D01*
X42857142Y-79849523D01*
X41952380Y-78325714D02*
X41952380Y-78801904D01*
X42428571Y-78849523D01*
X42380952Y-78801904D01*
X42333333Y-78706666D01*
X42333333Y-78468571D01*
X42380952Y-78373333D01*
X42428571Y-78325714D01*
X42523809Y-78278095D01*
X42761904Y-78278095D01*
X42857142Y-78325714D01*
X42904761Y-78373333D01*
X42952380Y-78468571D01*
X42952380Y-78706666D01*
X42904761Y-78801904D01*
X42857142Y-78849523D01*
X41952380Y-92849523D02*
X41952380Y-92230476D01*
X42333333Y-92563809D01*
X42333333Y-92420952D01*
X42380952Y-92325714D01*
X42428571Y-92278095D01*
X42523809Y-92230476D01*
X42761904Y-92230476D01*
X42857142Y-92278095D01*
X42904761Y-92325714D01*
X42952380Y-92420952D01*
X42952380Y-92706666D01*
X42904761Y-92801904D01*
X42857142Y-92849523D01*
X41952380Y-91611428D02*
X41952380Y-91516190D01*
X42000000Y-91420952D01*
X42047619Y-91373333D01*
X42142857Y-91325714D01*
X42333333Y-91278095D01*
X42571428Y-91278095D01*
X42761904Y-91325714D01*
X42857142Y-91373333D01*
X42904761Y-91420952D01*
X42952380Y-91516190D01*
X42952380Y-91611428D01*
X42904761Y-91706666D01*
X42857142Y-91754285D01*
X42761904Y-91801904D01*
X42571428Y-91849523D01*
X42333333Y-91849523D01*
X42142857Y-91801904D01*
X42047619Y-91754285D01*
X42000000Y-91706666D01*
X41952380Y-91611428D01*
X42047619Y-105301904D02*
X42000000Y-105254285D01*
X41952380Y-105159047D01*
X41952380Y-104920952D01*
X42000000Y-104825714D01*
X42047619Y-104778095D01*
X42142857Y-104730476D01*
X42238095Y-104730476D01*
X42380952Y-104778095D01*
X42952380Y-105349523D01*
X42952380Y-104730476D01*
X41952380Y-103825714D02*
X41952380Y-104301904D01*
X42428571Y-104349523D01*
X42380952Y-104301904D01*
X42333333Y-104206666D01*
X42333333Y-103968571D01*
X42380952Y-103873333D01*
X42428571Y-103825714D01*
X42523809Y-103778095D01*
X42761904Y-103778095D01*
X42857142Y-103825714D01*
X42904761Y-103873333D01*
X42952380Y-103968571D01*
X42952380Y-104206666D01*
X42904761Y-104301904D01*
X42857142Y-104349523D01*
X42047619Y-118301904D02*
X42000000Y-118254285D01*
X41952380Y-118159047D01*
X41952380Y-117920952D01*
X42000000Y-117825714D01*
X42047619Y-117778095D01*
X42142857Y-117730476D01*
X42238095Y-117730476D01*
X42380952Y-117778095D01*
X42952380Y-118349523D01*
X42952380Y-117730476D01*
X41952380Y-117111428D02*
X41952380Y-117016190D01*
X42000000Y-116920952D01*
X42047619Y-116873333D01*
X42142857Y-116825714D01*
X42333333Y-116778095D01*
X42571428Y-116778095D01*
X42761904Y-116825714D01*
X42857142Y-116873333D01*
X42904761Y-116920952D01*
X42952380Y-117016190D01*
X42952380Y-117111428D01*
X42904761Y-117206666D01*
X42857142Y-117254285D01*
X42761904Y-117301904D01*
X42571428Y-117349523D01*
X42333333Y-117349523D01*
X42142857Y-117301904D01*
X42047619Y-117254285D01*
X42000000Y-117206666D01*
X41952380Y-117111428D01*
X42952380Y-130230476D02*
X42952380Y-130801904D01*
X42952380Y-130516190D02*
X41952380Y-130516190D01*
X42095238Y-130611428D01*
X42190476Y-130706666D01*
X42238095Y-130801904D01*
X41952380Y-129325714D02*
X41952380Y-129801904D01*
X42428571Y-129849523D01*
X42380952Y-129801904D01*
X42333333Y-129706666D01*
X42333333Y-129468571D01*
X42380952Y-129373333D01*
X42428571Y-129325714D01*
X42523809Y-129278095D01*
X42761904Y-129278095D01*
X42857142Y-129325714D01*
X42904761Y-129373333D01*
X42952380Y-129468571D01*
X42952380Y-129706666D01*
X42904761Y-129801904D01*
X42857142Y-129849523D01*
X42952380Y-143230476D02*
X42952380Y-143801904D01*
X42952380Y-143516190D02*
X41952380Y-143516190D01*
X42095238Y-143611428D01*
X42190476Y-143706666D01*
X42238095Y-143801904D01*
X41952380Y-142611428D02*
X41952380Y-142516190D01*
X42000000Y-142420952D01*
X42047619Y-142373333D01*
X42142857Y-142325714D01*
X42333333Y-142278095D01*
X42571428Y-142278095D01*
X42761904Y-142325714D01*
X42857142Y-142373333D01*
X42904761Y-142420952D01*
X42952380Y-142516190D01*
X42952380Y-142611428D01*
X42904761Y-142706666D01*
X42857142Y-142754285D01*
X42761904Y-142801904D01*
X42571428Y-142849523D01*
X42333333Y-142849523D01*
X42142857Y-142801904D01*
X42047619Y-142754285D01*
X42000000Y-142706666D01*
X41952380Y-142611428D01*
X41952380Y-155301904D02*
X41952380Y-155778095D01*
X42428571Y-155825714D01*
X42380952Y-155778095D01*
X42333333Y-155682857D01*
X42333333Y-155444761D01*
X42380952Y-155349523D01*
X42428571Y-155301904D01*
X42523809Y-155254285D01*
X42761904Y-155254285D01*
X42857142Y-155301904D01*
X42904761Y-155349523D01*
X42952380Y-155444761D01*
X42952380Y-155682857D01*
X42904761Y-155778095D01*
X42857142Y-155825714D01*
X39928571Y-38920952D02*
X39976190Y-38778095D01*
X40023809Y-38730476D01*
X40119047Y-38682857D01*
X40261904Y-38682857D01*
X40357142Y-38730476D01*
X40404761Y-38778095D01*
X40452380Y-38873333D01*
X40452380Y-39254285D01*
X39452380Y-39254285D01*
X39452380Y-38920952D01*
X39500000Y-38825714D01*
X39547619Y-38778095D01*
X39642857Y-38730476D01*
X39738095Y-38730476D01*
X39833333Y-38778095D01*
X39880952Y-38825714D01*
X39928571Y-38920952D01*
X39928571Y-39254285D01*
X39452380Y-37778095D02*
X39452380Y-38254285D01*
X39928571Y-38301904D01*
X39880952Y-38254285D01*
X39833333Y-38159047D01*
X39833333Y-37920952D01*
X39880952Y-37825714D01*
X39928571Y-37778095D01*
X40023809Y-37730476D01*
X40261904Y-37730476D01*
X40357142Y-37778095D01*
X40404761Y-37825714D01*
X40452380Y-37920952D01*
X40452380Y-38159047D01*
X40404761Y-38254285D01*
X40357142Y-38301904D01*
X39452380Y-37111428D02*
X39452380Y-37016190D01*
X39500000Y-36920952D01*
X39547619Y-36873333D01*
X39642857Y-36825714D01*
X39833333Y-36778095D01*
X40071428Y-36778095D01*
X40261904Y-36825714D01*
X40357142Y-36873333D01*
X40404761Y-36920952D01*
X40452380Y-37016190D01*
X40452380Y-37111428D01*
X40404761Y-37206666D01*
X40357142Y-37254285D01*
X40261904Y-37301904D01*
X40071428Y-37349523D01*
X39833333Y-37349523D01*
X39642857Y-37301904D01*
X39547619Y-37254285D01*
X39500000Y-37206666D01*
X39452380Y-37111428D01*
X37666666Y-39230476D02*
X37666666Y-38754285D01*
X37952380Y-39325714D02*
X36952380Y-38992380D01*
X37952380Y-38659047D01*
X36952380Y-37849523D02*
X36952380Y-38325714D01*
X37428571Y-38373333D01*
X37380952Y-38325714D01*
X37333333Y-38230476D01*
X37333333Y-37992380D01*
X37380952Y-37897142D01*
X37428571Y-37849523D01*
X37523809Y-37801904D01*
X37761904Y-37801904D01*
X37857142Y-37849523D01*
X37904761Y-37897142D01*
X37952380Y-37992380D01*
X37952380Y-38230476D01*
X37904761Y-38325714D01*
X37857142Y-38373333D01*
X36952380Y-37182857D02*
X36952380Y-37087619D01*
X37000000Y-36992380D01*
X37047619Y-36944761D01*
X37142857Y-36897142D01*
X37333333Y-36849523D01*
X37571428Y-36849523D01*
X37761904Y-36897142D01*
X37857142Y-36944761D01*
X37904761Y-36992380D01*
X37952380Y-37087619D01*
X37952380Y-37182857D01*
X37904761Y-37278095D01*
X37857142Y-37325714D01*
X37761904Y-37373333D01*
X37571428Y-37420952D01*
X37333333Y-37420952D01*
X37142857Y-37373333D01*
X37047619Y-37325714D01*
X37000000Y-37278095D01*
X36952380Y-37182857D01*
X39928571Y-168444761D02*
X39976190Y-168301904D01*
X40023809Y-168254285D01*
X40119047Y-168206666D01*
X40261904Y-168206666D01*
X40357142Y-168254285D01*
X40404761Y-168301904D01*
X40452380Y-168397142D01*
X40452380Y-168778095D01*
X39452380Y-168778095D01*
X39452380Y-168444761D01*
X39500000Y-168349523D01*
X39547619Y-168301904D01*
X39642857Y-168254285D01*
X39738095Y-168254285D01*
X39833333Y-168301904D01*
X39880952Y-168349523D01*
X39928571Y-168444761D01*
X39928571Y-168778095D01*
X40452380Y-167254285D02*
X40452380Y-167825714D01*
X40452380Y-167540000D02*
X39452380Y-167540000D01*
X39595238Y-167635238D01*
X39690476Y-167730476D01*
X39738095Y-167825714D01*
X37666666Y-168754285D02*
X37666666Y-168278095D01*
X37952380Y-168849523D02*
X36952380Y-168516190D01*
X37952380Y-168182857D01*
X37952380Y-167325714D02*
X37952380Y-167897142D01*
X37952380Y-167611428D02*
X36952380Y-167611428D01*
X37095238Y-167706666D01*
X37190476Y-167801904D01*
X37238095Y-167897142D01*
X164428571Y-107325714D02*
X164428571Y-107659047D01*
X164952380Y-107659047D02*
X163952380Y-107659047D01*
X163952380Y-107182857D01*
X164952380Y-106230476D02*
X164476190Y-106563809D01*
X164952380Y-106801904D02*
X163952380Y-106801904D01*
X163952380Y-106420952D01*
X164000000Y-106325714D01*
X164047619Y-106278095D01*
X164142857Y-106230476D01*
X164285714Y-106230476D01*
X164380952Y-106278095D01*
X164428571Y-106325714D01*
X164476190Y-106420952D01*
X164476190Y-106801904D01*
X163952380Y-105611428D02*
X163952380Y-105420952D01*
X164000000Y-105325714D01*
X164095238Y-105230476D01*
X164285714Y-105182857D01*
X164619047Y-105182857D01*
X164809523Y-105230476D01*
X164904761Y-105325714D01*
X164952380Y-105420952D01*
X164952380Y-105611428D01*
X164904761Y-105706666D01*
X164809523Y-105801904D01*
X164619047Y-105849523D01*
X164285714Y-105849523D01*
X164095238Y-105801904D01*
X164000000Y-105706666D01*
X163952380Y-105611428D01*
X164952380Y-104754285D02*
X163952380Y-104754285D01*
X164952380Y-104182857D01*
X163952380Y-104182857D01*
X163952380Y-103849523D02*
X163952380Y-103278095D01*
X164952380Y-103563809D02*
X163952380Y-103563809D01*
X102142857Y-35325714D02*
X102142857Y-36135238D01*
X102095238Y-36230476D01*
X102047619Y-36278095D01*
X101952380Y-36325714D01*
X101809523Y-36325714D01*
X101714285Y-36278095D01*
X102142857Y-35944761D02*
X102047619Y-35992380D01*
X101857142Y-35992380D01*
X101761904Y-35944761D01*
X101714285Y-35897142D01*
X101666666Y-35801904D01*
X101666666Y-35516190D01*
X101714285Y-35420952D01*
X101761904Y-35373333D01*
X101857142Y-35325714D01*
X102047619Y-35325714D01*
X102142857Y-35373333D01*
X102619047Y-35992380D02*
X102619047Y-35325714D01*
X102619047Y-34992380D02*
X102571428Y-35040000D01*
X102619047Y-35087619D01*
X102666666Y-35040000D01*
X102619047Y-34992380D01*
X102619047Y-35087619D01*
X102952380Y-35325714D02*
X103333333Y-35325714D01*
X103095238Y-34992380D02*
X103095238Y-35849523D01*
X103142857Y-35944761D01*
X103238095Y-35992380D01*
X103333333Y-35992380D01*
X103666666Y-35992380D02*
X103666666Y-34992380D01*
X104095238Y-35992380D02*
X104095238Y-35468571D01*
X104047619Y-35373333D01*
X103952380Y-35325714D01*
X103809523Y-35325714D01*
X103714285Y-35373333D01*
X103666666Y-35420952D01*
X105000000Y-35325714D02*
X105000000Y-35992380D01*
X104571428Y-35325714D02*
X104571428Y-35849523D01*
X104619047Y-35944761D01*
X104714285Y-35992380D01*
X104857142Y-35992380D01*
X104952380Y-35944761D01*
X105000000Y-35897142D01*
X105476190Y-35992380D02*
X105476190Y-34992380D01*
X105476190Y-35373333D02*
X105571428Y-35325714D01*
X105761904Y-35325714D01*
X105857142Y-35373333D01*
X105904761Y-35420952D01*
X105952380Y-35516190D01*
X105952380Y-35801904D01*
X105904761Y-35897142D01*
X105857142Y-35944761D01*
X105761904Y-35992380D01*
X105571428Y-35992380D01*
X105476190Y-35944761D01*
X106380952Y-35897142D02*
X106428571Y-35944761D01*
X106380952Y-35992380D01*
X106333333Y-35944761D01*
X106380952Y-35897142D01*
X106380952Y-35992380D01*
X107285714Y-35944761D02*
X107190476Y-35992380D01*
X107000000Y-35992380D01*
X106904761Y-35944761D01*
X106857142Y-35897142D01*
X106809523Y-35801904D01*
X106809523Y-35516190D01*
X106857142Y-35420952D01*
X106904761Y-35373333D01*
X107000000Y-35325714D01*
X107190476Y-35325714D01*
X107285714Y-35373333D01*
X107857142Y-35992380D02*
X107761904Y-35944761D01*
X107714285Y-35897142D01*
X107666666Y-35801904D01*
X107666666Y-35516190D01*
X107714285Y-35420952D01*
X107761904Y-35373333D01*
X107857142Y-35325714D01*
X108000000Y-35325714D01*
X108095238Y-35373333D01*
X108142857Y-35420952D01*
X108190476Y-35516190D01*
X108190476Y-35801904D01*
X108142857Y-35897142D01*
X108095238Y-35944761D01*
X108000000Y-35992380D01*
X107857142Y-35992380D01*
X108619047Y-35992380D02*
X108619047Y-35325714D01*
X108619047Y-35420952D02*
X108666666Y-35373333D01*
X108761904Y-35325714D01*
X108904761Y-35325714D01*
X109000000Y-35373333D01*
X109047619Y-35468571D01*
X109047619Y-35992380D01*
X109047619Y-35468571D02*
X109095238Y-35373333D01*
X109190476Y-35325714D01*
X109333333Y-35325714D01*
X109428571Y-35373333D01*
X109476190Y-35468571D01*
X109476190Y-35992380D01*
X110666666Y-34944761D02*
X109809523Y-36230476D01*
X111428571Y-35944761D02*
X111333333Y-35992380D01*
X111142857Y-35992380D01*
X111047619Y-35944761D01*
X111000000Y-35897142D01*
X110952380Y-35801904D01*
X110952380Y-35516190D01*
X111000000Y-35420952D01*
X111047619Y-35373333D01*
X111142857Y-35325714D01*
X111333333Y-35325714D01*
X111428571Y-35373333D01*
X111857142Y-35992380D02*
X111857142Y-35325714D01*
X111857142Y-35516190D02*
X111904761Y-35420952D01*
X111952380Y-35373333D01*
X112047619Y-35325714D01*
X112142857Y-35325714D01*
X112857142Y-35944761D02*
X112761904Y-35992380D01*
X112571428Y-35992380D01*
X112476190Y-35944761D01*
X112428571Y-35849523D01*
X112428571Y-35468571D01*
X112476190Y-35373333D01*
X112571428Y-35325714D01*
X112761904Y-35325714D01*
X112857142Y-35373333D01*
X112904761Y-35468571D01*
X112904761Y-35563809D01*
X112428571Y-35659047D01*
X113714285Y-35944761D02*
X113619047Y-35992380D01*
X113428571Y-35992380D01*
X113333333Y-35944761D01*
X113285714Y-35849523D01*
X113285714Y-35468571D01*
X113333333Y-35373333D01*
X113428571Y-35325714D01*
X113619047Y-35325714D01*
X113714285Y-35373333D01*
X113761904Y-35468571D01*
X113761904Y-35563809D01*
X113285714Y-35659047D01*
X114190476Y-35992380D02*
X114190476Y-34992380D01*
X114285714Y-35611428D02*
X114571428Y-35992380D01*
X114571428Y-35325714D02*
X114190476Y-35706666D01*
X115000000Y-35325714D02*
X115000000Y-36325714D01*
X115000000Y-35373333D02*
X115095238Y-35325714D01*
X115285714Y-35325714D01*
X115380952Y-35373333D01*
X115428571Y-35420952D01*
X115476190Y-35516190D01*
X115476190Y-35801904D01*
X115428571Y-35897142D01*
X115380952Y-35944761D01*
X115285714Y-35992380D01*
X115095238Y-35992380D01*
X115000000Y-35944761D01*
X116047619Y-35992380D02*
X115952380Y-35944761D01*
X115904761Y-35849523D01*
X115904761Y-34992380D01*
X116857142Y-35992380D02*
X116857142Y-34992380D01*
X116857142Y-35944761D02*
X116761904Y-35992380D01*
X116571428Y-35992380D01*
X116476190Y-35944761D01*
X116428571Y-35897142D01*
X116380952Y-35801904D01*
X116380952Y-35516190D01*
X116428571Y-35420952D01*
X116476190Y-35373333D01*
X116571428Y-35325714D01*
X116761904Y-35325714D01*
X116857142Y-35373333D01*
X118047619Y-34944761D02*
X117190476Y-36230476D01*
X118285714Y-35992380D02*
X118809523Y-35325714D01*
X118285714Y-35325714D02*
X118809523Y-35992380D01*
X119619047Y-34992380D02*
X119428571Y-34992380D01*
X119333333Y-35040000D01*
X119285714Y-35087619D01*
X119190476Y-35230476D01*
X119142857Y-35420952D01*
X119142857Y-35801904D01*
X119190476Y-35897142D01*
X119238095Y-35944761D01*
X119333333Y-35992380D01*
X119523809Y-35992380D01*
X119619047Y-35944761D01*
X119666666Y-35897142D01*
X119714285Y-35801904D01*
X119714285Y-35563809D01*
X119666666Y-35468571D01*
X119619047Y-35420952D01*
X119523809Y-35373333D01*
X119333333Y-35373333D01*
X119238095Y-35420952D01*
X119190476Y-35468571D01*
X119142857Y-35563809D01*
X120285714Y-35420952D02*
X120190476Y-35373333D01*
X120142857Y-35325714D01*
X120095238Y-35230476D01*
X120095238Y-35182857D01*
X120142857Y-35087619D01*
X120190476Y-35040000D01*
X120285714Y-34992380D01*
X120476190Y-34992380D01*
X120571428Y-35040000D01*
X120619047Y-35087619D01*
X120666666Y-35182857D01*
X120666666Y-35230476D01*
X120619047Y-35325714D01*
X120571428Y-35373333D01*
X120476190Y-35420952D01*
X120285714Y-35420952D01*
X120190476Y-35468571D01*
X120142857Y-35516190D01*
X120095238Y-35611428D01*
X120095238Y-35801904D01*
X120142857Y-35897142D01*
X120190476Y-35944761D01*
X120285714Y-35992380D01*
X120476190Y-35992380D01*
X120571428Y-35944761D01*
X120619047Y-35897142D01*
X120666666Y-35801904D01*
X120666666Y-35611428D01*
X120619047Y-35516190D01*
X120571428Y-35468571D01*
X120476190Y-35420952D01*
X121095238Y-35992380D02*
X121095238Y-34992380D01*
X121190476Y-35611428D02*
X121476190Y-35992380D01*
X121476190Y-35325714D02*
X121095238Y-35706666D01*
X121904761Y-35611428D02*
X122666666Y-35611428D01*
X123142857Y-35992380D02*
X123142857Y-35325714D01*
X123142857Y-34992380D02*
X123095238Y-35040000D01*
X123142857Y-35087619D01*
X123190476Y-35040000D01*
X123142857Y-34992380D01*
X123142857Y-35087619D01*
X123761904Y-35992380D02*
X123666666Y-35944761D01*
X123619047Y-35897142D01*
X123571428Y-35801904D01*
X123571428Y-35516190D01*
X123619047Y-35420952D01*
X123666666Y-35373333D01*
X123761904Y-35325714D01*
X123904761Y-35325714D01*
X124000000Y-35373333D01*
X124047619Y-35420952D01*
X124095238Y-35516190D01*
X124095238Y-35801904D01*
X124047619Y-35897142D01*
X124000000Y-35944761D01*
X123904761Y-35992380D01*
X123761904Y-35992380D01*
X124523809Y-35992380D02*
X124523809Y-34992380D01*
X124523809Y-35373333D02*
X124619047Y-35325714D01*
X124809523Y-35325714D01*
X124904761Y-35373333D01*
X124952380Y-35420952D01*
X125000000Y-35516190D01*
X125000000Y-35801904D01*
X124952380Y-35897142D01*
X124904761Y-35944761D01*
X124809523Y-35992380D01*
X124619047Y-35992380D01*
X124523809Y-35944761D01*
X125571428Y-35992380D02*
X125476190Y-35944761D01*
X125428571Y-35897142D01*
X125380952Y-35801904D01*
X125380952Y-35516190D01*
X125428571Y-35420952D01*
X125476190Y-35373333D01*
X125571428Y-35325714D01*
X125714285Y-35325714D01*
X125809523Y-35373333D01*
X125857142Y-35420952D01*
X125904761Y-35516190D01*
X125904761Y-35801904D01*
X125857142Y-35897142D01*
X125809523Y-35944761D01*
X125714285Y-35992380D01*
X125571428Y-35992380D01*
X126761904Y-35992380D02*
X126761904Y-35468571D01*
X126714285Y-35373333D01*
X126619047Y-35325714D01*
X126428571Y-35325714D01*
X126333333Y-35373333D01*
X126761904Y-35944761D02*
X126666666Y-35992380D01*
X126428571Y-35992380D01*
X126333333Y-35944761D01*
X126285714Y-35849523D01*
X126285714Y-35754285D01*
X126333333Y-35659047D01*
X126428571Y-35611428D01*
X126666666Y-35611428D01*
X126761904Y-35563809D01*
X127238095Y-35992380D02*
X127238095Y-35325714D01*
X127238095Y-35516190D02*
X127285714Y-35420952D01*
X127333333Y-35373333D01*
X127428571Y-35325714D01*
X127523809Y-35325714D01*
X128285714Y-35992380D02*
X128285714Y-34992380D01*
X128285714Y-35944761D02*
X128190476Y-35992380D01*
X127999999Y-35992380D01*
X127904761Y-35944761D01*
X127857142Y-35897142D01*
X127809523Y-35801904D01*
X127809523Y-35516190D01*
X127857142Y-35420952D01*
X127904761Y-35373333D01*
X127999999Y-35325714D01*
X128190476Y-35325714D01*
X128285714Y-35373333D01*
X57333333Y-34992380D02*
X57999999Y-35992380D01*
X57999999Y-34992380D02*
X57333333Y-35992380D01*
X58809523Y-34992380D02*
X58619047Y-34992380D01*
X58523809Y-35040000D01*
X58476190Y-35087619D01*
X58380952Y-35230476D01*
X58333333Y-35420952D01*
X58333333Y-35801904D01*
X58380952Y-35897142D01*
X58428571Y-35944761D01*
X58523809Y-35992380D01*
X58714285Y-35992380D01*
X58809523Y-35944761D01*
X58857142Y-35897142D01*
X58904761Y-35801904D01*
X58904761Y-35563809D01*
X58857142Y-35468571D01*
X58809523Y-35420952D01*
X58714285Y-35373333D01*
X58523809Y-35373333D01*
X58428571Y-35420952D01*
X58380952Y-35468571D01*
X58333333Y-35563809D01*
X59476190Y-35420952D02*
X59380952Y-35373333D01*
X59333333Y-35325714D01*
X59285714Y-35230476D01*
X59285714Y-35182857D01*
X59333333Y-35087619D01*
X59380952Y-35040000D01*
X59476190Y-34992380D01*
X59666666Y-34992380D01*
X59761904Y-35040000D01*
X59809523Y-35087619D01*
X59857142Y-35182857D01*
X59857142Y-35230476D01*
X59809523Y-35325714D01*
X59761904Y-35373333D01*
X59666666Y-35420952D01*
X59476190Y-35420952D01*
X59380952Y-35468571D01*
X59333333Y-35516190D01*
X59285714Y-35611428D01*
X59285714Y-35801904D01*
X59333333Y-35897142D01*
X59380952Y-35944761D01*
X59476190Y-35992380D01*
X59666666Y-35992380D01*
X59761904Y-35944761D01*
X59809523Y-35897142D01*
X59857142Y-35801904D01*
X59857142Y-35611428D01*
X59809523Y-35516190D01*
X59761904Y-35468571D01*
X59666666Y-35420952D01*
X60476190Y-34992380D02*
X60571428Y-34992380D01*
X60666666Y-35040000D01*
X60714285Y-35087619D01*
X60761904Y-35182857D01*
X60809523Y-35373333D01*
X60809523Y-35611428D01*
X60761904Y-35801904D01*
X60714285Y-35897142D01*
X60666666Y-35944761D01*
X60571428Y-35992380D01*
X60476190Y-35992380D01*
X60380952Y-35944761D01*
X60333333Y-35897142D01*
X60285714Y-35801904D01*
X60238095Y-35611428D01*
X60238095Y-35373333D01*
X60285714Y-35182857D01*
X60333333Y-35087619D01*
X60380952Y-35040000D01*
X60476190Y-34992380D01*
X61428571Y-34992380D02*
X61523809Y-34992380D01*
X61619047Y-35040000D01*
X61666666Y-35087619D01*
X61714285Y-35182857D01*
X61761904Y-35373333D01*
X61761904Y-35611428D01*
X61714285Y-35801904D01*
X61666666Y-35897142D01*
X61619047Y-35944761D01*
X61523809Y-35992380D01*
X61428571Y-35992380D01*
X61333333Y-35944761D01*
X61285714Y-35897142D01*
X61238095Y-35801904D01*
X61190476Y-35611428D01*
X61190476Y-35373333D01*
X61238095Y-35182857D01*
X61285714Y-35087619D01*
X61333333Y-35040000D01*
X61428571Y-34992380D01*
X62380952Y-34992380D02*
X62476190Y-34992380D01*
X62571428Y-35040000D01*
X62619047Y-35087619D01*
X62666666Y-35182857D01*
X62714285Y-35373333D01*
X62714285Y-35611428D01*
X62666666Y-35801904D01*
X62619047Y-35897142D01*
X62571428Y-35944761D01*
X62476190Y-35992380D01*
X62380952Y-35992380D01*
X62285714Y-35944761D01*
X62238095Y-35897142D01*
X62190476Y-35801904D01*
X62142857Y-35611428D01*
X62142857Y-35373333D01*
X62190476Y-35182857D01*
X62238095Y-35087619D01*
X62285714Y-35040000D01*
X62380952Y-34992380D01*
X63904761Y-35325714D02*
X63904761Y-36325714D01*
X63904761Y-35373333D02*
X63999999Y-35325714D01*
X64190476Y-35325714D01*
X64285714Y-35373333D01*
X64333333Y-35420952D01*
X64380952Y-35516190D01*
X64380952Y-35801904D01*
X64333333Y-35897142D01*
X64285714Y-35944761D01*
X64190476Y-35992380D01*
X63999999Y-35992380D01*
X63904761Y-35944761D01*
X64809523Y-35992380D02*
X64809523Y-35325714D01*
X64809523Y-35516190D02*
X64857142Y-35420952D01*
X64904761Y-35373333D01*
X64999999Y-35325714D01*
X65095238Y-35325714D01*
X65571428Y-35992380D02*
X65476190Y-35944761D01*
X65428571Y-35897142D01*
X65380952Y-35801904D01*
X65380952Y-35516190D01*
X65428571Y-35420952D01*
X65476190Y-35373333D01*
X65571428Y-35325714D01*
X65714285Y-35325714D01*
X65809523Y-35373333D01*
X65857142Y-35420952D01*
X65904761Y-35516190D01*
X65904761Y-35801904D01*
X65857142Y-35897142D01*
X65809523Y-35944761D01*
X65714285Y-35992380D01*
X65571428Y-35992380D01*
X66190476Y-35325714D02*
X66571428Y-35325714D01*
X66333333Y-34992380D02*
X66333333Y-35849523D01*
X66380952Y-35944761D01*
X66476190Y-35992380D01*
X66571428Y-35992380D01*
X67047619Y-35992380D02*
X66952380Y-35944761D01*
X66904761Y-35897142D01*
X66857142Y-35801904D01*
X66857142Y-35516190D01*
X66904761Y-35420952D01*
X66952380Y-35373333D01*
X67047619Y-35325714D01*
X67190476Y-35325714D01*
X67285714Y-35373333D01*
X67333333Y-35420952D01*
X67380952Y-35516190D01*
X67380952Y-35801904D01*
X67333333Y-35897142D01*
X67285714Y-35944761D01*
X67190476Y-35992380D01*
X67047619Y-35992380D01*
X68571428Y-35992380D02*
X68571428Y-35325714D01*
X68571428Y-34992380D02*
X68523809Y-35040000D01*
X68571428Y-35087619D01*
X68619047Y-35040000D01*
X68571428Y-34992380D01*
X68571428Y-35087619D01*
X69190476Y-35992380D02*
X69095238Y-35944761D01*
X69047619Y-35897142D01*
X69000000Y-35801904D01*
X69000000Y-35516190D01*
X69047619Y-35420952D01*
X69095238Y-35373333D01*
X69190476Y-35325714D01*
X69333333Y-35325714D01*
X69428571Y-35373333D01*
X69476190Y-35420952D01*
X69523809Y-35516190D01*
X69523809Y-35801904D01*
X69476190Y-35897142D01*
X69428571Y-35944761D01*
X69333333Y-35992380D01*
X69190476Y-35992380D01*
X69952380Y-35992380D02*
X69952380Y-34992380D01*
X69952380Y-35373333D02*
X70047619Y-35325714D01*
X70238095Y-35325714D01*
X70333333Y-35373333D01*
X70380952Y-35420952D01*
X70428571Y-35516190D01*
X70428571Y-35801904D01*
X70380952Y-35897142D01*
X70333333Y-35944761D01*
X70238095Y-35992380D01*
X70047619Y-35992380D01*
X69952380Y-35944761D01*
X71000000Y-35992380D02*
X70904761Y-35944761D01*
X70857142Y-35897142D01*
X70809523Y-35801904D01*
X70809523Y-35516190D01*
X70857142Y-35420952D01*
X70904761Y-35373333D01*
X71000000Y-35325714D01*
X71142857Y-35325714D01*
X71238095Y-35373333D01*
X71285714Y-35420952D01*
X71333333Y-35516190D01*
X71333333Y-35801904D01*
X71285714Y-35897142D01*
X71238095Y-35944761D01*
X71142857Y-35992380D01*
X71000000Y-35992380D01*
X72190476Y-35992380D02*
X72190476Y-35468571D01*
X72142857Y-35373333D01*
X72047619Y-35325714D01*
X71857142Y-35325714D01*
X71761904Y-35373333D01*
X72190476Y-35944761D02*
X72095238Y-35992380D01*
X71857142Y-35992380D01*
X71761904Y-35944761D01*
X71714285Y-35849523D01*
X71714285Y-35754285D01*
X71761904Y-35659047D01*
X71857142Y-35611428D01*
X72095238Y-35611428D01*
X72190476Y-35563809D01*
X72666666Y-35992380D02*
X72666666Y-35325714D01*
X72666666Y-35516190D02*
X72714285Y-35420952D01*
X72761904Y-35373333D01*
X72857142Y-35325714D01*
X72952380Y-35325714D01*
X73714285Y-35992380D02*
X73714285Y-34992380D01*
X73714285Y-35944761D02*
X73619047Y-35992380D01*
X73428571Y-35992380D01*
X73333333Y-35944761D01*
X73285714Y-35897142D01*
X73238095Y-35801904D01*
X73238095Y-35516190D01*
X73285714Y-35420952D01*
X73333333Y-35373333D01*
X73428571Y-35325714D01*
X73619047Y-35325714D01*
X73714285Y-35373333D01*
X74857142Y-35325714D02*
X75095238Y-35992380D01*
X75333333Y-35325714D01*
X76238095Y-35992380D02*
X75666666Y-35992380D01*
X75952380Y-35992380D02*
X75952380Y-34992380D01*
X75857142Y-35135238D01*
X75761904Y-35230476D01*
X75666666Y-35278095D01*
X76666666Y-35897142D02*
X76714285Y-35944761D01*
X76666666Y-35992380D01*
X76619047Y-35944761D01*
X76666666Y-35897142D01*
X76666666Y-35992380D01*
X77333333Y-34992380D02*
X77428571Y-34992380D01*
X77523809Y-35040000D01*
X77571428Y-35087619D01*
X77619047Y-35182857D01*
X77666666Y-35373333D01*
X77666666Y-35611428D01*
X77619047Y-35801904D01*
X77571428Y-35897142D01*
X77523809Y-35944761D01*
X77428571Y-35992380D01*
X77333333Y-35992380D01*
X77238095Y-35944761D01*
X77190476Y-35897142D01*
X77142857Y-35801904D01*
X77095238Y-35611428D01*
X77095238Y-35373333D01*
X77142857Y-35182857D01*
X77190476Y-35087619D01*
X77238095Y-35040000D01*
X77333333Y-34992380D01*
X78857142Y-35992380D02*
X78857142Y-35325714D01*
X78857142Y-35516190D02*
X78904761Y-35420952D01*
X78952380Y-35373333D01*
X79047619Y-35325714D01*
X79142857Y-35325714D01*
X79857142Y-35944761D02*
X79761904Y-35992380D01*
X79571428Y-35992380D01*
X79476190Y-35944761D01*
X79428571Y-35849523D01*
X79428571Y-35468571D01*
X79476190Y-35373333D01*
X79571428Y-35325714D01*
X79761904Y-35325714D01*
X79857142Y-35373333D01*
X79904761Y-35468571D01*
X79904761Y-35563809D01*
X79428571Y-35659047D01*
X80238095Y-35325714D02*
X80476190Y-35992380D01*
X80714285Y-35325714D01*
X81285714Y-34992380D02*
X81380952Y-34992380D01*
X81476190Y-35040000D01*
X81523809Y-35087619D01*
X81571428Y-35182857D01*
X81619047Y-35373333D01*
X81619047Y-35611428D01*
X81571428Y-35801904D01*
X81523809Y-35897142D01*
X81476190Y-35944761D01*
X81380952Y-35992380D01*
X81285714Y-35992380D01*
X81190476Y-35944761D01*
X81142857Y-35897142D01*
X81095238Y-35801904D01*
X81047619Y-35611428D01*
X81047619Y-35373333D01*
X81095238Y-35182857D01*
X81142857Y-35087619D01*
X81190476Y-35040000D01*
X81285714Y-34992380D01*
D11*
%TO.C,REF\u002A\u002A*%
G36*
X89591241Y-37509184D02*
G01*
X89617753Y-37522282D01*
X89650447Y-37545106D01*
X89674275Y-37569996D01*
X89690594Y-37601249D01*
X89700760Y-37643166D01*
X89706128Y-37700044D01*
X89708056Y-37776184D01*
X89708169Y-37808917D01*
X89707839Y-37880656D01*
X89706473Y-37931927D01*
X89703500Y-37967404D01*
X89698351Y-37991763D01*
X89690457Y-38009680D01*
X89682243Y-38021902D01*
X89629813Y-38073905D01*
X89568070Y-38105184D01*
X89501464Y-38114592D01*
X89434442Y-38100980D01*
X89413208Y-38091354D01*
X89362376Y-38064859D01*
X89362376Y-38480052D01*
X89399475Y-38460868D01*
X89448357Y-38446025D01*
X89508439Y-38442222D01*
X89568436Y-38449243D01*
X89613744Y-38465013D01*
X89651325Y-38495047D01*
X89683436Y-38538024D01*
X89685850Y-38542436D01*
X89696033Y-38563221D01*
X89703470Y-38584170D01*
X89708589Y-38609548D01*
X89711819Y-38643618D01*
X89713587Y-38690641D01*
X89714323Y-38754882D01*
X89714456Y-38827176D01*
X89714456Y-39057822D01*
X89576139Y-39057822D01*
X89576139Y-38632533D01*
X89537451Y-38599979D01*
X89497262Y-38573940D01*
X89459203Y-38569205D01*
X89420934Y-38581389D01*
X89400538Y-38593320D01*
X89385358Y-38610313D01*
X89374562Y-38635995D01*
X89367317Y-38673991D01*
X89362792Y-38727926D01*
X89360156Y-38801425D01*
X89359228Y-38850347D01*
X89356089Y-39051535D01*
X89290074Y-39055336D01*
X89224060Y-39059136D01*
X89224060Y-37810650D01*
X89362376Y-37810650D01*
X89365903Y-37880254D01*
X89377785Y-37928569D01*
X89399980Y-37958631D01*
X89434441Y-37973471D01*
X89469258Y-37976436D01*
X89508671Y-37973028D01*
X89534829Y-37959617D01*
X89551186Y-37941896D01*
X89564063Y-37922835D01*
X89571728Y-37901601D01*
X89575139Y-37871849D01*
X89575251Y-37827236D01*
X89574103Y-37789880D01*
X89571468Y-37733604D01*
X89567544Y-37696658D01*
X89560937Y-37673223D01*
X89550251Y-37657480D01*
X89540167Y-37648380D01*
X89498030Y-37628537D01*
X89448160Y-37625332D01*
X89419524Y-37632168D01*
X89391172Y-37656464D01*
X89372391Y-37703728D01*
X89363288Y-37773624D01*
X89362376Y-37810650D01*
X89224060Y-37810650D01*
X89224060Y-37498614D01*
X89293218Y-37498614D01*
X89334740Y-37500256D01*
X89356162Y-37506087D01*
X89362374Y-37517461D01*
X89362376Y-37517798D01*
X89365258Y-37528938D01*
X89377970Y-37527673D01*
X89403243Y-37515433D01*
X89462131Y-37496707D01*
X89528385Y-37494739D01*
X89591241Y-37509184D01*
G37*
X89591241Y-37509184D02*
X89617753Y-37522282D01*
X89650447Y-37545106D01*
X89674275Y-37569996D01*
X89690594Y-37601249D01*
X89700760Y-37643166D01*
X89706128Y-37700044D01*
X89708056Y-37776184D01*
X89708169Y-37808917D01*
X89707839Y-37880656D01*
X89706473Y-37931927D01*
X89703500Y-37967404D01*
X89698351Y-37991763D01*
X89690457Y-38009680D01*
X89682243Y-38021902D01*
X89629813Y-38073905D01*
X89568070Y-38105184D01*
X89501464Y-38114592D01*
X89434442Y-38100980D01*
X89413208Y-38091354D01*
X89362376Y-38064859D01*
X89362376Y-38480052D01*
X89399475Y-38460868D01*
X89448357Y-38446025D01*
X89508439Y-38442222D01*
X89568436Y-38449243D01*
X89613744Y-38465013D01*
X89651325Y-38495047D01*
X89683436Y-38538024D01*
X89685850Y-38542436D01*
X89696033Y-38563221D01*
X89703470Y-38584170D01*
X89708589Y-38609548D01*
X89711819Y-38643618D01*
X89713587Y-38690641D01*
X89714323Y-38754882D01*
X89714456Y-38827176D01*
X89714456Y-39057822D01*
X89576139Y-39057822D01*
X89576139Y-38632533D01*
X89537451Y-38599979D01*
X89497262Y-38573940D01*
X89459203Y-38569205D01*
X89420934Y-38581389D01*
X89400538Y-38593320D01*
X89385358Y-38610313D01*
X89374562Y-38635995D01*
X89367317Y-38673991D01*
X89362792Y-38727926D01*
X89360156Y-38801425D01*
X89359228Y-38850347D01*
X89356089Y-39051535D01*
X89290074Y-39055336D01*
X89224060Y-39059136D01*
X89224060Y-37810650D01*
X89362376Y-37810650D01*
X89365903Y-37880254D01*
X89377785Y-37928569D01*
X89399980Y-37958631D01*
X89434441Y-37973471D01*
X89469258Y-37976436D01*
X89508671Y-37973028D01*
X89534829Y-37959617D01*
X89551186Y-37941896D01*
X89564063Y-37922835D01*
X89571728Y-37901601D01*
X89575139Y-37871849D01*
X89575251Y-37827236D01*
X89574103Y-37789880D01*
X89571468Y-37733604D01*
X89567544Y-37696658D01*
X89560937Y-37673223D01*
X89550251Y-37657480D01*
X89540167Y-37648380D01*
X89498030Y-37628537D01*
X89448160Y-37625332D01*
X89419524Y-37632168D01*
X89391172Y-37656464D01*
X89372391Y-37703728D01*
X89363288Y-37773624D01*
X89362376Y-37810650D01*
X89224060Y-37810650D01*
X89224060Y-37498614D01*
X89293218Y-37498614D01*
X89334740Y-37500256D01*
X89356162Y-37506087D01*
X89362374Y-37517461D01*
X89362376Y-37517798D01*
X89365258Y-37528938D01*
X89377970Y-37527673D01*
X89403243Y-37515433D01*
X89462131Y-37496707D01*
X89528385Y-37494739D01*
X89591241Y-37509184D01*
G36*
X90115790Y-38446555D02*
G01*
X90174945Y-38462339D01*
X90219977Y-38490948D01*
X90251754Y-38528419D01*
X90261634Y-38544411D01*
X90268927Y-38561163D01*
X90274026Y-38582592D01*
X90277321Y-38612616D01*
X90279203Y-38655154D01*
X90280063Y-38714122D01*
X90280293Y-38793440D01*
X90280297Y-38814484D01*
X90280297Y-39057822D01*
X90219941Y-39057822D01*
X90181443Y-39055126D01*
X90152977Y-39048295D01*
X90145845Y-39044083D01*
X90126348Y-39036813D01*
X90106434Y-39044083D01*
X90073647Y-39053160D01*
X90026022Y-39056813D01*
X89973236Y-39055228D01*
X89924964Y-39048589D01*
X89896782Y-39040072D01*
X89842247Y-39005063D01*
X89808165Y-38956479D01*
X89792843Y-38891882D01*
X89792701Y-38890223D01*
X89794045Y-38861566D01*
X89915644Y-38861566D01*
X89926274Y-38894161D01*
X89943590Y-38912505D01*
X89978348Y-38926379D01*
X90024227Y-38931917D01*
X90071012Y-38929191D01*
X90108486Y-38918274D01*
X90118985Y-38911269D01*
X90137332Y-38878904D01*
X90141980Y-38842111D01*
X90141980Y-38793763D01*
X90072418Y-38793763D01*
X90006333Y-38798850D01*
X89956236Y-38813263D01*
X89925071Y-38835729D01*
X89915644Y-38861566D01*
X89794045Y-38861566D01*
X89796013Y-38819647D01*
X89819290Y-38763845D01*
X89863052Y-38721647D01*
X89869101Y-38717808D01*
X89895093Y-38705309D01*
X89927265Y-38697740D01*
X89972240Y-38694061D01*
X90025669Y-38693216D01*
X90141980Y-38693169D01*
X90141980Y-38644411D01*
X90137047Y-38606581D01*
X90124457Y-38581236D01*
X90122983Y-38579887D01*
X90094966Y-38568800D01*
X90052674Y-38564503D01*
X90005936Y-38566615D01*
X89964582Y-38574756D01*
X89940043Y-38586965D01*
X89926747Y-38596746D01*
X89912706Y-38598613D01*
X89893329Y-38590600D01*
X89864024Y-38570739D01*
X89820197Y-38537063D01*
X89816175Y-38533909D01*
X89818236Y-38522236D01*
X89835432Y-38502822D01*
X89861567Y-38481248D01*
X89890448Y-38463096D01*
X89899522Y-38458809D01*
X89932620Y-38450256D01*
X89981120Y-38444155D01*
X90035305Y-38441708D01*
X90037839Y-38441703D01*
X90115790Y-38446555D01*
G37*
X90115790Y-38446555D02*
X90174945Y-38462339D01*
X90219977Y-38490948D01*
X90251754Y-38528419D01*
X90261634Y-38544411D01*
X90268927Y-38561163D01*
X90274026Y-38582592D01*
X90277321Y-38612616D01*
X90279203Y-38655154D01*
X90280063Y-38714122D01*
X90280293Y-38793440D01*
X90280297Y-38814484D01*
X90280297Y-39057822D01*
X90219941Y-39057822D01*
X90181443Y-39055126D01*
X90152977Y-39048295D01*
X90145845Y-39044083D01*
X90126348Y-39036813D01*
X90106434Y-39044083D01*
X90073647Y-39053160D01*
X90026022Y-39056813D01*
X89973236Y-39055228D01*
X89924964Y-39048589D01*
X89896782Y-39040072D01*
X89842247Y-39005063D01*
X89808165Y-38956479D01*
X89792843Y-38891882D01*
X89792701Y-38890223D01*
X89794045Y-38861566D01*
X89915644Y-38861566D01*
X89926274Y-38894161D01*
X89943590Y-38912505D01*
X89978348Y-38926379D01*
X90024227Y-38931917D01*
X90071012Y-38929191D01*
X90108486Y-38918274D01*
X90118985Y-38911269D01*
X90137332Y-38878904D01*
X90141980Y-38842111D01*
X90141980Y-38793763D01*
X90072418Y-38793763D01*
X90006333Y-38798850D01*
X89956236Y-38813263D01*
X89925071Y-38835729D01*
X89915644Y-38861566D01*
X89794045Y-38861566D01*
X89796013Y-38819647D01*
X89819290Y-38763845D01*
X89863052Y-38721647D01*
X89869101Y-38717808D01*
X89895093Y-38705309D01*
X89927265Y-38697740D01*
X89972240Y-38694061D01*
X90025669Y-38693216D01*
X90141980Y-38693169D01*
X90141980Y-38644411D01*
X90137047Y-38606581D01*
X90124457Y-38581236D01*
X90122983Y-38579887D01*
X90094966Y-38568800D01*
X90052674Y-38564503D01*
X90005936Y-38566615D01*
X89964582Y-38574756D01*
X89940043Y-38586965D01*
X89926747Y-38596746D01*
X89912706Y-38598613D01*
X89893329Y-38590600D01*
X89864024Y-38570739D01*
X89820197Y-38537063D01*
X89816175Y-38533909D01*
X89818236Y-38522236D01*
X89835432Y-38502822D01*
X89861567Y-38481248D01*
X89890448Y-38463096D01*
X89899522Y-38458809D01*
X89932620Y-38450256D01*
X89981120Y-38444155D01*
X90035305Y-38441708D01*
X90037839Y-38441703D01*
X90115790Y-38446555D01*
G36*
X90506644Y-38443020D02*
G01*
X90525461Y-38448660D01*
X90531527Y-38461053D01*
X90531782Y-38466647D01*
X90532871Y-38482230D01*
X90540368Y-38484676D01*
X90560619Y-38473993D01*
X90572649Y-38466694D01*
X90610600Y-38451063D01*
X90655928Y-38443334D01*
X90703456Y-38442740D01*
X90748005Y-38448513D01*
X90784398Y-38459884D01*
X90807457Y-38476088D01*
X90812004Y-38496355D01*
X90809709Y-38501843D01*
X90792980Y-38524626D01*
X90767037Y-38552647D01*
X90762345Y-38557177D01*
X90737617Y-38578005D01*
X90716282Y-38584735D01*
X90686445Y-38580038D01*
X90674492Y-38576917D01*
X90637295Y-38569421D01*
X90611141Y-38572792D01*
X90589054Y-38584681D01*
X90568822Y-38600635D01*
X90553921Y-38620700D01*
X90543566Y-38648702D01*
X90536971Y-38688467D01*
X90533351Y-38743823D01*
X90531922Y-38818594D01*
X90531782Y-38863740D01*
X90531782Y-39057822D01*
X90406040Y-39057822D01*
X90406040Y-38441683D01*
X90468911Y-38441683D01*
X90506644Y-38443020D01*
G37*
X90506644Y-38443020D02*
X90525461Y-38448660D01*
X90531527Y-38461053D01*
X90531782Y-38466647D01*
X90532871Y-38482230D01*
X90540368Y-38484676D01*
X90560619Y-38473993D01*
X90572649Y-38466694D01*
X90610600Y-38451063D01*
X90655928Y-38443334D01*
X90703456Y-38442740D01*
X90748005Y-38448513D01*
X90784398Y-38459884D01*
X90807457Y-38476088D01*
X90812004Y-38496355D01*
X90809709Y-38501843D01*
X90792980Y-38524626D01*
X90767037Y-38552647D01*
X90762345Y-38557177D01*
X90737617Y-38578005D01*
X90716282Y-38584735D01*
X90686445Y-38580038D01*
X90674492Y-38576917D01*
X90637295Y-38569421D01*
X90611141Y-38572792D01*
X90589054Y-38584681D01*
X90568822Y-38600635D01*
X90553921Y-38620700D01*
X90543566Y-38648702D01*
X90536971Y-38688467D01*
X90533351Y-38743823D01*
X90531922Y-38818594D01*
X90531782Y-38863740D01*
X90531782Y-39057822D01*
X90406040Y-39057822D01*
X90406040Y-38441683D01*
X90468911Y-38441683D01*
X90506644Y-38443020D01*
G36*
X91298812Y-39057822D02*
G01*
X91229654Y-39057822D01*
X91189512Y-39056645D01*
X91168606Y-39051772D01*
X91161078Y-39041186D01*
X91160495Y-39034029D01*
X91159226Y-39019676D01*
X91151221Y-39016923D01*
X91130185Y-39025771D01*
X91113827Y-39034029D01*
X91051023Y-39053597D01*
X90982752Y-39054729D01*
X90927248Y-39040135D01*
X90875562Y-39004877D01*
X90836162Y-38952835D01*
X90814587Y-38891450D01*
X90814038Y-38888018D01*
X90810833Y-38850571D01*
X90809239Y-38796813D01*
X90809367Y-38756155D01*
X90946721Y-38756155D01*
X90949903Y-38810194D01*
X90957141Y-38854735D01*
X90966940Y-38879888D01*
X91004011Y-38914260D01*
X91048026Y-38926582D01*
X91093416Y-38916618D01*
X91132203Y-38886895D01*
X91146892Y-38866905D01*
X91155481Y-38843050D01*
X91159504Y-38808230D01*
X91160495Y-38755930D01*
X91158722Y-38704139D01*
X91154037Y-38658634D01*
X91147397Y-38628181D01*
X91146290Y-38625452D01*
X91119509Y-38593000D01*
X91080421Y-38575183D01*
X91036685Y-38572306D01*
X90995962Y-38584674D01*
X90965913Y-38612593D01*
X90962796Y-38618148D01*
X90953039Y-38652022D01*
X90947723Y-38700728D01*
X90946721Y-38756155D01*
X90809367Y-38756155D01*
X90809432Y-38735540D01*
X90810336Y-38702563D01*
X90816486Y-38620981D01*
X90829267Y-38559730D01*
X90850529Y-38514449D01*
X90882122Y-38480779D01*
X90912793Y-38461014D01*
X90955646Y-38447120D01*
X91008944Y-38442354D01*
X91063520Y-38446236D01*
X91110208Y-38458282D01*
X91134876Y-38472693D01*
X91160495Y-38495878D01*
X91160495Y-38202773D01*
X91298812Y-38202773D01*
X91298812Y-39057822D01*
G37*
X91298812Y-39057822D02*
X91229654Y-39057822D01*
X91189512Y-39056645D01*
X91168606Y-39051772D01*
X91161078Y-39041186D01*
X91160495Y-39034029D01*
X91159226Y-39019676D01*
X91151221Y-39016923D01*
X91130185Y-39025771D01*
X91113827Y-39034029D01*
X91051023Y-39053597D01*
X90982752Y-39054729D01*
X90927248Y-39040135D01*
X90875562Y-39004877D01*
X90836162Y-38952835D01*
X90814587Y-38891450D01*
X90814038Y-38888018D01*
X90810833Y-38850571D01*
X90809239Y-38796813D01*
X90809367Y-38756155D01*
X90946721Y-38756155D01*
X90949903Y-38810194D01*
X90957141Y-38854735D01*
X90966940Y-38879888D01*
X91004011Y-38914260D01*
X91048026Y-38926582D01*
X91093416Y-38916618D01*
X91132203Y-38886895D01*
X91146892Y-38866905D01*
X91155481Y-38843050D01*
X91159504Y-38808230D01*
X91160495Y-38755930D01*
X91158722Y-38704139D01*
X91154037Y-38658634D01*
X91147397Y-38628181D01*
X91146290Y-38625452D01*
X91119509Y-38593000D01*
X91080421Y-38575183D01*
X91036685Y-38572306D01*
X90995962Y-38584674D01*
X90965913Y-38612593D01*
X90962796Y-38618148D01*
X90953039Y-38652022D01*
X90947723Y-38700728D01*
X90946721Y-38756155D01*
X90809367Y-38756155D01*
X90809432Y-38735540D01*
X90810336Y-38702563D01*
X90816486Y-38620981D01*
X90829267Y-38559730D01*
X90850529Y-38514449D01*
X90882122Y-38480779D01*
X90912793Y-38461014D01*
X90955646Y-38447120D01*
X91008944Y-38442354D01*
X91063520Y-38446236D01*
X91110208Y-38458282D01*
X91134876Y-38472693D01*
X91160495Y-38495878D01*
X91160495Y-38202773D01*
X91298812Y-38202773D01*
X91298812Y-39057822D01*
G36*
X91781524Y-38444237D02*
G01*
X91831255Y-38447971D01*
X91961291Y-38837773D01*
X91981678Y-38768614D01*
X91993946Y-38725874D01*
X92010085Y-38668115D01*
X92027512Y-38604625D01*
X92036726Y-38570570D01*
X92071388Y-38441683D01*
X92214391Y-38441683D01*
X92171646Y-38576857D01*
X92150596Y-38643342D01*
X92125167Y-38723539D01*
X92098610Y-38807193D01*
X92074902Y-38881782D01*
X92020902Y-39051535D01*
X91962598Y-39055328D01*
X91904295Y-39059122D01*
X91872679Y-38954734D01*
X91853182Y-38889889D01*
X91831904Y-38818400D01*
X91813308Y-38755263D01*
X91812574Y-38752750D01*
X91798684Y-38709969D01*
X91786429Y-38680779D01*
X91777846Y-38669741D01*
X91776082Y-38671018D01*
X91769891Y-38688130D01*
X91758128Y-38724787D01*
X91742225Y-38776378D01*
X91723614Y-38838294D01*
X91713543Y-38872352D01*
X91659007Y-39057822D01*
X91543264Y-39057822D01*
X91450737Y-38765471D01*
X91424744Y-38683462D01*
X91401066Y-38608987D01*
X91380820Y-38545544D01*
X91365126Y-38496632D01*
X91355102Y-38465749D01*
X91352055Y-38456726D01*
X91354467Y-38447487D01*
X91373408Y-38443441D01*
X91412823Y-38443846D01*
X91418993Y-38444152D01*
X91492086Y-38447971D01*
X91539957Y-38624010D01*
X91557553Y-38688211D01*
X91573277Y-38744649D01*
X91585746Y-38788422D01*
X91593574Y-38814630D01*
X91595020Y-38818903D01*
X91601014Y-38813990D01*
X91613101Y-38788532D01*
X91629893Y-38745997D01*
X91650003Y-38689850D01*
X91667003Y-38639130D01*
X91731794Y-38440504D01*
X91781524Y-38444237D01*
G37*
X91781524Y-38444237D02*
X91831255Y-38447971D01*
X91961291Y-38837773D01*
X91981678Y-38768614D01*
X91993946Y-38725874D01*
X92010085Y-38668115D01*
X92027512Y-38604625D01*
X92036726Y-38570570D01*
X92071388Y-38441683D01*
X92214391Y-38441683D01*
X92171646Y-38576857D01*
X92150596Y-38643342D01*
X92125167Y-38723539D01*
X92098610Y-38807193D01*
X92074902Y-38881782D01*
X92020902Y-39051535D01*
X91962598Y-39055328D01*
X91904295Y-39059122D01*
X91872679Y-38954734D01*
X91853182Y-38889889D01*
X91831904Y-38818400D01*
X91813308Y-38755263D01*
X91812574Y-38752750D01*
X91798684Y-38709969D01*
X91786429Y-38680779D01*
X91777846Y-38669741D01*
X91776082Y-38671018D01*
X91769891Y-38688130D01*
X91758128Y-38724787D01*
X91742225Y-38776378D01*
X91723614Y-38838294D01*
X91713543Y-38872352D01*
X91659007Y-39057822D01*
X91543264Y-39057822D01*
X91450737Y-38765471D01*
X91424744Y-38683462D01*
X91401066Y-38608987D01*
X91380820Y-38545544D01*
X91365126Y-38496632D01*
X91355102Y-38465749D01*
X91352055Y-38456726D01*
X91354467Y-38447487D01*
X91373408Y-38443441D01*
X91412823Y-38443846D01*
X91418993Y-38444152D01*
X91492086Y-38447971D01*
X91539957Y-38624010D01*
X91557553Y-38688211D01*
X91573277Y-38744649D01*
X91585746Y-38788422D01*
X91593574Y-38814630D01*
X91595020Y-38818903D01*
X91601014Y-38813990D01*
X91613101Y-38788532D01*
X91629893Y-38745997D01*
X91650003Y-38689850D01*
X91667003Y-38639130D01*
X91731794Y-38440504D01*
X91781524Y-38444237D01*
G36*
X92538411Y-38445417D02*
G01*
X92591411Y-38458290D01*
X92606731Y-38465110D01*
X92636428Y-38482974D01*
X92659220Y-38503093D01*
X92676083Y-38528962D01*
X92687998Y-38564073D01*
X92695942Y-38611920D01*
X92700894Y-38675996D01*
X92703831Y-38759794D01*
X92704947Y-38815768D01*
X92709052Y-39057822D01*
X92638932Y-39057822D01*
X92596393Y-39056038D01*
X92574476Y-39049942D01*
X92568812Y-39039706D01*
X92565821Y-39028637D01*
X92552451Y-39030754D01*
X92534233Y-39039629D01*
X92488624Y-39053233D01*
X92430007Y-39056899D01*
X92368354Y-39050903D01*
X92313638Y-39035521D01*
X92308730Y-39033386D01*
X92258723Y-38998255D01*
X92225756Y-38949419D01*
X92210587Y-38892333D01*
X92211746Y-38871824D01*
X92335508Y-38871824D01*
X92346413Y-38899425D01*
X92378745Y-38919204D01*
X92430910Y-38929819D01*
X92458787Y-38931228D01*
X92505247Y-38927620D01*
X92536129Y-38913597D01*
X92543664Y-38906931D01*
X92564076Y-38870666D01*
X92568812Y-38837773D01*
X92568812Y-38793763D01*
X92507513Y-38793763D01*
X92436256Y-38797395D01*
X92386276Y-38808818D01*
X92354696Y-38828824D01*
X92347626Y-38837743D01*
X92335508Y-38871824D01*
X92211746Y-38871824D01*
X92213971Y-38832456D01*
X92236663Y-38775244D01*
X92267624Y-38736580D01*
X92286376Y-38719864D01*
X92304733Y-38708878D01*
X92328619Y-38702180D01*
X92363957Y-38698326D01*
X92416669Y-38695873D01*
X92437577Y-38695168D01*
X92568812Y-38690879D01*
X92568620Y-38651158D01*
X92563537Y-38609405D01*
X92545162Y-38584158D01*
X92508039Y-38568030D01*
X92507043Y-38567742D01*
X92454410Y-38561400D01*
X92402906Y-38569684D01*
X92364630Y-38589827D01*
X92349272Y-38599773D01*
X92332730Y-38598397D01*
X92307275Y-38583987D01*
X92292328Y-38573817D01*
X92263091Y-38552088D01*
X92244980Y-38535800D01*
X92242074Y-38531137D01*
X92254040Y-38507005D01*
X92289396Y-38478185D01*
X92304753Y-38468461D01*
X92348901Y-38451714D01*
X92408398Y-38442227D01*
X92474487Y-38440095D01*
X92538411Y-38445417D01*
G37*
X92538411Y-38445417D02*
X92591411Y-38458290D01*
X92606731Y-38465110D01*
X92636428Y-38482974D01*
X92659220Y-38503093D01*
X92676083Y-38528962D01*
X92687998Y-38564073D01*
X92695942Y-38611920D01*
X92700894Y-38675996D01*
X92703831Y-38759794D01*
X92704947Y-38815768D01*
X92709052Y-39057822D01*
X92638932Y-39057822D01*
X92596393Y-39056038D01*
X92574476Y-39049942D01*
X92568812Y-39039706D01*
X92565821Y-39028637D01*
X92552451Y-39030754D01*
X92534233Y-39039629D01*
X92488624Y-39053233D01*
X92430007Y-39056899D01*
X92368354Y-39050903D01*
X92313638Y-39035521D01*
X92308730Y-39033386D01*
X92258723Y-38998255D01*
X92225756Y-38949419D01*
X92210587Y-38892333D01*
X92211746Y-38871824D01*
X92335508Y-38871824D01*
X92346413Y-38899425D01*
X92378745Y-38919204D01*
X92430910Y-38929819D01*
X92458787Y-38931228D01*
X92505247Y-38927620D01*
X92536129Y-38913597D01*
X92543664Y-38906931D01*
X92564076Y-38870666D01*
X92568812Y-38837773D01*
X92568812Y-38793763D01*
X92507513Y-38793763D01*
X92436256Y-38797395D01*
X92386276Y-38808818D01*
X92354696Y-38828824D01*
X92347626Y-38837743D01*
X92335508Y-38871824D01*
X92211746Y-38871824D01*
X92213971Y-38832456D01*
X92236663Y-38775244D01*
X92267624Y-38736580D01*
X92286376Y-38719864D01*
X92304733Y-38708878D01*
X92328619Y-38702180D01*
X92363957Y-38698326D01*
X92416669Y-38695873D01*
X92437577Y-38695168D01*
X92568812Y-38690879D01*
X92568620Y-38651158D01*
X92563537Y-38609405D01*
X92545162Y-38584158D01*
X92508039Y-38568030D01*
X92507043Y-38567742D01*
X92454410Y-38561400D01*
X92402906Y-38569684D01*
X92364630Y-38589827D01*
X92349272Y-38599773D01*
X92332730Y-38598397D01*
X92307275Y-38583987D01*
X92292328Y-38573817D01*
X92263091Y-38552088D01*
X92244980Y-38535800D01*
X92242074Y-38531137D01*
X92254040Y-38507005D01*
X92289396Y-38478185D01*
X92304753Y-38468461D01*
X92348901Y-38451714D01*
X92408398Y-38442227D01*
X92474487Y-38440095D01*
X92538411Y-38445417D01*
G36*
X93135255Y-38441486D02*
G01*
X93183595Y-38451015D01*
X93211114Y-38465125D01*
X93240064Y-38488568D01*
X93198876Y-38540571D01*
X93173482Y-38572064D01*
X93156238Y-38587428D01*
X93139102Y-38589776D01*
X93114027Y-38582217D01*
X93102257Y-38577941D01*
X93054270Y-38571631D01*
X93010324Y-38585156D01*
X92978060Y-38615710D01*
X92972819Y-38625452D01*
X92967112Y-38651258D01*
X92962706Y-38698817D01*
X92959811Y-38764758D01*
X92958631Y-38845710D01*
X92958614Y-38857226D01*
X92958614Y-39057822D01*
X92820297Y-39057822D01*
X92820297Y-38441683D01*
X92889456Y-38441683D01*
X92929333Y-38442725D01*
X92950107Y-38447358D01*
X92957789Y-38457849D01*
X92958614Y-38467745D01*
X92958614Y-38493806D01*
X92991745Y-38467745D01*
X93029735Y-38449965D01*
X93080770Y-38441174D01*
X93135255Y-38441486D01*
G37*
X93135255Y-38441486D02*
X93183595Y-38451015D01*
X93211114Y-38465125D01*
X93240064Y-38488568D01*
X93198876Y-38540571D01*
X93173482Y-38572064D01*
X93156238Y-38587428D01*
X93139102Y-38589776D01*
X93114027Y-38582217D01*
X93102257Y-38577941D01*
X93054270Y-38571631D01*
X93010324Y-38585156D01*
X92978060Y-38615710D01*
X92972819Y-38625452D01*
X92967112Y-38651258D01*
X92962706Y-38698817D01*
X92959811Y-38764758D01*
X92958631Y-38845710D01*
X92958614Y-38857226D01*
X92958614Y-39057822D01*
X92820297Y-39057822D01*
X92820297Y-38441683D01*
X92889456Y-38441683D01*
X92929333Y-38442725D01*
X92950107Y-38447358D01*
X92957789Y-38457849D01*
X92958614Y-38467745D01*
X92958614Y-38493806D01*
X92991745Y-38467745D01*
X93029735Y-38449965D01*
X93080770Y-38441174D01*
X93135255Y-38441486D01*
G36*
X93532581Y-38444970D02*
G01*
X93592685Y-38460597D01*
X93643021Y-38492848D01*
X93667393Y-38516940D01*
X93707345Y-38573895D01*
X93730242Y-38639965D01*
X93738108Y-38721182D01*
X93738148Y-38727748D01*
X93738218Y-38793763D01*
X93358264Y-38793763D01*
X93366363Y-38828342D01*
X93380987Y-38859659D01*
X93406581Y-38892291D01*
X93411935Y-38897500D01*
X93457943Y-38925694D01*
X93510410Y-38930475D01*
X93570803Y-38911926D01*
X93581040Y-38906931D01*
X93612439Y-38891745D01*
X93633470Y-38883094D01*
X93637139Y-38882293D01*
X93649948Y-38890063D01*
X93674378Y-38909072D01*
X93686779Y-38919460D01*
X93712476Y-38943321D01*
X93720915Y-38959077D01*
X93715058Y-38973571D01*
X93711928Y-38977534D01*
X93690725Y-38994879D01*
X93655738Y-39015959D01*
X93631337Y-39028265D01*
X93562072Y-39049946D01*
X93485388Y-39056971D01*
X93412765Y-39048647D01*
X93392426Y-39042686D01*
X93329476Y-39008952D01*
X93282815Y-38957045D01*
X93252173Y-38886459D01*
X93237282Y-38796692D01*
X93235647Y-38749753D01*
X93240421Y-38681413D01*
X93360990Y-38681413D01*
X93372652Y-38686465D01*
X93403998Y-38690429D01*
X93449571Y-38692768D01*
X93480446Y-38693169D01*
X93535981Y-38692783D01*
X93571033Y-38690975D01*
X93590262Y-38686773D01*
X93598330Y-38679203D01*
X93599901Y-38668218D01*
X93589121Y-38634381D01*
X93561980Y-38600940D01*
X93526277Y-38575272D01*
X93490560Y-38564772D01*
X93442048Y-38574086D01*
X93400053Y-38601013D01*
X93370936Y-38639827D01*
X93360990Y-38681413D01*
X93240421Y-38681413D01*
X93242599Y-38650236D01*
X93264055Y-38570949D01*
X93300470Y-38511263D01*
X93352297Y-38470549D01*
X93419990Y-38448179D01*
X93456662Y-38443871D01*
X93532581Y-38444970D01*
G37*
X93532581Y-38444970D02*
X93592685Y-38460597D01*
X93643021Y-38492848D01*
X93667393Y-38516940D01*
X93707345Y-38573895D01*
X93730242Y-38639965D01*
X93738108Y-38721182D01*
X93738148Y-38727748D01*
X93738218Y-38793763D01*
X93358264Y-38793763D01*
X93366363Y-38828342D01*
X93380987Y-38859659D01*
X93406581Y-38892291D01*
X93411935Y-38897500D01*
X93457943Y-38925694D01*
X93510410Y-38930475D01*
X93570803Y-38911926D01*
X93581040Y-38906931D01*
X93612439Y-38891745D01*
X93633470Y-38883094D01*
X93637139Y-38882293D01*
X93649948Y-38890063D01*
X93674378Y-38909072D01*
X93686779Y-38919460D01*
X93712476Y-38943321D01*
X93720915Y-38959077D01*
X93715058Y-38973571D01*
X93711928Y-38977534D01*
X93690725Y-38994879D01*
X93655738Y-39015959D01*
X93631337Y-39028265D01*
X93562072Y-39049946D01*
X93485388Y-39056971D01*
X93412765Y-39048647D01*
X93392426Y-39042686D01*
X93329476Y-39008952D01*
X93282815Y-38957045D01*
X93252173Y-38886459D01*
X93237282Y-38796692D01*
X93235647Y-38749753D01*
X93240421Y-38681413D01*
X93360990Y-38681413D01*
X93372652Y-38686465D01*
X93403998Y-38690429D01*
X93449571Y-38692768D01*
X93480446Y-38693169D01*
X93535981Y-38692783D01*
X93571033Y-38690975D01*
X93590262Y-38686773D01*
X93598330Y-38679203D01*
X93599901Y-38668218D01*
X93589121Y-38634381D01*
X93561980Y-38600940D01*
X93526277Y-38575272D01*
X93490560Y-38564772D01*
X93442048Y-38574086D01*
X93400053Y-38601013D01*
X93370936Y-38639827D01*
X93360990Y-38681413D01*
X93240421Y-38681413D01*
X93242599Y-38650236D01*
X93264055Y-38570949D01*
X93300470Y-38511263D01*
X93352297Y-38470549D01*
X93419990Y-38448179D01*
X93456662Y-38443871D01*
X93532581Y-38444970D01*
G36*
X88961739Y-37505148D02*
G01*
X89027521Y-37534231D01*
X89077460Y-37582793D01*
X89111626Y-37650908D01*
X89130093Y-37738651D01*
X89131417Y-37752351D01*
X89132454Y-37848939D01*
X89119007Y-37933602D01*
X89091892Y-38002221D01*
X89077373Y-38024294D01*
X89026799Y-38071011D01*
X88962391Y-38101268D01*
X88890334Y-38113824D01*
X88816815Y-38107439D01*
X88760928Y-38087772D01*
X88712868Y-38054629D01*
X88673588Y-38011175D01*
X88672908Y-38010158D01*
X88656956Y-37983338D01*
X88646590Y-37956368D01*
X88640312Y-37922332D01*
X88636627Y-37874310D01*
X88635003Y-37834931D01*
X88634328Y-37799219D01*
X88760045Y-37799219D01*
X88761274Y-37834770D01*
X88765734Y-37882094D01*
X88773603Y-37912465D01*
X88787793Y-37934072D01*
X88801083Y-37946694D01*
X88848198Y-37973122D01*
X88897495Y-37976653D01*
X88943407Y-37957639D01*
X88966362Y-37936331D01*
X88982904Y-37914859D01*
X88992579Y-37894313D01*
X88996826Y-37867574D01*
X88997080Y-37827523D01*
X88995772Y-37790638D01*
X88992957Y-37737947D01*
X88988495Y-37703772D01*
X88980452Y-37681480D01*
X88966897Y-37664442D01*
X88956155Y-37654703D01*
X88911223Y-37629123D01*
X88862751Y-37627847D01*
X88822106Y-37642999D01*
X88787433Y-37674642D01*
X88766776Y-37726620D01*
X88760045Y-37799219D01*
X88634328Y-37799219D01*
X88633521Y-37756621D01*
X88636052Y-37698056D01*
X88643638Y-37654007D01*
X88657319Y-37619248D01*
X88678135Y-37588551D01*
X88685853Y-37579436D01*
X88734111Y-37534021D01*
X88785872Y-37507493D01*
X88849172Y-37496379D01*
X88880039Y-37495471D01*
X88961739Y-37505148D01*
G37*
X88961739Y-37505148D02*
X89027521Y-37534231D01*
X89077460Y-37582793D01*
X89111626Y-37650908D01*
X89130093Y-37738651D01*
X89131417Y-37752351D01*
X89132454Y-37848939D01*
X89119007Y-37933602D01*
X89091892Y-38002221D01*
X89077373Y-38024294D01*
X89026799Y-38071011D01*
X88962391Y-38101268D01*
X88890334Y-38113824D01*
X88816815Y-38107439D01*
X88760928Y-38087772D01*
X88712868Y-38054629D01*
X88673588Y-38011175D01*
X88672908Y-38010158D01*
X88656956Y-37983338D01*
X88646590Y-37956368D01*
X88640312Y-37922332D01*
X88636627Y-37874310D01*
X88635003Y-37834931D01*
X88634328Y-37799219D01*
X88760045Y-37799219D01*
X88761274Y-37834770D01*
X88765734Y-37882094D01*
X88773603Y-37912465D01*
X88787793Y-37934072D01*
X88801083Y-37946694D01*
X88848198Y-37973122D01*
X88897495Y-37976653D01*
X88943407Y-37957639D01*
X88966362Y-37936331D01*
X88982904Y-37914859D01*
X88992579Y-37894313D01*
X88996826Y-37867574D01*
X88997080Y-37827523D01*
X88995772Y-37790638D01*
X88992957Y-37737947D01*
X88988495Y-37703772D01*
X88980452Y-37681480D01*
X88966897Y-37664442D01*
X88956155Y-37654703D01*
X88911223Y-37629123D01*
X88862751Y-37627847D01*
X88822106Y-37642999D01*
X88787433Y-37674642D01*
X88766776Y-37726620D01*
X88760045Y-37799219D01*
X88634328Y-37799219D01*
X88633521Y-37756621D01*
X88636052Y-37698056D01*
X88643638Y-37654007D01*
X88657319Y-37619248D01*
X88678135Y-37588551D01*
X88685853Y-37579436D01*
X88734111Y-37534021D01*
X88785872Y-37507493D01*
X88849172Y-37496379D01*
X88880039Y-37495471D01*
X88961739Y-37505148D01*
G36*
X90143301Y-37512614D02*
G01*
X90155832Y-37518514D01*
X90199201Y-37550283D01*
X90240210Y-37596646D01*
X90270832Y-37647696D01*
X90279541Y-37671166D01*
X90287488Y-37713091D01*
X90292226Y-37763757D01*
X90292801Y-37784679D01*
X90292871Y-37850693D01*
X89912917Y-37850693D01*
X89921017Y-37885273D01*
X89940896Y-37926170D01*
X89975653Y-37961514D01*
X90017002Y-37984282D01*
X90043351Y-37989010D01*
X90079084Y-37983273D01*
X90121718Y-37968882D01*
X90136201Y-37962262D01*
X90189760Y-37935513D01*
X90235467Y-37970376D01*
X90261842Y-37993955D01*
X90275876Y-38013417D01*
X90276586Y-38019129D01*
X90264049Y-38032973D01*
X90236572Y-38054012D01*
X90211634Y-38070425D01*
X90144336Y-38099930D01*
X90068890Y-38113284D01*
X89994112Y-38109812D01*
X89934505Y-38091663D01*
X89873059Y-38052784D01*
X89829392Y-38001595D01*
X89802074Y-37935367D01*
X89789678Y-37851371D01*
X89788579Y-37812936D01*
X89792978Y-37724861D01*
X89793518Y-37722299D01*
X89919418Y-37722299D01*
X89922885Y-37730558D01*
X89937137Y-37735113D01*
X89966530Y-37737065D01*
X90015425Y-37737517D01*
X90034252Y-37737525D01*
X90091533Y-37736843D01*
X90127859Y-37734364D01*
X90147396Y-37729443D01*
X90154310Y-37721434D01*
X90154555Y-37718862D01*
X90146664Y-37698423D01*
X90126915Y-37669789D01*
X90118425Y-37659763D01*
X90086906Y-37631408D01*
X90054051Y-37620259D01*
X90036349Y-37619327D01*
X89988461Y-37630981D01*
X89948301Y-37662285D01*
X89922827Y-37707752D01*
X89922375Y-37709233D01*
X89919418Y-37722299D01*
X89793518Y-37722299D01*
X89807608Y-37655510D01*
X89833962Y-37600025D01*
X89866193Y-37560639D01*
X89925783Y-37517931D01*
X89995832Y-37495109D01*
X90070339Y-37493046D01*
X90143301Y-37512614D01*
G37*
X90143301Y-37512614D02*
X90155832Y-37518514D01*
X90199201Y-37550283D01*
X90240210Y-37596646D01*
X90270832Y-37647696D01*
X90279541Y-37671166D01*
X90287488Y-37713091D01*
X90292226Y-37763757D01*
X90292801Y-37784679D01*
X90292871Y-37850693D01*
X89912917Y-37850693D01*
X89921017Y-37885273D01*
X89940896Y-37926170D01*
X89975653Y-37961514D01*
X90017002Y-37984282D01*
X90043351Y-37989010D01*
X90079084Y-37983273D01*
X90121718Y-37968882D01*
X90136201Y-37962262D01*
X90189760Y-37935513D01*
X90235467Y-37970376D01*
X90261842Y-37993955D01*
X90275876Y-38013417D01*
X90276586Y-38019129D01*
X90264049Y-38032973D01*
X90236572Y-38054012D01*
X90211634Y-38070425D01*
X90144336Y-38099930D01*
X90068890Y-38113284D01*
X89994112Y-38109812D01*
X89934505Y-38091663D01*
X89873059Y-38052784D01*
X89829392Y-38001595D01*
X89802074Y-37935367D01*
X89789678Y-37851371D01*
X89788579Y-37812936D01*
X89792978Y-37724861D01*
X89793518Y-37722299D01*
X89919418Y-37722299D01*
X89922885Y-37730558D01*
X89937137Y-37735113D01*
X89966530Y-37737065D01*
X90015425Y-37737517D01*
X90034252Y-37737525D01*
X90091533Y-37736843D01*
X90127859Y-37734364D01*
X90147396Y-37729443D01*
X90154310Y-37721434D01*
X90154555Y-37718862D01*
X90146664Y-37698423D01*
X90126915Y-37669789D01*
X90118425Y-37659763D01*
X90086906Y-37631408D01*
X90054051Y-37620259D01*
X90036349Y-37619327D01*
X89988461Y-37630981D01*
X89948301Y-37662285D01*
X89922827Y-37707752D01*
X89922375Y-37709233D01*
X89919418Y-37722299D01*
X89793518Y-37722299D01*
X89807608Y-37655510D01*
X89833962Y-37600025D01*
X89866193Y-37560639D01*
X89925783Y-37517931D01*
X89995832Y-37495109D01*
X90070339Y-37493046D01*
X90143301Y-37512614D01*
G36*
X91514017Y-37496452D02*
G01*
X91561634Y-37505482D01*
X91611034Y-37524370D01*
X91616312Y-37526777D01*
X91653774Y-37546476D01*
X91679717Y-37564781D01*
X91688103Y-37576508D01*
X91680117Y-37595632D01*
X91660720Y-37623850D01*
X91652110Y-37634384D01*
X91616628Y-37675847D01*
X91570885Y-37648858D01*
X91527350Y-37630878D01*
X91477050Y-37621267D01*
X91428812Y-37620660D01*
X91391467Y-37629691D01*
X91382505Y-37635327D01*
X91365437Y-37661171D01*
X91363363Y-37690941D01*
X91376134Y-37714197D01*
X91383688Y-37718708D01*
X91406325Y-37724309D01*
X91446115Y-37730892D01*
X91495166Y-37737183D01*
X91504215Y-37738170D01*
X91582996Y-37751798D01*
X91640136Y-37774946D01*
X91678030Y-37809752D01*
X91699079Y-37858354D01*
X91705635Y-37917718D01*
X91696577Y-37985198D01*
X91667164Y-38038188D01*
X91617278Y-38076783D01*
X91546800Y-38101081D01*
X91468565Y-38110667D01*
X91404766Y-38110552D01*
X91353016Y-38101845D01*
X91317673Y-38089825D01*
X91273017Y-38068880D01*
X91231747Y-38044574D01*
X91217079Y-38033876D01*
X91179357Y-38003084D01*
X91224852Y-37957049D01*
X91270347Y-37911013D01*
X91322072Y-37945243D01*
X91373952Y-37970952D01*
X91429351Y-37984399D01*
X91482605Y-37985818D01*
X91528049Y-37975443D01*
X91560016Y-37953507D01*
X91570338Y-37934998D01*
X91568789Y-37905314D01*
X91543140Y-37882615D01*
X91493460Y-37866940D01*
X91439031Y-37859695D01*
X91355264Y-37845873D01*
X91293033Y-37819796D01*
X91251507Y-37780699D01*
X91229853Y-37727820D01*
X91226853Y-37665126D01*
X91241671Y-37599642D01*
X91275454Y-37550144D01*
X91328505Y-37516408D01*
X91401126Y-37498207D01*
X91454928Y-37494639D01*
X91514017Y-37496452D01*
G37*
X91514017Y-37496452D02*
X91561634Y-37505482D01*
X91611034Y-37524370D01*
X91616312Y-37526777D01*
X91653774Y-37546476D01*
X91679717Y-37564781D01*
X91688103Y-37576508D01*
X91680117Y-37595632D01*
X91660720Y-37623850D01*
X91652110Y-37634384D01*
X91616628Y-37675847D01*
X91570885Y-37648858D01*
X91527350Y-37630878D01*
X91477050Y-37621267D01*
X91428812Y-37620660D01*
X91391467Y-37629691D01*
X91382505Y-37635327D01*
X91365437Y-37661171D01*
X91363363Y-37690941D01*
X91376134Y-37714197D01*
X91383688Y-37718708D01*
X91406325Y-37724309D01*
X91446115Y-37730892D01*
X91495166Y-37737183D01*
X91504215Y-37738170D01*
X91582996Y-37751798D01*
X91640136Y-37774946D01*
X91678030Y-37809752D01*
X91699079Y-37858354D01*
X91705635Y-37917718D01*
X91696577Y-37985198D01*
X91667164Y-38038188D01*
X91617278Y-38076783D01*
X91546800Y-38101081D01*
X91468565Y-38110667D01*
X91404766Y-38110552D01*
X91353016Y-38101845D01*
X91317673Y-38089825D01*
X91273017Y-38068880D01*
X91231747Y-38044574D01*
X91217079Y-38033876D01*
X91179357Y-38003084D01*
X91224852Y-37957049D01*
X91270347Y-37911013D01*
X91322072Y-37945243D01*
X91373952Y-37970952D01*
X91429351Y-37984399D01*
X91482605Y-37985818D01*
X91528049Y-37975443D01*
X91560016Y-37953507D01*
X91570338Y-37934998D01*
X91568789Y-37905314D01*
X91543140Y-37882615D01*
X91493460Y-37866940D01*
X91439031Y-37859695D01*
X91355264Y-37845873D01*
X91293033Y-37819796D01*
X91251507Y-37780699D01*
X91229853Y-37727820D01*
X91226853Y-37665126D01*
X91241671Y-37599642D01*
X91275454Y-37550144D01*
X91328505Y-37516408D01*
X91401126Y-37498207D01*
X91454928Y-37494639D01*
X91514017Y-37496452D01*
G36*
X92110762Y-37506055D02*
G01*
X92174363Y-37540692D01*
X92224123Y-37595372D01*
X92247568Y-37639842D01*
X92257634Y-37679121D01*
X92264156Y-37735116D01*
X92266951Y-37799621D01*
X92265836Y-37864429D01*
X92260626Y-37921334D01*
X92254541Y-37951727D01*
X92234014Y-37993306D01*
X92198463Y-38037468D01*
X92155619Y-38076087D01*
X92113211Y-38101034D01*
X92112177Y-38101430D01*
X92059553Y-38112331D01*
X91997188Y-38112601D01*
X91937924Y-38102676D01*
X91915040Y-38094722D01*
X91856102Y-38061300D01*
X91813890Y-38017511D01*
X91786156Y-37959538D01*
X91770651Y-37883565D01*
X91767143Y-37843771D01*
X91767590Y-37793766D01*
X91902376Y-37793766D01*
X91906917Y-37866732D01*
X91919986Y-37922334D01*
X91940756Y-37957861D01*
X91955552Y-37968020D01*
X91993464Y-37975104D01*
X92038527Y-37973007D01*
X92077487Y-37962812D01*
X92087704Y-37957204D01*
X92114659Y-37924538D01*
X92132451Y-37874545D01*
X92140024Y-37813705D01*
X92136325Y-37748497D01*
X92128057Y-37709253D01*
X92104320Y-37663805D01*
X92066849Y-37635396D01*
X92021720Y-37625573D01*
X91975011Y-37635887D01*
X91939132Y-37661112D01*
X91920277Y-37681925D01*
X91909272Y-37702439D01*
X91904026Y-37730203D01*
X91902449Y-37772762D01*
X91902376Y-37793766D01*
X91767590Y-37793766D01*
X91768094Y-37737580D01*
X91785388Y-37650501D01*
X91819029Y-37582530D01*
X91869018Y-37533664D01*
X91935356Y-37503899D01*
X91949601Y-37500448D01*
X92035210Y-37492345D01*
X92110762Y-37506055D01*
G37*
X92110762Y-37506055D02*
X92174363Y-37540692D01*
X92224123Y-37595372D01*
X92247568Y-37639842D01*
X92257634Y-37679121D01*
X92264156Y-37735116D01*
X92266951Y-37799621D01*
X92265836Y-37864429D01*
X92260626Y-37921334D01*
X92254541Y-37951727D01*
X92234014Y-37993306D01*
X92198463Y-38037468D01*
X92155619Y-38076087D01*
X92113211Y-38101034D01*
X92112177Y-38101430D01*
X92059553Y-38112331D01*
X91997188Y-38112601D01*
X91937924Y-38102676D01*
X91915040Y-38094722D01*
X91856102Y-38061300D01*
X91813890Y-38017511D01*
X91786156Y-37959538D01*
X91770651Y-37883565D01*
X91767143Y-37843771D01*
X91767590Y-37793766D01*
X91902376Y-37793766D01*
X91906917Y-37866732D01*
X91919986Y-37922334D01*
X91940756Y-37957861D01*
X91955552Y-37968020D01*
X91993464Y-37975104D01*
X92038527Y-37973007D01*
X92077487Y-37962812D01*
X92087704Y-37957204D01*
X92114659Y-37924538D01*
X92132451Y-37874545D01*
X92140024Y-37813705D01*
X92136325Y-37748497D01*
X92128057Y-37709253D01*
X92104320Y-37663805D01*
X92066849Y-37635396D01*
X92021720Y-37625573D01*
X91975011Y-37635887D01*
X91939132Y-37661112D01*
X91920277Y-37681925D01*
X91909272Y-37702439D01*
X91904026Y-37730203D01*
X91902449Y-37772762D01*
X91902376Y-37793766D01*
X91767590Y-37793766D01*
X91768094Y-37737580D01*
X91785388Y-37650501D01*
X91819029Y-37582530D01*
X91869018Y-37533664D01*
X91935356Y-37503899D01*
X91949601Y-37500448D01*
X92035210Y-37492345D01*
X92110762Y-37506055D01*
G36*
X92493367Y-37694342D02*
G01*
X92494555Y-37786563D01*
X92498897Y-37856610D01*
X92507558Y-37907381D01*
X92521704Y-37941772D01*
X92542500Y-37962679D01*
X92571110Y-37973000D01*
X92606535Y-37975636D01*
X92643636Y-37972682D01*
X92671818Y-37961889D01*
X92692243Y-37940360D01*
X92706079Y-37905199D01*
X92714491Y-37853510D01*
X92718643Y-37782394D01*
X92719703Y-37694342D01*
X92719703Y-37498614D01*
X92858020Y-37498614D01*
X92858020Y-38102179D01*
X92788862Y-38102179D01*
X92747170Y-38100489D01*
X92725701Y-38094556D01*
X92719703Y-38083293D01*
X92716091Y-38073261D01*
X92701714Y-38075383D01*
X92672736Y-38089580D01*
X92606319Y-38111480D01*
X92535875Y-38109928D01*
X92468377Y-38086147D01*
X92436233Y-38067362D01*
X92411715Y-38047022D01*
X92393804Y-38021573D01*
X92381479Y-37987458D01*
X92373723Y-37941121D01*
X92369516Y-37879007D01*
X92367840Y-37797561D01*
X92367624Y-37734578D01*
X92367624Y-37498614D01*
X92493367Y-37498614D01*
X92493367Y-37694342D01*
G37*
X92493367Y-37694342D02*
X92494555Y-37786563D01*
X92498897Y-37856610D01*
X92507558Y-37907381D01*
X92521704Y-37941772D01*
X92542500Y-37962679D01*
X92571110Y-37973000D01*
X92606535Y-37975636D01*
X92643636Y-37972682D01*
X92671818Y-37961889D01*
X92692243Y-37940360D01*
X92706079Y-37905199D01*
X92714491Y-37853510D01*
X92718643Y-37782394D01*
X92719703Y-37694342D01*
X92719703Y-37498614D01*
X92858020Y-37498614D01*
X92858020Y-38102179D01*
X92788862Y-38102179D01*
X92747170Y-38100489D01*
X92725701Y-38094556D01*
X92719703Y-38083293D01*
X92716091Y-38073261D01*
X92701714Y-38075383D01*
X92672736Y-38089580D01*
X92606319Y-38111480D01*
X92535875Y-38109928D01*
X92468377Y-38086147D01*
X92436233Y-38067362D01*
X92411715Y-38047022D01*
X92393804Y-38021573D01*
X92381479Y-37987458D01*
X92373723Y-37941121D01*
X92369516Y-37879007D01*
X92367840Y-37797561D01*
X92367624Y-37734578D01*
X92367624Y-37498614D01*
X92493367Y-37498614D01*
X92493367Y-37694342D01*
G36*
X93717226Y-37503880D02*
G01*
X93790080Y-37534830D01*
X93813027Y-37549895D01*
X93842354Y-37573048D01*
X93860764Y-37591253D01*
X93863961Y-37597183D01*
X93854935Y-37610340D01*
X93831837Y-37632667D01*
X93813344Y-37648250D01*
X93762728Y-37688926D01*
X93722760Y-37655295D01*
X93691874Y-37633584D01*
X93661759Y-37626090D01*
X93627292Y-37627920D01*
X93572561Y-37641528D01*
X93534886Y-37669772D01*
X93511991Y-37715433D01*
X93501597Y-37781289D01*
X93501595Y-37781331D01*
X93502494Y-37854939D01*
X93516463Y-37908946D01*
X93544328Y-37945716D01*
X93563325Y-37958168D01*
X93613776Y-37973673D01*
X93667663Y-37973683D01*
X93714546Y-37958638D01*
X93725644Y-37951287D01*
X93753476Y-37932511D01*
X93775236Y-37929434D01*
X93798704Y-37943409D01*
X93824649Y-37968510D01*
X93865716Y-38010880D01*
X93820121Y-38048464D01*
X93749674Y-38090882D01*
X93670233Y-38111785D01*
X93587215Y-38110272D01*
X93532694Y-38096411D01*
X93468970Y-38062135D01*
X93418005Y-38008212D01*
X93394851Y-37970149D01*
X93376099Y-37915536D01*
X93366715Y-37846369D01*
X93366643Y-37771407D01*
X93375824Y-37699409D01*
X93394199Y-37639137D01*
X93397093Y-37632958D01*
X93439952Y-37572351D01*
X93497979Y-37528224D01*
X93566591Y-37501493D01*
X93641201Y-37493073D01*
X93717226Y-37503880D01*
G37*
X93717226Y-37503880D02*
X93790080Y-37534830D01*
X93813027Y-37549895D01*
X93842354Y-37573048D01*
X93860764Y-37591253D01*
X93863961Y-37597183D01*
X93854935Y-37610340D01*
X93831837Y-37632667D01*
X93813344Y-37648250D01*
X93762728Y-37688926D01*
X93722760Y-37655295D01*
X93691874Y-37633584D01*
X93661759Y-37626090D01*
X93627292Y-37627920D01*
X93572561Y-37641528D01*
X93534886Y-37669772D01*
X93511991Y-37715433D01*
X93501597Y-37781289D01*
X93501595Y-37781331D01*
X93502494Y-37854939D01*
X93516463Y-37908946D01*
X93544328Y-37945716D01*
X93563325Y-37958168D01*
X93613776Y-37973673D01*
X93667663Y-37973683D01*
X93714546Y-37958638D01*
X93725644Y-37951287D01*
X93753476Y-37932511D01*
X93775236Y-37929434D01*
X93798704Y-37943409D01*
X93824649Y-37968510D01*
X93865716Y-38010880D01*
X93820121Y-38048464D01*
X93749674Y-38090882D01*
X93670233Y-38111785D01*
X93587215Y-38110272D01*
X93532694Y-38096411D01*
X93468970Y-38062135D01*
X93418005Y-38008212D01*
X93394851Y-37970149D01*
X93376099Y-37915536D01*
X93366715Y-37846369D01*
X93366643Y-37771407D01*
X93375824Y-37699409D01*
X93394199Y-37639137D01*
X93397093Y-37632958D01*
X93439952Y-37572351D01*
X93497979Y-37528224D01*
X93566591Y-37501493D01*
X93641201Y-37493073D01*
X93717226Y-37503880D01*
G36*
X94177898Y-37496457D02*
G01*
X94210096Y-37504279D01*
X94271825Y-37532921D01*
X94324610Y-37576667D01*
X94361141Y-37629117D01*
X94366160Y-37640893D01*
X94373045Y-37671740D01*
X94377864Y-37717371D01*
X94379505Y-37763492D01*
X94379505Y-37850693D01*
X94197178Y-37850693D01*
X94121979Y-37850978D01*
X94069003Y-37852704D01*
X94035325Y-37857181D01*
X94018020Y-37865720D01*
X94014163Y-37879630D01*
X94020829Y-37900222D01*
X94032770Y-37924315D01*
X94066080Y-37964525D01*
X94112368Y-37984558D01*
X94168944Y-37983905D01*
X94233031Y-37962101D01*
X94288417Y-37935193D01*
X94334375Y-37971532D01*
X94380333Y-38007872D01*
X94337096Y-38047819D01*
X94279374Y-38085563D01*
X94208386Y-38108320D01*
X94132029Y-38114688D01*
X94058199Y-38103268D01*
X94046287Y-38099393D01*
X93981399Y-38065506D01*
X93933130Y-38014986D01*
X93900465Y-37946325D01*
X93882385Y-37858014D01*
X93882175Y-37856121D01*
X93880556Y-37759878D01*
X93887100Y-37725542D01*
X94014852Y-37725542D01*
X94026584Y-37730822D01*
X94058438Y-37734867D01*
X94105397Y-37737176D01*
X94135154Y-37737525D01*
X94190648Y-37737306D01*
X94225346Y-37735916D01*
X94243601Y-37732251D01*
X94249766Y-37725210D01*
X94248195Y-37713690D01*
X94246878Y-37709233D01*
X94224382Y-37667355D01*
X94189003Y-37633604D01*
X94157780Y-37618773D01*
X94116301Y-37619668D01*
X94074269Y-37638164D01*
X94039012Y-37668786D01*
X94017854Y-37706062D01*
X94014852Y-37725542D01*
X93887100Y-37725542D01*
X93896690Y-37675229D01*
X93928698Y-37604191D01*
X93974701Y-37548779D01*
X94032821Y-37511009D01*
X94101180Y-37492896D01*
X94177898Y-37496457D01*
G37*
X94177898Y-37496457D02*
X94210096Y-37504279D01*
X94271825Y-37532921D01*
X94324610Y-37576667D01*
X94361141Y-37629117D01*
X94366160Y-37640893D01*
X94373045Y-37671740D01*
X94377864Y-37717371D01*
X94379505Y-37763492D01*
X94379505Y-37850693D01*
X94197178Y-37850693D01*
X94121979Y-37850978D01*
X94069003Y-37852704D01*
X94035325Y-37857181D01*
X94018020Y-37865720D01*
X94014163Y-37879630D01*
X94020829Y-37900222D01*
X94032770Y-37924315D01*
X94066080Y-37964525D01*
X94112368Y-37984558D01*
X94168944Y-37983905D01*
X94233031Y-37962101D01*
X94288417Y-37935193D01*
X94334375Y-37971532D01*
X94380333Y-38007872D01*
X94337096Y-38047819D01*
X94279374Y-38085563D01*
X94208386Y-38108320D01*
X94132029Y-38114688D01*
X94058199Y-38103268D01*
X94046287Y-38099393D01*
X93981399Y-38065506D01*
X93933130Y-38014986D01*
X93900465Y-37946325D01*
X93882385Y-37858014D01*
X93882175Y-37856121D01*
X93880556Y-37759878D01*
X93887100Y-37725542D01*
X94014852Y-37725542D01*
X94026584Y-37730822D01*
X94058438Y-37734867D01*
X94105397Y-37737176D01*
X94135154Y-37737525D01*
X94190648Y-37737306D01*
X94225346Y-37735916D01*
X94243601Y-37732251D01*
X94249766Y-37725210D01*
X94248195Y-37713690D01*
X94246878Y-37709233D01*
X94224382Y-37667355D01*
X94189003Y-37633604D01*
X94157780Y-37618773D01*
X94116301Y-37619668D01*
X94074269Y-37638164D01*
X94039012Y-37668786D01*
X94017854Y-37706062D01*
X94014852Y-37725542D01*
X93887100Y-37725542D01*
X93896690Y-37675229D01*
X93928698Y-37604191D01*
X93974701Y-37548779D01*
X94032821Y-37511009D01*
X94101180Y-37492896D01*
X94177898Y-37496457D01*
G36*
X90745988Y-37509002D02*
G01*
X90777283Y-37523950D01*
X90807591Y-37545541D01*
X90830682Y-37570391D01*
X90847500Y-37602087D01*
X90858994Y-37644214D01*
X90866109Y-37700358D01*
X90869793Y-37774106D01*
X90870992Y-37869044D01*
X90871011Y-37878985D01*
X90871287Y-38102179D01*
X90732970Y-38102179D01*
X90732970Y-37896418D01*
X90732872Y-37820189D01*
X90732191Y-37764939D01*
X90730349Y-37726501D01*
X90726767Y-37700706D01*
X90720868Y-37683384D01*
X90712073Y-37670368D01*
X90699820Y-37657507D01*
X90656953Y-37629873D01*
X90610157Y-37624745D01*
X90565576Y-37642217D01*
X90550072Y-37655221D01*
X90538690Y-37667447D01*
X90530519Y-37680540D01*
X90525026Y-37698615D01*
X90521680Y-37725787D01*
X90519949Y-37766170D01*
X90519303Y-37823879D01*
X90519208Y-37894132D01*
X90519208Y-38102179D01*
X90380891Y-38102179D01*
X90380891Y-37498614D01*
X90450050Y-37498614D01*
X90491572Y-37500256D01*
X90512994Y-37506087D01*
X90519205Y-37517461D01*
X90519208Y-37517798D01*
X90522090Y-37528938D01*
X90534801Y-37527674D01*
X90560074Y-37515434D01*
X90617395Y-37497424D01*
X90682963Y-37495421D01*
X90745988Y-37509002D01*
G37*
X90745988Y-37509002D02*
X90777283Y-37523950D01*
X90807591Y-37545541D01*
X90830682Y-37570391D01*
X90847500Y-37602087D01*
X90858994Y-37644214D01*
X90866109Y-37700358D01*
X90869793Y-37774106D01*
X90870992Y-37869044D01*
X90871011Y-37878985D01*
X90871287Y-38102179D01*
X90732970Y-38102179D01*
X90732970Y-37896418D01*
X90732872Y-37820189D01*
X90732191Y-37764939D01*
X90730349Y-37726501D01*
X90726767Y-37700706D01*
X90720868Y-37683384D01*
X90712073Y-37670368D01*
X90699820Y-37657507D01*
X90656953Y-37629873D01*
X90610157Y-37624745D01*
X90565576Y-37642217D01*
X90550072Y-37655221D01*
X90538690Y-37667447D01*
X90530519Y-37680540D01*
X90525026Y-37698615D01*
X90521680Y-37725787D01*
X90519949Y-37766170D01*
X90519303Y-37823879D01*
X90519208Y-37894132D01*
X90519208Y-38102179D01*
X90380891Y-38102179D01*
X90380891Y-37498614D01*
X90450050Y-37498614D01*
X90491572Y-37500256D01*
X90512994Y-37506087D01*
X90519205Y-37517461D01*
X90519208Y-37517798D01*
X90522090Y-37528938D01*
X90534801Y-37527674D01*
X90560074Y-37515434D01*
X90617395Y-37497424D01*
X90682963Y-37495421D01*
X90745988Y-37509002D01*
G36*
X93299460Y-37498030D02*
G01*
X93342711Y-37511245D01*
X93370558Y-37527941D01*
X93379629Y-37541145D01*
X93377132Y-37556797D01*
X93360931Y-37581385D01*
X93347232Y-37598800D01*
X93318992Y-37630283D01*
X93297775Y-37643529D01*
X93279688Y-37642664D01*
X93226035Y-37629010D01*
X93186630Y-37629630D01*
X93154632Y-37645104D01*
X93143890Y-37654161D01*
X93109505Y-37686027D01*
X93109505Y-38102179D01*
X92971188Y-38102179D01*
X92971188Y-37498614D01*
X93040347Y-37498614D01*
X93081869Y-37500256D01*
X93103291Y-37506087D01*
X93109502Y-37517461D01*
X93109505Y-37517798D01*
X93112439Y-37529713D01*
X93125704Y-37528159D01*
X93144084Y-37519563D01*
X93182046Y-37503568D01*
X93212872Y-37493945D01*
X93252536Y-37491478D01*
X93299460Y-37498030D01*
G37*
X93299460Y-37498030D02*
X93342711Y-37511245D01*
X93370558Y-37527941D01*
X93379629Y-37541145D01*
X93377132Y-37556797D01*
X93360931Y-37581385D01*
X93347232Y-37598800D01*
X93318992Y-37630283D01*
X93297775Y-37643529D01*
X93279688Y-37642664D01*
X93226035Y-37629010D01*
X93186630Y-37629630D01*
X93154632Y-37645104D01*
X93143890Y-37654161D01*
X93109505Y-37686027D01*
X93109505Y-38102179D01*
X92971188Y-38102179D01*
X92971188Y-37498614D01*
X93040347Y-37498614D01*
X93081869Y-37500256D01*
X93103291Y-37506087D01*
X93109502Y-37517461D01*
X93109505Y-37517798D01*
X93112439Y-37529713D01*
X93125704Y-37528159D01*
X93144084Y-37519563D01*
X93182046Y-37503568D01*
X93212872Y-37493945D01*
X93252536Y-37491478D01*
X93299460Y-37498030D01*
G36*
X91876964Y-33330018D02*
G01*
X91933812Y-33631570D01*
X92353338Y-33804512D01*
X92604984Y-33633395D01*
X92675458Y-33585750D01*
X92739163Y-33543210D01*
X92793126Y-33507715D01*
X92834373Y-33481210D01*
X92859934Y-33465636D01*
X92866895Y-33462278D01*
X92879435Y-33470914D01*
X92906231Y-33494792D01*
X92944280Y-33530859D01*
X92990579Y-33576067D01*
X93042123Y-33627364D01*
X93095909Y-33681701D01*
X93148935Y-33736028D01*
X93198195Y-33787295D01*
X93240687Y-33832451D01*
X93273407Y-33868446D01*
X93293351Y-33892230D01*
X93298119Y-33900190D01*
X93291257Y-33914865D01*
X93272020Y-33947014D01*
X93242430Y-33993492D01*
X93204510Y-34051156D01*
X93160282Y-34116860D01*
X93134654Y-34154336D01*
X93087941Y-34222768D01*
X93046432Y-34284520D01*
X93012140Y-34336519D01*
X92987080Y-34375692D01*
X92973264Y-34398965D01*
X92971188Y-34403855D01*
X92975895Y-34417755D01*
X92988723Y-34450150D01*
X93007738Y-34496485D01*
X93031003Y-34552206D01*
X93056584Y-34612758D01*
X93082545Y-34673586D01*
X93106950Y-34730136D01*
X93127863Y-34777852D01*
X93143349Y-34812181D01*
X93151472Y-34828568D01*
X93151952Y-34829212D01*
X93164707Y-34832341D01*
X93198677Y-34839321D01*
X93250340Y-34849467D01*
X93316176Y-34862092D01*
X93392664Y-34876509D01*
X93437290Y-34884823D01*
X93519021Y-34900384D01*
X93592843Y-34915192D01*
X93655021Y-34928436D01*
X93701822Y-34939305D01*
X93729509Y-34946989D01*
X93735074Y-34949427D01*
X93740526Y-34965930D01*
X93744924Y-35003200D01*
X93748272Y-35056880D01*
X93750574Y-35122612D01*
X93751832Y-35196037D01*
X93752048Y-35272796D01*
X93751227Y-35348532D01*
X93749371Y-35418886D01*
X93746482Y-35479500D01*
X93742565Y-35526016D01*
X93737622Y-35554075D01*
X93734657Y-35559916D01*
X93716934Y-35566917D01*
X93679381Y-35576927D01*
X93626964Y-35588769D01*
X93564652Y-35601267D01*
X93542900Y-35605310D01*
X93438024Y-35624520D01*
X93355180Y-35639991D01*
X93291630Y-35652337D01*
X93244637Y-35662173D01*
X93211463Y-35670114D01*
X93189371Y-35676776D01*
X93175624Y-35682773D01*
X93167484Y-35688719D01*
X93166345Y-35689894D01*
X93154977Y-35708826D01*
X93137635Y-35745669D01*
X93116050Y-35795913D01*
X93091954Y-35855046D01*
X93067079Y-35918556D01*
X93043157Y-35981932D01*
X93021919Y-36040662D01*
X93005097Y-36090235D01*
X92994422Y-36126139D01*
X92991627Y-36143862D01*
X92991860Y-36144483D01*
X93001331Y-36158970D01*
X93022818Y-36190844D01*
X93054063Y-36236789D01*
X93092807Y-36293485D01*
X93136793Y-36357617D01*
X93149319Y-36375842D01*
X93193984Y-36441914D01*
X93233288Y-36502200D01*
X93265088Y-36553235D01*
X93287245Y-36591560D01*
X93297617Y-36613711D01*
X93298119Y-36616432D01*
X93289405Y-36630736D01*
X93265325Y-36659072D01*
X93228976Y-36698396D01*
X93183453Y-36745661D01*
X93131852Y-36797823D01*
X93077267Y-36851835D01*
X93022794Y-36904653D01*
X92971529Y-36953231D01*
X92926567Y-36994523D01*
X92891004Y-37025485D01*
X92867935Y-37043070D01*
X92861554Y-37045941D01*
X92846699Y-37039178D01*
X92816286Y-37020939D01*
X92775268Y-36994297D01*
X92743709Y-36972852D01*
X92686525Y-36933503D01*
X92618806Y-36887171D01*
X92550880Y-36840913D01*
X92514361Y-36816155D01*
X92390752Y-36732547D01*
X92286991Y-36788650D01*
X92239720Y-36813228D01*
X92199523Y-36832331D01*
X92172326Y-36843227D01*
X92165402Y-36844743D01*
X92157077Y-36833549D01*
X92140654Y-36801917D01*
X92117357Y-36752765D01*
X92088414Y-36689010D01*
X92055050Y-36613571D01*
X92018491Y-36529364D01*
X91979964Y-36439308D01*
X91940694Y-36346321D01*
X91901908Y-36253320D01*
X91864830Y-36163223D01*
X91830689Y-36078948D01*
X91800708Y-36003413D01*
X91776116Y-35939534D01*
X91758136Y-35890231D01*
X91747997Y-35858421D01*
X91746366Y-35847496D01*
X91759291Y-35833561D01*
X91787589Y-35810940D01*
X91825346Y-35784333D01*
X91828515Y-35782228D01*
X91926100Y-35704114D01*
X92004786Y-35612982D01*
X92063891Y-35511745D01*
X92102732Y-35403318D01*
X92120628Y-35290614D01*
X92116897Y-35176548D01*
X92090857Y-35064034D01*
X92041825Y-34955985D01*
X92027400Y-34932345D01*
X91952369Y-34836887D01*
X91863730Y-34760232D01*
X91764549Y-34702780D01*
X91657895Y-34664929D01*
X91546836Y-34647078D01*
X91434439Y-34649625D01*
X91323773Y-34672970D01*
X91217906Y-34717510D01*
X91119905Y-34783645D01*
X91089590Y-34810487D01*
X91012438Y-34894512D01*
X90956218Y-34982966D01*
X90917653Y-35082115D01*
X90896174Y-35180303D01*
X90890872Y-35290697D01*
X90908552Y-35401640D01*
X90947419Y-35509381D01*
X91005677Y-35610169D01*
X91081531Y-35700256D01*
X91173183Y-35775892D01*
X91185228Y-35783864D01*
X91223389Y-35809974D01*
X91252399Y-35832595D01*
X91266268Y-35847039D01*
X91266469Y-35847496D01*
X91263492Y-35863121D01*
X91251689Y-35898582D01*
X91232286Y-35950962D01*
X91206512Y-36017345D01*
X91175591Y-36094814D01*
X91140751Y-36180450D01*
X91103217Y-36271337D01*
X91064217Y-36364559D01*
X91024977Y-36457197D01*
X90986724Y-36546335D01*
X90950683Y-36629055D01*
X90918083Y-36702441D01*
X90890148Y-36763575D01*
X90868105Y-36809541D01*
X90853182Y-36837421D01*
X90847172Y-36844743D01*
X90828809Y-36839041D01*
X90794448Y-36823749D01*
X90750016Y-36801599D01*
X90725583Y-36788650D01*
X90621822Y-36732547D01*
X90498213Y-36816155D01*
X90435114Y-36858987D01*
X90366030Y-36906122D01*
X90301293Y-36950503D01*
X90268866Y-36972852D01*
X90223259Y-37003477D01*
X90184640Y-37027747D01*
X90158048Y-37042587D01*
X90149410Y-37045724D01*
X90136839Y-37037261D01*
X90109016Y-37013636D01*
X90068639Y-36977302D01*
X90018405Y-36930711D01*
X89961012Y-36876317D01*
X89924714Y-36841392D01*
X89861210Y-36778996D01*
X89806327Y-36723188D01*
X89762286Y-36676354D01*
X89731305Y-36640882D01*
X89715602Y-36619161D01*
X89714095Y-36614752D01*
X89721086Y-36597985D01*
X89740406Y-36564082D01*
X89769909Y-36516476D01*
X89807455Y-36458599D01*
X89850900Y-36393884D01*
X89863255Y-36375842D01*
X89908273Y-36310267D01*
X89948660Y-36251228D01*
X89982160Y-36202042D01*
X90006514Y-36166028D01*
X90019464Y-36146502D01*
X90020715Y-36144483D01*
X90018844Y-36128922D01*
X90008913Y-36094709D01*
X89992653Y-36046355D01*
X89971795Y-35988371D01*
X89948073Y-35925270D01*
X89923216Y-35861563D01*
X89898958Y-35801761D01*
X89877029Y-35750376D01*
X89859162Y-35711919D01*
X89847087Y-35690902D01*
X89846229Y-35689894D01*
X89838846Y-35683888D01*
X89826375Y-35677948D01*
X89806080Y-35671460D01*
X89775222Y-35663809D01*
X89731066Y-35654380D01*
X89670874Y-35642559D01*
X89591907Y-35627729D01*
X89491430Y-35609277D01*
X89469675Y-35605310D01*
X89405198Y-35592853D01*
X89348989Y-35580666D01*
X89306013Y-35569926D01*
X89281240Y-35561809D01*
X89277918Y-35559916D01*
X89272444Y-35543138D01*
X89267994Y-35505645D01*
X89264572Y-35451794D01*
X89262181Y-35385944D01*
X89260823Y-35312453D01*
X89260501Y-35235680D01*
X89261219Y-35159983D01*
X89262979Y-35089720D01*
X89265784Y-35029250D01*
X89269638Y-34982930D01*
X89274543Y-34955119D01*
X89277500Y-34949427D01*
X89293963Y-34943686D01*
X89331449Y-34934345D01*
X89386225Y-34922215D01*
X89454555Y-34908107D01*
X89532706Y-34892830D01*
X89575284Y-34884823D01*
X89656071Y-34869721D01*
X89728113Y-34856040D01*
X89787889Y-34844467D01*
X89831879Y-34835687D01*
X89856561Y-34830387D01*
X89860623Y-34829212D01*
X89867489Y-34815965D01*
X89882002Y-34784057D01*
X89902229Y-34738047D01*
X89926234Y-34682492D01*
X89952082Y-34621953D01*
X89977840Y-34560986D01*
X90001573Y-34504151D01*
X90021346Y-34456006D01*
X90035224Y-34421110D01*
X90041274Y-34404021D01*
X90041386Y-34403274D01*
X90034528Y-34389793D01*
X90015302Y-34358770D01*
X89985728Y-34313289D01*
X89947827Y-34256432D01*
X89903620Y-34191283D01*
X89877921Y-34153862D01*
X89831093Y-34085247D01*
X89789501Y-34022952D01*
X89755175Y-33970129D01*
X89730143Y-33929927D01*
X89716435Y-33905500D01*
X89714456Y-33900024D01*
X89722966Y-33887278D01*
X89746493Y-33860063D01*
X89782032Y-33821428D01*
X89826577Y-33774423D01*
X89877123Y-33722095D01*
X89930664Y-33667495D01*
X89984195Y-33613670D01*
X90034711Y-33563670D01*
X90079206Y-33520543D01*
X90114675Y-33487339D01*
X90138113Y-33467106D01*
X90145954Y-33462278D01*
X90158720Y-33469067D01*
X90189256Y-33488142D01*
X90234590Y-33517561D01*
X90291756Y-33555381D01*
X90357784Y-33599661D01*
X90407590Y-33633395D01*
X90659236Y-33804512D01*
X90868999Y-33718041D01*
X91078763Y-33631570D01*
X91135611Y-33330018D01*
X91192460Y-33028466D01*
X91820115Y-33028466D01*
X91876964Y-33330018D01*
G37*
X91876964Y-33330018D02*
X91933812Y-33631570D01*
X92353338Y-33804512D01*
X92604984Y-33633395D01*
X92675458Y-33585750D01*
X92739163Y-33543210D01*
X92793126Y-33507715D01*
X92834373Y-33481210D01*
X92859934Y-33465636D01*
X92866895Y-33462278D01*
X92879435Y-33470914D01*
X92906231Y-33494792D01*
X92944280Y-33530859D01*
X92990579Y-33576067D01*
X93042123Y-33627364D01*
X93095909Y-33681701D01*
X93148935Y-33736028D01*
X93198195Y-33787295D01*
X93240687Y-33832451D01*
X93273407Y-33868446D01*
X93293351Y-33892230D01*
X93298119Y-33900190D01*
X93291257Y-33914865D01*
X93272020Y-33947014D01*
X93242430Y-33993492D01*
X93204510Y-34051156D01*
X93160282Y-34116860D01*
X93134654Y-34154336D01*
X93087941Y-34222768D01*
X93046432Y-34284520D01*
X93012140Y-34336519D01*
X92987080Y-34375692D01*
X92973264Y-34398965D01*
X92971188Y-34403855D01*
X92975895Y-34417755D01*
X92988723Y-34450150D01*
X93007738Y-34496485D01*
X93031003Y-34552206D01*
X93056584Y-34612758D01*
X93082545Y-34673586D01*
X93106950Y-34730136D01*
X93127863Y-34777852D01*
X93143349Y-34812181D01*
X93151472Y-34828568D01*
X93151952Y-34829212D01*
X93164707Y-34832341D01*
X93198677Y-34839321D01*
X93250340Y-34849467D01*
X93316176Y-34862092D01*
X93392664Y-34876509D01*
X93437290Y-34884823D01*
X93519021Y-34900384D01*
X93592843Y-34915192D01*
X93655021Y-34928436D01*
X93701822Y-34939305D01*
X93729509Y-34946989D01*
X93735074Y-34949427D01*
X93740526Y-34965930D01*
X93744924Y-35003200D01*
X93748272Y-35056880D01*
X93750574Y-35122612D01*
X93751832Y-35196037D01*
X93752048Y-35272796D01*
X93751227Y-35348532D01*
X93749371Y-35418886D01*
X93746482Y-35479500D01*
X93742565Y-35526016D01*
X93737622Y-35554075D01*
X93734657Y-35559916D01*
X93716934Y-35566917D01*
X93679381Y-35576927D01*
X93626964Y-35588769D01*
X93564652Y-35601267D01*
X93542900Y-35605310D01*
X93438024Y-35624520D01*
X93355180Y-35639991D01*
X93291630Y-35652337D01*
X93244637Y-35662173D01*
X93211463Y-35670114D01*
X93189371Y-35676776D01*
X93175624Y-35682773D01*
X93167484Y-35688719D01*
X93166345Y-35689894D01*
X93154977Y-35708826D01*
X93137635Y-35745669D01*
X93116050Y-35795913D01*
X93091954Y-35855046D01*
X93067079Y-35918556D01*
X93043157Y-35981932D01*
X93021919Y-36040662D01*
X93005097Y-36090235D01*
X92994422Y-36126139D01*
X92991627Y-36143862D01*
X92991860Y-36144483D01*
X93001331Y-36158970D01*
X93022818Y-36190844D01*
X93054063Y-36236789D01*
X93092807Y-36293485D01*
X93136793Y-36357617D01*
X93149319Y-36375842D01*
X93193984Y-36441914D01*
X93233288Y-36502200D01*
X93265088Y-36553235D01*
X93287245Y-36591560D01*
X93297617Y-36613711D01*
X93298119Y-36616432D01*
X93289405Y-36630736D01*
X93265325Y-36659072D01*
X93228976Y-36698396D01*
X93183453Y-36745661D01*
X93131852Y-36797823D01*
X93077267Y-36851835D01*
X93022794Y-36904653D01*
X92971529Y-36953231D01*
X92926567Y-36994523D01*
X92891004Y-37025485D01*
X92867935Y-37043070D01*
X92861554Y-37045941D01*
X92846699Y-37039178D01*
X92816286Y-37020939D01*
X92775268Y-36994297D01*
X92743709Y-36972852D01*
X92686525Y-36933503D01*
X92618806Y-36887171D01*
X92550880Y-36840913D01*
X92514361Y-36816155D01*
X92390752Y-36732547D01*
X92286991Y-36788650D01*
X92239720Y-36813228D01*
X92199523Y-36832331D01*
X92172326Y-36843227D01*
X92165402Y-36844743D01*
X92157077Y-36833549D01*
X92140654Y-36801917D01*
X92117357Y-36752765D01*
X92088414Y-36689010D01*
X92055050Y-36613571D01*
X92018491Y-36529364D01*
X91979964Y-36439308D01*
X91940694Y-36346321D01*
X91901908Y-36253320D01*
X91864830Y-36163223D01*
X91830689Y-36078948D01*
X91800708Y-36003413D01*
X91776116Y-35939534D01*
X91758136Y-35890231D01*
X91747997Y-35858421D01*
X91746366Y-35847496D01*
X91759291Y-35833561D01*
X91787589Y-35810940D01*
X91825346Y-35784333D01*
X91828515Y-35782228D01*
X91926100Y-35704114D01*
X92004786Y-35612982D01*
X92063891Y-35511745D01*
X92102732Y-35403318D01*
X92120628Y-35290614D01*
X92116897Y-35176548D01*
X92090857Y-35064034D01*
X92041825Y-34955985D01*
X92027400Y-34932345D01*
X91952369Y-34836887D01*
X91863730Y-34760232D01*
X91764549Y-34702780D01*
X91657895Y-34664929D01*
X91546836Y-34647078D01*
X91434439Y-34649625D01*
X91323773Y-34672970D01*
X91217906Y-34717510D01*
X91119905Y-34783645D01*
X91089590Y-34810487D01*
X91012438Y-34894512D01*
X90956218Y-34982966D01*
X90917653Y-35082115D01*
X90896174Y-35180303D01*
X90890872Y-35290697D01*
X90908552Y-35401640D01*
X90947419Y-35509381D01*
X91005677Y-35610169D01*
X91081531Y-35700256D01*
X91173183Y-35775892D01*
X91185228Y-35783864D01*
X91223389Y-35809974D01*
X91252399Y-35832595D01*
X91266268Y-35847039D01*
X91266469Y-35847496D01*
X91263492Y-35863121D01*
X91251689Y-35898582D01*
X91232286Y-35950962D01*
X91206512Y-36017345D01*
X91175591Y-36094814D01*
X91140751Y-36180450D01*
X91103217Y-36271337D01*
X91064217Y-36364559D01*
X91024977Y-36457197D01*
X90986724Y-36546335D01*
X90950683Y-36629055D01*
X90918083Y-36702441D01*
X90890148Y-36763575D01*
X90868105Y-36809541D01*
X90853182Y-36837421D01*
X90847172Y-36844743D01*
X90828809Y-36839041D01*
X90794448Y-36823749D01*
X90750016Y-36801599D01*
X90725583Y-36788650D01*
X90621822Y-36732547D01*
X90498213Y-36816155D01*
X90435114Y-36858987D01*
X90366030Y-36906122D01*
X90301293Y-36950503D01*
X90268866Y-36972852D01*
X90223259Y-37003477D01*
X90184640Y-37027747D01*
X90158048Y-37042587D01*
X90149410Y-37045724D01*
X90136839Y-37037261D01*
X90109016Y-37013636D01*
X90068639Y-36977302D01*
X90018405Y-36930711D01*
X89961012Y-36876317D01*
X89924714Y-36841392D01*
X89861210Y-36778996D01*
X89806327Y-36723188D01*
X89762286Y-36676354D01*
X89731305Y-36640882D01*
X89715602Y-36619161D01*
X89714095Y-36614752D01*
X89721086Y-36597985D01*
X89740406Y-36564082D01*
X89769909Y-36516476D01*
X89807455Y-36458599D01*
X89850900Y-36393884D01*
X89863255Y-36375842D01*
X89908273Y-36310267D01*
X89948660Y-36251228D01*
X89982160Y-36202042D01*
X90006514Y-36166028D01*
X90019464Y-36146502D01*
X90020715Y-36144483D01*
X90018844Y-36128922D01*
X90008913Y-36094709D01*
X89992653Y-36046355D01*
X89971795Y-35988371D01*
X89948073Y-35925270D01*
X89923216Y-35861563D01*
X89898958Y-35801761D01*
X89877029Y-35750376D01*
X89859162Y-35711919D01*
X89847087Y-35690902D01*
X89846229Y-35689894D01*
X89838846Y-35683888D01*
X89826375Y-35677948D01*
X89806080Y-35671460D01*
X89775222Y-35663809D01*
X89731066Y-35654380D01*
X89670874Y-35642559D01*
X89591907Y-35627729D01*
X89491430Y-35609277D01*
X89469675Y-35605310D01*
X89405198Y-35592853D01*
X89348989Y-35580666D01*
X89306013Y-35569926D01*
X89281240Y-35561809D01*
X89277918Y-35559916D01*
X89272444Y-35543138D01*
X89267994Y-35505645D01*
X89264572Y-35451794D01*
X89262181Y-35385944D01*
X89260823Y-35312453D01*
X89260501Y-35235680D01*
X89261219Y-35159983D01*
X89262979Y-35089720D01*
X89265784Y-35029250D01*
X89269638Y-34982930D01*
X89274543Y-34955119D01*
X89277500Y-34949427D01*
X89293963Y-34943686D01*
X89331449Y-34934345D01*
X89386225Y-34922215D01*
X89454555Y-34908107D01*
X89532706Y-34892830D01*
X89575284Y-34884823D01*
X89656071Y-34869721D01*
X89728113Y-34856040D01*
X89787889Y-34844467D01*
X89831879Y-34835687D01*
X89856561Y-34830387D01*
X89860623Y-34829212D01*
X89867489Y-34815965D01*
X89882002Y-34784057D01*
X89902229Y-34738047D01*
X89926234Y-34682492D01*
X89952082Y-34621953D01*
X89977840Y-34560986D01*
X90001573Y-34504151D01*
X90021346Y-34456006D01*
X90035224Y-34421110D01*
X90041274Y-34404021D01*
X90041386Y-34403274D01*
X90034528Y-34389793D01*
X90015302Y-34358770D01*
X89985728Y-34313289D01*
X89947827Y-34256432D01*
X89903620Y-34191283D01*
X89877921Y-34153862D01*
X89831093Y-34085247D01*
X89789501Y-34022952D01*
X89755175Y-33970129D01*
X89730143Y-33929927D01*
X89716435Y-33905500D01*
X89714456Y-33900024D01*
X89722966Y-33887278D01*
X89746493Y-33860063D01*
X89782032Y-33821428D01*
X89826577Y-33774423D01*
X89877123Y-33722095D01*
X89930664Y-33667495D01*
X89984195Y-33613670D01*
X90034711Y-33563670D01*
X90079206Y-33520543D01*
X90114675Y-33487339D01*
X90138113Y-33467106D01*
X90145954Y-33462278D01*
X90158720Y-33469067D01*
X90189256Y-33488142D01*
X90234590Y-33517561D01*
X90291756Y-33555381D01*
X90357784Y-33599661D01*
X90407590Y-33633395D01*
X90659236Y-33804512D01*
X90868999Y-33718041D01*
X91078763Y-33631570D01*
X91135611Y-33330018D01*
X91192460Y-33028466D01*
X91820115Y-33028466D01*
X91876964Y-33330018D01*
%TD*%
M02*
