%TF.GenerationSoftware,KiCad,Pcbnew,(5.1.6-0-10_14)*%
%TF.CreationDate,2020-07-02T17:02:21+02:00*%
%TF.ProjectId,x68k-ioboard,7836386b-2d69-46f6-926f-6172642e6b69,rev?*%
%TF.SameCoordinates,Original*%
%TF.FileFunction,Legend,Bot*%
%TF.FilePolarity,Positive*%
%FSLAX46Y46*%
G04 Gerber Fmt 4.6, Leading zero omitted, Abs format (unit mm)*
G04 Created by KiCad (PCBNEW (5.1.6-0-10_14)) date 2020-07-02 17:02:21*
%MOMM*%
%LPD*%
G01*
G04 APERTURE LIST*
%ADD10C,0.150000*%
G04 APERTURE END LIST*
D10*
X155952380Y-40801904D02*
X155952380Y-40325714D01*
X156428571Y-40278095D01*
X156380952Y-40325714D01*
X156333333Y-40420952D01*
X156333333Y-40659047D01*
X156380952Y-40754285D01*
X156428571Y-40801904D01*
X156523809Y-40849523D01*
X156761904Y-40849523D01*
X156857142Y-40801904D01*
X156904761Y-40754285D01*
X156952380Y-40659047D01*
X156952380Y-40420952D01*
X156904761Y-40325714D01*
X156857142Y-40278095D01*
X155952380Y-41182857D02*
X155952380Y-41801904D01*
X156333333Y-41468571D01*
X156333333Y-41611428D01*
X156380952Y-41706666D01*
X156428571Y-41754285D01*
X156523809Y-41801904D01*
X156761904Y-41801904D01*
X156857142Y-41754285D01*
X156904761Y-41706666D01*
X156952380Y-41611428D01*
X156952380Y-41325714D01*
X156904761Y-41230476D01*
X156857142Y-41182857D01*
X163452380Y-48301904D02*
X163452380Y-47825714D01*
X163928571Y-47778095D01*
X163880952Y-47825714D01*
X163833333Y-47920952D01*
X163833333Y-48159047D01*
X163880952Y-48254285D01*
X163928571Y-48301904D01*
X164023809Y-48349523D01*
X164261904Y-48349523D01*
X164357142Y-48301904D01*
X164404761Y-48254285D01*
X164452380Y-48159047D01*
X164452380Y-47920952D01*
X164404761Y-47825714D01*
X164357142Y-47778095D01*
X163452380Y-48968571D02*
X163452380Y-49063809D01*
X163500000Y-49159047D01*
X163547619Y-49206666D01*
X163642857Y-49254285D01*
X163833333Y-49301904D01*
X164071428Y-49301904D01*
X164261904Y-49254285D01*
X164357142Y-49206666D01*
X164404761Y-49159047D01*
X164452380Y-49063809D01*
X164452380Y-48968571D01*
X164404761Y-48873333D01*
X164357142Y-48825714D01*
X164261904Y-48778095D01*
X164071428Y-48730476D01*
X163833333Y-48730476D01*
X163642857Y-48778095D01*
X163547619Y-48825714D01*
X163500000Y-48873333D01*
X163452380Y-48968571D01*
X163785714Y-61254285D02*
X164452380Y-61254285D01*
X163404761Y-61016190D02*
X164119047Y-60778095D01*
X164119047Y-61397142D01*
X163452380Y-62254285D02*
X163452380Y-61778095D01*
X163928571Y-61730476D01*
X163880952Y-61778095D01*
X163833333Y-61873333D01*
X163833333Y-62111428D01*
X163880952Y-62206666D01*
X163928571Y-62254285D01*
X164023809Y-62301904D01*
X164261904Y-62301904D01*
X164357142Y-62254285D01*
X164404761Y-62206666D01*
X164452380Y-62111428D01*
X164452380Y-61873333D01*
X164404761Y-61778095D01*
X164357142Y-61730476D01*
X163785714Y-73754285D02*
X164452380Y-73754285D01*
X163404761Y-73516190D02*
X164119047Y-73278095D01*
X164119047Y-73897142D01*
X163452380Y-74468571D02*
X163452380Y-74563809D01*
X163500000Y-74659047D01*
X163547619Y-74706666D01*
X163642857Y-74754285D01*
X163833333Y-74801904D01*
X164071428Y-74801904D01*
X164261904Y-74754285D01*
X164357142Y-74706666D01*
X164404761Y-74659047D01*
X164452380Y-74563809D01*
X164452380Y-74468571D01*
X164404761Y-74373333D01*
X164357142Y-74325714D01*
X164261904Y-74278095D01*
X164071428Y-74230476D01*
X163833333Y-74230476D01*
X163642857Y-74278095D01*
X163547619Y-74325714D01*
X163500000Y-74373333D01*
X163452380Y-74468571D01*
X163452380Y-85730476D02*
X163452380Y-86349523D01*
X163833333Y-86016190D01*
X163833333Y-86159047D01*
X163880952Y-86254285D01*
X163928571Y-86301904D01*
X164023809Y-86349523D01*
X164261904Y-86349523D01*
X164357142Y-86301904D01*
X164404761Y-86254285D01*
X164452380Y-86159047D01*
X164452380Y-85873333D01*
X164404761Y-85778095D01*
X164357142Y-85730476D01*
X163452380Y-87254285D02*
X163452380Y-86778095D01*
X163928571Y-86730476D01*
X163880952Y-86778095D01*
X163833333Y-86873333D01*
X163833333Y-87111428D01*
X163880952Y-87206666D01*
X163928571Y-87254285D01*
X164023809Y-87301904D01*
X164261904Y-87301904D01*
X164357142Y-87254285D01*
X164404761Y-87206666D01*
X164452380Y-87111428D01*
X164452380Y-86873333D01*
X164404761Y-86778095D01*
X164357142Y-86730476D01*
X163452380Y-98730476D02*
X163452380Y-99349523D01*
X163833333Y-99016190D01*
X163833333Y-99159047D01*
X163880952Y-99254285D01*
X163928571Y-99301904D01*
X164023809Y-99349523D01*
X164261904Y-99349523D01*
X164357142Y-99301904D01*
X164404761Y-99254285D01*
X164452380Y-99159047D01*
X164452380Y-98873333D01*
X164404761Y-98778095D01*
X164357142Y-98730476D01*
X163452380Y-99968571D02*
X163452380Y-100063809D01*
X163500000Y-100159047D01*
X163547619Y-100206666D01*
X163642857Y-100254285D01*
X163833333Y-100301904D01*
X164071428Y-100301904D01*
X164261904Y-100254285D01*
X164357142Y-100206666D01*
X164404761Y-100159047D01*
X164452380Y-100063809D01*
X164452380Y-99968571D01*
X164404761Y-99873333D01*
X164357142Y-99825714D01*
X164261904Y-99778095D01*
X164071428Y-99730476D01*
X163833333Y-99730476D01*
X163642857Y-99778095D01*
X163547619Y-99825714D01*
X163500000Y-99873333D01*
X163452380Y-99968571D01*
X163547619Y-111278095D02*
X163500000Y-111325714D01*
X163452380Y-111420952D01*
X163452380Y-111659047D01*
X163500000Y-111754285D01*
X163547619Y-111801904D01*
X163642857Y-111849523D01*
X163738095Y-111849523D01*
X163880952Y-111801904D01*
X164452380Y-111230476D01*
X164452380Y-111849523D01*
X163452380Y-112754285D02*
X163452380Y-112278095D01*
X163928571Y-112230476D01*
X163880952Y-112278095D01*
X163833333Y-112373333D01*
X163833333Y-112611428D01*
X163880952Y-112706666D01*
X163928571Y-112754285D01*
X164023809Y-112801904D01*
X164261904Y-112801904D01*
X164357142Y-112754285D01*
X164404761Y-112706666D01*
X164452380Y-112611428D01*
X164452380Y-112373333D01*
X164404761Y-112278095D01*
X164357142Y-112230476D01*
X163547619Y-124278095D02*
X163500000Y-124325714D01*
X163452380Y-124420952D01*
X163452380Y-124659047D01*
X163500000Y-124754285D01*
X163547619Y-124801904D01*
X163642857Y-124849523D01*
X163738095Y-124849523D01*
X163880952Y-124801904D01*
X164452380Y-124230476D01*
X164452380Y-124849523D01*
X163452380Y-125468571D02*
X163452380Y-125563809D01*
X163500000Y-125659047D01*
X163547619Y-125706666D01*
X163642857Y-125754285D01*
X163833333Y-125801904D01*
X164071428Y-125801904D01*
X164261904Y-125754285D01*
X164357142Y-125706666D01*
X164404761Y-125659047D01*
X164452380Y-125563809D01*
X164452380Y-125468571D01*
X164404761Y-125373333D01*
X164357142Y-125325714D01*
X164261904Y-125278095D01*
X164071428Y-125230476D01*
X163833333Y-125230476D01*
X163642857Y-125278095D01*
X163547619Y-125325714D01*
X163500000Y-125373333D01*
X163452380Y-125468571D01*
X164452380Y-137349523D02*
X164452380Y-136778095D01*
X164452380Y-137063809D02*
X163452380Y-137063809D01*
X163595238Y-136968571D01*
X163690476Y-136873333D01*
X163738095Y-136778095D01*
X163452380Y-138254285D02*
X163452380Y-137778095D01*
X163928571Y-137730476D01*
X163880952Y-137778095D01*
X163833333Y-137873333D01*
X163833333Y-138111428D01*
X163880952Y-138206666D01*
X163928571Y-138254285D01*
X164023809Y-138301904D01*
X164261904Y-138301904D01*
X164357142Y-138254285D01*
X164404761Y-138206666D01*
X164452380Y-138111428D01*
X164452380Y-137873333D01*
X164404761Y-137778095D01*
X164357142Y-137730476D01*
X164452380Y-149849523D02*
X164452380Y-149278095D01*
X164452380Y-149563809D02*
X163452380Y-149563809D01*
X163595238Y-149468571D01*
X163690476Y-149373333D01*
X163738095Y-149278095D01*
X163452380Y-150468571D02*
X163452380Y-150563809D01*
X163500000Y-150659047D01*
X163547619Y-150706666D01*
X163642857Y-150754285D01*
X163833333Y-150801904D01*
X164071428Y-150801904D01*
X164261904Y-150754285D01*
X164357142Y-150706666D01*
X164404761Y-150659047D01*
X164452380Y-150563809D01*
X164452380Y-150468571D01*
X164404761Y-150373333D01*
X164357142Y-150325714D01*
X164261904Y-150278095D01*
X164071428Y-150230476D01*
X163833333Y-150230476D01*
X163642857Y-150278095D01*
X163547619Y-150325714D01*
X163500000Y-150373333D01*
X163452380Y-150468571D01*
X164952380Y-161778095D02*
X164952380Y-161301904D01*
X165428571Y-161254285D01*
X165380952Y-161301904D01*
X165333333Y-161397142D01*
X165333333Y-161635238D01*
X165380952Y-161730476D01*
X165428571Y-161778095D01*
X165523809Y-161825714D01*
X165761904Y-161825714D01*
X165857142Y-161778095D01*
X165904761Y-161730476D01*
X165952380Y-161635238D01*
X165952380Y-161397142D01*
X165904761Y-161301904D01*
X165857142Y-161254285D01*
X156952380Y-173325714D02*
X156952380Y-172754285D01*
X156952380Y-173040000D02*
X155952380Y-173040000D01*
X156095238Y-172944761D01*
X156190476Y-172849523D01*
X156238095Y-172754285D01*
X47785714Y-35754285D02*
X48452380Y-35754285D01*
X47404761Y-35516190D02*
X48119047Y-35278095D01*
X48119047Y-35897142D01*
X47452380Y-36754285D02*
X47452380Y-36278095D01*
X47928571Y-36230476D01*
X47880952Y-36278095D01*
X47833333Y-36373333D01*
X47833333Y-36611428D01*
X47880952Y-36706666D01*
X47928571Y-36754285D01*
X48023809Y-36801904D01*
X48261904Y-36801904D01*
X48357142Y-36754285D01*
X48404761Y-36706666D01*
X48452380Y-36611428D01*
X48452380Y-36373333D01*
X48404761Y-36278095D01*
X48357142Y-36230476D01*
X60285714Y-35754285D02*
X60952380Y-35754285D01*
X59904761Y-35516190D02*
X60619047Y-35278095D01*
X60619047Y-35897142D01*
X59952380Y-36468571D02*
X59952380Y-36563809D01*
X60000000Y-36659047D01*
X60047619Y-36706666D01*
X60142857Y-36754285D01*
X60333333Y-36801904D01*
X60571428Y-36801904D01*
X60761904Y-36754285D01*
X60857142Y-36706666D01*
X60904761Y-36659047D01*
X60952380Y-36563809D01*
X60952380Y-36468571D01*
X60904761Y-36373333D01*
X60857142Y-36325714D01*
X60761904Y-36278095D01*
X60571428Y-36230476D01*
X60333333Y-36230476D01*
X60142857Y-36278095D01*
X60047619Y-36325714D01*
X60000000Y-36373333D01*
X59952380Y-36468571D01*
X72452380Y-35230476D02*
X72452380Y-35849523D01*
X72833333Y-35516190D01*
X72833333Y-35659047D01*
X72880952Y-35754285D01*
X72928571Y-35801904D01*
X73023809Y-35849523D01*
X73261904Y-35849523D01*
X73357142Y-35801904D01*
X73404761Y-35754285D01*
X73452380Y-35659047D01*
X73452380Y-35373333D01*
X73404761Y-35278095D01*
X73357142Y-35230476D01*
X72452380Y-36754285D02*
X72452380Y-36278095D01*
X72928571Y-36230476D01*
X72880952Y-36278095D01*
X72833333Y-36373333D01*
X72833333Y-36611428D01*
X72880952Y-36706666D01*
X72928571Y-36754285D01*
X73023809Y-36801904D01*
X73261904Y-36801904D01*
X73357142Y-36754285D01*
X73404761Y-36706666D01*
X73452380Y-36611428D01*
X73452380Y-36373333D01*
X73404761Y-36278095D01*
X73357142Y-36230476D01*
X85452380Y-35230476D02*
X85452380Y-35849523D01*
X85833333Y-35516190D01*
X85833333Y-35659047D01*
X85880952Y-35754285D01*
X85928571Y-35801904D01*
X86023809Y-35849523D01*
X86261904Y-35849523D01*
X86357142Y-35801904D01*
X86404761Y-35754285D01*
X86452380Y-35659047D01*
X86452380Y-35373333D01*
X86404761Y-35278095D01*
X86357142Y-35230476D01*
X85452380Y-36468571D02*
X85452380Y-36563809D01*
X85500000Y-36659047D01*
X85547619Y-36706666D01*
X85642857Y-36754285D01*
X85833333Y-36801904D01*
X86071428Y-36801904D01*
X86261904Y-36754285D01*
X86357142Y-36706666D01*
X86404761Y-36659047D01*
X86452380Y-36563809D01*
X86452380Y-36468571D01*
X86404761Y-36373333D01*
X86357142Y-36325714D01*
X86261904Y-36278095D01*
X86071428Y-36230476D01*
X85833333Y-36230476D01*
X85642857Y-36278095D01*
X85547619Y-36325714D01*
X85500000Y-36373333D01*
X85452380Y-36468571D01*
X98047619Y-35278095D02*
X98000000Y-35325714D01*
X97952380Y-35420952D01*
X97952380Y-35659047D01*
X98000000Y-35754285D01*
X98047619Y-35801904D01*
X98142857Y-35849523D01*
X98238095Y-35849523D01*
X98380952Y-35801904D01*
X98952380Y-35230476D01*
X98952380Y-35849523D01*
X97952380Y-36754285D02*
X97952380Y-36278095D01*
X98428571Y-36230476D01*
X98380952Y-36278095D01*
X98333333Y-36373333D01*
X98333333Y-36611428D01*
X98380952Y-36706666D01*
X98428571Y-36754285D01*
X98523809Y-36801904D01*
X98761904Y-36801904D01*
X98857142Y-36754285D01*
X98904761Y-36706666D01*
X98952380Y-36611428D01*
X98952380Y-36373333D01*
X98904761Y-36278095D01*
X98857142Y-36230476D01*
X111047619Y-35278095D02*
X111000000Y-35325714D01*
X110952380Y-35420952D01*
X110952380Y-35659047D01*
X111000000Y-35754285D01*
X111047619Y-35801904D01*
X111142857Y-35849523D01*
X111238095Y-35849523D01*
X111380952Y-35801904D01*
X111952380Y-35230476D01*
X111952380Y-35849523D01*
X110952380Y-36468571D02*
X110952380Y-36563809D01*
X111000000Y-36659047D01*
X111047619Y-36706666D01*
X111142857Y-36754285D01*
X111333333Y-36801904D01*
X111571428Y-36801904D01*
X111761904Y-36754285D01*
X111857142Y-36706666D01*
X111904761Y-36659047D01*
X111952380Y-36563809D01*
X111952380Y-36468571D01*
X111904761Y-36373333D01*
X111857142Y-36325714D01*
X111761904Y-36278095D01*
X111571428Y-36230476D01*
X111333333Y-36230476D01*
X111142857Y-36278095D01*
X111047619Y-36325714D01*
X111000000Y-36373333D01*
X110952380Y-36468571D01*
X124452380Y-35849523D02*
X124452380Y-35278095D01*
X124452380Y-35563809D02*
X123452380Y-35563809D01*
X123595238Y-35468571D01*
X123690476Y-35373333D01*
X123738095Y-35278095D01*
X123452380Y-36754285D02*
X123452380Y-36278095D01*
X123928571Y-36230476D01*
X123880952Y-36278095D01*
X123833333Y-36373333D01*
X123833333Y-36611428D01*
X123880952Y-36706666D01*
X123928571Y-36754285D01*
X124023809Y-36801904D01*
X124261904Y-36801904D01*
X124357142Y-36754285D01*
X124404761Y-36706666D01*
X124452380Y-36611428D01*
X124452380Y-36373333D01*
X124404761Y-36278095D01*
X124357142Y-36230476D01*
X136952380Y-35849523D02*
X136952380Y-35278095D01*
X136952380Y-35563809D02*
X135952380Y-35563809D01*
X136095238Y-35468571D01*
X136190476Y-35373333D01*
X136238095Y-35278095D01*
X135952380Y-36468571D02*
X135952380Y-36563809D01*
X136000000Y-36659047D01*
X136047619Y-36706666D01*
X136142857Y-36754285D01*
X136333333Y-36801904D01*
X136571428Y-36801904D01*
X136761904Y-36754285D01*
X136857142Y-36706666D01*
X136904761Y-36659047D01*
X136952380Y-36563809D01*
X136952380Y-36468571D01*
X136904761Y-36373333D01*
X136857142Y-36325714D01*
X136761904Y-36278095D01*
X136571428Y-36230476D01*
X136333333Y-36230476D01*
X136142857Y-36278095D01*
X136047619Y-36325714D01*
X136000000Y-36373333D01*
X135952380Y-36468571D01*
X148952380Y-36778095D02*
X148952380Y-36301904D01*
X149428571Y-36254285D01*
X149380952Y-36301904D01*
X149333333Y-36397142D01*
X149333333Y-36635238D01*
X149380952Y-36730476D01*
X149428571Y-36778095D01*
X149523809Y-36825714D01*
X149761904Y-36825714D01*
X149857142Y-36778095D01*
X149904761Y-36730476D01*
X149952380Y-36635238D01*
X149952380Y-36397142D01*
X149904761Y-36301904D01*
X149857142Y-36254285D01*
X159952380Y-44325714D02*
X159952380Y-43754285D01*
X159952380Y-44040000D02*
X158952380Y-44040000D01*
X159095238Y-43944761D01*
X159190476Y-43849523D01*
X159238095Y-43754285D01*
X163000000Y-167778095D02*
X162952380Y-167682857D01*
X162952380Y-167540000D01*
X163000000Y-167397142D01*
X163095238Y-167301904D01*
X163190476Y-167254285D01*
X163380952Y-167206666D01*
X163523809Y-167206666D01*
X163714285Y-167254285D01*
X163809523Y-167301904D01*
X163904761Y-167397142D01*
X163952380Y-167540000D01*
X163952380Y-167635238D01*
X163904761Y-167778095D01*
X163857142Y-167825714D01*
X163523809Y-167825714D01*
X163523809Y-167635238D01*
X163952380Y-168254285D02*
X162952380Y-168254285D01*
X163952380Y-168825714D01*
X162952380Y-168825714D01*
X163952380Y-169301904D02*
X162952380Y-169301904D01*
X162952380Y-169540000D01*
X163000000Y-169682857D01*
X163095238Y-169778095D01*
X163190476Y-169825714D01*
X163380952Y-169873333D01*
X163523809Y-169873333D01*
X163714285Y-169825714D01*
X163809523Y-169778095D01*
X163904761Y-169682857D01*
X163952380Y-169540000D01*
X163952380Y-169301904D01*
X162952380Y-158706666D02*
X163952380Y-159040000D01*
X162952380Y-159373333D01*
X163857142Y-160278095D02*
X163904761Y-160230476D01*
X163952380Y-160087619D01*
X163952380Y-159992380D01*
X163904761Y-159849523D01*
X163809523Y-159754285D01*
X163714285Y-159706666D01*
X163523809Y-159659047D01*
X163380952Y-159659047D01*
X163190476Y-159706666D01*
X163095238Y-159754285D01*
X163000000Y-159849523D01*
X162952380Y-159992380D01*
X162952380Y-160087619D01*
X163000000Y-160230476D01*
X163047619Y-160278095D01*
X163857142Y-161278095D02*
X163904761Y-161230476D01*
X163952380Y-161087619D01*
X163952380Y-160992380D01*
X163904761Y-160849523D01*
X163809523Y-160754285D01*
X163714285Y-160706666D01*
X163523809Y-160659047D01*
X163380952Y-160659047D01*
X163190476Y-160706666D01*
X163095238Y-160754285D01*
X163000000Y-160849523D01*
X162952380Y-160992380D01*
X162952380Y-161087619D01*
X163000000Y-161230476D01*
X163047619Y-161278095D01*
X44500000Y-159278095D02*
X44452380Y-159182857D01*
X44452380Y-159040000D01*
X44500000Y-158897142D01*
X44595238Y-158801904D01*
X44690476Y-158754285D01*
X44880952Y-158706666D01*
X45023809Y-158706666D01*
X45214285Y-158754285D01*
X45309523Y-158801904D01*
X45404761Y-158897142D01*
X45452380Y-159040000D01*
X45452380Y-159135238D01*
X45404761Y-159278095D01*
X45357142Y-159325714D01*
X45023809Y-159325714D01*
X45023809Y-159135238D01*
X45452380Y-159754285D02*
X44452380Y-159754285D01*
X45452380Y-160325714D01*
X44452380Y-160325714D01*
X45452380Y-160801904D02*
X44452380Y-160801904D01*
X44452380Y-161040000D01*
X44500000Y-161182857D01*
X44595238Y-161278095D01*
X44690476Y-161325714D01*
X44880952Y-161373333D01*
X45023809Y-161373333D01*
X45214285Y-161325714D01*
X45309523Y-161278095D01*
X45404761Y-161182857D01*
X45452380Y-161040000D01*
X45452380Y-160801904D01*
X44500000Y-50778095D02*
X44452380Y-50682857D01*
X44452380Y-50540000D01*
X44500000Y-50397142D01*
X44595238Y-50301904D01*
X44690476Y-50254285D01*
X44880952Y-50206666D01*
X45023809Y-50206666D01*
X45214285Y-50254285D01*
X45309523Y-50301904D01*
X45404761Y-50397142D01*
X45452380Y-50540000D01*
X45452380Y-50635238D01*
X45404761Y-50778095D01*
X45357142Y-50825714D01*
X45023809Y-50825714D01*
X45023809Y-50635238D01*
X45452380Y-51254285D02*
X44452380Y-51254285D01*
X45452380Y-51825714D01*
X44452380Y-51825714D01*
X45452380Y-52301904D02*
X44452380Y-52301904D01*
X44452380Y-52540000D01*
X44500000Y-52682857D01*
X44595238Y-52778095D01*
X44690476Y-52825714D01*
X44880952Y-52873333D01*
X45023809Y-52873333D01*
X45214285Y-52825714D01*
X45309523Y-52778095D01*
X45404761Y-52682857D01*
X45452380Y-52540000D01*
X45452380Y-52301904D01*
X44452380Y-36706666D02*
X45452380Y-37040000D01*
X44452380Y-37373333D01*
X45357142Y-38278095D02*
X45404761Y-38230476D01*
X45452380Y-38087619D01*
X45452380Y-37992380D01*
X45404761Y-37849523D01*
X45309523Y-37754285D01*
X45214285Y-37706666D01*
X45023809Y-37659047D01*
X44880952Y-37659047D01*
X44690476Y-37706666D01*
X44595238Y-37754285D01*
X44500000Y-37849523D01*
X44452380Y-37992380D01*
X44452380Y-38087619D01*
X44500000Y-38230476D01*
X44547619Y-38278095D01*
X45357142Y-39278095D02*
X45404761Y-39230476D01*
X45452380Y-39087619D01*
X45452380Y-38992380D01*
X45404761Y-38849523D01*
X45309523Y-38754285D01*
X45214285Y-38706666D01*
X45023809Y-38659047D01*
X44880952Y-38659047D01*
X44690476Y-38706666D01*
X44595238Y-38754285D01*
X44500000Y-38849523D01*
X44452380Y-38992380D01*
X44452380Y-39087619D01*
X44500000Y-39230476D01*
X44547619Y-39278095D01*
X39928571Y-37159047D02*
X39976190Y-37301904D01*
X40023809Y-37349523D01*
X40119047Y-37397142D01*
X40261904Y-37397142D01*
X40357142Y-37349523D01*
X40404761Y-37301904D01*
X40452380Y-37206666D01*
X40452380Y-36825714D01*
X39452380Y-36825714D01*
X39452380Y-37159047D01*
X39500000Y-37254285D01*
X39547619Y-37301904D01*
X39642857Y-37349523D01*
X39738095Y-37349523D01*
X39833333Y-37301904D01*
X39880952Y-37254285D01*
X39928571Y-37159047D01*
X39928571Y-36825714D01*
X39452380Y-38301904D02*
X39452380Y-37825714D01*
X39928571Y-37778095D01*
X39880952Y-37825714D01*
X39833333Y-37920952D01*
X39833333Y-38159047D01*
X39880952Y-38254285D01*
X39928571Y-38301904D01*
X40023809Y-38349523D01*
X40261904Y-38349523D01*
X40357142Y-38301904D01*
X40404761Y-38254285D01*
X40452380Y-38159047D01*
X40452380Y-37920952D01*
X40404761Y-37825714D01*
X40357142Y-37778095D01*
X39452380Y-38968571D02*
X39452380Y-39063809D01*
X39500000Y-39159047D01*
X39547619Y-39206666D01*
X39642857Y-39254285D01*
X39833333Y-39301904D01*
X40071428Y-39301904D01*
X40261904Y-39254285D01*
X40357142Y-39206666D01*
X40404761Y-39159047D01*
X40452380Y-39063809D01*
X40452380Y-38968571D01*
X40404761Y-38873333D01*
X40357142Y-38825714D01*
X40261904Y-38778095D01*
X40071428Y-38730476D01*
X39833333Y-38730476D01*
X39642857Y-38778095D01*
X39547619Y-38825714D01*
X39500000Y-38873333D01*
X39452380Y-38968571D01*
X37666666Y-36849523D02*
X37666666Y-37325714D01*
X37952380Y-36754285D02*
X36952380Y-37087619D01*
X37952380Y-37420952D01*
X36952380Y-38230476D02*
X36952380Y-37754285D01*
X37428571Y-37706666D01*
X37380952Y-37754285D01*
X37333333Y-37849523D01*
X37333333Y-38087619D01*
X37380952Y-38182857D01*
X37428571Y-38230476D01*
X37523809Y-38278095D01*
X37761904Y-38278095D01*
X37857142Y-38230476D01*
X37904761Y-38182857D01*
X37952380Y-38087619D01*
X37952380Y-37849523D01*
X37904761Y-37754285D01*
X37857142Y-37706666D01*
X36952380Y-38897142D02*
X36952380Y-38992380D01*
X37000000Y-39087619D01*
X37047619Y-39135238D01*
X37142857Y-39182857D01*
X37333333Y-39230476D01*
X37571428Y-39230476D01*
X37761904Y-39182857D01*
X37857142Y-39135238D01*
X37904761Y-39087619D01*
X37952380Y-38992380D01*
X37952380Y-38897142D01*
X37904761Y-38801904D01*
X37857142Y-38754285D01*
X37761904Y-38706666D01*
X37571428Y-38659047D01*
X37333333Y-38659047D01*
X37142857Y-38706666D01*
X37047619Y-38754285D01*
X37000000Y-38801904D01*
X36952380Y-38897142D01*
X42285714Y-53254285D02*
X42952380Y-53254285D01*
X41904761Y-53016190D02*
X42619047Y-52778095D01*
X42619047Y-53397142D01*
X41952380Y-54254285D02*
X41952380Y-53778095D01*
X42428571Y-53730476D01*
X42380952Y-53778095D01*
X42333333Y-53873333D01*
X42333333Y-54111428D01*
X42380952Y-54206666D01*
X42428571Y-54254285D01*
X42523809Y-54301904D01*
X42761904Y-54301904D01*
X42857142Y-54254285D01*
X42904761Y-54206666D01*
X42952380Y-54111428D01*
X42952380Y-53873333D01*
X42904761Y-53778095D01*
X42857142Y-53730476D01*
X42285714Y-66254285D02*
X42952380Y-66254285D01*
X41904761Y-66016190D02*
X42619047Y-65778095D01*
X42619047Y-66397142D01*
X41952380Y-66968571D02*
X41952380Y-67063809D01*
X42000000Y-67159047D01*
X42047619Y-67206666D01*
X42142857Y-67254285D01*
X42333333Y-67301904D01*
X42571428Y-67301904D01*
X42761904Y-67254285D01*
X42857142Y-67206666D01*
X42904761Y-67159047D01*
X42952380Y-67063809D01*
X42952380Y-66968571D01*
X42904761Y-66873333D01*
X42857142Y-66825714D01*
X42761904Y-66778095D01*
X42571428Y-66730476D01*
X42333333Y-66730476D01*
X42142857Y-66778095D01*
X42047619Y-66825714D01*
X42000000Y-66873333D01*
X41952380Y-66968571D01*
X41952380Y-78230476D02*
X41952380Y-78849523D01*
X42333333Y-78516190D01*
X42333333Y-78659047D01*
X42380952Y-78754285D01*
X42428571Y-78801904D01*
X42523809Y-78849523D01*
X42761904Y-78849523D01*
X42857142Y-78801904D01*
X42904761Y-78754285D01*
X42952380Y-78659047D01*
X42952380Y-78373333D01*
X42904761Y-78278095D01*
X42857142Y-78230476D01*
X41952380Y-79754285D02*
X41952380Y-79278095D01*
X42428571Y-79230476D01*
X42380952Y-79278095D01*
X42333333Y-79373333D01*
X42333333Y-79611428D01*
X42380952Y-79706666D01*
X42428571Y-79754285D01*
X42523809Y-79801904D01*
X42761904Y-79801904D01*
X42857142Y-79754285D01*
X42904761Y-79706666D01*
X42952380Y-79611428D01*
X42952380Y-79373333D01*
X42904761Y-79278095D01*
X42857142Y-79230476D01*
X41952380Y-91230476D02*
X41952380Y-91849523D01*
X42333333Y-91516190D01*
X42333333Y-91659047D01*
X42380952Y-91754285D01*
X42428571Y-91801904D01*
X42523809Y-91849523D01*
X42761904Y-91849523D01*
X42857142Y-91801904D01*
X42904761Y-91754285D01*
X42952380Y-91659047D01*
X42952380Y-91373333D01*
X42904761Y-91278095D01*
X42857142Y-91230476D01*
X41952380Y-92468571D02*
X41952380Y-92563809D01*
X42000000Y-92659047D01*
X42047619Y-92706666D01*
X42142857Y-92754285D01*
X42333333Y-92801904D01*
X42571428Y-92801904D01*
X42761904Y-92754285D01*
X42857142Y-92706666D01*
X42904761Y-92659047D01*
X42952380Y-92563809D01*
X42952380Y-92468571D01*
X42904761Y-92373333D01*
X42857142Y-92325714D01*
X42761904Y-92278095D01*
X42571428Y-92230476D01*
X42333333Y-92230476D01*
X42142857Y-92278095D01*
X42047619Y-92325714D01*
X42000000Y-92373333D01*
X41952380Y-92468571D01*
X42047619Y-103778095D02*
X42000000Y-103825714D01*
X41952380Y-103920952D01*
X41952380Y-104159047D01*
X42000000Y-104254285D01*
X42047619Y-104301904D01*
X42142857Y-104349523D01*
X42238095Y-104349523D01*
X42380952Y-104301904D01*
X42952380Y-103730476D01*
X42952380Y-104349523D01*
X41952380Y-105254285D02*
X41952380Y-104778095D01*
X42428571Y-104730476D01*
X42380952Y-104778095D01*
X42333333Y-104873333D01*
X42333333Y-105111428D01*
X42380952Y-105206666D01*
X42428571Y-105254285D01*
X42523809Y-105301904D01*
X42761904Y-105301904D01*
X42857142Y-105254285D01*
X42904761Y-105206666D01*
X42952380Y-105111428D01*
X42952380Y-104873333D01*
X42904761Y-104778095D01*
X42857142Y-104730476D01*
X42047619Y-116778095D02*
X42000000Y-116825714D01*
X41952380Y-116920952D01*
X41952380Y-117159047D01*
X42000000Y-117254285D01*
X42047619Y-117301904D01*
X42142857Y-117349523D01*
X42238095Y-117349523D01*
X42380952Y-117301904D01*
X42952380Y-116730476D01*
X42952380Y-117349523D01*
X41952380Y-117968571D02*
X41952380Y-118063809D01*
X42000000Y-118159047D01*
X42047619Y-118206666D01*
X42142857Y-118254285D01*
X42333333Y-118301904D01*
X42571428Y-118301904D01*
X42761904Y-118254285D01*
X42857142Y-118206666D01*
X42904761Y-118159047D01*
X42952380Y-118063809D01*
X42952380Y-117968571D01*
X42904761Y-117873333D01*
X42857142Y-117825714D01*
X42761904Y-117778095D01*
X42571428Y-117730476D01*
X42333333Y-117730476D01*
X42142857Y-117778095D01*
X42047619Y-117825714D01*
X42000000Y-117873333D01*
X41952380Y-117968571D01*
X42952380Y-129849523D02*
X42952380Y-129278095D01*
X42952380Y-129563809D02*
X41952380Y-129563809D01*
X42095238Y-129468571D01*
X42190476Y-129373333D01*
X42238095Y-129278095D01*
X41952380Y-130754285D02*
X41952380Y-130278095D01*
X42428571Y-130230476D01*
X42380952Y-130278095D01*
X42333333Y-130373333D01*
X42333333Y-130611428D01*
X42380952Y-130706666D01*
X42428571Y-130754285D01*
X42523809Y-130801904D01*
X42761904Y-130801904D01*
X42857142Y-130754285D01*
X42904761Y-130706666D01*
X42952380Y-130611428D01*
X42952380Y-130373333D01*
X42904761Y-130278095D01*
X42857142Y-130230476D01*
X42952380Y-142349523D02*
X42952380Y-141778095D01*
X42952380Y-142063809D02*
X41952380Y-142063809D01*
X42095238Y-141968571D01*
X42190476Y-141873333D01*
X42238095Y-141778095D01*
X41952380Y-142968571D02*
X41952380Y-143063809D01*
X42000000Y-143159047D01*
X42047619Y-143206666D01*
X42142857Y-143254285D01*
X42333333Y-143301904D01*
X42571428Y-143301904D01*
X42761904Y-143254285D01*
X42857142Y-143206666D01*
X42904761Y-143159047D01*
X42952380Y-143063809D01*
X42952380Y-142968571D01*
X42904761Y-142873333D01*
X42857142Y-142825714D01*
X42761904Y-142778095D01*
X42571428Y-142730476D01*
X42333333Y-142730476D01*
X42142857Y-142778095D01*
X42047619Y-142825714D01*
X42000000Y-142873333D01*
X41952380Y-142968571D01*
X41952380Y-155778095D02*
X41952380Y-155301904D01*
X42428571Y-155254285D01*
X42380952Y-155301904D01*
X42333333Y-155397142D01*
X42333333Y-155635238D01*
X42380952Y-155730476D01*
X42428571Y-155778095D01*
X42523809Y-155825714D01*
X42761904Y-155825714D01*
X42857142Y-155778095D01*
X42904761Y-155730476D01*
X42952380Y-155635238D01*
X42952380Y-155397142D01*
X42904761Y-155301904D01*
X42857142Y-155254285D01*
X39928571Y-167635238D02*
X39976190Y-167778095D01*
X40023809Y-167825714D01*
X40119047Y-167873333D01*
X40261904Y-167873333D01*
X40357142Y-167825714D01*
X40404761Y-167778095D01*
X40452380Y-167682857D01*
X40452380Y-167301904D01*
X39452380Y-167301904D01*
X39452380Y-167635238D01*
X39500000Y-167730476D01*
X39547619Y-167778095D01*
X39642857Y-167825714D01*
X39738095Y-167825714D01*
X39833333Y-167778095D01*
X39880952Y-167730476D01*
X39928571Y-167635238D01*
X39928571Y-167301904D01*
X40452380Y-168825714D02*
X40452380Y-168254285D01*
X40452380Y-168540000D02*
X39452380Y-168540000D01*
X39595238Y-168444761D01*
X39690476Y-168349523D01*
X39738095Y-168254285D01*
X37666666Y-167325714D02*
X37666666Y-167801904D01*
X37952380Y-167230476D02*
X36952380Y-167563809D01*
X37952380Y-167897142D01*
X37952380Y-168754285D02*
X37952380Y-168182857D01*
X37952380Y-168468571D02*
X36952380Y-168468571D01*
X37095238Y-168373333D01*
X37190476Y-168278095D01*
X37238095Y-168182857D01*
X164428571Y-104182857D02*
X164476190Y-104325714D01*
X164523809Y-104373333D01*
X164619047Y-104420952D01*
X164761904Y-104420952D01*
X164857142Y-104373333D01*
X164904761Y-104325714D01*
X164952380Y-104230476D01*
X164952380Y-103849523D01*
X163952380Y-103849523D01*
X163952380Y-104182857D01*
X164000000Y-104278095D01*
X164047619Y-104325714D01*
X164142857Y-104373333D01*
X164238095Y-104373333D01*
X164333333Y-104325714D01*
X164380952Y-104278095D01*
X164428571Y-104182857D01*
X164428571Y-103849523D01*
X164666666Y-104801904D02*
X164666666Y-105278095D01*
X164952380Y-104706666D02*
X163952380Y-105040000D01*
X164952380Y-105373333D01*
X164857142Y-106278095D02*
X164904761Y-106230476D01*
X164952380Y-106087619D01*
X164952380Y-105992380D01*
X164904761Y-105849523D01*
X164809523Y-105754285D01*
X164714285Y-105706666D01*
X164523809Y-105659047D01*
X164380952Y-105659047D01*
X164190476Y-105706666D01*
X164095238Y-105754285D01*
X164000000Y-105849523D01*
X163952380Y-105992380D01*
X163952380Y-106087619D01*
X164000000Y-106230476D01*
X164047619Y-106278095D01*
X164952380Y-106706666D02*
X163952380Y-106706666D01*
X164952380Y-107278095D02*
X164380952Y-106849523D01*
X163952380Y-107278095D02*
X164523809Y-106706666D01*
M02*
